<?xml version="1.0" encoding="utf-8" standalone="no"?>
<!DOCTYPE svg PUBLIC "-//W3C//DTD SVG 1.1//EN"
  "http://www.w3.org/Graphics/SVG/1.1/DTD/svg11.dtd">
<svg xmlns:xlink="http://www.w3.org/1999/xlink" width="432pt" height="288pt" viewBox="0 0 432 288" xmlns="http://www.w3.org/2000/svg" version="1.1">
 <metadata>
  <rdf:RDF xmlns:dc="http://purl.org/dc/elements/1.1/" xmlns:cc="http://creativecommons.org/ns#" xmlns:rdf="http://www.w3.org/1999/02/22-rdf-syntax-ns#">
   <cc:Work>
    <dc:type rdf:resource="http://purl.org/dc/dcmitype/StillImage"/>
    <dc:date>2023-04-20T14:05:26.089190</dc:date>
    <dc:format>image/svg+xml</dc:format>
    <dc:creator>
     <cc:Agent>
      <dc:title>Matplotlib v3.7.1, https://matplotlib.org/</dc:title>
     </cc:Agent>
    </dc:creator>
   </cc:Work>
  </rdf:RDF>
 </metadata>
 <defs>
  <style type="text/css">*{stroke-linejoin: round; stroke-linecap: butt}</style>
 </defs>
 <g id="figure_1">
  <g id="patch_1">
   <path d="M 0 288 
L 432 288 
L 432 0 
L 0 0 
z
" style="fill: #ffffff"/>
  </g>
  <g id="axes_1">
   <g id="patch_2">
    <path d="M 54 252 
L 388.8 252 
L 388.8 34.56 
L 54 34.56 
z
" style="fill: #ffffff"/>
   </g>
   <g id="matplotlib.axis_1">
    <g id="xtick_1">
     <g id="line2d_1">
      <defs>
       <path id="m6b2962e09d" d="M 0 0 
L 0 3.5 
" style="stroke: #000000; stroke-width: 0.8"/>
      </defs>
      <g>
       <use xlink:href="#m6b2962e09d" x="69.218182" y="252" style="stroke: #000000; stroke-width: 0.8"/>
      </g>
     </g>
     <g id="text_1">
      <!-- $\mathdefault{0.0}$ -->
      <g transform="translate(61.739361 267.30218) scale(0.12 -0.12)">
       <defs>
        <path id="CMR17-30" d="M 2688 2038 
C 2688 2430 2682 3099 2413 3613 
C 2176 4063 1798 4224 1466 4224 
C 1158 4224 768 4082 525 3620 
C 269 3137 243 2539 243 2038 
C 243 1671 250 1112 448 623 
C 723 -39 1216 -128 1466 -128 
C 1760 -128 2208 -7 2470 604 
C 2662 1048 2688 1568 2688 2038 
z
M 1466 -26 
C 1056 -26 813 328 723 816 
C 653 1196 653 1749 653 2109 
C 653 2604 653 3015 736 3407 
C 858 3954 1216 4121 1466 4121 
C 1728 4121 2067 3947 2189 3420 
C 2272 3054 2278 2623 2278 2109 
C 2278 1691 2278 1176 2202 797 
C 2067 96 1690 -26 1466 -26 
z
" transform="scale(0.015625)"/>
        <path id="CMMI12-3a" d="M 1178 307 
C 1178 492 1024 620 870 620 
C 685 620 557 467 557 313 
C 557 128 710 0 864 0 
C 1050 0 1178 153 1178 307 
z
" transform="scale(0.015625)"/>
       </defs>
       <use xlink:href="#CMR17-30" transform="scale(0.996264)"/>
       <use xlink:href="#CMMI12-3a" transform="translate(45.690477 0) scale(0.996264)"/>
       <use xlink:href="#CMR17-30" transform="translate(72.787654 0) scale(0.996264)"/>
      </g>
     </g>
    </g>
    <g id="xtick_2">
     <g id="line2d_2">
      <g>
       <use xlink:href="#m6b2962e09d" x="107.263636" y="252" style="stroke: #000000; stroke-width: 0.8"/>
      </g>
     </g>
     <g id="text_2">
      <!-- $\mathdefault{0.5}$ -->
      <g transform="translate(99.784815 267.30218) scale(0.12 -0.12)">
       <defs>
        <path id="CMR17-35" d="M 730 3750 
C 794 3724 1056 3641 1325 3641 
C 1920 3641 2246 3961 2432 4140 
C 2432 4191 2432 4224 2394 4224 
C 2387 4224 2374 4224 2323 4198 
C 2099 4102 1837 4032 1517 4032 
C 1325 4032 1037 4055 723 4191 
C 653 4224 640 4224 634 4224 
C 602 4224 595 4217 595 4090 
L 595 2231 
C 595 2113 595 2080 659 2080 
C 691 2080 704 2093 736 2139 
C 941 2435 1222 2560 1542 2560 
C 1766 2560 2246 2415 2246 1293 
C 2246 1087 2246 716 2054 422 
C 1894 159 1645 25 1370 25 
C 947 25 518 319 403 812 
C 429 806 480 793 506 793 
C 589 793 749 838 749 1036 
C 749 1209 627 1280 506 1280 
C 358 1280 262 1190 262 1011 
C 262 454 704 -128 1382 -128 
C 2042 -128 2669 441 2669 1267 
C 2669 2054 2170 2662 1549 2662 
C 1222 2662 947 2540 730 2304 
L 730 3750 
z
" transform="scale(0.015625)"/>
       </defs>
       <use xlink:href="#CMR17-30" transform="scale(0.996264)"/>
       <use xlink:href="#CMMI12-3a" transform="translate(45.690477 0) scale(0.996264)"/>
       <use xlink:href="#CMR17-35" transform="translate(72.787654 0) scale(0.996264)"/>
      </g>
     </g>
    </g>
    <g id="xtick_3">
     <g id="line2d_3">
      <g>
       <use xlink:href="#m6b2962e09d" x="145.309091" y="252" style="stroke: #000000; stroke-width: 0.8"/>
      </g>
     </g>
     <g id="text_3">
      <!-- $\mathdefault{1.0}$ -->
      <g transform="translate(137.83027 267.30218) scale(0.12 -0.12)">
       <defs>
        <path id="CMR17-31" d="M 1702 4083 
C 1702 4217 1696 4224 1606 4224 
C 1357 3927 979 3833 621 3820 
C 602 3820 570 3820 563 3808 
C 557 3795 557 3782 557 3648 
C 755 3648 1088 3686 1344 3839 
L 1344 467 
C 1344 243 1331 166 781 166 
L 589 166 
L 589 0 
C 896 6 1216 12 1523 12 
C 1830 12 2150 6 2458 0 
L 2458 166 
L 2266 166 
C 1715 166 1702 236 1702 467 
L 1702 4083 
z
" transform="scale(0.015625)"/>
       </defs>
       <use xlink:href="#CMR17-31" transform="scale(0.996264)"/>
       <use xlink:href="#CMMI12-3a" transform="translate(45.690477 0) scale(0.996264)"/>
       <use xlink:href="#CMR17-30" transform="translate(72.787654 0) scale(0.996264)"/>
      </g>
     </g>
    </g>
    <g id="xtick_4">
     <g id="line2d_4">
      <g>
       <use xlink:href="#m6b2962e09d" x="183.354545" y="252" style="stroke: #000000; stroke-width: 0.8"/>
      </g>
     </g>
     <g id="text_4">
      <!-- $\mathdefault{1.5}$ -->
      <g transform="translate(175.875725 267.30218) scale(0.12 -0.12)">
       <use xlink:href="#CMR17-31" transform="scale(0.996264)"/>
       <use xlink:href="#CMMI12-3a" transform="translate(45.690477 0) scale(0.996264)"/>
       <use xlink:href="#CMR17-35" transform="translate(72.787654 0) scale(0.996264)"/>
      </g>
     </g>
    </g>
    <g id="xtick_5">
     <g id="line2d_5">
      <g>
       <use xlink:href="#m6b2962e09d" x="221.4" y="252" style="stroke: #000000; stroke-width: 0.8"/>
      </g>
     </g>
     <g id="text_5">
      <!-- $\mathdefault{2.0}$ -->
      <g transform="translate(213.921179 267.30218) scale(0.12 -0.12)">
       <defs>
        <path id="CMR17-32" d="M 2669 990 
L 2554 990 
C 2490 537 2438 460 2413 422 
C 2381 371 1920 371 1830 371 
L 602 371 
C 832 620 1280 1073 1824 1596 
C 2214 1966 2669 2400 2669 3033 
C 2669 3788 2067 4224 1395 4224 
C 691 4224 262 3603 262 3027 
C 262 2777 448 2745 525 2745 
C 589 2745 781 2783 781 3007 
C 781 3206 614 3264 525 3264 
C 486 3264 448 3257 422 3244 
C 544 3788 915 4057 1306 4057 
C 1862 4057 2227 3616 2227 3033 
C 2227 2477 1901 1998 1536 1583 
L 262 147 
L 262 0 
L 2515 0 
L 2669 990 
z
" transform="scale(0.015625)"/>
       </defs>
       <use xlink:href="#CMR17-32" transform="scale(0.996264)"/>
       <use xlink:href="#CMMI12-3a" transform="translate(45.690477 0) scale(0.996264)"/>
       <use xlink:href="#CMR17-30" transform="translate(72.787654 0) scale(0.996264)"/>
      </g>
     </g>
    </g>
    <g id="xtick_6">
     <g id="line2d_6">
      <g>
       <use xlink:href="#m6b2962e09d" x="259.445455" y="252" style="stroke: #000000; stroke-width: 0.8"/>
      </g>
     </g>
     <g id="text_6">
      <!-- $\mathdefault{2.5}$ -->
      <g transform="translate(251.966634 267.30218) scale(0.12 -0.12)">
       <use xlink:href="#CMR17-32" transform="scale(0.996264)"/>
       <use xlink:href="#CMMI12-3a" transform="translate(45.690477 0) scale(0.996264)"/>
       <use xlink:href="#CMR17-35" transform="translate(72.787654 0) scale(0.996264)"/>
      </g>
     </g>
    </g>
    <g id="xtick_7">
     <g id="line2d_7">
      <g>
       <use xlink:href="#m6b2962e09d" x="297.490909" y="252" style="stroke: #000000; stroke-width: 0.8"/>
      </g>
     </g>
     <g id="text_7">
      <!-- $\mathdefault{3.0}$ -->
      <g transform="translate(290.012088 267.30218) scale(0.12 -0.12)">
       <defs>
        <path id="CMR17-33" d="M 1414 2176 
C 1984 2176 2234 1673 2234 1094 
C 2234 322 1824 25 1453 25 
C 1114 25 563 193 390 691 
C 422 678 454 678 486 678 
C 640 678 755 780 755 947 
C 755 1132 614 1216 486 1216 
C 378 1216 211 1164 211 927 
C 211 335 787 -128 1466 -128 
C 2176 -128 2720 432 2720 1087 
C 2720 1718 2208 2176 1600 2246 
C 2086 2347 2554 2776 2554 3353 
C 2554 3856 2048 4224 1472 4224 
C 890 4224 378 3862 378 3347 
C 378 3123 544 3084 627 3084 
C 762 3084 877 3167 877 3334 
C 877 3500 762 3584 627 3584 
C 602 3584 570 3584 544 3571 
C 730 3999 1235 4076 1459 4076 
C 1683 4076 2106 3966 2106 3347 
C 2106 3167 2080 2851 1862 2574 
C 1670 2329 1453 2316 1242 2297 
C 1210 2297 1062 2284 1037 2284 
C 992 2278 966 2272 966 2227 
C 966 2182 973 2176 1101 2176 
L 1414 2176 
z
" transform="scale(0.015625)"/>
       </defs>
       <use xlink:href="#CMR17-33" transform="scale(0.996264)"/>
       <use xlink:href="#CMMI12-3a" transform="translate(45.690477 0) scale(0.996264)"/>
       <use xlink:href="#CMR17-30" transform="translate(72.787654 0) scale(0.996264)"/>
      </g>
     </g>
    </g>
    <g id="xtick_8">
     <g id="line2d_8">
      <g>
       <use xlink:href="#m6b2962e09d" x="335.536364" y="252" style="stroke: #000000; stroke-width: 0.8"/>
      </g>
     </g>
     <g id="text_8">
      <!-- $\mathdefault{3.5}$ -->
      <g transform="translate(328.057543 267.30218) scale(0.12 -0.12)">
       <use xlink:href="#CMR17-33" transform="scale(0.996264)"/>
       <use xlink:href="#CMMI12-3a" transform="translate(45.690477 0) scale(0.996264)"/>
       <use xlink:href="#CMR17-35" transform="translate(72.787654 0) scale(0.996264)"/>
      </g>
     </g>
    </g>
    <g id="xtick_9">
     <g id="line2d_9">
      <g>
       <use xlink:href="#m6b2962e09d" x="373.581818" y="252" style="stroke: #000000; stroke-width: 0.8"/>
      </g>
     </g>
     <g id="text_9">
      <!-- $\mathdefault{4.0}$ -->
      <g transform="translate(366.102997 267.30218) scale(0.12 -0.12)">
       <defs>
        <path id="CMR17-34" d="M 2150 4147 
C 2150 4281 2144 4288 2029 4288 
L 128 1254 
L 128 1088 
L 1779 1088 
L 1779 460 
C 1779 230 1766 166 1318 166 
L 1197 166 
L 1197 0 
C 1402 12 1747 12 1965 12 
C 2182 12 2528 12 2733 0 
L 2733 166 
L 2611 166 
C 2163 166 2150 230 2150 460 
L 2150 1088 
L 2803 1088 
L 2803 1254 
L 2150 1254 
L 2150 4147 
z
M 1798 3723 
L 1798 1254 
L 256 1254 
L 1798 3723 
z
" transform="scale(0.015625)"/>
       </defs>
       <use xlink:href="#CMR17-34" transform="scale(0.996264)"/>
       <use xlink:href="#CMMI12-3a" transform="translate(45.690477 0) scale(0.996264)"/>
       <use xlink:href="#CMR17-30" transform="translate(72.787654 0) scale(0.996264)"/>
      </g>
     </g>
    </g>
    <g id="text_10">
     <!-- $x$ -->
     <g transform="translate(218.073956 281.928955) scale(0.12 -0.12)">
      <defs>
       <path id="CMMI12-78" d="M 3034 2624 
C 2829 2585 2752 2431 2752 2310 
C 2752 2156 2874 2105 2963 2105 
C 3155 2105 3290 2271 3290 2444 
C 3290 2694 2982 2816 2714 2816 
C 2323 2816 2106 2451 2048 2329 
C 1901 2790 1504 2816 1389 2816 
C 736 2816 390 1993 390 1849 
C 390 1823 416 1790 461 1790 
C 512 1790 525 1829 538 1855 
C 755 2572 1184 2687 1370 2687 
C 1658 2687 1715 2438 1715 2284 
C 1715 2143 1677 1993 1600 1678 
L 1382 778 
C 1286 390 1101 64 762 64 
C 730 64 570 64 435 126 
C 666 166 717 358 717 435 
C 717 563 621 640 499 640 
C 346 640 179 505 179 300 
C 179 57 480 -64 755 -64 
C 1062 -64 1280 153 1414 415 
C 1517 64 1837 -64 2074 -64 
C 2726 -64 3072 751 3072 896 
C 3072 929 3046 955 3008 955 
C 2950 955 2944 922 2925 870 
C 2752 300 2381 64 2093 64 
C 1869 64 1747 204 1747 467 
C 1747 607 1773 712 1875 1146 
L 2099 2039 
C 2195 2425 2413 2687 2707 2687 
C 2720 2687 2899 2687 3034 2624 
z
" transform="scale(0.015625)"/>
      </defs>
      <use xlink:href="#CMMI12-78" transform="scale(0.996264)"/>
     </g>
    </g>
   </g>
   <g id="matplotlib.axis_2">
    <g id="ytick_1">
     <g id="line2d_10">
      <defs>
       <path id="m9564a47dc6" d="M 0 0 
L -3.5 0 
" style="stroke: #000000; stroke-width: 0.8"/>
      </defs>
      <g>
       <use xlink:href="#m9564a47dc6" x="54" y="224.179293" style="stroke: #000000; stroke-width: 0.8"/>
      </g>
     </g>
     <g id="text_11">
      <!-- $\mathdefault{0.5}$ -->
      <g transform="translate(32.042358 228.330383) scale(0.12 -0.12)">
       <use xlink:href="#CMR17-30" transform="scale(0.996264)"/>
       <use xlink:href="#CMMI12-3a" transform="translate(45.690477 0) scale(0.996264)"/>
       <use xlink:href="#CMR17-35" transform="translate(72.787654 0) scale(0.996264)"/>
      </g>
     </g>
    </g>
    <g id="ytick_2">
     <g id="line2d_11">
      <g>
       <use xlink:href="#m9564a47dc6" x="54" y="187.547709" style="stroke: #000000; stroke-width: 0.8"/>
      </g>
     </g>
     <g id="text_12">
      <!-- $\mathdefault{1.0}$ -->
      <g transform="translate(32.042358 191.698799) scale(0.12 -0.12)">
       <use xlink:href="#CMR17-31" transform="scale(0.996264)"/>
       <use xlink:href="#CMMI12-3a" transform="translate(45.690477 0) scale(0.996264)"/>
       <use xlink:href="#CMR17-30" transform="translate(72.787654 0) scale(0.996264)"/>
      </g>
     </g>
    </g>
    <g id="ytick_3">
     <g id="line2d_12">
      <g>
       <use xlink:href="#m9564a47dc6" x="54" y="150.916125" style="stroke: #000000; stroke-width: 0.8"/>
      </g>
     </g>
     <g id="text_13">
      <!-- $\mathdefault{1.5}$ -->
      <g transform="translate(32.042358 155.067215) scale(0.12 -0.12)">
       <use xlink:href="#CMR17-31" transform="scale(0.996264)"/>
       <use xlink:href="#CMMI12-3a" transform="translate(45.690477 0) scale(0.996264)"/>
       <use xlink:href="#CMR17-35" transform="translate(72.787654 0) scale(0.996264)"/>
      </g>
     </g>
    </g>
    <g id="ytick_4">
     <g id="line2d_13">
      <g>
       <use xlink:href="#m9564a47dc6" x="54" y="114.284541" style="stroke: #000000; stroke-width: 0.8"/>
      </g>
     </g>
     <g id="text_14">
      <!-- $\mathdefault{2.0}$ -->
      <g transform="translate(32.042358 118.435631) scale(0.12 -0.12)">
       <use xlink:href="#CMR17-32" transform="scale(0.996264)"/>
       <use xlink:href="#CMMI12-3a" transform="translate(45.690477 0) scale(0.996264)"/>
       <use xlink:href="#CMR17-30" transform="translate(72.787654 0) scale(0.996264)"/>
      </g>
     </g>
    </g>
    <g id="ytick_5">
     <g id="line2d_14">
      <g>
       <use xlink:href="#m9564a47dc6" x="54" y="77.652957" style="stroke: #000000; stroke-width: 0.8"/>
      </g>
     </g>
     <g id="text_15">
      <!-- $\mathdefault{2.5}$ -->
      <g transform="translate(32.042358 81.804047) scale(0.12 -0.12)">
       <use xlink:href="#CMR17-32" transform="scale(0.996264)"/>
       <use xlink:href="#CMMI12-3a" transform="translate(45.690477 0) scale(0.996264)"/>
       <use xlink:href="#CMR17-35" transform="translate(72.787654 0) scale(0.996264)"/>
      </g>
     </g>
    </g>
    <g id="ytick_6">
     <g id="line2d_15">
      <g>
       <use xlink:href="#m9564a47dc6" x="54" y="41.021373" style="stroke: #000000; stroke-width: 0.8"/>
      </g>
     </g>
     <g id="text_16">
      <!-- $\mathdefault{3.0}$ -->
      <g transform="translate(32.042358 45.172463) scale(0.12 -0.12)">
       <use xlink:href="#CMR17-33" transform="scale(0.996264)"/>
       <use xlink:href="#CMMI12-3a" transform="translate(45.690477 0) scale(0.996264)"/>
       <use xlink:href="#CMR17-30" transform="translate(72.787654 0) scale(0.996264)"/>
      </g>
     </g>
    </g>
   </g>
   <g id="line2d_16">
    <path d="M 69.218182 187.547709 
L 72.292562 188.480005 
L 75.366942 189.413457 
L 78.441323 190.348176 
L 81.515702 191.284266 
L 84.590082 192.221845 
L 87.664463 193.16104 
L 90.738842 194.101969 
L 93.813223 195.044771 
L 96.887604 195.989581 
L 99.961983 196.936527 
L 103.036364 197.885753 
L 106.110745 198.837393 
L 109.185124 199.791558 
L 112.259502 200.748368 
L 115.333886 201.707917 
L 118.408264 202.670278 
L 121.482643 203.635477 
L 124.557026 204.603532 
L 127.631405 205.574382 
L 130.705784 206.547922 
L 133.780167 207.523978 
L 136.854546 208.502286 
L 139.928925 209.482494 
L 143.003308 210.464148 
L 146.077691 211.446662 
L 149.152065 212.429328 
L 152.226449 213.411323 
L 155.300832 214.391657 
L 158.375206 215.369215 
L 161.44959 216.342746 
L 164.523973 217.310854 
L 167.598347 218.272027 
L 170.67273 219.224689 
L 173.747105 220.167142 
L 176.821488 221.097664 
L 179.895871 222.014527 
L 182.970245 222.915988 
L 186.044629 223.800393 
L 189.119003 224.666137 
L 192.193386 225.511743 
L 195.267769 226.335859 
L 198.342144 227.137293 
L 201.416527 227.915025 
L 204.49091 228.668197 
L 207.565284 229.396134 
L 210.639668 230.098346 
L 213.714051 230.774496 
L 216.788434 231.424384 
L 219.862817 232.047985 
L 222.937201 232.645371 
L 226.011566 233.21673 
L 229.085949 233.762365 
L 232.160332 234.282629 
L 235.234716 234.777975 
L 238.309099 235.248889 
L 241.383464 235.695939 
L 244.457847 236.119704 
L 247.532231 236.520832 
L 250.606596 236.89999 
L 253.680979 237.257886 
L 256.755362 237.595232 
L 259.829746 237.912792 
L 262.904129 238.211348 
L 265.978512 238.491667 
L 269.052895 238.754585 
L 272.127279 239.0009 
L 275.201662 239.231442 
L 278.276027 239.447037 
L 281.35041 239.648509 
L 284.424794 239.836676 
L 287.499177 240.012344 
L 290.57356 240.176301 
L 293.647944 240.329302 
L 296.722327 240.472084 
L 299.796692 240.605355 
L 302.871075 240.729766 
L 305.945459 240.845963 
L 309.019842 240.954509 
L 312.094225 241.05595 
L 315.16859 241.15078 
L 318.242974 241.239448 
L 321.317357 241.322361 
L 324.391722 241.399894 
L 327.466105 241.472366 
L 330.540489 241.540078 
L 333.614872 241.603301 
L 336.689255 241.662284 
L 339.763638 241.717245 
L 342.838022 241.768402 
L 345.912405 241.815961 
L 348.986788 241.860123 
L 352.061153 241.901084 
L 355.135537 241.939049 
L 358.20992 241.974232 
L 361.284303 242.006844 
L 364.358686 242.037123 
L 367.433052 242.065298 
L 370.507435 242.091621 
L 373.581818 242.116364 
" clip-path="url(#p0aeef892ac)" style="fill: none; stroke: #1f77b4; stroke-width: 1.5; stroke-linecap: square"/>
   </g>
   <g id="line2d_17">
    <path d="M 69.218182 187.547709 
L 72.292562 186.868572 
L 75.366942 186.191583 
L 78.441323 185.516917 
L 81.515702 184.844802 
L 84.590082 184.175455 
L 87.664463 183.509112 
L 90.738842 182.846027 
L 93.813223 182.186471 
L 96.887604 181.530739 
L 99.961983 180.879139 
L 103.036364 180.232002 
L 106.110745 179.589668 
L 109.185124 178.952514 
L 112.259502 178.320905 
L 115.333886 177.695261 
L 118.408264 177.075993 
L 121.482643 176.463537 
L 124.557026 175.858338 
L 127.631405 175.260861 
L 130.705784 174.671575 
L 133.780167 174.090953 
L 136.854546 173.519476 
L 139.928925 172.95764 
L 143.003308 172.405909 
L 146.077691 171.864763 
L 149.152065 171.334657 
L 152.226449 170.816053 
L 155.300832 170.309361 
L 158.375206 169.815002 
L 161.44959 169.333332 
L 164.523973 168.864702 
L 167.598347 168.409408 
L 170.67273 167.967739 
L 173.747105 167.539886 
L 176.821488 167.126042 
L 179.895871 166.726346 
L 182.970245 166.340869 
L 186.044629 165.969654 
L 189.119003 165.612675 
L 192.193386 165.269897 
L 195.267769 164.941206 
L 198.342144 164.62648 
L 201.416527 164.325553 
L 204.49091 164.038216 
L 207.565284 163.76425 
L 210.639668 163.503429 
L 213.714051 163.255489 
L 216.788434 163.020152 
L 219.862817 162.797147 
L 222.937201 162.586195 
L 226.011566 162.386997 
L 229.085949 162.19925 
L 232.160332 162.022664 
L 235.234716 161.856926 
L 238.309099 161.701712 
L 241.383464 161.556698 
L 244.457847 161.421554 
L 247.532231 161.29592 
L 250.606596 161.179439 
L 253.680979 161.071736 
L 256.755362 160.972417 
L 259.829746 160.88108 
L 262.904129 160.797298 
L 265.978512 160.720661 
L 269.052895 160.650704 
L 272.127279 160.586983 
L 275.201662 160.529053 
L 278.276027 160.47645 
L 281.35041 160.428712 
L 284.424794 160.385402 
L 287.499177 160.346066 
L 290.57356 160.310275 
L 293.647944 160.27762 
L 296.722327 160.247707 
L 299.796692 160.22017 
L 302.871075 160.194677 
L 305.945459 160.170895 
L 309.019842 160.148572 
L 312.094225 160.127462 
L 315.16859 160.10734 
L 318.242974 160.088039 
L 321.317357 160.069419 
L 324.391722 160.051366 
L 327.466105 160.033803 
L 330.540489 160.016676 
L 333.614872 159.99996 
L 336.689255 159.983654 
L 339.763638 159.967759 
L 342.838022 159.952292 
L 345.912405 159.937287 
L 348.986788 159.922781 
L 352.061153 159.908798 
L 355.135537 159.895383 
L 358.20992 159.882562 
L 361.284303 159.870344 
L 364.358686 159.858737 
L 367.433052 159.847732 
L 370.507435 159.837313 
L 373.581818 159.827453 
" clip-path="url(#p0aeef892ac)" style="fill: none; stroke: #ff7f0e; stroke-width: 1.5; stroke-linecap: square"/>
   </g>
   <g id="line2d_18">
    <path d="M 69.218182 187.547709 
L 72.292562 186.566361 
L 75.366942 185.587354 
L 78.441323 184.610897 
L 81.515702 183.637226 
L 84.590082 182.666603 
L 87.664463 181.699281 
L 90.738842 180.735584 
L 93.813223 179.775809 
L 96.887604 178.820304 
L 99.961983 177.869445 
L 103.036364 176.923617 
L 106.110745 175.983256 
L 109.185124 175.048808 
L 112.259502 174.120753 
L 115.333886 173.199597 
L 118.408264 172.2859 
L 121.482643 171.380229 
L 124.557026 170.483187 
L 127.631405 169.595412 
L 130.705784 168.717575 
L 133.780167 167.850359 
L 136.854546 166.994504 
L 139.928925 166.150738 
L 143.003308 165.319818 
L 146.077691 164.502541 
L 149.152065 163.699683 
L 152.226449 162.912047 
L 155.300832 162.140412 
L 158.375206 161.385571 
L 161.44959 160.648267 
L 164.523973 159.929235 
L 167.598347 159.22918 
L 170.67273 158.548724 
L 173.747105 157.888451 
L 176.821488 157.248877 
L 179.895871 156.630448 
L 182.970245 156.033485 
L 186.044629 155.45827 
L 189.119003 154.904958 
L 192.193386 154.37362 
L 195.267769 153.86423 
L 198.342144 153.376683 
L 201.416527 152.910786 
L 204.49091 152.466261 
L 207.565284 152.042783 
L 210.639668 151.639953 
L 213.714051 151.257331 
L 216.788434 150.894466 
L 219.862817 150.550831 
L 222.937201 150.225931 
L 226.011566 149.919223 
L 229.085949 149.630148 
L 232.160332 149.358182 
L 235.234716 149.102757 
L 238.309099 148.863307 
L 241.383464 148.639297 
L 244.457847 148.430127 
L 247.532231 148.235253 
L 250.606596 148.054082 
L 253.680979 147.88602 
L 256.755362 147.730474 
L 259.829746 147.586823 
L 262.904129 147.454456 
L 265.978512 147.332726 
L 269.052895 147.220988 
L 272.127279 147.118612 
L 275.201662 147.024917 
L 278.276027 146.939275 
L 281.35041 146.861013 
L 284.424794 146.789493 
L 287.499177 146.724095 
L 290.57356 146.6642 
L 293.647944 146.609222 
L 296.722327 146.558593 
L 299.796692 146.511798 
L 302.871075 146.468339 
L 305.945459 146.427763 
L 309.019842 146.389684 
L 312.094225 146.353754 
L 315.16859 146.319657 
L 318.242974 146.287151 
L 321.317357 146.256024 
L 324.391722 146.226138 
L 327.466105 146.197369 
L 330.540489 146.169674 
L 333.614872 146.142993 
L 336.689255 146.117369 
L 339.763638 146.09281 
L 342.838022 146.069377 
L 345.912405 146.047133 
L 348.986788 146.026154 
L 352.061153 146.006512 
L 355.135537 145.988285 
L 358.20992 145.971552 
L 361.284303 145.956338 
L 364.358686 145.942696 
L 367.433052 145.930643 
L 370.507435 145.920163 
L 373.581818 145.91122 
" clip-path="url(#p0aeef892ac)" style="fill: none; stroke: #2ca02c; stroke-width: 1.5; stroke-linecap: square"/>
   </g>
   <g id="line2d_19">
    <path d="M 69.218182 184.125463 
L 72.292562 183.864109 
L 75.366942 183.583357 
L 78.441323 183.281845 
L 81.515702 182.958141 
L 84.590082 182.610725 
L 87.664463 182.23799 
L 90.738842 181.838251 
L 93.813223 181.409726 
L 96.887604 180.950546 
L 99.961983 180.458754 
L 103.036364 179.932289 
L 106.110745 179.369021 
L 109.185124 178.766723 
L 112.259502 178.123096 
L 115.333886 177.435749 
L 118.408264 176.702254 
L 121.482643 175.920077 
L 124.557026 175.086668 
L 127.631405 174.199434 
L 130.705784 173.255772 
L 133.780167 172.253053 
L 136.854546 171.188692 
L 139.928925 170.06012 
L 143.003308 168.864877 
L 146.077691 167.600559 
L 149.152065 166.264939 
L 152.226449 164.855904 
L 155.300832 163.371603 
L 158.375206 161.810393 
L 161.44959 160.170912 
L 164.523973 158.452156 
L 167.598347 156.653487 
L 170.67273 154.774634 
L 173.747105 152.815851 
L 176.821488 150.777837 
L 179.895871 148.66183 
L 182.970245 146.46964 
L 186.044629 144.203616 
L 189.119003 141.866745 
L 192.193386 139.462589 
L 195.267769 136.995342 
L 198.342144 134.469753 
L 201.416527 131.891161 
L 204.49091 129.265424 
L 207.565284 126.598909 
L 210.639668 123.898386 
L 213.714051 121.171007 
L 216.788434 118.424239 
L 219.862817 115.665742 
L 222.937201 112.903332 
L 226.011566 110.144861 
L 229.085949 107.398075 
L 232.160332 104.670714 
L 235.234716 101.970164 
L 238.309099 99.303641 
L 241.383464 96.677921 
L 244.457847 94.099329 
L 247.532231 91.573749 
L 250.606596 89.10651 
L 253.680979 86.702346 
L 256.755362 84.365466 
L 259.829746 82.099433 
L 262.904129 79.907252 
L 265.978512 77.791246 
L 269.052895 75.753213 
L 272.127279 73.79443 
L 275.201662 71.915595 
L 278.276027 70.116935 
L 281.35041 68.39817 
L 284.424794 66.758689 
L 287.499177 65.197479 
L 290.57356 63.71316 
L 293.647944 62.304143 
L 296.722327 60.968506 
L 299.796692 59.704205 
L 302.871075 58.50897 
L 305.945459 57.380391 
L 309.019842 56.316021 
L 312.094225 55.313293 
L 315.16859 54.369639 
L 318.242974 53.482423 
L 321.317357 52.649006 
L 324.391722 51.866837 
L 327.466105 51.133333 
L 330.540489 50.445995 
L 333.614872 49.80236 
L 336.689255 49.200052 
L 339.763638 48.636802 
L 342.838022 48.11032 
L 345.912405 47.618528 
L 348.986788 47.159347 
L 352.061153 46.730822 
L 355.135537 46.331083 
L 358.20992 45.958366 
L 361.284303 45.610941 
L 364.358686 45.287237 
L 367.433052 44.985717 
L 370.507435 44.704982 
L 373.581818 44.443636 
" clip-path="url(#p0aeef892ac)" style="fill: none; stroke: #d62728; stroke-width: 1.5; stroke-linecap: square"/>
   </g>
   <g id="line2d_20">
    <path d="M 69.218182 184.125463 
L 72.292562 184.13907 
L 75.366942 184.156957 
L 78.441323 184.178477 
L 81.515702 184.203027 
L 84.590082 184.229988 
L 87.664463 184.258713 
L 90.738842 184.288599 
L 93.813223 184.319071 
L 96.887604 184.349551 
L 99.961983 184.379499 
L 103.036364 184.408399 
L 106.110745 184.435805 
L 109.185124 184.46129 
L 112.259502 184.484512 
L 115.333886 184.505176 
L 118.408264 184.52308 
L 121.482643 184.53805 
L 124.557026 184.550041 
L 127.631405 184.55908 
L 130.705784 184.565264 
L 133.780167 184.568775 
L 136.854546 184.569866 
L 139.928925 184.568888 
L 143.003308 184.566224 
L 146.077691 184.562286 
L 149.152065 184.557534 
L 152.226449 184.552443 
L 155.300832 184.547447 
L 158.375206 184.542967 
L 161.44959 184.539342 
L 164.523973 184.536862 
L 167.598347 184.535683 
L 170.67273 184.535936 
L 173.747105 184.537569 
L 176.821488 184.540478 
L 179.895871 184.544469 
L 182.970245 184.549246 
L 186.044629 184.554504 
L 189.119003 184.559884 
L 192.193386 184.565063 
L 195.267769 184.569718 
L 198.342144 184.573613 
L 201.416527 184.576591 
L 204.49091 184.578548 
L 207.565284 184.579491 
L 210.639668 184.579569 
L 213.714051 184.578941 
L 216.788434 184.577831 
L 219.862817 184.576548 
L 222.937201 184.575395 
L 226.011566 184.574661 
L 229.085949 184.574591 
L 232.160332 184.57543 
L 235.234716 184.577325 
L 238.309099 184.580329 
L 241.383464 184.584495 
L 244.457847 184.589683 
L 247.532231 184.595788 
L 250.606596 184.602618 
L 253.680979 184.609936 
L 256.755362 184.617439 
L 259.829746 184.62488 
L 262.904129 184.632059 
L 265.978512 184.638635 
L 269.052895 184.644504 
L 272.127279 184.649482 
L 275.201662 184.6535 
L 278.276027 184.656513 
L 281.35041 184.658548 
L 284.424794 184.659718 
L 287.499177 184.660181 
L 290.57356 184.660085 
L 293.647944 184.65964 
L 296.722327 184.659046 
L 299.796692 184.658574 
L 302.871075 184.658364 
L 305.945459 184.658644 
L 309.019842 184.659509 
L 312.094225 184.661089 
L 315.16859 184.663412 
L 318.242974 184.666469 
L 321.317357 184.67019 
L 324.391722 184.674504 
L 327.466105 184.679212 
L 330.540489 184.684155 
L 333.614872 184.689133 
L 336.689255 184.693963 
L 339.763638 184.698417 
L 342.838022 184.702321 
L 345.912405 184.705544 
L 348.986788 184.708006 
L 352.061153 184.70964 
L 355.135537 184.710496 
L 358.20992 184.710705 
L 361.284303 184.7104 
L 364.358686 184.70991 
L 367.433052 184.709517 
L 370.507435 184.709675 
L 373.581818 184.710924 
" clip-path="url(#p0aeef892ac)" style="fill: none; stroke: #9467bd; stroke-width: 1.5; stroke-linecap: square"/>
   </g>
   <g id="patch_3">
    <path d="M 54 252 
L 54 34.56 
" style="fill: none; stroke: #000000; stroke-width: 0.8; stroke-linejoin: miter; stroke-linecap: square"/>
   </g>
   <g id="patch_4">
    <path d="M 388.8 252 
L 388.8 34.56 
" style="fill: none; stroke: #000000; stroke-width: 0.8; stroke-linejoin: miter; stroke-linecap: square"/>
   </g>
   <g id="patch_5">
    <path d="M 54 252 
L 388.8 252 
" style="fill: none; stroke: #000000; stroke-width: 0.8; stroke-linejoin: miter; stroke-linecap: square"/>
   </g>
   <g id="patch_6">
    <path d="M 54 34.56 
L 388.8 34.56 
" style="fill: none; stroke: #000000; stroke-width: 0.8; stroke-linejoin: miter; stroke-linecap: square"/>
   </g>
   <g id="legend_1">
    <g id="patch_7">
     <path d="M 62.4 129.013551 
L 185.667644 129.013551 
Q 188.067644 129.013551 188.067644 126.613551 
L 188.067644 42.96 
Q 188.067644 40.56 185.667644 40.56 
L 62.4 40.56 
Q 60 40.56 60 42.96 
L 60 126.613551 
Q 60 129.013551 62.4 129.013551 
z
" style="fill: #ffffff; opacity: 0.8; stroke: #cccccc; stroke-linejoin: miter"/>
    </g>
    <g id="line2d_21">
     <path d="M 64.8 49.56 
L 76.8 49.56 
L 88.8 49.56 
" style="fill: none; stroke: #1f77b4; stroke-width: 1.5; stroke-linecap: square"/>
    </g>
    <g id="text_17">
     <!-- $u$ -->
     <g transform="translate(98.4 53.76) scale(0.12 -0.12)">
      <defs>
       <path id="CMMI12-75" d="M 2182 370 
C 2266 12 2573 -64 2726 -64 
C 2931 -64 3085 70 3187 287 
C 3296 517 3379 893 3379 913 
C 3379 944 3354 970 3315 970 
C 3258 970 3251 938 3226 842 
C 3110 402 2995 64 2739 64 
C 2547 64 2547 274 2547 357 
C 2547 504 2566 568 2630 836 
C 2675 1008 2720 1181 2758 1359 
L 3021 2400 
C 3066 2560 3066 2572 3066 2591 
C 3066 2687 2989 2752 2893 2752 
C 2707 2752 2662 2591 2624 2432 
C 2560 2183 2214 810 2170 587 
C 2163 587 1914 64 1446 64 
C 1114 64 1050 351 1050 587 
C 1050 951 1229 1462 1395 1890 
C 1472 2094 1504 2177 1504 2305 
C 1504 2579 1306 2816 998 2816 
C 410 2816 173 1890 173 1838 
C 173 1813 198 1781 243 1781 
C 301 1781 307 1807 333 1896 
C 486 2445 736 2687 979 2687 
C 1043 2687 1146 2681 1146 2477 
C 1146 2311 1075 2126 979 1883 
C 698 1123 666 881 666 689 
C 666 38 1158 -64 1421 -64 
C 1830 -64 2054 217 2182 370 
z
" transform="scale(0.015625)"/>
      </defs>
      <use xlink:href="#CMMI12-75" transform="scale(0.996264)"/>
     </g>
    </g>
    <g id="line2d_22">
     <path d="M 64.8 66.284596 
L 76.8 66.284596 
L 88.8 66.284596 
" style="fill: none; stroke: #ff7f0e; stroke-width: 1.5; stroke-linecap: square"/>
    </g>
    <g id="text_18">
     <!-- $\rho$ -->
     <g transform="translate(98.4 70.484596) scale(0.12 -0.12)">
      <defs>
       <path id="CMMI12-1a" d="M 198 -1085 
C 192 -1116 179 -1154 179 -1191 
C 179 -1287 256 -1351 352 -1351 
C 448 -1351 538 -1287 576 -1198 
C 602 -1141 781 -390 986 389 
C 1114 70 1350 -64 1600 -64 
C 2323 -64 3142 830 3142 1794 
C 3142 2477 2726 2816 2285 2816 
C 1722 2816 1037 2234 826 1385 
L 198 -1085 
z
M 1594 64 
C 1158 64 1050 568 1050 645 
C 1050 683 1210 1289 1229 1385 
C 1555 2656 2182 2687 2278 2687 
C 2566 2687 2726 2426 2726 2049 
C 2726 1724 2554 1091 2445 823 
C 2253 383 1920 64 1594 64 
z
" transform="scale(0.015625)"/>
      </defs>
      <use xlink:href="#CMMI12-1a" transform="scale(0.996264)"/>
     </g>
    </g>
    <g id="line2d_23">
     <path d="M 64.8 83.009192 
L 76.8 83.009192 
L 88.8 83.009192 
" style="fill: none; stroke: #2ca02c; stroke-width: 1.5; stroke-linecap: square"/>
    </g>
    <g id="text_19">
     <!-- $p$ -->
     <g transform="translate(98.4 87.209192) scale(0.12 -0.12)">
      <defs>
       <path id="CMMI12-70" d="M 275 -794 
C 230 -981 205 -1031 -58 -1031 
C -135 -1031 -199 -1031 -199 -1152 
C -199 -1165 -192 -1216 -122 -1216 
C -39 -1216 51 -1204 134 -1204 
L 410 -1204 
C 544 -1204 870 -1216 1005 -1216 
C 1043 -1216 1120 -1216 1120 -1101 
C 1120 -1031 1075 -1031 966 -1031 
C 672 -1031 653 -987 653 -937 
C 653 -863 941 217 979 364 
C 1050 185 1222 -64 1555 -64 
C 2278 -64 3059 874 3059 1813 
C 3059 2400 2726 2816 2246 2816 
C 1837 2816 1491 2419 1421 2330 
C 1370 2649 1120 2816 864 2816 
C 678 2816 531 2726 410 2483 
C 294 2253 205 1864 205 1838 
C 205 1813 230 1781 275 1781 
C 326 1781 333 1787 371 1934 
C 467 2311 589 2687 845 2687 
C 992 2687 1043 2585 1043 2394 
C 1043 2241 1024 2177 998 2062 
L 275 -794 
z
M 1382 1992 
C 1427 2170 1606 2356 1709 2445 
C 1779 2509 1990 2687 2234 2687 
C 2515 2687 2643 2407 2643 2075 
C 2643 1768 2464 1047 2304 715 
C 2144 370 1850 64 1555 64 
C 1120 64 1050 613 1050 638 
C 1050 657 1062 708 1069 740 
L 1382 1992 
z
" transform="scale(0.015625)"/>
      </defs>
      <use xlink:href="#CMMI12-70" transform="scale(0.996264)"/>
     </g>
    </g>
    <g id="line2d_24">
     <path d="M 64.8 100.300163 
L 76.8 100.300163 
L 88.8 100.300163 
" style="fill: none; stroke: #d62728; stroke-width: 1.5; stroke-linecap: square"/>
    </g>
    <g id="text_20">
     <!-- $A(x,\lambda=1.8666)$ -->
     <g transform="translate(98.4 104.500163) scale(0.12 -0.12)">
      <defs>
       <path id="CMMI12-41" d="M 1088 720 
C 864 335 646 205 339 185 
C 269 179 218 179 218 64 
C 218 25 250 0 294 0 
C 410 0 698 12 813 12 
C 998 12 1203 0 1382 0 
C 1421 0 1498 0 1498 121 
C 1498 179 1446 185 1408 185 
C 1261 198 1139 250 1139 407 
C 1139 498 1178 570 1261 714 
L 1747 1536 
L 3379 1536 
C 3386 1477 3386 1425 3392 1366 
C 3411 1196 3488 518 3488 394 
C 3488 198 3162 185 3059 185 
C 2989 185 2918 185 2918 70 
C 2918 0 2976 0 3014 0 
C 3123 0 3251 12 3360 12 
L 3725 12 
C 4115 12 4397 0 4403 0 
C 4448 0 4518 0 4518 121 
C 4518 185 4461 185 4365 185 
C 4013 185 4006 244 3987 440 
L 3597 4403 
C 3584 4531 3558 4544 3488 4544 
C 3424 4544 3386 4531 3328 4435 
L 1088 720 
z
M 1856 1721 
L 3142 3831 
L 3360 1721 
L 1856 1721 
z
" transform="scale(0.015625)"/>
       <path id="CMR17-28" d="M 1958 -1562 
C 1958 -1556 1958 -1543 1939 -1524 
C 1645 -1223 858 -403 858 1596 
C 858 3595 1632 4408 1946 4729 
C 1946 4735 1958 4748 1958 4767 
C 1958 4787 1939 4800 1914 4800 
C 1843 4800 1299 4325 986 3620 
C 666 2909 576 2218 576 1603 
C 576 1141 621 360 1005 -467 
C 1312 -1133 1837 -1600 1914 -1600 
C 1946 -1600 1958 -1588 1958 -1562 
z
" transform="scale(0.015625)"/>
       <path id="CMMI12-3b" d="M 1248 -26 
C 1248 345 1126 620 864 620 
C 659 620 557 454 557 313 
C 557 172 653 0 870 0 
C 954 0 1024 25 1082 83 
C 1094 96 1101 96 1107 96 
C 1120 96 1120 6 1120 -26 
C 1120 -233 1082 -642 710 -1051 
C 640 -1127 640 -1140 640 -1152 
C 640 -1184 672 -1216 704 -1216 
C 755 -1216 1248 -749 1248 -26 
z
" transform="scale(0.015625)"/>
       <path id="CMMI12-15" d="M 1978 3963 
C 1818 4416 1312 4416 1229 4416 
C 1190 4416 1120 4416 1120 4351 
C 1120 4300 1158 4294 1190 4287 
C 1286 4275 1363 4262 1466 4078 
C 1530 3957 2189 2055 2189 2042 
C 2189 2036 2182 2029 2131 1978 
L 467 305 
C 390 229 339 178 339 95 
C 339 6 416 -71 518 -71 
C 544 -71 614 -58 653 -20 
C 755 76 1670 1190 2253 1877 
C 2419 1380 2624 795 2822 261 
C 2854 165 2886 76 2976 -7 
C 3040 -64 3053 -64 3232 -64 
L 3354 -64 
C 3379 -64 3424 -64 3424 -13 
C 3424 12 3418 19 3392 44 
C 3334 114 3290 229 3264 305 
L 1978 3963 
z
" transform="scale(0.015625)"/>
       <path id="CMR17-3d" d="M 4115 2048 
C 4211 2048 4307 2048 4307 2156 
C 4307 2272 4198 2272 4090 2272 
L 512 2272 
C 403 2272 294 2272 294 2156 
C 294 2048 390 2048 486 2048 
L 4115 2048 
z
M 4090 927 
C 4198 927 4307 927 4307 1043 
C 4307 1152 4211 1152 4115 1152 
L 486 1152 
C 390 1152 294 1152 294 1043 
C 294 927 403 927 512 927 
L 4090 927 
z
" transform="scale(0.015625)"/>
       <path id="CMR17-38" d="M 1741 2289 
C 2144 2494 2554 2803 2554 3298 
C 2554 3884 1990 4224 1472 4224 
C 890 4224 378 3800 378 3215 
C 378 3054 416 2777 666 2533 
C 730 2469 998 2276 1171 2154 
C 883 2006 211 1652 211 945 
C 211 282 838 -128 1459 -128 
C 2144 -128 2720 366 2720 1022 
C 2720 1607 2330 1877 2074 2051 
L 1741 2289 
z
M 902 2855 
C 851 2887 595 3086 595 3388 
C 595 3781 998 4076 1459 4076 
C 1965 4076 2336 3716 2336 3298 
C 2336 2700 1670 2359 1638 2359 
C 1632 2359 1626 2359 1574 2398 
L 902 2855 
z
M 2080 1536 
C 2176 1466 2483 1253 2483 861 
C 2483 385 2010 25 1472 25 
C 890 25 448 443 448 951 
C 448 1459 838 1884 1280 2083 
L 2080 1536 
z
" transform="scale(0.015625)"/>
       <path id="CMR17-36" d="M 678 2198 
C 678 3712 1395 4076 1811 4076 
C 1946 4076 2272 4049 2400 3782 
C 2298 3782 2106 3782 2106 3558 
C 2106 3385 2246 3328 2336 3328 
C 2394 3328 2566 3353 2566 3571 
C 2566 3987 2246 4224 1805 4224 
C 1043 4224 243 3411 243 2011 
C 243 257 966 -128 1478 -128 
C 2099 -128 2688 431 2688 1295 
C 2688 2101 2170 2688 1517 2688 
C 1126 2688 838 2430 678 1979 
L 678 2198 
z
M 1478 25 
C 691 25 691 1212 691 1450 
C 691 1914 909 2585 1504 2585 
C 1613 2585 1926 2585 2138 2140 
C 2253 1889 2253 1624 2253 1302 
C 2253 954 2253 696 2118 438 
C 1978 173 1773 25 1478 25 
z
" transform="scale(0.015625)"/>
       <path id="CMR17-29" d="M 1683 1596 
C 1683 2057 1638 2839 1254 3665 
C 947 4332 422 4800 346 4800 
C 326 4800 301 4793 301 4761 
C 301 4748 307 4742 314 4729 
C 621 4408 1402 3595 1402 1603 
C 1402 -396 627 -1210 314 -1530 
C 307 -1543 301 -1549 301 -1562 
C 301 -1594 326 -1600 346 -1600 
C 416 -1600 960 -1127 1274 -422 
C 1594 289 1683 981 1683 1596 
z
" transform="scale(0.015625)"/>
      </defs>
      <use xlink:href="#CMMI12-41" transform="scale(0.996264)"/>
      <use xlink:href="#CMR17-28" transform="translate(73.127885 0) scale(0.996264)"/>
      <use xlink:href="#CMMI12-78" transform="translate(108.408653 0) scale(0.996264)"/>
      <use xlink:href="#CMMI12-3b" transform="translate(163.842713 0) scale(0.996264)"/>
      <use xlink:href="#CMMI12-15" transform="translate(207.544295 0) scale(0.996264)"/>
      <use xlink:href="#CMR17-3d" transform="translate(292.122376 0) scale(0.996264)"/>
      <use xlink:href="#CMR17-31" transform="translate(391.511173 0) scale(0.996264)"/>
      <use xlink:href="#CMMI12-3a" transform="translate(437.20165 0) scale(0.996264)"/>
      <use xlink:href="#CMR17-38" transform="translate(464.298827 0) scale(0.996264)"/>
      <use xlink:href="#CMR17-36" transform="translate(509.989304 0) scale(0.996264)"/>
      <use xlink:href="#CMR17-36" transform="translate(555.679781 0) scale(0.996264)"/>
      <use xlink:href="#CMR17-36" transform="translate(601.370258 0) scale(0.996264)"/>
      <use xlink:href="#CMR17-29" transform="translate(647.060735 0) scale(0.996264)"/>
     </g>
    </g>
    <g id="line2d_25">
     <path d="M 64.8 117.688955 
L 76.8 117.688955 
L 88.8 117.688955 
" style="fill: none; stroke: #9467bd; stroke-width: 1.5; stroke-linecap: square"/>
    </g>
    <g id="text_21">
     <!-- $\dot{m}$ -->
     <g transform="translate(98.4 121.888955) scale(0.12 -0.12)">
      <defs>
       <path id="CMR17-5f" d="M 1056 3961 
C 1056 4115 934 4224 800 4224 
C 646 4224 538 4102 538 3961 
C 538 3807 659 3699 794 3699 
C 947 3699 1056 3820 1056 3961 
z
" transform="scale(0.015625)"/>
       <path id="CMMI12-6d" d="M 1318 1870 
C 1331 1909 1491 2228 1728 2432 
C 1894 2585 2112 2687 2362 2687 
C 2618 2687 2707 2496 2707 2241 
C 2707 2202 2707 2075 2630 1775 
L 2470 1117 
C 2419 925 2298 453 2285 383 
C 2259 287 2221 121 2221 95 
C 2221 6 2291 -64 2387 -64 
C 2579 -64 2611 83 2669 313 
L 3053 1838 
C 3066 1890 3398 2687 4102 2687 
C 4358 2687 4448 2496 4448 2241 
C 4448 1883 4198 1187 4058 804 
C 4000 651 3968 568 3968 453 
C 3968 166 4166 -64 4474 -64 
C 5069 -64 5293 874 5293 913 
C 5293 945 5267 970 5229 970 
C 5171 970 5165 951 5133 842 
C 4986 332 4749 64 4493 64 
C 4429 64 4326 70 4326 274 
C 4326 440 4403 645 4429 715 
C 4544 1021 4832 1775 4832 2145 
C 4832 2528 4608 2816 4122 2816 
C 3693 2816 3347 2573 3091 2196 
C 3072 2541 2861 2816 2381 2816 
C 1811 2816 1510 2413 1395 2253 
C 1376 2617 1114 2816 832 2816 
C 646 2816 499 2726 378 2483 
C 262 2253 173 1864 173 1838 
C 173 1813 198 1781 243 1781 
C 294 1781 301 1787 339 1934 
C 435 2311 557 2687 813 2687 
C 960 2687 1011 2585 1011 2394 
C 1011 2253 947 2004 902 1807 
L 723 1117 
C 698 996 627 708 595 593 
C 550 427 480 127 480 95 
C 480 6 550 -64 646 -64 
C 723 -64 813 -26 864 70 
C 877 102 934 325 966 453 
L 1107 1028 
L 1318 1870 
z
" transform="scale(0.015625)"/>
      </defs>
      <use xlink:href="#CMR17-5f" transform="translate(30.228091 0.006461) scale(0.996264)"/>
      <use xlink:href="#CMMI12-6d" transform="scale(0.996264)"/>
     </g>
    </g>
   </g>
  </g>
 </g>
 <defs>
  <clipPath id="p0aeef892ac">
   <rect x="54" y="34.56" width="334.8" height="217.44"/>
  </clipPath>
 </defs>
</svg>
