<?xml version="1.0" encoding="utf-8" standalone="no"?>
<!DOCTYPE svg PUBLIC "-//W3C//DTD SVG 1.1//EN"
  "http://www.w3.org/Graphics/SVG/1.1/DTD/svg11.dtd">
<svg xmlns:xlink="http://www.w3.org/1999/xlink" width="432pt" height="288pt" viewBox="0 0 432 288" xmlns="http://www.w3.org/2000/svg" version="1.1">
 <metadata>
  <rdf:RDF xmlns:dc="http://purl.org/dc/elements/1.1/" xmlns:cc="http://creativecommons.org/ns#" xmlns:rdf="http://www.w3.org/1999/02/22-rdf-syntax-ns#">
   <cc:Work>
    <dc:type rdf:resource="http://purl.org/dc/dcmitype/StillImage"/>
    <dc:date>2023-05-16T20:41:11.486282</dc:date>
    <dc:format>image/svg+xml</dc:format>
    <dc:creator>
     <cc:Agent>
      <dc:title>Matplotlib v3.7.1, https://matplotlib.org/</dc:title>
     </cc:Agent>
    </dc:creator>
   </cc:Work>
  </rdf:RDF>
 </metadata>
 <defs>
  <style type="text/css">*{stroke-linejoin: round; stroke-linecap: butt}</style>
 </defs>
 <g id="figure_1">
  <g id="patch_1">
   <path d="M 0 288 
L 432 288 
L 432 0 
L 0 0 
z
" style="fill: #ffffff"/>
  </g>
  <g id="axes_1">
   <g id="patch_2">
    <path d="M 54 252 
L 388.8 252 
L 388.8 34.56 
L 54 34.56 
z
" style="fill: #ffffff"/>
   </g>
   <g id="matplotlib.axis_1">
    <g id="xtick_1">
     <g id="line2d_1">
      <defs>
       <path id="m08c396b91b" d="M 0 0 
L 0 3.5 
" style="stroke: #000000; stroke-width: 0.8"/>
      </defs>
      <g>
       <use xlink:href="#m08c396b91b" x="68.913453" y="252" style="stroke: #000000; stroke-width: 0.8"/>
      </g>
     </g>
     <g id="text_1">
      <!-- $\mathdefault{0}$ -->
      <g transform="translate(65.743083 267.994028) scale(0.13 -0.13)">
       <defs>
        <path id="CMR17-30" d="M 2688 2038 
C 2688 2430 2682 3099 2413 3613 
C 2176 4063 1798 4224 1466 4224 
C 1158 4224 768 4082 525 3620 
C 269 3137 243 2539 243 2038 
C 243 1671 250 1112 448 623 
C 723 -39 1216 -128 1466 -128 
C 1760 -128 2208 -7 2470 604 
C 2662 1048 2688 1568 2688 2038 
z
M 1466 -26 
C 1056 -26 813 328 723 816 
C 653 1196 653 1749 653 2109 
C 653 2604 653 3015 736 3407 
C 858 3954 1216 4121 1466 4121 
C 1728 4121 2067 3947 2189 3420 
C 2272 3054 2278 2623 2278 2109 
C 2278 1691 2278 1176 2202 797 
C 2067 96 1690 -26 1466 -26 
z
" transform="scale(0.015625)"/>
       </defs>
       <use xlink:href="#CMR17-30" transform="scale(0.996264)"/>
      </g>
     </g>
    </g>
    <g id="xtick_2">
     <g id="line2d_2">
      <g>
       <use xlink:href="#m08c396b91b" x="129.859315" y="252" style="stroke: #000000; stroke-width: 0.8"/>
      </g>
     </g>
     <g id="text_2">
      <!-- $\mathdefault{1000}$ -->
      <g transform="translate(117.177836 267.994028) scale(0.13 -0.13)">
       <defs>
        <path id="CMR17-31" d="M 1702 4083 
C 1702 4217 1696 4224 1606 4224 
C 1357 3927 979 3833 621 3820 
C 602 3820 570 3820 563 3808 
C 557 3795 557 3782 557 3648 
C 755 3648 1088 3686 1344 3839 
L 1344 467 
C 1344 243 1331 166 781 166 
L 589 166 
L 589 0 
C 896 6 1216 12 1523 12 
C 1830 12 2150 6 2458 0 
L 2458 166 
L 2266 166 
C 1715 166 1702 236 1702 467 
L 1702 4083 
z
" transform="scale(0.015625)"/>
       </defs>
       <use xlink:href="#CMR17-31" transform="scale(0.996264)"/>
       <use xlink:href="#CMR17-30" transform="translate(45.690477 0) scale(0.996264)"/>
       <use xlink:href="#CMR17-30" transform="translate(91.380954 0) scale(0.996264)"/>
       <use xlink:href="#CMR17-30" transform="translate(137.071431 0) scale(0.996264)"/>
      </g>
     </g>
    </g>
    <g id="xtick_3">
     <g id="line2d_3">
      <g>
       <use xlink:href="#m08c396b91b" x="190.805177" y="252" style="stroke: #000000; stroke-width: 0.8"/>
      </g>
     </g>
     <g id="text_3">
      <!-- $\mathdefault{2000}$ -->
      <g transform="translate(178.123698 267.994028) scale(0.13 -0.13)">
       <defs>
        <path id="CMR17-32" d="M 2669 990 
L 2554 990 
C 2490 537 2438 460 2413 422 
C 2381 371 1920 371 1830 371 
L 602 371 
C 832 620 1280 1073 1824 1596 
C 2214 1966 2669 2400 2669 3033 
C 2669 3788 2067 4224 1395 4224 
C 691 4224 262 3603 262 3027 
C 262 2777 448 2745 525 2745 
C 589 2745 781 2783 781 3007 
C 781 3206 614 3264 525 3264 
C 486 3264 448 3257 422 3244 
C 544 3788 915 4057 1306 4057 
C 1862 4057 2227 3616 2227 3033 
C 2227 2477 1901 1998 1536 1583 
L 262 147 
L 262 0 
L 2515 0 
L 2669 990 
z
" transform="scale(0.015625)"/>
       </defs>
       <use xlink:href="#CMR17-32" transform="scale(0.996264)"/>
       <use xlink:href="#CMR17-30" transform="translate(45.690477 0) scale(0.996264)"/>
       <use xlink:href="#CMR17-30" transform="translate(91.380954 0) scale(0.996264)"/>
       <use xlink:href="#CMR17-30" transform="translate(137.071431 0) scale(0.996264)"/>
      </g>
     </g>
    </g>
    <g id="xtick_4">
     <g id="line2d_4">
      <g>
       <use xlink:href="#m08c396b91b" x="251.751039" y="252" style="stroke: #000000; stroke-width: 0.8"/>
      </g>
     </g>
     <g id="text_4">
      <!-- $\mathdefault{3000}$ -->
      <g transform="translate(239.069561 267.994028) scale(0.13 -0.13)">
       <defs>
        <path id="CMR17-33" d="M 1414 2176 
C 1984 2176 2234 1673 2234 1094 
C 2234 322 1824 25 1453 25 
C 1114 25 563 193 390 691 
C 422 678 454 678 486 678 
C 640 678 755 780 755 947 
C 755 1132 614 1216 486 1216 
C 378 1216 211 1164 211 927 
C 211 335 787 -128 1466 -128 
C 2176 -128 2720 432 2720 1087 
C 2720 1718 2208 2176 1600 2246 
C 2086 2347 2554 2776 2554 3353 
C 2554 3856 2048 4224 1472 4224 
C 890 4224 378 3862 378 3347 
C 378 3123 544 3084 627 3084 
C 762 3084 877 3167 877 3334 
C 877 3500 762 3584 627 3584 
C 602 3584 570 3584 544 3571 
C 730 3999 1235 4076 1459 4076 
C 1683 4076 2106 3966 2106 3347 
C 2106 3167 2080 2851 1862 2574 
C 1670 2329 1453 2316 1242 2297 
C 1210 2297 1062 2284 1037 2284 
C 992 2278 966 2272 966 2227 
C 966 2182 973 2176 1101 2176 
L 1414 2176 
z
" transform="scale(0.015625)"/>
       </defs>
       <use xlink:href="#CMR17-33" transform="scale(0.996264)"/>
       <use xlink:href="#CMR17-30" transform="translate(45.690477 0) scale(0.996264)"/>
       <use xlink:href="#CMR17-30" transform="translate(91.380954 0) scale(0.996264)"/>
       <use xlink:href="#CMR17-30" transform="translate(137.071431 0) scale(0.996264)"/>
      </g>
     </g>
    </g>
    <g id="xtick_5">
     <g id="line2d_5">
      <g>
       <use xlink:href="#m08c396b91b" x="312.696902" y="252" style="stroke: #000000; stroke-width: 0.8"/>
      </g>
     </g>
     <g id="text_5">
      <!-- $\mathdefault{4000}$ -->
      <g transform="translate(300.015423 267.994028) scale(0.13 -0.13)">
       <defs>
        <path id="CMR17-34" d="M 2150 4147 
C 2150 4281 2144 4288 2029 4288 
L 128 1254 
L 128 1088 
L 1779 1088 
L 1779 460 
C 1779 230 1766 166 1318 166 
L 1197 166 
L 1197 0 
C 1402 12 1747 12 1965 12 
C 2182 12 2528 12 2733 0 
L 2733 166 
L 2611 166 
C 2163 166 2150 230 2150 460 
L 2150 1088 
L 2803 1088 
L 2803 1254 
L 2150 1254 
L 2150 4147 
z
M 1798 3723 
L 1798 1254 
L 256 1254 
L 1798 3723 
z
" transform="scale(0.015625)"/>
       </defs>
       <use xlink:href="#CMR17-34" transform="scale(0.996264)"/>
       <use xlink:href="#CMR17-30" transform="translate(45.690477 0) scale(0.996264)"/>
       <use xlink:href="#CMR17-30" transform="translate(91.380954 0) scale(0.996264)"/>
       <use xlink:href="#CMR17-30" transform="translate(137.071431 0) scale(0.996264)"/>
      </g>
     </g>
    </g>
    <g id="xtick_6">
     <g id="line2d_6">
      <g>
       <use xlink:href="#m08c396b91b" x="373.642764" y="252" style="stroke: #000000; stroke-width: 0.8"/>
      </g>
     </g>
     <g id="text_6">
      <!-- $\mathdefault{5000}$ -->
      <g transform="translate(360.961285 267.994028) scale(0.13 -0.13)">
       <defs>
        <path id="CMR17-35" d="M 730 3750 
C 794 3724 1056 3641 1325 3641 
C 1920 3641 2246 3961 2432 4140 
C 2432 4191 2432 4224 2394 4224 
C 2387 4224 2374 4224 2323 4198 
C 2099 4102 1837 4032 1517 4032 
C 1325 4032 1037 4055 723 4191 
C 653 4224 640 4224 634 4224 
C 602 4224 595 4217 595 4090 
L 595 2231 
C 595 2113 595 2080 659 2080 
C 691 2080 704 2093 736 2139 
C 941 2435 1222 2560 1542 2560 
C 1766 2560 2246 2415 2246 1293 
C 2246 1087 2246 716 2054 422 
C 1894 159 1645 25 1370 25 
C 947 25 518 319 403 812 
C 429 806 480 793 506 793 
C 589 793 749 838 749 1036 
C 749 1209 627 1280 506 1280 
C 358 1280 262 1190 262 1011 
C 262 454 704 -128 1382 -128 
C 2042 -128 2669 441 2669 1267 
C 2669 2054 2170 2662 1549 2662 
C 1222 2662 947 2540 730 2304 
L 730 3750 
z
" transform="scale(0.015625)"/>
       </defs>
       <use xlink:href="#CMR17-35" transform="scale(0.996264)"/>
       <use xlink:href="#CMR17-30" transform="translate(45.690477 0) scale(0.996264)"/>
       <use xlink:href="#CMR17-30" transform="translate(91.380954 0) scale(0.996264)"/>
       <use xlink:href="#CMR17-30" transform="translate(137.071431 0) scale(0.996264)"/>
      </g>
     </g>
    </g>
    <g id="text_7">
     <!-- Iterations -->
     <g transform="translate(194.771144 283.506368) scale(0.13 -0.13)">
      <defs>
       <path id="CMR17-49" d="M 1261 3898 
C 1261 4185 1338 4185 1798 4185 
L 1798 4352 
C 1594 4339 1267 4339 1050 4339 
C 832 4339 506 4339 301 4352 
L 301 4185 
C 762 4185 838 4185 838 3898 
L 838 453 
C 838 166 762 166 301 166 
L 301 0 
C 506 12 832 12 1050 12 
C 1267 12 1594 12 1798 0 
L 1798 166 
C 1338 166 1261 166 1261 453 
L 1261 3898 
z
" transform="scale(0.015625)"/>
       <path id="CMR17-74" d="M 966 2585 
L 1862 2585 
L 1862 2752 
L 966 2752 
L 966 3968 
L 851 3968 
C 838 3292 614 2700 70 2687 
L 70 2585 
L 627 2585 
L 627 778 
C 627 655 627 -64 1370 -64 
C 1747 -64 1965 308 1965 784 
L 1965 1151 
L 1850 1151 
L 1850 790 
C 1850 347 1677 51 1408 51 
C 1222 51 966 179 966 765 
L 966 2585 
z
" transform="scale(0.015625)"/>
       <path id="CMR17-65" d="M 2438 1503 
C 2464 1529 2464 1542 2464 1606 
C 2464 2251 2118 2816 1389 2816 
C 710 2816 173 2175 173 1394 
C 173 554 781 -64 1459 -64 
C 2176 -64 2458 619 2458 755 
C 2458 800 2419 800 2406 800 
C 2362 800 2355 787 2330 709 
C 2189 270 1837 51 1504 51 
C 1229 51 954 206 781 490 
C 582 819 582 1200 582 1503 
L 2438 1503 
z
M 589 1600 
C 634 2511 1126 2713 1382 2713 
C 1818 2713 2112 2308 2118 1600 
L 589 1600 
z
" transform="scale(0.015625)"/>
       <path id="CMR17-72" d="M 960 1517 
C 960 2134 1222 2713 1702 2713 
C 1747 2713 1792 2707 1837 2687 
C 1837 2687 1696 2642 1696 2475 
C 1696 2321 1818 2257 1914 2257 
C 1990 2257 2131 2302 2131 2482 
C 2131 2687 1926 2816 1709 2816 
C 1222 2816 1011 2340 947 2115 
L 941 2115 
L 941 2816 
L 198 2745 
L 198 2578 
C 576 2578 634 2540 634 2231 
L 634 443 
C 634 198 608 166 198 166 
L 198 0 
C 352 12 646 12 813 12 
C 998 12 1325 12 1498 0 
L 1498 166 
C 1037 166 960 166 960 455 
L 960 1517 
z
" transform="scale(0.015625)"/>
       <path id="CMR17-61" d="M 2304 1656 
C 2304 2048 2304 2275 2035 2534 
C 1798 2751 1523 2816 1306 2816 
C 800 2816 435 2408 435 1977 
C 435 1740 627 1728 666 1728 
C 749 1728 896 1779 896 1958 
C 896 2118 774 2188 666 2188 
C 640 2188 608 2182 589 2176 
C 723 2594 1069 2713 1293 2713 
C 1613 2713 1965 2421 1965 1875 
L 1965 1632 
C 1587 1619 1133 1568 774 1373 
C 371 1147 256 822 256 576 
C 256 77 832 -64 1171 -64 
C 1523 -64 1850 135 1990 505 
C 2003 219 2182 -39 2464 -39 
C 2598 -39 2938 51 2938 563 
L 2938 926 
L 2822 926 
L 2822 557 
C 2822 161 2650 109 2566 109 
C 2304 109 2304 446 2304 732 
L 2304 1656 
z
M 1965 887 
C 1965 323 1568 38 1216 38 
C 896 38 646 278 646 576 
C 646 771 730 1114 1101 1322 
C 1408 1497 1760 1523 1965 1536 
L 1965 887 
z
" transform="scale(0.015625)"/>
       <path id="CMR17-69" d="M 992 3961 
C 992 4102 877 4224 730 4224 
C 589 4224 467 4108 467 3961 
C 467 3820 582 3699 730 3699 
C 870 3699 992 3814 992 3961 
z
M 243 2745 
L 243 2579 
C 602 2579 653 2540 653 2231 
L 653 443 
C 653 198 627 166 218 166 
L 218 0 
C 371 12 646 12 806 12 
C 960 12 1222 12 1370 0 
L 1370 166 
C 992 166 979 205 979 436 
L 979 2816 
L 243 2745 
z
" transform="scale(0.015625)"/>
       <path id="CMR17-6f" d="M 2758 1356 
C 2758 2176 2163 2816 1466 2816 
C 768 2816 173 2176 173 1356 
C 173 550 768 -64 1466 -64 
C 2163 -64 2758 550 2758 1356 
z
M 1466 51 
C 1165 51 909 230 762 480 
C 602 768 582 1126 582 1408 
C 582 1676 595 2009 762 2297 
C 890 2508 1139 2713 1466 2713 
C 1754 2713 1997 2553 2150 2329 
C 2349 2028 2349 1606 2349 1408 
C 2349 1158 2336 774 2163 467 
C 1984 172 1709 51 1466 51 
z
" transform="scale(0.015625)"/>
       <path id="CMR17-6e" d="M 2656 1954 
C 2656 2282 2592 2816 1837 2816 
C 1331 2816 1069 2424 973 2166 
L 966 2166 
L 966 2816 
L 211 2745 
L 211 2578 
C 589 2578 646 2540 646 2231 
L 646 443 
C 646 198 621 166 211 166 
L 211 0 
C 365 12 646 12 813 12 
C 979 12 1267 12 1421 0 
L 1421 166 
C 1011 166 986 192 986 443 
L 986 1678 
C 986 2269 1344 2713 1792 2713 
C 2266 2713 2317 2289 2317 1980 
L 2317 443 
C 2317 198 2291 166 1882 166 
L 1882 0 
C 2035 12 2317 12 2483 12 
C 2650 12 2938 12 3091 0 
L 3091 166 
C 2682 166 2656 192 2656 443 
L 2656 1954 
z
" transform="scale(0.015625)"/>
       <path id="CMR17-73" d="M 1978 2688 
C 1978 2803 1971 2809 1933 2809 
C 1907 2809 1901 2803 1824 2707 
C 1805 2681 1747 2617 1728 2592 
C 1523 2809 1235 2816 1126 2816 
C 416 2816 160 2444 160 2073 
C 160 1497 813 1363 998 1324 
C 1402 1241 1542 1216 1677 1100 
C 1760 1024 1901 883 1901 652 
C 1901 384 1747 38 1158 38 
C 602 38 403 460 288 1024 
C 269 1113 269 1120 218 1120 
C 166 1120 160 1113 160 985 
L 160 64 
C 160 -52 166 -58 205 -58 
C 237 -58 243 -52 275 0 
C 314 57 410 211 448 275 
C 576 102 800 -64 1158 -64 
C 1792 -64 2131 281 2131 780 
C 2131 1107 1958 1280 1875 1356 
C 1683 1555 1459 1600 1190 1651 
C 838 1728 390 1817 390 2208 
C 390 2374 480 2726 1126 2726 
C 1811 2726 1850 2086 1862 1881 
C 1869 1849 1901 1843 1920 1843 
C 1978 1843 1978 1862 1978 1971 
L 1978 2688 
z
" transform="scale(0.015625)"/>
      </defs>
      <use xlink:href="#CMR17-49" transform="scale(0.996264)"/>
      <use xlink:href="#CMR17-74" transform="translate(32.638409 0) scale(0.996264)"/>
      <use xlink:href="#CMR17-65" transform="translate(67.919177 0) scale(0.996264)"/>
      <use xlink:href="#CMR17-72" transform="translate(108.404837 0) scale(0.996264)"/>
      <use xlink:href="#CMR17-61" transform="translate(143.685605 0) scale(0.996264)"/>
      <use xlink:href="#CMR17-74" transform="translate(189.376082 0) scale(0.996264)"/>
      <use xlink:href="#CMR17-69" transform="translate(224.65685 0) scale(0.996264)"/>
      <use xlink:href="#CMR17-6f" transform="translate(249.527909 0) scale(0.996264)"/>
      <use xlink:href="#CMR17-6e" transform="translate(295.218386 0) scale(0.996264)"/>
      <use xlink:href="#CMR17-73" transform="translate(346.113756 0) scale(0.996264)"/>
     </g>
    </g>
   </g>
   <g id="matplotlib.axis_2">
    <g id="ytick_1">
     <g id="line2d_7">
      <defs>
       <path id="m4d6a3f5ce1" d="M 0 0 
L -3.5 0 
" style="stroke: #000000; stroke-width: 0.8"/>
      </defs>
      <g>
       <use xlink:href="#m4d6a3f5ce1" x="54" y="231.298947" style="stroke: #000000; stroke-width: 0.8"/>
      </g>
     </g>
     <g id="text_8">
      <!-- $\mathdefault{1.6}$ -->
      <g transform="translate(30.795888 235.795961) scale(0.13 -0.13)">
       <defs>
        <path id="CMMI12-3a" d="M 1178 307 
C 1178 492 1024 620 870 620 
C 685 620 557 467 557 313 
C 557 128 710 0 864 0 
C 1050 0 1178 153 1178 307 
z
" transform="scale(0.015625)"/>
        <path id="CMR17-36" d="M 678 2198 
C 678 3712 1395 4076 1811 4076 
C 1946 4076 2272 4049 2400 3782 
C 2298 3782 2106 3782 2106 3558 
C 2106 3385 2246 3328 2336 3328 
C 2394 3328 2566 3353 2566 3571 
C 2566 3987 2246 4224 1805 4224 
C 1043 4224 243 3411 243 2011 
C 243 257 966 -128 1478 -128 
C 2099 -128 2688 431 2688 1295 
C 2688 2101 2170 2688 1517 2688 
C 1126 2688 838 2430 678 1979 
L 678 2198 
z
M 1478 25 
C 691 25 691 1212 691 1450 
C 691 1914 909 2585 1504 2585 
C 1613 2585 1926 2585 2138 2140 
C 2253 1889 2253 1624 2253 1302 
C 2253 954 2253 696 2118 438 
C 1978 173 1773 25 1478 25 
z
" transform="scale(0.015625)"/>
       </defs>
       <use xlink:href="#CMR17-31" transform="scale(0.996264)"/>
       <use xlink:href="#CMMI12-3a" transform="translate(45.690477 0) scale(0.996264)"/>
       <use xlink:href="#CMR17-36" transform="translate(72.787654 0) scale(0.996264)"/>
      </g>
     </g>
    </g>
    <g id="ytick_2">
     <g id="line2d_8">
      <g>
       <use xlink:href="#m4d6a3f5ce1" x="54" y="199.758564" style="stroke: #000000; stroke-width: 0.8"/>
      </g>
     </g>
     <g id="text_9">
      <!-- $\mathdefault{1.8}$ -->
      <g transform="translate(30.795888 204.255579) scale(0.13 -0.13)">
       <defs>
        <path id="CMR17-38" d="M 1741 2289 
C 2144 2494 2554 2803 2554 3298 
C 2554 3884 1990 4224 1472 4224 
C 890 4224 378 3800 378 3215 
C 378 3054 416 2777 666 2533 
C 730 2469 998 2276 1171 2154 
C 883 2006 211 1652 211 945 
C 211 282 838 -128 1459 -128 
C 2144 -128 2720 366 2720 1022 
C 2720 1607 2330 1877 2074 2051 
L 1741 2289 
z
M 902 2855 
C 851 2887 595 3086 595 3388 
C 595 3781 998 4076 1459 4076 
C 1965 4076 2336 3716 2336 3298 
C 2336 2700 1670 2359 1638 2359 
C 1632 2359 1626 2359 1574 2398 
L 902 2855 
z
M 2080 1536 
C 2176 1466 2483 1253 2483 861 
C 2483 385 2010 25 1472 25 
C 890 25 448 443 448 951 
C 448 1459 838 1884 1280 2083 
L 2080 1536 
z
" transform="scale(0.015625)"/>
       </defs>
       <use xlink:href="#CMR17-31" transform="scale(0.996264)"/>
       <use xlink:href="#CMMI12-3a" transform="translate(45.690477 0) scale(0.996264)"/>
       <use xlink:href="#CMR17-38" transform="translate(72.787654 0) scale(0.996264)"/>
      </g>
     </g>
    </g>
    <g id="ytick_3">
     <g id="line2d_9">
      <g>
       <use xlink:href="#m4d6a3f5ce1" x="54" y="168.218182" style="stroke: #000000; stroke-width: 0.8"/>
      </g>
     </g>
     <g id="text_10">
      <!-- $\mathdefault{2.0}$ -->
      <g transform="translate(30.795888 172.715196) scale(0.13 -0.13)">
       <use xlink:href="#CMR17-32" transform="scale(0.996264)"/>
       <use xlink:href="#CMMI12-3a" transform="translate(45.690477 0) scale(0.996264)"/>
       <use xlink:href="#CMR17-30" transform="translate(72.787654 0) scale(0.996264)"/>
      </g>
     </g>
    </g>
    <g id="ytick_4">
     <g id="line2d_10">
      <g>
       <use xlink:href="#m4d6a3f5ce1" x="54" y="136.6778" style="stroke: #000000; stroke-width: 0.8"/>
      </g>
     </g>
     <g id="text_11">
      <!-- $\mathdefault{2.2}$ -->
      <g transform="translate(30.795888 141.174814) scale(0.13 -0.13)">
       <use xlink:href="#CMR17-32" transform="scale(0.996264)"/>
       <use xlink:href="#CMMI12-3a" transform="translate(45.690477 0) scale(0.996264)"/>
       <use xlink:href="#CMR17-32" transform="translate(72.787654 0) scale(0.996264)"/>
      </g>
     </g>
    </g>
    <g id="ytick_5">
     <g id="line2d_11">
      <g>
       <use xlink:href="#m4d6a3f5ce1" x="54" y="105.137417" style="stroke: #000000; stroke-width: 0.8"/>
      </g>
     </g>
     <g id="text_12">
      <!-- $\mathdefault{2.4}$ -->
      <g transform="translate(30.795888 109.634431) scale(0.13 -0.13)">
       <use xlink:href="#CMR17-32" transform="scale(0.996264)"/>
       <use xlink:href="#CMMI12-3a" transform="translate(45.690477 0) scale(0.996264)"/>
       <use xlink:href="#CMR17-34" transform="translate(72.787654 0) scale(0.996264)"/>
      </g>
     </g>
    </g>
    <g id="ytick_6">
     <g id="line2d_12">
      <g>
       <use xlink:href="#m4d6a3f5ce1" x="54" y="73.597035" style="stroke: #000000; stroke-width: 0.8"/>
      </g>
     </g>
     <g id="text_13">
      <!-- $\mathdefault{2.6}$ -->
      <g transform="translate(30.795888 78.094049) scale(0.13 -0.13)">
       <use xlink:href="#CMR17-32" transform="scale(0.996264)"/>
       <use xlink:href="#CMMI12-3a" transform="translate(45.690477 0) scale(0.996264)"/>
       <use xlink:href="#CMR17-36" transform="translate(72.787654 0) scale(0.996264)"/>
      </g>
     </g>
    </g>
    <g id="ytick_7">
     <g id="line2d_13">
      <g>
       <use xlink:href="#m4d6a3f5ce1" x="54" y="42.056652" style="stroke: #000000; stroke-width: 0.8"/>
      </g>
     </g>
     <g id="text_14">
      <!-- $\mathdefault{2.8}$ -->
      <g transform="translate(30.795888 46.553666) scale(0.13 -0.13)">
       <use xlink:href="#CMR17-32" transform="scale(0.996264)"/>
       <use xlink:href="#CMMI12-3a" transform="translate(45.690477 0) scale(0.996264)"/>
       <use xlink:href="#CMR17-38" transform="translate(72.787654 0) scale(0.996264)"/>
      </g>
     </g>
    </g>
    <g id="text_15">
     <!-- $A_L$ -->
     <g transform="translate(24.277576 151.203572) rotate(-90) scale(0.13 -0.13)">
      <defs>
       <path id="CMMI12-41" d="M 1088 720 
C 864 335 646 205 339 185 
C 269 179 218 179 218 64 
C 218 25 250 0 294 0 
C 410 0 698 12 813 12 
C 998 12 1203 0 1382 0 
C 1421 0 1498 0 1498 121 
C 1498 179 1446 185 1408 185 
C 1261 198 1139 250 1139 407 
C 1139 498 1178 570 1261 714 
L 1747 1536 
L 3379 1536 
C 3386 1477 3386 1425 3392 1366 
C 3411 1196 3488 518 3488 394 
C 3488 198 3162 185 3059 185 
C 2989 185 2918 185 2918 70 
C 2918 0 2976 0 3014 0 
C 3123 0 3251 12 3360 12 
L 3725 12 
C 4115 12 4397 0 4403 0 
C 4448 0 4518 0 4518 121 
C 4518 185 4461 185 4365 185 
C 4013 185 4006 244 3987 440 
L 3597 4403 
C 3584 4531 3558 4544 3488 4544 
C 3424 4544 3386 4531 3328 4435 
L 1088 720 
z
M 1856 1721 
L 3142 3831 
L 3360 1721 
L 1856 1721 
z
" transform="scale(0.015625)"/>
       <path id="CMMI12-4c" d="M 2349 3860 
C 2406 4102 2426 4166 2989 4166 
C 3162 4166 3206 4166 3206 4287 
C 3206 4352 3136 4352 3110 4352 
C 2982 4352 2835 4339 2707 4339 
L 1850 4339 
C 1728 4339 1587 4352 1466 4352 
C 1414 4352 1344 4352 1344 4230 
C 1344 4166 1402 4166 1498 4166 
C 1888 4166 1888 4115 1888 4045 
C 1888 4032 1888 3994 1862 3898 
L 998 472 
C 941 249 928 185 480 185 
C 358 185 294 185 294 70 
C 294 0 333 0 461 0 
L 3328 0 
C 3469 0 3475 6 3520 121 
L 4013 1478 
C 4026 1510 4038 1548 4038 1567 
C 4038 1605 4006 1631 3974 1631 
C 3968 1631 3936 1631 3923 1605 
C 3910 1599 3910 1586 3859 1465 
C 3654 905 3366 185 2285 185 
L 1670 185 
C 1581 185 1568 185 1530 191 
C 1459 198 1453 211 1453 262 
C 1453 306 1466 344 1478 402 
L 2349 3860 
z
" transform="scale(0.015625)"/>
      </defs>
      <use xlink:href="#CMMI12-41" transform="scale(0.996264)"/>
      <use xlink:href="#CMMI12-4c" transform="translate(73.127885 -14.943915) scale(0.697382)"/>
     </g>
    </g>
   </g>
   <g id="line2d_14">
    <path d="M 69.218182 237.834714 
L 70.010478 233.953174 
L 70.376153 238.456001 
L 71.351287 240.483511 
L 71.777908 239.70664 
L 72.143583 240.002074 
L 72.326421 240.326141 
L 73.423446 241.384855 
L 73.728176 241.309638 
L 74.642364 242.064646 
L 75.12993 242.116364 
L 75.800335 241.627256 
L 76.592631 240.974969 
L 78.360061 236.641827 
L 81.529246 230.73492 
L 82.50438 228.478111 
L 83.357622 226.105535 
L 84.759377 221.579002 
L 86.709644 214.121866 
L 90.061667 199.172967 
L 92.011934 189.235214 
L 97.192333 159.67308 
L 97.801791 158.226305 
L 98.837871 157.301218 
L 98.959763 157.463007 
L 100.117734 156.299466 
L 100.239626 155.986003 
L 100.422463 155.91949 
L 100.91003 154.757228 
L 101.397597 154.185797 
L 101.580435 153.629594 
L 103.225973 150.242181 
L 103.591648 149.302092 
L 103.835432 148.984944 
L 104.627728 146.913423 
L 104.688674 146.926395 
L 105.054349 146.114443 
L 105.968537 143.69735 
L 106.395158 142.378262 
L 108.345425 137.322315 
L 108.467317 136.818112 
L 111.941231 125.950027 
L 113.769607 120.066111 
L 114.440012 118.0502 
L 115.902712 113.234173 
L 116.08555 112.662216 
L 122.302028 91.912683 
L 123.764729 86.923963 
L 124.313241 85.178389 
L 125.897834 79.80913 
L 127.055805 78.184436 
L 127.299589 78.255875 
L 127.543372 78.061939 
L 128.518506 76.103253 
L 128.579452 76.014632 
L 128.884181 75.312018 
L 129.615531 74.685467 
L 130.164044 74.137912 
L 130.712557 73.850994 
L 130.895394 73.563023 
L 131.809582 73.030131 
L 133.333229 71.156795 
L 133.698904 70.785128 
L 134.247417 70.870177 
L 134.613092 70.438051 
L 134.978767 70.460348 
L 135.039713 70.355634 
L 135.52728 70.128122 
L 136.25863 70.337436 
L 138.087006 68.373863 
L 139.305923 68.196545 
L 139.366869 68.045209 
L 139.732545 68.124731 
L 140.82957 68.043592 
L 141.134299 67.81954 
L 142.414162 65.217346 
L 142.536054 65.158203 
L 144.242538 65.491969 
L 144.912943 65.768887 
L 145.40051 65.602811 
L 145.583347 65.139892 
L 145.766185 65.266563 
L 146.558481 64.790446 
L 146.985102 65.145795 
L 147.350777 65.146396 
L 147.777398 64.648134 
L 148.143074 64.597488 
L 148.752532 64.350161 
L 149.301045 64.728972 
L 150.154287 65.060783 
L 150.39807 65.159218 
L 151.495096 65.344167 
L 152.409284 64.760968 
L 153.323472 64.978479 
L 153.750093 63.720189 
L 155.090902 61.343213 
L 155.578469 61.389648 
L 155.944144 61.608212 
L 156.675494 61.976532 
L 158.260087 61.587231 
L 158.930491 61.166385 
L 159.844679 61.791657 
L 161.734001 62.791454 
L 161.794947 62.783709 
L 161.977784 62.954258 
L 163.135756 61.827602 
L 163.623323 61.796696 
L 164.53751 62.399409 
L 165.451698 62.890114 
L 166.731562 63.593141 
L 167.036291 63.124807 
L 167.523858 62.768255 
L 168.133316 62.601767 
L 168.3771 62.697344 
L 168.986558 63.112325 
L 169.596017 63.304681 
L 170.083584 62.514537 
L 171.058718 62.245516 
L 171.485339 62.440053 
L 171.972906 61.993226 
L 172.216689 62.852402 
L 172.277635 62.796154 
L 172.338581 62.63256 
L 173.130877 62.857854 
L 173.618444 61.924044 
L 173.67939 62.175619 
L 174.227903 62.54597 
L 174.471686 61.700555 
L 174.593578 62.130839 
L 174.776415 61.981796 
L 175.142091 61.815307 
L 175.385874 61.425029 
L 175.690603 61.425104 
L 176.543845 60.16828 
L 177.458033 60.270098 
L 177.9456 60.468509 
L 178.494113 60.199563 
L 178.920734 60.742418 
L 179.469247 59.865946 
L 179.652084 60.501521 
L 181.114785 59.962538 
L 181.297623 60.029389 
L 181.602352 59.461944 
L 181.846135 59.579065 
L 182.638432 59.353621 
L 182.821269 58.850433 
L 183.186944 58.749893 
L 183.308836 58.453875 
L 183.430728 58.660144 
L 184.28397 57.395123 
L 185.746671 57.338236 
L 186.538967 57.017027 
L 186.904642 56.583435 
L 187.026534 56.685855 
L 187.392209 56.30351 
L 187.696938 56.530946 
L 187.879776 56.431873 
L 188.062613 55.94692 
L 188.245451 55.877963 
L 188.793964 56.067651 
L 188.915855 55.609882 
L 189.647206 55.627967 
L 189.769097 55.399967 
L 190.62234 55.163431 
L 190.866123 54.714724 
L 191.109906 55.078457 
L 191.414636 55.079585 
L 191.719365 54.551732 
L 191.841257 54.62505 
L 192.450715 54.311887 
L 192.633553 54.398027 
L 192.816391 54.17811 
L 193.12112 54.61768 
L 193.303957 54.86794 
L 193.486795 54.865646 
L 194.461929 55.15467 
L 194.88855 54.776123 
L 195.437063 54.959832 
L 195.498009 54.848915 
L 195.6199 54.897305 
L 195.985575 55.289087 
L 196.534088 55.933197 
L 197.204493 54.880235 
L 197.265439 54.929677 
L 197.813951 55.049618 
L 198.301518 55.251149 
L 199.886111 55.346012 
L 200.373678 55.468698 
L 200.861244 54.991941 
L 201.348811 55.238215 
L 201.592595 55.238328 
L 202.933404 56.813654 
L 203.664754 55.750578 
L 204.76178 56.1621 
L 204.883671 56.377053 
L 205.554076 56.205527 
L 205.858805 56.205865 
L 206.468264 55.467645 
L 207.504343 56.038361 
L 207.930964 56.547979 
L 209.088936 56.494175 
L 209.454611 55.440686 
L 209.515557 55.535774 
L 209.576503 55.654023 
L 210.246907 55.910562 
L 210.429745 56.057123 
L 211.222041 55.541452 
L 211.343933 55.495581 
L 211.8315 55.153918 
L 212.380012 55.504906 
L 213.416092 56.485903 
L 214.269334 56.766542 
L 214.513118 56.639006 
L 215.183522 54.632607 
L 215.305414 54.244397 
L 215.549197 54.029067 
L 216.158656 53.211513 
L 217.377573 53.529714 
L 218.230815 53.200835 
L 218.413653 53.270656 
L 218.535544 53.495912 
L 218.840274 53.559154 
L 219.998245 54.100242 
L 220.424866 53.359728 
L 221.034325 53.524337 
L 221.156217 53.40199 
L 222.13135 54.515336 
L 222.314188 54.226274 
L 222.679863 53.434964 
L 223.228376 53.37661 
L 223.89878 53.518246 
L 224.508239 54.19548 
L 225.239589 53.839831 
L 225.544319 53.903975 
L 226.031886 53.259377 
L 227.128911 53.618184 
L 227.372695 54.00929 
L 227.799316 54.405622 
L 228.46972 54.007372 
L 228.774449 54.132577 
L 228.957287 54.067042 
L 229.566746 53.201248 
L 229.688637 53.39635 
L 230.054312 53.652136 
L 230.23715 53.556221 
L 230.724717 54.292862 
L 231.882688 53.442597 
L 232.248363 53.694811 
L 232.553093 53.676463 
L 232.857822 53.788922 
L 233.893902 52.935686 
L 234.076739 52.595302 
L 234.990927 53.016675 
L 235.722278 52.594813 
L 235.905115 52.694639 
L 236.27079 52.666702 
L 236.880249 51.891748 
L 237.002141 52.002665 
L 237.489708 51.378634 
L 238.952408 50.642519 
L 239.439975 51.086 
L 240.232271 51.831326 
L 241.024568 51.895696 
L 241.512135 51.838959 
L 242.670106 51.05923 
L 242.974835 51.039227 
L 243.889023 52.27195 
L 243.949969 52.309135 
L 245.046995 53.55562 
L 245.656453 52.107454 
L 245.839291 52.159491 
L 246.387804 52.012328 
L 246.936316 52.589925 
L 247.606721 52.140015 
L 248.216179 52.164116 
L 248.703746 51.255835 
L 250.166447 52.706482 
L 250.227393 52.79108 
L 250.41023 52.749796 
L 251.019689 52.342674 
L 251.933877 52.244315 
L 252.421444 51.608214 
L 254.066982 53.142556 
L 254.310766 51.795683 
L 254.798333 51.627502 
L 255.834412 52.305225 
L 256.078196 52.686254 
L 256.200087 52.479948 
L 256.7486 51.033286 
L 256.992384 51.286742 
L 257.78468 51.507335 
L 258.028463 51.789554 
L 259.186435 51.284185 
L 260.161568 50.628871 
L 260.588189 50.580969 
L 261.197648 50.213589 
L 261.563323 50.368422 
L 262.538457 50.747721 
L 262.965078 49.867302 
L 263.635483 50.409706 
L 263.696428 50.419293 
L 264.305887 51.213611 
L 265.951425 49.527895 
L 266.62183 49.796465 
L 266.804667 49.600461 
L 267.35318 49.336929 
L 268.328314 49.597566 
L 268.998718 49.403856 
L 269.12061 49.187172 
L 269.364394 49.034858 
L 269.547231 49.113779 
L 270.400473 49.985212 
L 270.461419 50.165425 
L 270.827094 50.639173 
L 271.314661 50.01172 
L 271.741282 49.881213 
L 272.046012 48.988198 
L 272.350741 49.001846 
L 272.777362 49.262069 
L 273.264929 49.133293 
L 273.508712 48.951727 
L 274.4229 49.057982 
L 274.971413 49.296924 
L 275.276142 48.214823 
L 276.312222 49.252106 
L 276.616951 49.779019 
L 277.713977 49.765972 
L 278.140598 49.405435 
L 278.445327 49.215747 
L 278.871948 48.683984 
L 279.664244 49.298089 
L 280.02992 50.012923 
L 280.456541 49.332493 
L 281.005053 49.497064 
L 281.370729 49.293953 
L 282.041133 49.703783 
L 282.589646 48.970376 
L 282.955321 48.966315 
L 283.077213 49.11626 
L 283.381942 49.129232 
L 284.357076 50.452343 
L 285.210318 49.933138 
L 286.06356 50.085527 
L 287.09964 48.47091 
L 287.282477 49.218455 
L 287.891936 49.951035 
L 288.318557 48.738653 
L 289.171799 48.667816 
L 289.842203 49.505223 
L 290.025041 49.650731 
L 290.573554 48.628488 
L 291.061121 49.133744 
L 291.792471 49.491837 
L 292.158146 49.008464 
L 292.584767 48.776478 
L 294.047468 48.614952 
L 294.413143 48.772755 
L 294.535035 48.761137 
L 295.997735 49.574856 
L 296.363411 49.357082 
L 296.729086 48.867091 
L 297.033815 48.940785 
L 297.582328 49.553688 
L 297.826111 49.323168 
L 298.008949 48.993387 
L 298.313678 48.749369 
L 299.288812 48.837275 
L 300.081108 47.8503 
L 300.385838 48.093114 
L 301.117188 48.616757 
L 301.665701 49.538159 
L 301.787592 49.55068 
L 302.518943 49.062193 
L 302.640834 49.128066 
L 303.433131 49.350803 
L 303.798806 48.119847 
L 304.408264 48.062434 
L 304.712994 48.263401 
L 305.139615 49.219808 
L 305.444344 48.677291 
L 307.089882 48.767228 
L 307.211774 48.870362 
L 307.577449 48.472752 
L 307.821233 47.843645 
L 308.369746 48.464142 
L 308.735421 48.64082 
L 308.979204 48.912962 
L 309.649609 48.345743 
L 310.015284 48.417181 
L 310.563797 48.401615 
L 311.234201 47.553117 
L 311.477984 47.545597 
L 312.392172 48.295473 
L 312.696902 48.649919 
L 313.30636 47.822439 
L 314.708115 47.731261 
L 314.890953 46.809934 
L 315.439466 47.494425 
L 315.500411 47.401254 
L 315.622303 47.168591 
L 317.328787 48.67966 
L 317.511625 49.472699 
L 318.364867 49.314031 
L 318.730542 47.691932 
L 318.852434 48.31352 
L 319.340001 49.447734 
L 319.64473 49.587828 
L 320.071351 49.40551 
L 321.777835 49.457397 
L 322.204456 49.717921 
L 322.874861 49.44262 
L 323.17959 49.003613 
L 323.728103 48.720192 
L 323.789049 48.870738 
L 324.459453 49.286697 
L 324.642291 49.033354 
L 325.007966 48.508998 
L 325.129858 48.566487 
L 326.226883 48.7329 
L 326.836342 47.926551 
L 327.019179 47.976633 
L 327.202017 48.265544 
L 327.506746 48.375709 
L 328.177151 49.029444 
L 328.725664 48.296037 
L 328.969447 48.421956 
L 329.51796 48.321942 
L 329.883635 48.663304 
L 330.858769 47.844284 
L 331.224444 48.195046 
L 331.468227 48.203017 
L 332.138632 49.21101 
L 332.687145 49.325687 
L 332.930928 48.948343 
L 334.210791 49.053319 
L 334.942141 48.114884 
L 335.734438 48.709175 
L 335.917275 48.473579 
L 336.648626 47.855 
L 337.258084 47.954863 
L 337.745651 48.282689 
L 338.537947 47.416106 
L 338.964568 47.960127 
L 339.08646 47.927227 
L 339.634973 49.138293 
L 340.244431 48.348262 
L 341.280511 48.124209 
L 341.88997 46.832042 
L 342.072807 47.016089 
L 342.560374 47.092115 
L 342.682266 47.340043 
L 343.779292 49.070953 
L 345.607667 48.648077 
L 345.729559 48.700903 
L 346.339018 47.223147 
L 346.399964 47.286991 
L 347.314152 48.283892 
L 347.375097 48.468466 
L 347.92361 49.330801 
L 348.228339 47.55135 
L 349.081582 50.797503 
L 349.203473 50.633195 
L 349.934824 50.237239 
L 350.970903 48.238134 
L 351.275633 48.486777 
L 352.250766 47.320078 
L 352.677387 47.389373 
L 353.043063 47.604327 
L 353.164954 47.93283 
L 353.408738 48.064201 
L 353.957251 47.284471 
L 354.566709 47.007216 
L 355.846572 46.280088 
L 356.151302 46.878025 
L 356.456031 46.759964 
L 356.821706 47.55071 
L 357.431165 46.814633 
L 357.735894 46.727028 
L 358.101569 46.541288 
L 358.893865 46.997553 
L 359.259541 45.508254 
L 359.56427 45.915978 
L 359.625216 46.128939 
L 359.990891 46.04186 
L 360.29562 46.526023 
L 360.478458 47.116178 
L 360.661295 47.117456 
L 361.575483 48.965413 
L 361.758321 48.818024 
L 362.489671 47.711634 
L 363.09913 47.461037 
L 363.464805 47.532625 
L 363.891426 46.681495 
L 364.196155 46.404352 
L 365.415073 47.523564 
L 365.90264 46.833734 
L 366.512098 46.634647 
L 367.182503 46.728983 
L 367.791961 47.208108 
L 368.462366 45.790209 
L 368.949933 46.127811 
L 369.681283 47.131706 
L 369.864121 47.151972 
L 370.046958 46.749136 
L 370.839254 45.881913 
L 371.326821 46.000238 
L 371.875334 44.443636 
L 372.241009 45.275591 
L 373.094251 46.343254 
L 373.581818 45.371769 
L 373.581818 45.371769 
" clip-path="url(#p12e3c8401e)" style="fill: none; stroke: #1f77b4; stroke-width: 1.5; stroke-linecap: square"/>
   </g>
   <g id="patch_3">
    <path d="M 54 252 
L 54 34.56 
" style="fill: none; stroke: #000000; stroke-width: 0.8; stroke-linejoin: miter; stroke-linecap: square"/>
   </g>
   <g id="patch_4">
    <path d="M 388.8 252 
L 388.8 34.56 
" style="fill: none; stroke: #000000; stroke-width: 0.8; stroke-linejoin: miter; stroke-linecap: square"/>
   </g>
   <g id="patch_5">
    <path d="M 54 252 
L 388.8 252 
" style="fill: none; stroke: #000000; stroke-width: 0.8; stroke-linejoin: miter; stroke-linecap: square"/>
   </g>
   <g id="patch_6">
    <path d="M 54 34.56 
L 388.8 34.56 
" style="fill: none; stroke: #000000; stroke-width: 0.8; stroke-linejoin: miter; stroke-linecap: square"/>
   </g>
  </g>
 </g>
 <defs>
  <clipPath id="p12e3c8401e">
   <rect x="54" y="34.56" width="334.8" height="217.44"/>
  </clipPath>
 </defs>
</svg>
