<?xml version="1.0" encoding="utf-8" standalone="no"?>
<!DOCTYPE svg PUBLIC "-//W3C//DTD SVG 1.1//EN"
  "http://www.w3.org/Graphics/SVG/1.1/DTD/svg11.dtd">
<svg xmlns:xlink="http://www.w3.org/1999/xlink" width="432pt" height="288pt" viewBox="0 0 432 288" xmlns="http://www.w3.org/2000/svg" version="1.1">
 <metadata>
  <rdf:RDF xmlns:dc="http://purl.org/dc/elements/1.1/" xmlns:cc="http://creativecommons.org/ns#" xmlns:rdf="http://www.w3.org/1999/02/22-rdf-syntax-ns#">
   <cc:Work>
    <dc:type rdf:resource="http://purl.org/dc/dcmitype/StillImage"/>
    <dc:date>2023-05-16T13:21:30.954006</dc:date>
    <dc:format>image/svg+xml</dc:format>
    <dc:creator>
     <cc:Agent>
      <dc:title>Matplotlib v3.7.1, https://matplotlib.org/</dc:title>
     </cc:Agent>
    </dc:creator>
   </cc:Work>
  </rdf:RDF>
 </metadata>
 <defs>
  <style type="text/css">*{stroke-linejoin: round; stroke-linecap: butt}</style>
 </defs>
 <g id="figure_1">
  <g id="patch_1">
   <path d="M 0 288 
L 432 288 
L 432 0 
L 0 0 
z
" style="fill: #ffffff"/>
  </g>
  <g id="axes_1">
   <g id="patch_2">
    <path d="M 54 252 
L 388.8 252 
L 388.8 34.56 
L 54 34.56 
z
" style="fill: #ffffff"/>
   </g>
   <g id="matplotlib.axis_1">
    <g id="xtick_1">
     <g id="line2d_1">
      <defs>
       <path id="m8428a81f7f" d="M 0 0 
L 0 3.5 
" style="stroke: #000000; stroke-width: 0.8"/>
      </defs>
      <g>
       <use xlink:href="#m8428a81f7f" x="69.218182" y="252" style="stroke: #000000; stroke-width: 0.8"/>
      </g>
     </g>
     <g id="text_1">
      <!-- $\mathdefault{0}$ -->
      <g transform="translate(66.047812 267.994028) scale(0.13 -0.13)">
       <defs>
        <path id="CMR17-30" d="M 2688 2038 
C 2688 2430 2682 3099 2413 3613 
C 2176 4063 1798 4224 1466 4224 
C 1158 4224 768 4082 525 3620 
C 269 3137 243 2539 243 2038 
C 243 1671 250 1112 448 623 
C 723 -39 1216 -128 1466 -128 
C 1760 -128 2208 -7 2470 604 
C 2662 1048 2688 1568 2688 2038 
z
M 1466 -26 
C 1056 -26 813 328 723 816 
C 653 1196 653 1749 653 2109 
C 653 2604 653 3015 736 3407 
C 858 3954 1216 4121 1466 4121 
C 1728 4121 2067 3947 2189 3420 
C 2272 3054 2278 2623 2278 2109 
C 2278 1691 2278 1176 2202 797 
C 2067 96 1690 -26 1466 -26 
z
" transform="scale(0.015625)"/>
       </defs>
       <use xlink:href="#CMR17-30" transform="scale(0.996264)"/>
      </g>
     </g>
    </g>
    <g id="xtick_2">
     <g id="line2d_2">
      <g>
       <use xlink:href="#m8428a81f7f" x="145.309091" y="252" style="stroke: #000000; stroke-width: 0.8"/>
      </g>
     </g>
     <g id="text_2">
      <!-- $\mathdefault{1}$ -->
      <g transform="translate(142.138721 267.994028) scale(0.13 -0.13)">
       <defs>
        <path id="CMR17-31" d="M 1702 4083 
C 1702 4217 1696 4224 1606 4224 
C 1357 3927 979 3833 621 3820 
C 602 3820 570 3820 563 3808 
C 557 3795 557 3782 557 3648 
C 755 3648 1088 3686 1344 3839 
L 1344 467 
C 1344 243 1331 166 781 166 
L 589 166 
L 589 0 
C 896 6 1216 12 1523 12 
C 1830 12 2150 6 2458 0 
L 2458 166 
L 2266 166 
C 1715 166 1702 236 1702 467 
L 1702 4083 
z
" transform="scale(0.015625)"/>
       </defs>
       <use xlink:href="#CMR17-31" transform="scale(0.996264)"/>
      </g>
     </g>
    </g>
    <g id="xtick_3">
     <g id="line2d_3">
      <g>
       <use xlink:href="#m8428a81f7f" x="221.4" y="252" style="stroke: #000000; stroke-width: 0.8"/>
      </g>
     </g>
     <g id="text_3">
      <!-- $\mathdefault{2}$ -->
      <g transform="translate(218.22963 267.994028) scale(0.13 -0.13)">
       <defs>
        <path id="CMR17-32" d="M 2669 990 
L 2554 990 
C 2490 537 2438 460 2413 422 
C 2381 371 1920 371 1830 371 
L 602 371 
C 832 620 1280 1073 1824 1596 
C 2214 1966 2669 2400 2669 3033 
C 2669 3788 2067 4224 1395 4224 
C 691 4224 262 3603 262 3027 
C 262 2777 448 2745 525 2745 
C 589 2745 781 2783 781 3007 
C 781 3206 614 3264 525 3264 
C 486 3264 448 3257 422 3244 
C 544 3788 915 4057 1306 4057 
C 1862 4057 2227 3616 2227 3033 
C 2227 2477 1901 1998 1536 1583 
L 262 147 
L 262 0 
L 2515 0 
L 2669 990 
z
" transform="scale(0.015625)"/>
       </defs>
       <use xlink:href="#CMR17-32" transform="scale(0.996264)"/>
      </g>
     </g>
    </g>
    <g id="xtick_4">
     <g id="line2d_4">
      <g>
       <use xlink:href="#m8428a81f7f" x="297.490909" y="252" style="stroke: #000000; stroke-width: 0.8"/>
      </g>
     </g>
     <g id="text_4">
      <!-- $\mathdefault{3}$ -->
      <g transform="translate(294.320539 267.994028) scale(0.13 -0.13)">
       <defs>
        <path id="CMR17-33" d="M 1414 2176 
C 1984 2176 2234 1673 2234 1094 
C 2234 322 1824 25 1453 25 
C 1114 25 563 193 390 691 
C 422 678 454 678 486 678 
C 640 678 755 780 755 947 
C 755 1132 614 1216 486 1216 
C 378 1216 211 1164 211 927 
C 211 335 787 -128 1466 -128 
C 2176 -128 2720 432 2720 1087 
C 2720 1718 2208 2176 1600 2246 
C 2086 2347 2554 2776 2554 3353 
C 2554 3856 2048 4224 1472 4224 
C 890 4224 378 3862 378 3347 
C 378 3123 544 3084 627 3084 
C 762 3084 877 3167 877 3334 
C 877 3500 762 3584 627 3584 
C 602 3584 570 3584 544 3571 
C 730 3999 1235 4076 1459 4076 
C 1683 4076 2106 3966 2106 3347 
C 2106 3167 2080 2851 1862 2574 
C 1670 2329 1453 2316 1242 2297 
C 1210 2297 1062 2284 1037 2284 
C 992 2278 966 2272 966 2227 
C 966 2182 973 2176 1101 2176 
L 1414 2176 
z
" transform="scale(0.015625)"/>
       </defs>
       <use xlink:href="#CMR17-33" transform="scale(0.996264)"/>
      </g>
     </g>
    </g>
    <g id="xtick_5">
     <g id="line2d_5">
      <g>
       <use xlink:href="#m8428a81f7f" x="373.581818" y="252" style="stroke: #000000; stroke-width: 0.8"/>
      </g>
     </g>
     <g id="text_5">
      <!-- $\mathdefault{4}$ -->
      <g transform="translate(370.411448 267.994028) scale(0.13 -0.13)">
       <defs>
        <path id="CMR17-34" d="M 2150 4147 
C 2150 4281 2144 4288 2029 4288 
L 128 1254 
L 128 1088 
L 1779 1088 
L 1779 460 
C 1779 230 1766 166 1318 166 
L 1197 166 
L 1197 0 
C 1402 12 1747 12 1965 12 
C 2182 12 2528 12 2733 0 
L 2733 166 
L 2611 166 
C 2163 166 2150 230 2150 460 
L 2150 1088 
L 2803 1088 
L 2803 1254 
L 2150 1254 
L 2150 4147 
z
M 1798 3723 
L 1798 1254 
L 256 1254 
L 1798 3723 
z
" transform="scale(0.015625)"/>
       </defs>
       <use xlink:href="#CMR17-34" transform="scale(0.996264)"/>
      </g>
     </g>
    </g>
    <g id="text_6">
     <!-- $x$ -->
     <g transform="translate(217.79679 283.506368) scale(0.13 -0.13)">
      <defs>
       <path id="CMMI12-78" d="M 3034 2624 
C 2829 2585 2752 2431 2752 2310 
C 2752 2156 2874 2105 2963 2105 
C 3155 2105 3290 2271 3290 2444 
C 3290 2694 2982 2816 2714 2816 
C 2323 2816 2106 2451 2048 2329 
C 1901 2790 1504 2816 1389 2816 
C 736 2816 390 1993 390 1849 
C 390 1823 416 1790 461 1790 
C 512 1790 525 1829 538 1855 
C 755 2572 1184 2687 1370 2687 
C 1658 2687 1715 2438 1715 2284 
C 1715 2143 1677 1993 1600 1678 
L 1382 778 
C 1286 390 1101 64 762 64 
C 730 64 570 64 435 126 
C 666 166 717 358 717 435 
C 717 563 621 640 499 640 
C 346 640 179 505 179 300 
C 179 57 480 -64 755 -64 
C 1062 -64 1280 153 1414 415 
C 1517 64 1837 -64 2074 -64 
C 2726 -64 3072 751 3072 896 
C 3072 929 3046 955 3008 955 
C 2950 955 2944 922 2925 870 
C 2752 300 2381 64 2093 64 
C 1869 64 1747 204 1747 467 
C 1747 607 1773 712 1875 1146 
L 2099 2039 
C 2195 2425 2413 2687 2707 2687 
C 2720 2687 2899 2687 3034 2624 
z
" transform="scale(0.015625)"/>
      </defs>
      <use xlink:href="#CMMI12-78" transform="scale(0.996264)"/>
     </g>
    </g>
   </g>
   <g id="matplotlib.axis_2">
    <g id="ytick_1">
     <g id="line2d_6">
      <defs>
       <path id="meff8c06045" d="M 0 0 
L -3.5 0 
" style="stroke: #000000; stroke-width: 0.8"/>
      </defs>
      <g>
       <use xlink:href="#meff8c06045" x="54" y="230.256" style="stroke: #000000; stroke-width: 0.8"/>
      </g>
     </g>
     <g id="text_7">
      <!-- $\mathdefault{0.6}$ -->
      <g transform="translate(30.795888 234.753014) scale(0.13 -0.13)">
       <defs>
        <path id="CMMI12-3a" d="M 1178 307 
C 1178 492 1024 620 870 620 
C 685 620 557 467 557 313 
C 557 128 710 0 864 0 
C 1050 0 1178 153 1178 307 
z
" transform="scale(0.015625)"/>
        <path id="CMR17-36" d="M 678 2198 
C 678 3712 1395 4076 1811 4076 
C 1946 4076 2272 4049 2400 3782 
C 2298 3782 2106 3782 2106 3558 
C 2106 3385 2246 3328 2336 3328 
C 2394 3328 2566 3353 2566 3571 
C 2566 3987 2246 4224 1805 4224 
C 1043 4224 243 3411 243 2011 
C 243 257 966 -128 1478 -128 
C 2099 -128 2688 431 2688 1295 
C 2688 2101 2170 2688 1517 2688 
C 1126 2688 838 2430 678 1979 
L 678 2198 
z
M 1478 25 
C 691 25 691 1212 691 1450 
C 691 1914 909 2585 1504 2585 
C 1613 2585 1926 2585 2138 2140 
C 2253 1889 2253 1624 2253 1302 
C 2253 954 2253 696 2118 438 
C 1978 173 1773 25 1478 25 
z
" transform="scale(0.015625)"/>
       </defs>
       <use xlink:href="#CMR17-30" transform="scale(0.996264)"/>
       <use xlink:href="#CMMI12-3a" transform="translate(45.690477 0) scale(0.996264)"/>
       <use xlink:href="#CMR17-36" transform="translate(72.787654 0) scale(0.996264)"/>
      </g>
     </g>
    </g>
    <g id="ytick_2">
     <g id="line2d_7">
      <g>
       <use xlink:href="#meff8c06045" x="54" y="186.768" style="stroke: #000000; stroke-width: 0.8"/>
      </g>
     </g>
     <g id="text_8">
      <!-- $\mathdefault{0.8}$ -->
      <g transform="translate(30.795888 191.265014) scale(0.13 -0.13)">
       <defs>
        <path id="CMR17-38" d="M 1741 2289 
C 2144 2494 2554 2803 2554 3298 
C 2554 3884 1990 4224 1472 4224 
C 890 4224 378 3800 378 3215 
C 378 3054 416 2777 666 2533 
C 730 2469 998 2276 1171 2154 
C 883 2006 211 1652 211 945 
C 211 282 838 -128 1459 -128 
C 2144 -128 2720 366 2720 1022 
C 2720 1607 2330 1877 2074 2051 
L 1741 2289 
z
M 902 2855 
C 851 2887 595 3086 595 3388 
C 595 3781 998 4076 1459 4076 
C 1965 4076 2336 3716 2336 3298 
C 2336 2700 1670 2359 1638 2359 
C 1632 2359 1626 2359 1574 2398 
L 902 2855 
z
M 2080 1536 
C 2176 1466 2483 1253 2483 861 
C 2483 385 2010 25 1472 25 
C 890 25 448 443 448 951 
C 448 1459 838 1884 1280 2083 
L 2080 1536 
z
" transform="scale(0.015625)"/>
       </defs>
       <use xlink:href="#CMR17-30" transform="scale(0.996264)"/>
       <use xlink:href="#CMMI12-3a" transform="translate(45.690477 0) scale(0.996264)"/>
       <use xlink:href="#CMR17-38" transform="translate(72.787654 0) scale(0.996264)"/>
      </g>
     </g>
    </g>
    <g id="ytick_3">
     <g id="line2d_8">
      <g>
       <use xlink:href="#meff8c06045" x="54" y="143.28" style="stroke: #000000; stroke-width: 0.8"/>
      </g>
     </g>
     <g id="text_9">
      <!-- $\mathdefault{1.0}$ -->
      <g transform="translate(30.795888 147.777014) scale(0.13 -0.13)">
       <use xlink:href="#CMR17-31" transform="scale(0.996264)"/>
       <use xlink:href="#CMMI12-3a" transform="translate(45.690477 0) scale(0.996264)"/>
       <use xlink:href="#CMR17-30" transform="translate(72.787654 0) scale(0.996264)"/>
      </g>
     </g>
    </g>
    <g id="ytick_4">
     <g id="line2d_9">
      <g>
       <use xlink:href="#meff8c06045" x="54" y="99.792" style="stroke: #000000; stroke-width: 0.8"/>
      </g>
     </g>
     <g id="text_10">
      <!-- $\mathdefault{1.2}$ -->
      <g transform="translate(30.795888 104.289014) scale(0.13 -0.13)">
       <use xlink:href="#CMR17-31" transform="scale(0.996264)"/>
       <use xlink:href="#CMMI12-3a" transform="translate(45.690477 0) scale(0.996264)"/>
       <use xlink:href="#CMR17-32" transform="translate(72.787654 0) scale(0.996264)"/>
      </g>
     </g>
    </g>
    <g id="ytick_5">
     <g id="line2d_10">
      <g>
       <use xlink:href="#meff8c06045" x="54" y="56.304" style="stroke: #000000; stroke-width: 0.8"/>
      </g>
     </g>
     <g id="text_11">
      <!-- $\mathdefault{1.4}$ -->
      <g transform="translate(30.795888 60.801014) scale(0.13 -0.13)">
       <use xlink:href="#CMR17-31" transform="scale(0.996264)"/>
       <use xlink:href="#CMMI12-3a" transform="translate(45.690477 0) scale(0.996264)"/>
       <use xlink:href="#CMR17-34" transform="translate(72.787654 0) scale(0.996264)"/>
      </g>
     </g>
    </g>
    <g id="text_12">
     <!-- $\dot{m}$ -->
     <g transform="translate(24.277576 148.826264) rotate(-90) scale(0.13 -0.13)">
      <defs>
       <path id="CMR17-5f" d="M 1056 3961 
C 1056 4115 934 4224 800 4224 
C 646 4224 538 4102 538 3961 
C 538 3807 659 3699 794 3699 
C 947 3699 1056 3820 1056 3961 
z
" transform="scale(0.015625)"/>
       <path id="CMMI12-6d" d="M 1318 1870 
C 1331 1909 1491 2228 1728 2432 
C 1894 2585 2112 2687 2362 2687 
C 2618 2687 2707 2496 2707 2241 
C 2707 2202 2707 2075 2630 1775 
L 2470 1117 
C 2419 925 2298 453 2285 383 
C 2259 287 2221 121 2221 95 
C 2221 6 2291 -64 2387 -64 
C 2579 -64 2611 83 2669 313 
L 3053 1838 
C 3066 1890 3398 2687 4102 2687 
C 4358 2687 4448 2496 4448 2241 
C 4448 1883 4198 1187 4058 804 
C 4000 651 3968 568 3968 453 
C 3968 166 4166 -64 4474 -64 
C 5069 -64 5293 874 5293 913 
C 5293 945 5267 970 5229 970 
C 5171 970 5165 951 5133 842 
C 4986 332 4749 64 4493 64 
C 4429 64 4326 70 4326 274 
C 4326 440 4403 645 4429 715 
C 4544 1021 4832 1775 4832 2145 
C 4832 2528 4608 2816 4122 2816 
C 3693 2816 3347 2573 3091 2196 
C 3072 2541 2861 2816 2381 2816 
C 1811 2816 1510 2413 1395 2253 
C 1376 2617 1114 2816 832 2816 
C 646 2816 499 2726 378 2483 
C 262 2253 173 1864 173 1838 
C 173 1813 198 1781 243 1781 
C 294 1781 301 1787 339 1934 
C 435 2311 557 2687 813 2687 
C 960 2687 1011 2585 1011 2394 
C 1011 2253 947 2004 902 1807 
L 723 1117 
C 698 996 627 708 595 593 
C 550 427 480 127 480 95 
C 480 6 550 -64 646 -64 
C 723 -64 813 -26 864 70 
C 877 102 934 325 966 453 
L 1107 1028 
L 1318 1870 
z
" transform="scale(0.015625)"/>
      </defs>
      <use xlink:href="#CMR17-5f" transform="translate(30.228091 0.006461) scale(0.996264)"/>
      <use xlink:href="#CMMI12-6d" transform="scale(0.996264)"/>
     </g>
    </g>
   </g>
   <g id="line2d_11">
    <path d="M 69.218182 135.460193 
L 72.292562 135.212026 
L 75.366942 134.991699 
L 78.441323 134.798744 
L 81.515702 134.632773 
L 84.590082 134.493189 
L 87.664463 134.379292 
L 90.738842 134.290021 
L 93.813223 134.224389 
L 96.887604 134.181153 
L 99.961983 134.158991 
L 103.036364 134.156684 
L 106.110745 134.172703 
L 109.185124 134.205778 
L 112.259502 134.254406 
L 115.333886 134.316979 
L 118.408264 134.391942 
L 121.482643 134.477481 
L 124.557026 134.571781 
L 127.631405 134.672665 
L 130.705784 134.778059 
L 133.780167 134.885631 
L 136.854546 134.992943 
L 139.928925 135.097741 
L 143.003308 135.19777 
L 146.077691 135.290981 
L 149.152065 135.375587 
L 152.226449 135.450161 
L 155.300832 135.513667 
L 158.375206 135.565405 
L 161.44959 135.605168 
L 164.523973 135.633007 
L 167.598347 135.649259 
L 170.67273 135.654625 
L 173.747105 135.649648 
L 176.821488 135.635055 
L 179.895871 135.611415 
L 182.970245 135.579169 
L 186.044629 135.538525 
L 189.119003 135.489509 
L 192.193386 135.431965 
L 195.267769 135.365478 
L 198.342144 135.289685 
L 201.416527 135.204094 
L 204.49091 135.108239 
L 207.565284 135.001963 
L 210.639668 134.885138 
L 213.714051 134.758048 
L 216.788434 134.621134 
L 219.862817 134.475277 
L 222.937201 134.321463 
L 226.011566 134.160909 
L 229.085949 133.995016 
L 232.160332 133.825208 
L 235.234716 133.652886 
L 238.309099 133.479449 
L 241.383464 133.306013 
L 244.457847 133.133639 
L 247.532231 132.963209 
L 250.606596 132.795424 
L 253.680979 132.630852 
L 256.755362 132.470013 
L 259.829746 132.313347 
L 262.904129 132.161347 
L 265.978512 132.014402 
L 269.052895 131.872952 
L 272.127279 131.737645 
L 275.201662 131.608948 
L 278.276027 131.487431 
L 281.35041 131.373405 
L 284.424794 131.267337 
L 287.499177 131.169408 
L 290.57356 131.079566 
L 293.647944 130.997552 
L 296.722327 130.922926 
L 299.796692 130.855013 
L 302.871075 130.792777 
L 305.945459 130.735181 
L 309.019842 130.680799 
L 312.094225 130.628387 
L 315.16859 130.576571 
L 318.242974 130.523874 
L 321.317357 130.469078 
L 324.391722 130.411093 
L 327.466105 130.348986 
L 330.540489 130.28211 
L 333.614872 130.210128 
L 336.689255 130.132936 
L 339.763638 130.05087 
L 342.838022 129.964476 
L 345.912405 129.874686 
L 348.986788 129.782745 
L 352.061153 129.690156 
L 355.135537 129.598707 
L 358.20992 129.510446 
L 361.284303 129.427629 
L 364.358686 129.35264 
L 367.433052 129.288019 
L 370.507435 129.236411 
L 373.581818 129.200614 
" clip-path="url(#pad1b25dd18)" style="fill: none; stroke: #1f77b4; stroke-width: 1.5; stroke-linecap: square"/>
   </g>
   <g id="line2d_12">
    <path d="M 69.218182 135.458145 
L 72.292562 135.481603 
L 75.366942 135.50742 
L 78.441323 135.534534 
L 81.515702 135.561906 
L 84.590082 135.588579 
L 87.664463 135.61354 
L 90.738842 135.63591 
L 93.813223 135.65491 
L 96.887604 135.669633 
L 99.961983 135.679509 
L 103.036364 135.683916 
L 106.110745 135.682308 
L 109.185124 135.674195 
L 112.259502 135.659369 
L 115.333886 135.637491 
L 118.408264 135.608564 
L 121.482643 135.572482 
L 124.557026 135.529505 
L 127.631405 135.479711 
L 130.705784 135.42354 
L 133.780167 135.361253 
L 136.854546 135.293366 
L 139.928925 135.220476 
L 143.003308 135.143051 
L 146.077691 135.061763 
L 149.152065 134.977131 
L 152.226449 134.889908 
L 155.300832 134.80074 
L 158.375206 134.710354 
L 161.44959 134.619397 
L 164.523973 134.528778 
L 167.598347 134.439351 
L 170.67273 134.352075 
L 173.747105 134.267936 
L 176.821488 134.187893 
L 179.895871 134.113059 
L 182.970245 134.044213 
L 186.044629 133.982211 
L 189.119003 133.927699 
L 192.193386 133.880886 
L 195.267769 133.841745 
L 198.342144 133.809889 
L 201.416527 133.784486 
L 204.49091 133.764372 
L 207.565284 133.747938 
L 210.639668 133.7335 
L 213.714051 133.719269 
L 216.788434 133.703276 
L 219.862817 133.683784 
L 222.937201 133.659237 
L 226.011566 133.628676 
L 229.085949 133.591298 
L 232.160332 133.547077 
L 235.234716 133.49635 
L 238.309099 133.439868 
L 241.383464 133.378902 
L 244.457847 133.314722 
L 247.532231 133.249194 
L 250.606596 133.183744 
L 253.680979 133.120083 
L 256.755362 133.059505 
L 259.829746 133.002998 
L 262.904129 132.951726 
L 265.978512 132.905821 
L 269.052895 132.865384 
L 272.127279 132.830417 
L 275.201662 132.800375 
L 278.276027 132.774324 
L 281.35041 132.751669 
L 284.424794 132.731373 
L 287.499177 132.712321 
L 290.57356 132.693581 
L 293.647944 132.674036 
L 296.722327 132.652937 
L 299.796692 132.629556 
L 302.871075 132.603169 
L 305.945459 132.573515 
L 309.019842 132.539948 
L 312.094225 132.502777 
L 315.16859 132.461744 
L 318.242974 132.417446 
L 321.317357 132.370036 
L 324.391722 132.320165 
L 327.466105 132.268375 
L 330.540489 132.215626 
L 333.614872 132.16298 
L 336.689255 132.111113 
L 339.763638 132.061189 
L 342.838022 132.014532 
L 345.912405 131.972436 
L 348.986788 131.93568 
L 352.061153 131.906208 
L 355.135537 131.885083 
L 358.20992 131.873548 
L 361.284303 131.873133 
L 364.358686 131.885264 
L 367.433052 131.911211 
L 370.507435 131.952296 
L 373.581818 132.009814 
" clip-path="url(#pad1b25dd18)" style="fill: none; stroke-dasharray: 5.55,2.4; stroke-dashoffset: 0; stroke: #ff7f0e; stroke-width: 1.5"/>
   </g>
   <g id="line2d_13">
    <path d="M 69.218182 135.458145 
L 72.292562 135.458145 
L 75.366942 135.458145 
L 78.441323 135.458145 
L 81.515702 135.458145 
L 84.590082 135.458145 
L 87.664463 135.458145 
L 90.738842 135.458145 
L 93.813223 135.458145 
L 96.887604 135.458145 
L 99.961983 135.458145 
L 103.036364 135.458145 
L 106.110745 135.458145 
L 109.185124 135.458145 
L 112.259502 135.458145 
L 115.333886 135.458145 
L 118.408264 135.458145 
L 121.482643 135.458145 
L 124.557026 135.458145 
L 127.631405 135.458145 
L 130.705784 135.458145 
L 133.780167 135.458145 
L 136.854546 135.458145 
L 139.928925 135.458145 
L 143.003308 135.458145 
L 146.077691 135.458145 
L 149.152065 135.458145 
L 152.226449 135.458145 
L 155.300832 135.458145 
L 158.375206 135.458145 
L 161.44959 135.458145 
L 164.523973 135.458145 
L 167.598347 135.458145 
L 170.67273 135.458145 
L 173.747105 135.458145 
L 176.821488 135.458145 
L 179.895871 135.458145 
L 182.970245 135.458145 
L 186.044629 135.458145 
L 189.119003 135.458145 
L 192.193386 135.458145 
L 195.267769 135.458145 
L 198.342144 135.458145 
L 201.416527 135.458145 
L 204.49091 135.458145 
L 207.565284 135.458145 
L 210.639668 135.458145 
L 213.714051 135.458145 
L 216.788434 135.458145 
L 219.862817 135.458145 
L 222.937201 135.458145 
L 226.011566 135.458145 
L 229.085949 135.458145 
L 232.160332 135.458145 
L 235.234716 135.458145 
L 238.309099 135.458145 
L 241.383464 135.458145 
L 244.457847 135.458145 
L 247.532231 135.458145 
L 250.606596 135.458145 
L 253.680979 135.458145 
L 256.755362 135.458145 
L 259.829746 135.458145 
L 262.904129 135.458145 
L 265.978512 135.458145 
L 269.052895 135.458145 
L 272.127279 135.458145 
L 275.201662 135.458145 
L 278.276027 135.458145 
L 281.35041 135.458145 
L 284.424794 135.458145 
L 287.499177 135.458145 
L 290.57356 135.458145 
L 293.647944 135.458145 
L 296.722327 135.458145 
L 299.796692 135.458145 
L 302.871075 135.458145 
L 305.945459 135.458145 
L 309.019842 135.458145 
L 312.094225 135.458145 
L 315.16859 135.458145 
L 318.242974 135.458145 
L 321.317357 135.458145 
L 324.391722 135.458145 
L 327.466105 135.458145 
L 330.540489 135.458145 
L 333.614872 135.458145 
L 336.689255 135.458145 
L 339.763638 135.458145 
L 342.838022 135.458145 
L 345.912405 135.458145 
L 348.986788 135.458145 
L 352.061153 135.458145 
L 355.135537 135.458145 
L 358.20992 135.458145 
L 361.284303 135.458145 
L 364.358686 135.458145 
L 367.433052 135.458145 
L 370.507435 135.458145 
L 373.581818 135.458145 
" clip-path="url(#pad1b25dd18)" style="fill: none; stroke-dasharray: 9.6,2.4,1.5,2.4; stroke-dashoffset: 0; stroke: #2ca02c; stroke-width: 1.5"/>
   </g>
   <g id="patch_3">
    <path d="M 54 252 
L 54 34.56 
" style="fill: none; stroke: #000000; stroke-width: 0.8; stroke-linejoin: miter; stroke-linecap: square"/>
   </g>
   <g id="patch_4">
    <path d="M 388.8 252 
L 388.8 34.56 
" style="fill: none; stroke: #000000; stroke-width: 0.8; stroke-linejoin: miter; stroke-linecap: square"/>
   </g>
   <g id="patch_5">
    <path d="M 54 252 
L 388.8 252 
" style="fill: none; stroke: #000000; stroke-width: 0.8; stroke-linejoin: miter; stroke-linecap: square"/>
   </g>
   <g id="patch_6">
    <path d="M 54 34.56 
L 388.8 34.56 
" style="fill: none; stroke: #000000; stroke-width: 0.8; stroke-linejoin: miter; stroke-linecap: square"/>
   </g>
   <g id="legend_1">
    <g id="patch_7">
     <path d="M 284.3821 99.314936 
L 379.7 99.314936 
Q 382.3 99.314936 382.3 96.714936 
L 382.3 43.66 
Q 382.3 41.06 379.7 41.06 
L 284.3821 41.06 
Q 281.7821 41.06 281.7821 43.66 
L 281.7821 96.714936 
Q 281.7821 99.314936 284.3821 99.314936 
z
" style="fill: #ffffff; opacity: 0.8; stroke: #cccccc; stroke-linejoin: miter"/>
    </g>
    <g id="line2d_14">
     <path d="M 286.9821 50.81 
L 299.9821 50.81 
L 312.9821 50.81 
" style="fill: none; stroke: #1f77b4; stroke-width: 1.5; stroke-linecap: square"/>
    </g>
    <g id="text_13">
     <!-- 2D model -->
     <g transform="translate(323.3821 55.36) scale(0.13 -0.13)">
      <defs>
       <path id="CMR17-44" d="M 333 4352 
L 333 4185 
C 774 4185 845 4185 845 3898 
L 845 453 
C 845 166 774 166 333 166 
L 333 0 
L 2368 0 
C 3398 0 4224 943 4224 2140 
C 4224 3344 3411 4352 2368 4352 
L 333 4352 
z
M 1523 166 
C 1267 166 1254 198 1254 414 
L 1254 3936 
C 1254 4153 1267 4185 1523 4185 
L 2240 4185 
C 2771 4185 3750 3873 3750 2140 
C 3750 1242 3488 879 3366 707 
C 3213 510 2848 166 2240 166 
L 1523 166 
z
" transform="scale(0.015625)"/>
       <path id="CMR17-6d" d="M 4326 1954 
C 4326 2276 4269 2816 3507 2816 
C 3072 2816 2771 2520 2656 2173 
L 2650 2173 
C 2573 2700 2195 2816 1837 2816 
C 1331 2816 1069 2424 973 2166 
L 966 2166 
L 966 2816 
L 211 2745 
L 211 2578 
C 589 2578 646 2540 646 2231 
L 646 443 
C 646 198 621 166 211 166 
L 211 0 
C 365 12 646 12 813 12 
C 979 12 1267 12 1421 0 
L 1421 166 
C 1011 166 986 192 986 443 
L 986 1678 
C 986 2269 1344 2713 1792 2713 
C 2266 2713 2317 2289 2317 1980 
L 2317 443 
C 2317 198 2291 166 1882 166 
L 1882 0 
C 2035 12 2317 12 2483 12 
C 2650 12 2938 12 3091 0 
L 3091 166 
C 2682 166 2656 192 2656 443 
L 2656 1678 
C 2656 2269 3014 2713 3462 2713 
C 3936 2713 3987 2289 3987 1980 
L 3987 443 
C 3987 198 3962 166 3552 166 
L 3552 0 
C 3706 12 3987 12 4154 12 
C 4320 12 4608 12 4762 0 
L 4762 166 
C 4352 166 4326 192 4326 443 
L 4326 1954 
z
" transform="scale(0.015625)"/>
       <path id="CMR17-6f" d="M 2758 1356 
C 2758 2176 2163 2816 1466 2816 
C 768 2816 173 2176 173 1356 
C 173 550 768 -64 1466 -64 
C 2163 -64 2758 550 2758 1356 
z
M 1466 51 
C 1165 51 909 230 762 480 
C 602 768 582 1126 582 1408 
C 582 1676 595 2009 762 2297 
C 890 2508 1139 2713 1466 2713 
C 1754 2713 1997 2553 2150 2329 
C 2349 2028 2349 1606 2349 1408 
C 2349 1158 2336 774 2163 467 
C 1984 172 1709 51 1466 51 
z
" transform="scale(0.015625)"/>
       <path id="CMR17-64" d="M 1869 4345 
L 1869 4179 
C 2246 4179 2304 4141 2304 3843 
L 2304 2371 
C 2278 2403 2016 2816 1498 2816 
C 845 2816 211 2228 211 1376 
C 211 529 806 -64 1434 -64 
C 1978 -64 2259 361 2291 406 
L 2291 -64 
L 3066 -13 
L 3066 154 
C 2688 154 2630 193 2630 503 
L 2630 4416 
L 1869 4345 
z
M 2291 762 
C 2291 568 2176 393 2029 264 
C 1811 70 1594 38 1472 38 
C 1286 38 621 135 621 1369 
C 621 2636 1363 2713 1530 2713 
C 1824 2713 2061 2545 2208 2313 
C 2291 2177 2291 2157 2291 2041 
L 2291 762 
z
" transform="scale(0.015625)"/>
       <path id="CMR17-65" d="M 2438 1503 
C 2464 1529 2464 1542 2464 1606 
C 2464 2251 2118 2816 1389 2816 
C 710 2816 173 2175 173 1394 
C 173 554 781 -64 1459 -64 
C 2176 -64 2458 619 2458 755 
C 2458 800 2419 800 2406 800 
C 2362 800 2355 787 2330 709 
C 2189 270 1837 51 1504 51 
C 1229 51 954 206 781 490 
C 582 819 582 1200 582 1503 
L 2438 1503 
z
M 589 1600 
C 634 2511 1126 2713 1382 2713 
C 1818 2713 2112 2308 2118 1600 
L 589 1600 
z
" transform="scale(0.015625)"/>
       <path id="CMR17-6c" d="M 979 4416 
L 218 4345 
L 218 4179 
C 595 4179 653 4141 653 3835 
L 653 439 
C 653 198 627 166 218 166 
L 218 0 
C 371 12 653 12 813 12 
C 979 12 1261 12 1414 0 
L 1414 166 
C 1005 166 979 191 979 439 
L 979 4416 
z
" transform="scale(0.015625)"/>
      </defs>
      <use xlink:href="#CMR17-32" transform="scale(0.996264)"/>
      <use xlink:href="#CMR17-44" transform="translate(45.690477 0) scale(0.996264)"/>
      <use xlink:href="#CMR17-6d" transform="translate(146.159999 0) scale(0.996264)"/>
      <use xlink:href="#CMR17-6f" transform="translate(223.079589 0) scale(0.996264)"/>
      <use xlink:href="#CMR17-64" transform="translate(271.372505 0) scale(0.996264)"/>
      <use xlink:href="#CMR17-65" transform="translate(322.267875 0) scale(0.996264)"/>
      <use xlink:href="#CMR17-6c" transform="translate(362.753535 0) scale(0.996264)"/>
     </g>
    </g>
    <g id="line2d_15">
     <path d="M 286.9821 68.928312 
L 299.9821 68.928312 
L 312.9821 68.928312 
" style="fill: none; stroke-dasharray: 5.55,2.4; stroke-dashoffset: 0; stroke: #ff7f0e; stroke-width: 1.5"/>
    </g>
    <g id="text_14">
     <!-- 1D model -->
     <g transform="translate(323.3821 73.478312) scale(0.13 -0.13)">
      <use xlink:href="#CMR17-31" transform="scale(0.996264)"/>
      <use xlink:href="#CMR17-44" transform="translate(45.690477 0) scale(0.996264)"/>
      <use xlink:href="#CMR17-6d" transform="translate(146.159999 0) scale(0.996264)"/>
      <use xlink:href="#CMR17-6f" transform="translate(223.079589 0) scale(0.996264)"/>
      <use xlink:href="#CMR17-64" transform="translate(271.372505 0) scale(0.996264)"/>
      <use xlink:href="#CMR17-65" transform="translate(322.267875 0) scale(0.996264)"/>
      <use xlink:href="#CMR17-6c" transform="translate(362.753535 0) scale(0.996264)"/>
     </g>
    </g>
    <g id="line2d_16">
     <path d="M 286.9821 87.046624 
L 299.9821 87.046624 
L 312.9821 87.046624 
" style="fill: none; stroke-dasharray: 9.6,2.4,1.5,2.4; stroke-dashoffset: 0; stroke: #2ca02c; stroke-width: 1.5"/>
    </g>
    <g id="text_15">
     <!-- Constant -->
     <g transform="translate(323.3821 91.596624) scale(0.13 -0.13)">
      <defs>
       <path id="CMR17-43" d="M 3974 4351 
C 3974 4467 3968 4473 3930 4473 
C 3904 4473 3898 4467 3853 4390 
L 3571 3849 
C 3258 4249 2874 4480 2381 4480 
C 1286 4480 294 3507 294 2179 
C 294 837 1286 -128 2387 -128 
C 3366 -128 3974 741 3974 1482 
C 3974 1547 3974 1573 3917 1573 
C 3866 1573 3866 1553 3859 1495 
C 3808 592 3168 38 2477 38 
C 1824 38 781 502 781 2179 
C 781 3862 1843 4313 2464 4313 
C 3187 4313 3712 3681 3834 2785 
C 3846 2707 3846 2695 3904 2695 
C 3974 2695 3974 2707 3974 2824 
L 3974 4351 
z
" transform="scale(0.015625)"/>
       <path id="CMR17-6e" d="M 2656 1954 
C 2656 2282 2592 2816 1837 2816 
C 1331 2816 1069 2424 973 2166 
L 966 2166 
L 966 2816 
L 211 2745 
L 211 2578 
C 589 2578 646 2540 646 2231 
L 646 443 
C 646 198 621 166 211 166 
L 211 0 
C 365 12 646 12 813 12 
C 979 12 1267 12 1421 0 
L 1421 166 
C 1011 166 986 192 986 443 
L 986 1678 
C 986 2269 1344 2713 1792 2713 
C 2266 2713 2317 2289 2317 1980 
L 2317 443 
C 2317 198 2291 166 1882 166 
L 1882 0 
C 2035 12 2317 12 2483 12 
C 2650 12 2938 12 3091 0 
L 3091 166 
C 2682 166 2656 192 2656 443 
L 2656 1954 
z
" transform="scale(0.015625)"/>
       <path id="CMR17-73" d="M 1978 2688 
C 1978 2803 1971 2809 1933 2809 
C 1907 2809 1901 2803 1824 2707 
C 1805 2681 1747 2617 1728 2592 
C 1523 2809 1235 2816 1126 2816 
C 416 2816 160 2444 160 2073 
C 160 1497 813 1363 998 1324 
C 1402 1241 1542 1216 1677 1100 
C 1760 1024 1901 883 1901 652 
C 1901 384 1747 38 1158 38 
C 602 38 403 460 288 1024 
C 269 1113 269 1120 218 1120 
C 166 1120 160 1113 160 985 
L 160 64 
C 160 -52 166 -58 205 -58 
C 237 -58 243 -52 275 0 
C 314 57 410 211 448 275 
C 576 102 800 -64 1158 -64 
C 1792 -64 2131 281 2131 780 
C 2131 1107 1958 1280 1875 1356 
C 1683 1555 1459 1600 1190 1651 
C 838 1728 390 1817 390 2208 
C 390 2374 480 2726 1126 2726 
C 1811 2726 1850 2086 1862 1881 
C 1869 1849 1901 1843 1920 1843 
C 1978 1843 1978 1862 1978 1971 
L 1978 2688 
z
" transform="scale(0.015625)"/>
       <path id="CMR17-74" d="M 966 2585 
L 1862 2585 
L 1862 2752 
L 966 2752 
L 966 3968 
L 851 3968 
C 838 3292 614 2700 70 2687 
L 70 2585 
L 627 2585 
L 627 778 
C 627 655 627 -64 1370 -64 
C 1747 -64 1965 308 1965 784 
L 1965 1151 
L 1850 1151 
L 1850 790 
C 1850 347 1677 51 1408 51 
C 1222 51 966 179 966 765 
L 966 2585 
z
" transform="scale(0.015625)"/>
       <path id="CMR17-61" d="M 2304 1656 
C 2304 2048 2304 2275 2035 2534 
C 1798 2751 1523 2816 1306 2816 
C 800 2816 435 2408 435 1977 
C 435 1740 627 1728 666 1728 
C 749 1728 896 1779 896 1958 
C 896 2118 774 2188 666 2188 
C 640 2188 608 2182 589 2176 
C 723 2594 1069 2713 1293 2713 
C 1613 2713 1965 2421 1965 1875 
L 1965 1632 
C 1587 1619 1133 1568 774 1373 
C 371 1147 256 822 256 576 
C 256 77 832 -64 1171 -64 
C 1523 -64 1850 135 1990 505 
C 2003 219 2182 -39 2464 -39 
C 2598 -39 2938 51 2938 563 
L 2938 926 
L 2822 926 
L 2822 557 
C 2822 161 2650 109 2566 109 
C 2304 109 2304 446 2304 732 
L 2304 1656 
z
M 1965 887 
C 1965 323 1568 38 1216 38 
C 896 38 646 278 646 576 
C 646 771 730 1114 1101 1322 
C 1408 1497 1760 1523 1965 1536 
L 1965 887 
z
" transform="scale(0.015625)"/>
      </defs>
      <use xlink:href="#CMR17-43" transform="scale(0.996264)"/>
      <use xlink:href="#CMR17-6f" transform="translate(66.509881 0) scale(0.996264)"/>
      <use xlink:href="#CMR17-6e" transform="translate(112.200358 0) scale(0.996264)"/>
      <use xlink:href="#CMR17-73" transform="translate(163.095727 0) scale(0.996264)"/>
      <use xlink:href="#CMR17-74" transform="translate(198.897065 0) scale(0.996264)"/>
      <use xlink:href="#CMR17-61" transform="translate(234.177833 0) scale(0.996264)"/>
      <use xlink:href="#CMR17-6e" transform="translate(279.86831 0) scale(0.996264)"/>
      <use xlink:href="#CMR17-74" transform="translate(328.161226 0) scale(0.996264)"/>
     </g>
    </g>
   </g>
  </g>
 </g>
 <defs>
  <clipPath id="pad1b25dd18">
   <rect x="54" y="34.56" width="334.8" height="217.44"/>
  </clipPath>
 </defs>
</svg>
