<?xml version="1.0" encoding="utf-8" standalone="no"?>
<!DOCTYPE svg PUBLIC "-//W3C//DTD SVG 1.1//EN"
  "http://www.w3.org/Graphics/SVG/1.1/DTD/svg11.dtd">
<svg xmlns:xlink="http://www.w3.org/1999/xlink" width="432pt" height="288pt" viewBox="0 0 432 288" xmlns="http://www.w3.org/2000/svg" version="1.1">
 <metadata>
  <rdf:RDF xmlns:dc="http://purl.org/dc/elements/1.1/" xmlns:cc="http://creativecommons.org/ns#" xmlns:rdf="http://www.w3.org/1999/02/22-rdf-syntax-ns#">
   <cc:Work>
    <dc:type rdf:resource="http://purl.org/dc/dcmitype/StillImage"/>
    <dc:date>2023-04-20T12:57:10.759493</dc:date>
    <dc:format>image/svg+xml</dc:format>
    <dc:creator>
     <cc:Agent>
      <dc:title>Matplotlib v3.7.1, https://matplotlib.org/</dc:title>
     </cc:Agent>
    </dc:creator>
   </cc:Work>
  </rdf:RDF>
 </metadata>
 <defs>
  <style type="text/css">*{stroke-linejoin: round; stroke-linecap: butt}</style>
 </defs>
 <g id="figure_1">
  <g id="patch_1">
   <path d="M 0 288 
L 432 288 
L 432 0 
L 0 0 
z
" style="fill: #ffffff"/>
  </g>
  <g id="axes_1">
   <g id="patch_2">
    <path d="M 54 252 
L 388.8 252 
L 388.8 34.56 
L 54 34.56 
z
" style="fill: #ffffff"/>
   </g>
   <g id="matplotlib.axis_1">
    <g id="xtick_1">
     <g id="line2d_1">
      <defs>
       <path id="mf7845d85b6" d="M 0 0 
L 0 3.5 
" style="stroke: #000000; stroke-width: 0.8"/>
      </defs>
      <g>
       <use xlink:href="#mf7845d85b6" x="69.218182" y="252" style="stroke: #000000; stroke-width: 0.8"/>
      </g>
     </g>
     <g id="text_1">
      <!-- $\mathdefault{0.0}$ -->
      <g transform="translate(61.739361 267.30218) scale(0.12 -0.12)">
       <defs>
        <path id="CMR17-30" d="M 2688 2038 
C 2688 2430 2682 3099 2413 3613 
C 2176 4063 1798 4224 1466 4224 
C 1158 4224 768 4082 525 3620 
C 269 3137 243 2539 243 2038 
C 243 1671 250 1112 448 623 
C 723 -39 1216 -128 1466 -128 
C 1760 -128 2208 -7 2470 604 
C 2662 1048 2688 1568 2688 2038 
z
M 1466 -26 
C 1056 -26 813 328 723 816 
C 653 1196 653 1749 653 2109 
C 653 2604 653 3015 736 3407 
C 858 3954 1216 4121 1466 4121 
C 1728 4121 2067 3947 2189 3420 
C 2272 3054 2278 2623 2278 2109 
C 2278 1691 2278 1176 2202 797 
C 2067 96 1690 -26 1466 -26 
z
" transform="scale(0.015625)"/>
        <path id="CMMI12-3a" d="M 1178 307 
C 1178 492 1024 620 870 620 
C 685 620 557 467 557 313 
C 557 128 710 0 864 0 
C 1050 0 1178 153 1178 307 
z
" transform="scale(0.015625)"/>
       </defs>
       <use xlink:href="#CMR17-30" transform="scale(0.996264)"/>
       <use xlink:href="#CMMI12-3a" transform="translate(45.690477 0) scale(0.996264)"/>
       <use xlink:href="#CMR17-30" transform="translate(72.787654 0) scale(0.996264)"/>
      </g>
     </g>
    </g>
    <g id="xtick_2">
     <g id="line2d_2">
      <g>
       <use xlink:href="#mf7845d85b6" x="107.263636" y="252" style="stroke: #000000; stroke-width: 0.8"/>
      </g>
     </g>
     <g id="text_2">
      <!-- $\mathdefault{0.5}$ -->
      <g transform="translate(99.784815 267.30218) scale(0.12 -0.12)">
       <defs>
        <path id="CMR17-35" d="M 730 3750 
C 794 3724 1056 3641 1325 3641 
C 1920 3641 2246 3961 2432 4140 
C 2432 4191 2432 4224 2394 4224 
C 2387 4224 2374 4224 2323 4198 
C 2099 4102 1837 4032 1517 4032 
C 1325 4032 1037 4055 723 4191 
C 653 4224 640 4224 634 4224 
C 602 4224 595 4217 595 4090 
L 595 2231 
C 595 2113 595 2080 659 2080 
C 691 2080 704 2093 736 2139 
C 941 2435 1222 2560 1542 2560 
C 1766 2560 2246 2415 2246 1293 
C 2246 1087 2246 716 2054 422 
C 1894 159 1645 25 1370 25 
C 947 25 518 319 403 812 
C 429 806 480 793 506 793 
C 589 793 749 838 749 1036 
C 749 1209 627 1280 506 1280 
C 358 1280 262 1190 262 1011 
C 262 454 704 -128 1382 -128 
C 2042 -128 2669 441 2669 1267 
C 2669 2054 2170 2662 1549 2662 
C 1222 2662 947 2540 730 2304 
L 730 3750 
z
" transform="scale(0.015625)"/>
       </defs>
       <use xlink:href="#CMR17-30" transform="scale(0.996264)"/>
       <use xlink:href="#CMMI12-3a" transform="translate(45.690477 0) scale(0.996264)"/>
       <use xlink:href="#CMR17-35" transform="translate(72.787654 0) scale(0.996264)"/>
      </g>
     </g>
    </g>
    <g id="xtick_3">
     <g id="line2d_3">
      <g>
       <use xlink:href="#mf7845d85b6" x="145.309091" y="252" style="stroke: #000000; stroke-width: 0.8"/>
      </g>
     </g>
     <g id="text_3">
      <!-- $\mathdefault{1.0}$ -->
      <g transform="translate(137.83027 267.30218) scale(0.12 -0.12)">
       <defs>
        <path id="CMR17-31" d="M 1702 4083 
C 1702 4217 1696 4224 1606 4224 
C 1357 3927 979 3833 621 3820 
C 602 3820 570 3820 563 3808 
C 557 3795 557 3782 557 3648 
C 755 3648 1088 3686 1344 3839 
L 1344 467 
C 1344 243 1331 166 781 166 
L 589 166 
L 589 0 
C 896 6 1216 12 1523 12 
C 1830 12 2150 6 2458 0 
L 2458 166 
L 2266 166 
C 1715 166 1702 236 1702 467 
L 1702 4083 
z
" transform="scale(0.015625)"/>
       </defs>
       <use xlink:href="#CMR17-31" transform="scale(0.996264)"/>
       <use xlink:href="#CMMI12-3a" transform="translate(45.690477 0) scale(0.996264)"/>
       <use xlink:href="#CMR17-30" transform="translate(72.787654 0) scale(0.996264)"/>
      </g>
     </g>
    </g>
    <g id="xtick_4">
     <g id="line2d_4">
      <g>
       <use xlink:href="#mf7845d85b6" x="183.354545" y="252" style="stroke: #000000; stroke-width: 0.8"/>
      </g>
     </g>
     <g id="text_4">
      <!-- $\mathdefault{1.5}$ -->
      <g transform="translate(175.875725 267.30218) scale(0.12 -0.12)">
       <use xlink:href="#CMR17-31" transform="scale(0.996264)"/>
       <use xlink:href="#CMMI12-3a" transform="translate(45.690477 0) scale(0.996264)"/>
       <use xlink:href="#CMR17-35" transform="translate(72.787654 0) scale(0.996264)"/>
      </g>
     </g>
    </g>
    <g id="xtick_5">
     <g id="line2d_5">
      <g>
       <use xlink:href="#mf7845d85b6" x="221.4" y="252" style="stroke: #000000; stroke-width: 0.8"/>
      </g>
     </g>
     <g id="text_5">
      <!-- $\mathdefault{2.0}$ -->
      <g transform="translate(213.921179 267.30218) scale(0.12 -0.12)">
       <defs>
        <path id="CMR17-32" d="M 2669 990 
L 2554 990 
C 2490 537 2438 460 2413 422 
C 2381 371 1920 371 1830 371 
L 602 371 
C 832 620 1280 1073 1824 1596 
C 2214 1966 2669 2400 2669 3033 
C 2669 3788 2067 4224 1395 4224 
C 691 4224 262 3603 262 3027 
C 262 2777 448 2745 525 2745 
C 589 2745 781 2783 781 3007 
C 781 3206 614 3264 525 3264 
C 486 3264 448 3257 422 3244 
C 544 3788 915 4057 1306 4057 
C 1862 4057 2227 3616 2227 3033 
C 2227 2477 1901 1998 1536 1583 
L 262 147 
L 262 0 
L 2515 0 
L 2669 990 
z
" transform="scale(0.015625)"/>
       </defs>
       <use xlink:href="#CMR17-32" transform="scale(0.996264)"/>
       <use xlink:href="#CMMI12-3a" transform="translate(45.690477 0) scale(0.996264)"/>
       <use xlink:href="#CMR17-30" transform="translate(72.787654 0) scale(0.996264)"/>
      </g>
     </g>
    </g>
    <g id="xtick_6">
     <g id="line2d_6">
      <g>
       <use xlink:href="#mf7845d85b6" x="259.445455" y="252" style="stroke: #000000; stroke-width: 0.8"/>
      </g>
     </g>
     <g id="text_6">
      <!-- $\mathdefault{2.5}$ -->
      <g transform="translate(251.966634 267.30218) scale(0.12 -0.12)">
       <use xlink:href="#CMR17-32" transform="scale(0.996264)"/>
       <use xlink:href="#CMMI12-3a" transform="translate(45.690477 0) scale(0.996264)"/>
       <use xlink:href="#CMR17-35" transform="translate(72.787654 0) scale(0.996264)"/>
      </g>
     </g>
    </g>
    <g id="xtick_7">
     <g id="line2d_7">
      <g>
       <use xlink:href="#mf7845d85b6" x="297.490909" y="252" style="stroke: #000000; stroke-width: 0.8"/>
      </g>
     </g>
     <g id="text_7">
      <!-- $\mathdefault{3.0}$ -->
      <g transform="translate(290.012088 267.30218) scale(0.12 -0.12)">
       <defs>
        <path id="CMR17-33" d="M 1414 2176 
C 1984 2176 2234 1673 2234 1094 
C 2234 322 1824 25 1453 25 
C 1114 25 563 193 390 691 
C 422 678 454 678 486 678 
C 640 678 755 780 755 947 
C 755 1132 614 1216 486 1216 
C 378 1216 211 1164 211 927 
C 211 335 787 -128 1466 -128 
C 2176 -128 2720 432 2720 1087 
C 2720 1718 2208 2176 1600 2246 
C 2086 2347 2554 2776 2554 3353 
C 2554 3856 2048 4224 1472 4224 
C 890 4224 378 3862 378 3347 
C 378 3123 544 3084 627 3084 
C 762 3084 877 3167 877 3334 
C 877 3500 762 3584 627 3584 
C 602 3584 570 3584 544 3571 
C 730 3999 1235 4076 1459 4076 
C 1683 4076 2106 3966 2106 3347 
C 2106 3167 2080 2851 1862 2574 
C 1670 2329 1453 2316 1242 2297 
C 1210 2297 1062 2284 1037 2284 
C 992 2278 966 2272 966 2227 
C 966 2182 973 2176 1101 2176 
L 1414 2176 
z
" transform="scale(0.015625)"/>
       </defs>
       <use xlink:href="#CMR17-33" transform="scale(0.996264)"/>
       <use xlink:href="#CMMI12-3a" transform="translate(45.690477 0) scale(0.996264)"/>
       <use xlink:href="#CMR17-30" transform="translate(72.787654 0) scale(0.996264)"/>
      </g>
     </g>
    </g>
    <g id="xtick_8">
     <g id="line2d_8">
      <g>
       <use xlink:href="#mf7845d85b6" x="335.536364" y="252" style="stroke: #000000; stroke-width: 0.8"/>
      </g>
     </g>
     <g id="text_8">
      <!-- $\mathdefault{3.5}$ -->
      <g transform="translate(328.057543 267.30218) scale(0.12 -0.12)">
       <use xlink:href="#CMR17-33" transform="scale(0.996264)"/>
       <use xlink:href="#CMMI12-3a" transform="translate(45.690477 0) scale(0.996264)"/>
       <use xlink:href="#CMR17-35" transform="translate(72.787654 0) scale(0.996264)"/>
      </g>
     </g>
    </g>
    <g id="xtick_9">
     <g id="line2d_9">
      <g>
       <use xlink:href="#mf7845d85b6" x="373.581818" y="252" style="stroke: #000000; stroke-width: 0.8"/>
      </g>
     </g>
     <g id="text_9">
      <!-- $\mathdefault{4.0}$ -->
      <g transform="translate(366.102997 267.30218) scale(0.12 -0.12)">
       <defs>
        <path id="CMR17-34" d="M 2150 4147 
C 2150 4281 2144 4288 2029 4288 
L 128 1254 
L 128 1088 
L 1779 1088 
L 1779 460 
C 1779 230 1766 166 1318 166 
L 1197 166 
L 1197 0 
C 1402 12 1747 12 1965 12 
C 2182 12 2528 12 2733 0 
L 2733 166 
L 2611 166 
C 2163 166 2150 230 2150 460 
L 2150 1088 
L 2803 1088 
L 2803 1254 
L 2150 1254 
L 2150 4147 
z
M 1798 3723 
L 1798 1254 
L 256 1254 
L 1798 3723 
z
" transform="scale(0.015625)"/>
       </defs>
       <use xlink:href="#CMR17-34" transform="scale(0.996264)"/>
       <use xlink:href="#CMMI12-3a" transform="translate(45.690477 0) scale(0.996264)"/>
       <use xlink:href="#CMR17-30" transform="translate(72.787654 0) scale(0.996264)"/>
      </g>
     </g>
    </g>
    <g id="text_10">
     <!-- $x$ -->
     <g transform="translate(218.073956 281.928955) scale(0.12 -0.12)">
      <defs>
       <path id="CMMI12-78" d="M 3034 2624 
C 2829 2585 2752 2431 2752 2310 
C 2752 2156 2874 2105 2963 2105 
C 3155 2105 3290 2271 3290 2444 
C 3290 2694 2982 2816 2714 2816 
C 2323 2816 2106 2451 2048 2329 
C 1901 2790 1504 2816 1389 2816 
C 736 2816 390 1993 390 1849 
C 390 1823 416 1790 461 1790 
C 512 1790 525 1829 538 1855 
C 755 2572 1184 2687 1370 2687 
C 1658 2687 1715 2438 1715 2284 
C 1715 2143 1677 1993 1600 1678 
L 1382 778 
C 1286 390 1101 64 762 64 
C 730 64 570 64 435 126 
C 666 166 717 358 717 435 
C 717 563 621 640 499 640 
C 346 640 179 505 179 300 
C 179 57 480 -64 755 -64 
C 1062 -64 1280 153 1414 415 
C 1517 64 1837 -64 2074 -64 
C 2726 -64 3072 751 3072 896 
C 3072 929 3046 955 3008 955 
C 2950 955 2944 922 2925 870 
C 2752 300 2381 64 2093 64 
C 1869 64 1747 204 1747 467 
C 1747 607 1773 712 1875 1146 
L 2099 2039 
C 2195 2425 2413 2687 2707 2687 
C 2720 2687 2899 2687 3034 2624 
z
" transform="scale(0.015625)"/>
      </defs>
      <use xlink:href="#CMMI12-78" transform="scale(0.996264)"/>
     </g>
    </g>
   </g>
   <g id="matplotlib.axis_2">
    <g id="ytick_1">
     <g id="line2d_10">
      <defs>
       <path id="m63b0120ac6" d="M 0 0 
L -3.5 0 
" style="stroke: #000000; stroke-width: 0.8"/>
      </defs>
      <g>
       <use xlink:href="#m63b0120ac6" x="54" y="247.80896" style="stroke: #000000; stroke-width: 0.8"/>
      </g>
     </g>
     <g id="text_11">
      <!-- $\mathdefault{0.2}$ -->
      <g transform="translate(32.042358 251.96005) scale(0.12 -0.12)">
       <use xlink:href="#CMR17-30" transform="scale(0.996264)"/>
       <use xlink:href="#CMMI12-3a" transform="translate(45.690477 0) scale(0.996264)"/>
       <use xlink:href="#CMR17-32" transform="translate(72.787654 0) scale(0.996264)"/>
      </g>
     </g>
    </g>
    <g id="ytick_2">
     <g id="line2d_11">
      <g>
       <use xlink:href="#m63b0120ac6" x="54" y="219.474842" style="stroke: #000000; stroke-width: 0.8"/>
      </g>
     </g>
     <g id="text_12">
      <!-- $\mathdefault{0.4}$ -->
      <g transform="translate(32.042358 223.625932) scale(0.12 -0.12)">
       <use xlink:href="#CMR17-30" transform="scale(0.996264)"/>
       <use xlink:href="#CMMI12-3a" transform="translate(45.690477 0) scale(0.996264)"/>
       <use xlink:href="#CMR17-34" transform="translate(72.787654 0) scale(0.996264)"/>
      </g>
     </g>
    </g>
    <g id="ytick_3">
     <g id="line2d_12">
      <g>
       <use xlink:href="#m63b0120ac6" x="54" y="191.140724" style="stroke: #000000; stroke-width: 0.8"/>
      </g>
     </g>
     <g id="text_13">
      <!-- $\mathdefault{0.6}$ -->
      <g transform="translate(32.042358 195.291814) scale(0.12 -0.12)">
       <defs>
        <path id="CMR17-36" d="M 678 2198 
C 678 3712 1395 4076 1811 4076 
C 1946 4076 2272 4049 2400 3782 
C 2298 3782 2106 3782 2106 3558 
C 2106 3385 2246 3328 2336 3328 
C 2394 3328 2566 3353 2566 3571 
C 2566 3987 2246 4224 1805 4224 
C 1043 4224 243 3411 243 2011 
C 243 257 966 -128 1478 -128 
C 2099 -128 2688 431 2688 1295 
C 2688 2101 2170 2688 1517 2688 
C 1126 2688 838 2430 678 1979 
L 678 2198 
z
M 1478 25 
C 691 25 691 1212 691 1450 
C 691 1914 909 2585 1504 2585 
C 1613 2585 1926 2585 2138 2140 
C 2253 1889 2253 1624 2253 1302 
C 2253 954 2253 696 2118 438 
C 1978 173 1773 25 1478 25 
z
" transform="scale(0.015625)"/>
       </defs>
       <use xlink:href="#CMR17-30" transform="scale(0.996264)"/>
       <use xlink:href="#CMMI12-3a" transform="translate(45.690477 0) scale(0.996264)"/>
       <use xlink:href="#CMR17-36" transform="translate(72.787654 0) scale(0.996264)"/>
      </g>
     </g>
    </g>
    <g id="ytick_4">
     <g id="line2d_13">
      <g>
       <use xlink:href="#m63b0120ac6" x="54" y="162.806606" style="stroke: #000000; stroke-width: 0.8"/>
      </g>
     </g>
     <g id="text_14">
      <!-- $\mathdefault{0.8}$ -->
      <g transform="translate(32.042358 166.957695) scale(0.12 -0.12)">
       <defs>
        <path id="CMR17-38" d="M 1741 2289 
C 2144 2494 2554 2803 2554 3298 
C 2554 3884 1990 4224 1472 4224 
C 890 4224 378 3800 378 3215 
C 378 3054 416 2777 666 2533 
C 730 2469 998 2276 1171 2154 
C 883 2006 211 1652 211 945 
C 211 282 838 -128 1459 -128 
C 2144 -128 2720 366 2720 1022 
C 2720 1607 2330 1877 2074 2051 
L 1741 2289 
z
M 902 2855 
C 851 2887 595 3086 595 3388 
C 595 3781 998 4076 1459 4076 
C 1965 4076 2336 3716 2336 3298 
C 2336 2700 1670 2359 1638 2359 
C 1632 2359 1626 2359 1574 2398 
L 902 2855 
z
M 2080 1536 
C 2176 1466 2483 1253 2483 861 
C 2483 385 2010 25 1472 25 
C 890 25 448 443 448 951 
C 448 1459 838 1884 1280 2083 
L 2080 1536 
z
" transform="scale(0.015625)"/>
       </defs>
       <use xlink:href="#CMR17-30" transform="scale(0.996264)"/>
       <use xlink:href="#CMMI12-3a" transform="translate(45.690477 0) scale(0.996264)"/>
       <use xlink:href="#CMR17-38" transform="translate(72.787654 0) scale(0.996264)"/>
      </g>
     </g>
    </g>
    <g id="ytick_5">
     <g id="line2d_14">
      <g>
       <use xlink:href="#m63b0120ac6" x="54" y="134.472487" style="stroke: #000000; stroke-width: 0.8"/>
      </g>
     </g>
     <g id="text_15">
      <!-- $\mathdefault{1.0}$ -->
      <g transform="translate(32.042358 138.623577) scale(0.12 -0.12)">
       <use xlink:href="#CMR17-31" transform="scale(0.996264)"/>
       <use xlink:href="#CMMI12-3a" transform="translate(45.690477 0) scale(0.996264)"/>
       <use xlink:href="#CMR17-30" transform="translate(72.787654 0) scale(0.996264)"/>
      </g>
     </g>
    </g>
    <g id="ytick_6">
     <g id="line2d_15">
      <g>
       <use xlink:href="#m63b0120ac6" x="54" y="106.138369" style="stroke: #000000; stroke-width: 0.8"/>
      </g>
     </g>
     <g id="text_16">
      <!-- $\mathdefault{1.2}$ -->
      <g transform="translate(32.042358 110.289459) scale(0.12 -0.12)">
       <use xlink:href="#CMR17-31" transform="scale(0.996264)"/>
       <use xlink:href="#CMMI12-3a" transform="translate(45.690477 0) scale(0.996264)"/>
       <use xlink:href="#CMR17-32" transform="translate(72.787654 0) scale(0.996264)"/>
      </g>
     </g>
    </g>
    <g id="ytick_7">
     <g id="line2d_16">
      <g>
       <use xlink:href="#m63b0120ac6" x="54" y="77.804251" style="stroke: #000000; stroke-width: 0.8"/>
      </g>
     </g>
     <g id="text_17">
      <!-- $\mathdefault{1.4}$ -->
      <g transform="translate(32.042358 81.955341) scale(0.12 -0.12)">
       <use xlink:href="#CMR17-31" transform="scale(0.996264)"/>
       <use xlink:href="#CMMI12-3a" transform="translate(45.690477 0) scale(0.996264)"/>
       <use xlink:href="#CMR17-34" transform="translate(72.787654 0) scale(0.996264)"/>
      </g>
     </g>
    </g>
    <g id="ytick_8">
     <g id="line2d_17">
      <g>
       <use xlink:href="#m63b0120ac6" x="54" y="49.470132" style="stroke: #000000; stroke-width: 0.8"/>
      </g>
     </g>
     <g id="text_18">
      <!-- $\mathdefault{1.6}$ -->
      <g transform="translate(32.042358 53.621222) scale(0.12 -0.12)">
       <use xlink:href="#CMR17-31" transform="scale(0.996264)"/>
       <use xlink:href="#CMMI12-3a" transform="translate(45.690477 0) scale(0.996264)"/>
       <use xlink:href="#CMR17-36" transform="translate(72.787654 0) scale(0.996264)"/>
      </g>
     </g>
    </g>
   </g>
   <g id="line2d_18">
    <path d="M 69.218182 134.472487 
L 72.292562 136.494558 
L 75.366942 138.51652 
L 78.441323 140.53832 
L 81.515702 142.559902 
L 84.590082 144.581213 
L 87.664463 146.602169 
L 90.738842 148.622678 
L 93.813223 150.64263 
L 96.887604 152.661897 
L 99.961983 154.680329 
L 103.036364 156.697756 
L 106.110745 158.713941 
L 109.185124 160.728649 
L 112.259502 162.741592 
L 115.333886 164.752415 
L 118.408264 166.760714 
L 121.482643 168.766057 
L 124.557026 170.767879 
L 127.631405 172.76558 
L 130.705784 174.758451 
L 133.780167 176.745715 
L 136.854546 178.726434 
L 139.928925 180.699605 
L 143.003308 182.664069 
L 146.077691 184.618578 
L 149.152065 186.561696 
L 152.226449 188.491919 
L 155.300832 190.407542 
L 158.375206 192.306767 
L 161.44959 194.187709 
L 164.523973 196.048302 
L 167.598347 197.88644 
L 170.67273 199.699956 
L 173.747105 201.486568 
L 176.821488 203.244073 
L 179.895871 204.970225 
L 182.970245 206.662811 
L 186.044629 208.319762 
L 189.119003 209.939044 
L 192.193386 211.518781 
L 195.267769 213.057251 
L 198.342144 214.552918 
L 201.416527 216.004438 
L 204.49091 217.410596 
L 207.565284 218.770437 
L 210.639668 220.083193 
L 213.714051 221.348248 
L 216.788434 222.565212 
L 219.862817 223.733834 
L 222.937201 224.85407 
L 226.011566 225.926006 
L 229.085949 226.94991 
L 232.160332 227.926198 
L 235.234716 228.855392 
L 238.309099 229.738219 
L 241.383464 230.575438 
L 244.457847 231.368047 
L 247.532231 232.117058 
L 250.606596 232.82362 
L 253.680979 233.489025 
L 256.755362 234.114582 
L 259.829746 234.701717 
L 262.904129 235.25185 
L 265.978512 235.766593 
L 269.052895 236.247408 
L 272.127279 236.695914 
L 275.201662 237.113743 
L 278.276027 237.502473 
L 281.35041 237.863683 
L 284.424794 238.198952 
L 287.499177 238.509793 
L 290.57356 238.797808 
L 293.647944 239.06441 
L 296.722327 239.311065 
L 299.796692 239.539161 
L 302.871075 239.749962 
L 305.945459 239.944847 
L 309.019842 240.125004 
L 312.094225 240.291583 
L 315.16859 240.445741 
L 318.242974 240.588508 
L 321.317357 240.720854 
L 324.391722 240.843794 
L 327.466105 240.958162 
L 330.540489 241.064855 
L 333.614872 241.164581 
L 336.689255 241.258143 
L 339.763638 241.346284 
L 342.838022 241.429612 
L 345.912405 241.508743 
L 348.986788 241.584209 
L 352.061153 241.656668 
L 355.135537 241.726544 
L 358.20992 241.794309 
L 361.284303 241.860419 
L 364.358686 241.925305 
L 367.433052 241.989362 
L 370.507435 242.052939 
L 373.581818 242.116364 
" clip-path="url(#pe7d24de87d)" style="fill: none; stroke: #1f77b4; stroke-width: 1.5; stroke-linecap: square"/>
   </g>
   <g id="line2d_19">
    <path d="M 69.218182 134.472487 
L 72.292562 132.955651 
L 75.366942 131.441652 
L 78.441323 129.930744 
L 81.515702 128.423162 
L 84.590082 126.919246 
L 87.664463 125.419264 
L 90.738842 123.923606 
L 93.813223 122.432643 
L 96.887604 120.946797 
L 99.961983 119.466525 
L 103.036364 117.992349 
L 106.110745 116.524827 
L 109.185124 115.064567 
L 112.259502 113.612245 
L 115.333886 112.168586 
L 118.408264 110.734436 
L 121.482643 109.310655 
L 124.557026 107.898223 
L 127.631405 106.498204 
L 130.705784 105.111747 
L 133.780167 103.740101 
L 136.854546 102.384634 
L 139.928925 101.046815 
L 143.003308 99.728182 
L 146.077691 98.430406 
L 149.152065 97.15526 
L 152.226449 95.904603 
L 155.300832 94.680325 
L 158.375206 93.48442 
L 161.44959 92.318881 
L 164.523973 91.185717 
L 167.598347 90.086869 
L 170.67273 89.024231 
L 173.747105 87.999575 
L 176.821488 87.014472 
L 179.895871 86.07034 
L 182.970245 85.168311 
L 186.044629 84.309246 
L 189.119003 83.49372 
L 192.193386 82.721934 
L 195.267769 81.993823 
L 198.342144 81.308962 
L 201.416527 80.666644 
L 204.49091 80.065922 
L 207.565284 79.50558 
L 210.639668 78.984267 
L 213.714051 78.500497 
L 216.788434 78.052649 
L 219.862817 77.639119 
L 222.937201 77.258267 
L 226.011566 76.908491 
L 229.085949 76.588235 
L 232.160332 76.295997 
L 235.234716 76.030393 
L 238.309099 75.790053 
L 241.383464 75.573712 
L 244.457847 75.380204 
L 247.532231 75.208432 
L 250.606596 75.057263 
L 253.680979 74.925736 
L 256.755362 74.812853 
L 259.829746 74.717687 
L 262.904129 74.639342 
L 265.978512 74.576922 
L 269.052895 74.529567 
L 272.127279 74.496465 
L 275.201662 74.476807 
L 278.276027 74.469748 
L 281.35041 74.474544 
L 284.424794 74.490453 
L 287.499177 74.516731 
L 290.57356 74.552636 
L 293.647944 74.597492 
L 296.722327 74.65064 
L 299.796692 74.711438 
L 302.871075 74.779279 
L 305.945459 74.853555 
L 309.019842 74.93369 
L 312.094225 75.019197 
L 315.16859 75.109482 
L 318.242974 75.204159 
L 321.317357 75.30272 
L 324.391722 75.404709 
L 327.466105 75.509739 
L 330.540489 75.617419 
L 333.614872 75.727397 
L 336.689255 75.839334 
L 339.763638 75.952875 
L 342.838022 76.067767 
L 345.912405 76.183672 
L 348.986788 76.300388 
L 352.061153 76.417594 
L 355.135537 76.535121 
L 358.20992 76.652715 
L 361.284303 76.770191 
L 364.358686 76.887363 
L 367.433052 77.004045 
L 370.507435 77.120052 
L 373.581818 77.235265 
" clip-path="url(#pe7d24de87d)" style="fill: none; stroke: #ff7f0e; stroke-width: 1.5; stroke-linecap: square"/>
   </g>
   <g id="line2d_20">
    <path d="M 69.218182 134.472487 
L 72.292562 132.077063 
L 75.366942 129.689307 
L 78.441323 127.30991 
L 81.515702 124.939548 
L 84.590082 122.579032 
L 87.664463 120.229156 
L 90.738842 117.890883 
L 93.813223 115.565158 
L 96.887604 113.253061 
L 99.961983 110.955742 
L 103.036364 108.674433 
L 106.110745 106.410486 
L 109.185124 104.165301 
L 112.259502 101.940417 
L 115.333886 99.737471 
L 118.408264 97.558202 
L 121.482643 95.404468 
L 124.557026 93.278212 
L 127.631405 91.181478 
L 130.705784 89.116425 
L 133.780167 87.085319 
L 136.854546 85.090506 
L 139.928925 83.134367 
L 143.003308 81.219403 
L 146.077691 79.348146 
L 149.152065 77.523129 
L 152.226449 75.746869 
L 155.300832 74.021917 
L 158.375206 72.350703 
L 161.44959 70.735559 
L 164.523973 69.178664 
L 167.598347 67.682043 
L 170.67273 66.247403 
L 173.747105 64.87623 
L 176.821488 63.569655 
L 179.895871 62.32837 
L 182.970245 61.152732 
L 186.044629 60.04262 
L 189.119003 58.997428 
L 192.193386 58.016141 
L 195.267769 57.097274 
L 198.342144 56.238969 
L 201.416527 55.438963 
L 204.49091 54.694723 
L 207.565284 54.003546 
L 210.639668 53.362393 
L 213.714051 52.768359 
L 216.788434 52.218336 
L 219.862817 51.709352 
L 222.937201 51.238502 
L 226.011566 50.803016 
L 229.085949 50.400277 
L 232.160332 50.027769 
L 235.234716 49.683312 
L 238.309099 49.364779 
L 241.383464 49.070211 
L 244.457847 48.79785 
L 247.532231 48.546111 
L 250.606596 48.313422 
L 253.680979 48.098466 
L 256.755362 47.899858 
L 259.829746 47.716483 
L 262.904129 47.547092 
L 265.978512 47.390654 
L 269.052895 47.246089 
L 272.127279 47.112434 
L 275.201662 46.988726 
L 278.276027 46.874053 
L 281.35041 46.767555 
L 284.424794 46.668403 
L 287.499177 46.575769 
L 290.57356 46.488895 
L 293.647944 46.407054 
L 296.722327 46.329502 
L 299.796692 46.255683 
L 302.871075 46.18492 
L 305.945459 46.116589 
L 309.019842 46.050235 
L 312.094225 45.985214 
L 315.16859 45.921173 
L 318.242974 45.857571 
L 321.317357 45.794054 
L 324.391722 45.730148 
L 327.466105 45.665583 
L 330.540489 45.599989 
L 333.614872 45.53311 
L 336.689255 45.464577 
L 339.763638 45.394152 
L 342.838022 45.321701 
L 345.912405 45.246952 
L 348.986788 45.169654 
L 352.061153 45.089687 
L 355.135537 45.006883 
L 358.20992 44.92114 
L 361.284303 44.832307 
L 364.358686 44.740231 
L 367.433052 44.644795 
L 370.507435 44.54598 
L 373.581818 44.443636 
" clip-path="url(#pe7d24de87d)" style="fill: none; stroke: #2ca02c; stroke-width: 1.5; stroke-linecap: square"/>
   </g>
   <g id="line2d_21">
    <path d="M 69.218182 129.376245 
L 72.292562 129.503094 
L 75.366942 129.647237 
L 78.441323 129.807019 
L 81.515702 129.980666 
L 84.590082 130.166456 
L 87.664463 130.362497 
L 90.738842 130.566898 
L 93.813223 130.777733 
L 96.887604 130.992994 
L 99.961983 131.210669 
L 103.036364 131.428783 
L 106.110745 131.645209 
L 109.185124 131.857986 
L 112.259502 132.065089 
L 115.333886 132.264508 
L 118.408264 132.454368 
L 121.482643 132.632845 
L 124.557026 132.798166 
L 127.631405 132.948727 
L 130.705784 133.083074 
L 133.780167 133.199875 
L 136.854546 133.29798 
L 139.928925 133.376494 
L 143.003308 133.434675 
L 146.077691 133.4721 
L 149.152065 133.488515 
L 152.226449 133.484023 
L 155.300832 133.458842 
L 158.375206 133.413581 
L 161.44959 133.349101 
L 164.523973 133.266432 
L 167.598347 133.166875 
L 170.67273 133.051983 
L 173.747105 132.923377 
L 176.821488 132.783 
L 179.895871 132.632811 
L 182.970245 132.474921 
L 186.044629 132.311542 
L 189.119003 132.144887 
L 192.193386 131.977202 
L 195.267769 131.810665 
L 198.342144 131.647539 
L 201.416527 131.489936 
L 204.49091 131.339747 
L 207.565284 131.198864 
L 210.639668 131.069008 
L 213.714051 130.951549 
L 216.788434 130.847685 
L 219.862817 130.758329 
L 222.937201 130.684138 
L 226.011566 130.6254 
L 229.085949 130.582165 
L 232.160332 130.554198 
L 235.234716 130.540924 
L 238.309099 130.541684 
L 241.383464 130.555312 
L 244.457847 130.580831 
L 247.532231 130.616905 
L 250.606596 130.662149 
L 253.680979 130.71528 
L 256.755362 130.774896 
L 259.829746 130.839731 
L 262.904129 130.908349 
L 265.978512 130.979973 
L 269.052895 131.053218 
L 272.127279 131.127409 
L 275.201662 131.201954 
L 278.276027 131.276213 
L 281.35041 131.349711 
L 284.424794 131.42223 
L 287.499177 131.493533 
L 290.57356 131.563891 
L 293.647944 131.633167 
L 296.722327 131.701717 
L 299.796692 131.769845 
L 302.871075 131.837636 
L 305.945459 131.905882 
L 309.019842 131.974922 
L 312.094225 132.045178 
L 315.16859 132.117342 
L 318.242974 132.191922 
L 321.317357 132.269288 
L 324.391722 132.350285 
L 327.466105 132.435267 
L 330.540489 132.524962 
L 333.614872 132.619622 
L 336.689255 132.719973 
L 339.763638 132.826691 
L 342.838022 132.940114 
L 345.912405 133.060714 
L 348.986788 133.188745 
L 352.061153 133.32512 
L 355.135537 133.469972 
L 358.20992 133.623657 
L 361.284303 133.786647 
L 364.358686 133.959365 
L 367.433052 134.14225 
L 370.507435 134.335488 
L 373.581818 134.53945 
" clip-path="url(#pe7d24de87d)" style="fill: none; stroke: #d62728; stroke-width: 1.5; stroke-linecap: square"/>
   </g>
   <g id="patch_3">
    <path d="M 54 252 
L 54 34.56 
" style="fill: none; stroke: #000000; stroke-width: 0.8; stroke-linejoin: miter; stroke-linecap: square"/>
   </g>
   <g id="patch_4">
    <path d="M 388.8 252 
L 388.8 34.56 
" style="fill: none; stroke: #000000; stroke-width: 0.8; stroke-linejoin: miter; stroke-linecap: square"/>
   </g>
   <g id="patch_5">
    <path d="M 54 252 
L 388.8 252 
" style="fill: none; stroke: #000000; stroke-width: 0.8; stroke-linejoin: miter; stroke-linecap: square"/>
   </g>
   <g id="patch_6">
    <path d="M 54 34.56 
L 388.8 34.56 
" style="fill: none; stroke: #000000; stroke-width: 0.8; stroke-linejoin: miter; stroke-linecap: square"/>
   </g>
   <g id="legend_1">
    <g id="patch_7">
     <path d="M 62.4 246 
L 111.039267 246 
Q 113.439267 246 113.439267 243.6 
L 113.439267 177.901617 
Q 113.439267 175.501617 111.039267 175.501617 
L 62.4 175.501617 
Q 60 175.501617 60 177.901617 
L 60 243.6 
Q 60 246 62.4 246 
z
" style="fill: #ffffff; opacity: 0.8; stroke: #cccccc; stroke-linejoin: miter"/>
    </g>
    <g id="line2d_22">
     <path d="M 64.8 184.501617 
L 76.8 184.501617 
L 88.8 184.501617 
" style="fill: none; stroke: #1f77b4; stroke-width: 1.5; stroke-linecap: square"/>
    </g>
    <g id="text_19">
     <!-- $u$ -->
     <g transform="translate(98.4 188.701617) scale(0.12 -0.12)">
      <defs>
       <path id="CMMI12-75" d="M 2182 370 
C 2266 12 2573 -64 2726 -64 
C 2931 -64 3085 70 3187 287 
C 3296 517 3379 893 3379 913 
C 3379 944 3354 970 3315 970 
C 3258 970 3251 938 3226 842 
C 3110 402 2995 64 2739 64 
C 2547 64 2547 274 2547 357 
C 2547 504 2566 568 2630 836 
C 2675 1008 2720 1181 2758 1359 
L 3021 2400 
C 3066 2560 3066 2572 3066 2591 
C 3066 2687 2989 2752 2893 2752 
C 2707 2752 2662 2591 2624 2432 
C 2560 2183 2214 810 2170 587 
C 2163 587 1914 64 1446 64 
C 1114 64 1050 351 1050 587 
C 1050 951 1229 1462 1395 1890 
C 1472 2094 1504 2177 1504 2305 
C 1504 2579 1306 2816 998 2816 
C 410 2816 173 1890 173 1838 
C 173 1813 198 1781 243 1781 
C 301 1781 307 1807 333 1896 
C 486 2445 736 2687 979 2687 
C 1043 2687 1146 2681 1146 2477 
C 1146 2311 1075 2126 979 1883 
C 698 1123 666 881 666 689 
C 666 38 1158 -64 1421 -64 
C 1830 -64 2054 217 2182 370 
z
" transform="scale(0.015625)"/>
      </defs>
      <use xlink:href="#CMMI12-75" transform="scale(0.996264)"/>
     </g>
    </g>
    <g id="line2d_23">
     <path d="M 64.8 201.226213 
L 76.8 201.226213 
L 88.8 201.226213 
" style="fill: none; stroke: #ff7f0e; stroke-width: 1.5; stroke-linecap: square"/>
    </g>
    <g id="text_20">
     <!-- $\rho$ -->
     <g transform="translate(98.4 205.426213) scale(0.12 -0.12)">
      <defs>
       <path id="CMMI12-1a" d="M 198 -1085 
C 192 -1116 179 -1154 179 -1191 
C 179 -1287 256 -1351 352 -1351 
C 448 -1351 538 -1287 576 -1198 
C 602 -1141 781 -390 986 389 
C 1114 70 1350 -64 1600 -64 
C 2323 -64 3142 830 3142 1794 
C 3142 2477 2726 2816 2285 2816 
C 1722 2816 1037 2234 826 1385 
L 198 -1085 
z
M 1594 64 
C 1158 64 1050 568 1050 645 
C 1050 683 1210 1289 1229 1385 
C 1555 2656 2182 2687 2278 2687 
C 2566 2687 2726 2426 2726 2049 
C 2726 1724 2554 1091 2445 823 
C 2253 383 1920 64 1594 64 
z
" transform="scale(0.015625)"/>
      </defs>
      <use xlink:href="#CMMI12-1a" transform="scale(0.996264)"/>
     </g>
    </g>
    <g id="line2d_24">
     <path d="M 64.8 217.950808 
L 76.8 217.950808 
L 88.8 217.950808 
" style="fill: none; stroke: #2ca02c; stroke-width: 1.5; stroke-linecap: square"/>
    </g>
    <g id="text_21">
     <!-- $p$ -->
     <g transform="translate(98.4 222.150808) scale(0.12 -0.12)">
      <defs>
       <path id="CMMI12-70" d="M 275 -794 
C 230 -981 205 -1031 -58 -1031 
C -135 -1031 -199 -1031 -199 -1152 
C -199 -1165 -192 -1216 -122 -1216 
C -39 -1216 51 -1204 134 -1204 
L 410 -1204 
C 544 -1204 870 -1216 1005 -1216 
C 1043 -1216 1120 -1216 1120 -1101 
C 1120 -1031 1075 -1031 966 -1031 
C 672 -1031 653 -987 653 -937 
C 653 -863 941 217 979 364 
C 1050 185 1222 -64 1555 -64 
C 2278 -64 3059 874 3059 1813 
C 3059 2400 2726 2816 2246 2816 
C 1837 2816 1491 2419 1421 2330 
C 1370 2649 1120 2816 864 2816 
C 678 2816 531 2726 410 2483 
C 294 2253 205 1864 205 1838 
C 205 1813 230 1781 275 1781 
C 326 1781 333 1787 371 1934 
C 467 2311 589 2687 845 2687 
C 992 2687 1043 2585 1043 2394 
C 1043 2241 1024 2177 998 2062 
L 275 -794 
z
M 1382 1992 
C 1427 2170 1606 2356 1709 2445 
C 1779 2509 1990 2687 2234 2687 
C 2515 2687 2643 2407 2643 2075 
C 2643 1768 2464 1047 2304 715 
C 2144 370 1850 64 1555 64 
C 1120 64 1050 613 1050 638 
C 1050 657 1062 708 1069 740 
L 1382 1992 
z
" transform="scale(0.015625)"/>
      </defs>
      <use xlink:href="#CMMI12-70" transform="scale(0.996264)"/>
     </g>
    </g>
    <g id="line2d_25">
     <path d="M 64.8 234.675404 
L 76.8 234.675404 
L 88.8 234.675404 
" style="fill: none; stroke: #d62728; stroke-width: 1.5; stroke-linecap: square"/>
    </g>
    <g id="text_22">
     <!-- $\dot m$ -->
     <g transform="translate(98.4 238.875404) scale(0.12 -0.12)">
      <defs>
       <path id="CMR17-5f" d="M 1056 3961 
C 1056 4115 934 4224 800 4224 
C 646 4224 538 4102 538 3961 
C 538 3807 659 3699 794 3699 
C 947 3699 1056 3820 1056 3961 
z
" transform="scale(0.015625)"/>
       <path id="CMMI12-6d" d="M 1318 1870 
C 1331 1909 1491 2228 1728 2432 
C 1894 2585 2112 2687 2362 2687 
C 2618 2687 2707 2496 2707 2241 
C 2707 2202 2707 2075 2630 1775 
L 2470 1117 
C 2419 925 2298 453 2285 383 
C 2259 287 2221 121 2221 95 
C 2221 6 2291 -64 2387 -64 
C 2579 -64 2611 83 2669 313 
L 3053 1838 
C 3066 1890 3398 2687 4102 2687 
C 4358 2687 4448 2496 4448 2241 
C 4448 1883 4198 1187 4058 804 
C 4000 651 3968 568 3968 453 
C 3968 166 4166 -64 4474 -64 
C 5069 -64 5293 874 5293 913 
C 5293 945 5267 970 5229 970 
C 5171 970 5165 951 5133 842 
C 4986 332 4749 64 4493 64 
C 4429 64 4326 70 4326 274 
C 4326 440 4403 645 4429 715 
C 4544 1021 4832 1775 4832 2145 
C 4832 2528 4608 2816 4122 2816 
C 3693 2816 3347 2573 3091 2196 
C 3072 2541 2861 2816 2381 2816 
C 1811 2816 1510 2413 1395 2253 
C 1376 2617 1114 2816 832 2816 
C 646 2816 499 2726 378 2483 
C 262 2253 173 1864 173 1838 
C 173 1813 198 1781 243 1781 
C 294 1781 301 1787 339 1934 
C 435 2311 557 2687 813 2687 
C 960 2687 1011 2585 1011 2394 
C 1011 2253 947 2004 902 1807 
L 723 1117 
C 698 996 627 708 595 593 
C 550 427 480 127 480 95 
C 480 6 550 -64 646 -64 
C 723 -64 813 -26 864 70 
C 877 102 934 325 966 453 
L 1107 1028 
L 1318 1870 
z
" transform="scale(0.015625)"/>
      </defs>
      <use xlink:href="#CMR17-5f" transform="translate(30.228091 0.006461) scale(0.996264)"/>
      <use xlink:href="#CMMI12-6d" transform="scale(0.996264)"/>
     </g>
    </g>
   </g>
  </g>
 </g>
 <defs>
  <clipPath id="pe7d24de87d">
   <rect x="54" y="34.56" width="334.8" height="217.44"/>
  </clipPath>
 </defs>
</svg>
