<?xml version="1.0" encoding="utf-8" standalone="no"?>
<!DOCTYPE svg PUBLIC "-//W3C//DTD SVG 1.1//EN"
  "http://www.w3.org/Graphics/SVG/1.1/DTD/svg11.dtd">
<svg xmlns:xlink="http://www.w3.org/1999/xlink" width="432pt" height="288pt" viewBox="0 0 432 288" xmlns="http://www.w3.org/2000/svg" version="1.1">
 <metadata>
  <rdf:RDF xmlns:dc="http://purl.org/dc/elements/1.1/" xmlns:cc="http://creativecommons.org/ns#" xmlns:rdf="http://www.w3.org/1999/02/22-rdf-syntax-ns#">
   <cc:Work>
    <dc:type rdf:resource="http://purl.org/dc/dcmitype/StillImage"/>
    <dc:date>2023-04-24T18:14:06.962138</dc:date>
    <dc:format>image/svg+xml</dc:format>
    <dc:creator>
     <cc:Agent>
      <dc:title>Matplotlib v3.7.1, https://matplotlib.org/</dc:title>
     </cc:Agent>
    </dc:creator>
   </cc:Work>
  </rdf:RDF>
 </metadata>
 <defs>
  <style type="text/css">*{stroke-linejoin: round; stroke-linecap: butt}</style>
 </defs>
 <g id="figure_1">
  <g id="patch_1">
   <path d="M 0 288 
L 432 288 
L 432 0 
L 0 0 
z
" style="fill: #ffffff"/>
  </g>
  <g id="axes_1">
   <g id="patch_2">
    <path d="M 50.72035 241.62676 
L 417.96 241.62676 
L 417.96 14.04 
L 50.72035 14.04 
z
" style="fill: #ffffff"/>
   </g>
   <g id="matplotlib.axis_1">
    <g id="xtick_1">
     <g id="line2d_1">
      <defs>
       <path id="m349e92c543" d="M 0 0 
L 0 3.5 
" style="stroke: #000000; stroke-width: 0.8"/>
      </defs>
      <g>
       <use xlink:href="#m349e92c543" x="67.413061" y="241.62676" style="stroke: #000000; stroke-width: 0.8"/>
      </g>
     </g>
     <g id="text_1">
      <!-- $\mathdefault{0.0}$ -->
      <g transform="translate(59.311005 257.620788) scale(0.13 -0.13)">
       <defs>
        <path id="CMR17-30" d="M 2688 2038 
C 2688 2430 2682 3099 2413 3613 
C 2176 4063 1798 4224 1466 4224 
C 1158 4224 768 4082 525 3620 
C 269 3137 243 2539 243 2038 
C 243 1671 250 1112 448 623 
C 723 -39 1216 -128 1466 -128 
C 1760 -128 2208 -7 2470 604 
C 2662 1048 2688 1568 2688 2038 
z
M 1466 -26 
C 1056 -26 813 328 723 816 
C 653 1196 653 1749 653 2109 
C 653 2604 653 3015 736 3407 
C 858 3954 1216 4121 1466 4121 
C 1728 4121 2067 3947 2189 3420 
C 2272 3054 2278 2623 2278 2109 
C 2278 1691 2278 1176 2202 797 
C 2067 96 1690 -26 1466 -26 
z
" transform="scale(0.015625)"/>
        <path id="CMMI12-3a" d="M 1178 307 
C 1178 492 1024 620 870 620 
C 685 620 557 467 557 313 
C 557 128 710 0 864 0 
C 1050 0 1178 153 1178 307 
z
" transform="scale(0.015625)"/>
       </defs>
       <use xlink:href="#CMR17-30" transform="scale(0.996264)"/>
       <use xlink:href="#CMMI12-3a" transform="translate(45.690477 0) scale(0.996264)"/>
       <use xlink:href="#CMR17-30" transform="translate(72.787654 0) scale(0.996264)"/>
      </g>
     </g>
    </g>
    <g id="xtick_2">
     <g id="line2d_2">
      <g>
       <use xlink:href="#m349e92c543" x="134.183907" y="241.62676" style="stroke: #000000; stroke-width: 0.8"/>
      </g>
     </g>
     <g id="text_2">
      <!-- $\mathdefault{0.2}$ -->
      <g transform="translate(126.081851 257.620788) scale(0.13 -0.13)">
       <defs>
        <path id="CMR17-32" d="M 2669 990 
L 2554 990 
C 2490 537 2438 460 2413 422 
C 2381 371 1920 371 1830 371 
L 602 371 
C 832 620 1280 1073 1824 1596 
C 2214 1966 2669 2400 2669 3033 
C 2669 3788 2067 4224 1395 4224 
C 691 4224 262 3603 262 3027 
C 262 2777 448 2745 525 2745 
C 589 2745 781 2783 781 3007 
C 781 3206 614 3264 525 3264 
C 486 3264 448 3257 422 3244 
C 544 3788 915 4057 1306 4057 
C 1862 4057 2227 3616 2227 3033 
C 2227 2477 1901 1998 1536 1583 
L 262 147 
L 262 0 
L 2515 0 
L 2669 990 
z
" transform="scale(0.015625)"/>
       </defs>
       <use xlink:href="#CMR17-30" transform="scale(0.996264)"/>
       <use xlink:href="#CMMI12-3a" transform="translate(45.690477 0) scale(0.996264)"/>
       <use xlink:href="#CMR17-32" transform="translate(72.787654 0) scale(0.996264)"/>
      </g>
     </g>
    </g>
    <g id="xtick_3">
     <g id="line2d_3">
      <g>
       <use xlink:href="#m349e92c543" x="200.954752" y="241.62676" style="stroke: #000000; stroke-width: 0.8"/>
      </g>
     </g>
     <g id="text_3">
      <!-- $\mathdefault{0.4}$ -->
      <g transform="translate(192.852696 257.620788) scale(0.13 -0.13)">
       <defs>
        <path id="CMR17-34" d="M 2150 4147 
C 2150 4281 2144 4288 2029 4288 
L 128 1254 
L 128 1088 
L 1779 1088 
L 1779 460 
C 1779 230 1766 166 1318 166 
L 1197 166 
L 1197 0 
C 1402 12 1747 12 1965 12 
C 2182 12 2528 12 2733 0 
L 2733 166 
L 2611 166 
C 2163 166 2150 230 2150 460 
L 2150 1088 
L 2803 1088 
L 2803 1254 
L 2150 1254 
L 2150 4147 
z
M 1798 3723 
L 1798 1254 
L 256 1254 
L 1798 3723 
z
" transform="scale(0.015625)"/>
       </defs>
       <use xlink:href="#CMR17-30" transform="scale(0.996264)"/>
       <use xlink:href="#CMMI12-3a" transform="translate(45.690477 0) scale(0.996264)"/>
       <use xlink:href="#CMR17-34" transform="translate(72.787654 0) scale(0.996264)"/>
      </g>
     </g>
    </g>
    <g id="xtick_4">
     <g id="line2d_4">
      <g>
       <use xlink:href="#m349e92c543" x="267.725598" y="241.62676" style="stroke: #000000; stroke-width: 0.8"/>
      </g>
     </g>
     <g id="text_4">
      <!-- $\mathdefault{0.6}$ -->
      <g transform="translate(259.623542 257.620788) scale(0.13 -0.13)">
       <defs>
        <path id="CMR17-36" d="M 678 2198 
C 678 3712 1395 4076 1811 4076 
C 1946 4076 2272 4049 2400 3782 
C 2298 3782 2106 3782 2106 3558 
C 2106 3385 2246 3328 2336 3328 
C 2394 3328 2566 3353 2566 3571 
C 2566 3987 2246 4224 1805 4224 
C 1043 4224 243 3411 243 2011 
C 243 257 966 -128 1478 -128 
C 2099 -128 2688 431 2688 1295 
C 2688 2101 2170 2688 1517 2688 
C 1126 2688 838 2430 678 1979 
L 678 2198 
z
M 1478 25 
C 691 25 691 1212 691 1450 
C 691 1914 909 2585 1504 2585 
C 1613 2585 1926 2585 2138 2140 
C 2253 1889 2253 1624 2253 1302 
C 2253 954 2253 696 2118 438 
C 1978 173 1773 25 1478 25 
z
" transform="scale(0.015625)"/>
       </defs>
       <use xlink:href="#CMR17-30" transform="scale(0.996264)"/>
       <use xlink:href="#CMMI12-3a" transform="translate(45.690477 0) scale(0.996264)"/>
       <use xlink:href="#CMR17-36" transform="translate(72.787654 0) scale(0.996264)"/>
      </g>
     </g>
    </g>
    <g id="xtick_5">
     <g id="line2d_5">
      <g>
       <use xlink:href="#m349e92c543" x="334.496443" y="241.62676" style="stroke: #000000; stroke-width: 0.8"/>
      </g>
     </g>
     <g id="text_5">
      <!-- $\mathdefault{0.8}$ -->
      <g transform="translate(326.394387 257.620788) scale(0.13 -0.13)">
       <defs>
        <path id="CMR17-38" d="M 1741 2289 
C 2144 2494 2554 2803 2554 3298 
C 2554 3884 1990 4224 1472 4224 
C 890 4224 378 3800 378 3215 
C 378 3054 416 2777 666 2533 
C 730 2469 998 2276 1171 2154 
C 883 2006 211 1652 211 945 
C 211 282 838 -128 1459 -128 
C 2144 -128 2720 366 2720 1022 
C 2720 1607 2330 1877 2074 2051 
L 1741 2289 
z
M 902 2855 
C 851 2887 595 3086 595 3388 
C 595 3781 998 4076 1459 4076 
C 1965 4076 2336 3716 2336 3298 
C 2336 2700 1670 2359 1638 2359 
C 1632 2359 1626 2359 1574 2398 
L 902 2855 
z
M 2080 1536 
C 2176 1466 2483 1253 2483 861 
C 2483 385 2010 25 1472 25 
C 890 25 448 443 448 951 
C 448 1459 838 1884 1280 2083 
L 2080 1536 
z
" transform="scale(0.015625)"/>
       </defs>
       <use xlink:href="#CMR17-30" transform="scale(0.996264)"/>
       <use xlink:href="#CMMI12-3a" transform="translate(45.690477 0) scale(0.996264)"/>
       <use xlink:href="#CMR17-38" transform="translate(72.787654 0) scale(0.996264)"/>
      </g>
     </g>
    </g>
    <g id="xtick_6">
     <g id="line2d_6">
      <g>
       <use xlink:href="#m349e92c543" x="401.267289" y="241.62676" style="stroke: #000000; stroke-width: 0.8"/>
      </g>
     </g>
     <g id="text_6">
      <!-- $\mathdefault{1.0}$ -->
      <g transform="translate(393.165233 257.620788) scale(0.13 -0.13)">
       <defs>
        <path id="CMR17-31" d="M 1702 4083 
C 1702 4217 1696 4224 1606 4224 
C 1357 3927 979 3833 621 3820 
C 602 3820 570 3820 563 3808 
C 557 3795 557 3782 557 3648 
C 755 3648 1088 3686 1344 3839 
L 1344 467 
C 1344 243 1331 166 781 166 
L 589 166 
L 589 0 
C 896 6 1216 12 1523 12 
C 1830 12 2150 6 2458 0 
L 2458 166 
L 2266 166 
C 1715 166 1702 236 1702 467 
L 1702 4083 
z
" transform="scale(0.015625)"/>
       </defs>
       <use xlink:href="#CMR17-31" transform="scale(0.996264)"/>
       <use xlink:href="#CMMI12-3a" transform="translate(45.690477 0) scale(0.996264)"/>
       <use xlink:href="#CMR17-30" transform="translate(72.787654 0) scale(0.996264)"/>
      </g>
     </g>
    </g>
    <g id="text_7">
     <!-- $x$ -->
     <g transform="translate(230.736965 273.133128) scale(0.13 -0.13)">
      <defs>
       <path id="CMMI12-78" d="M 3034 2624 
C 2829 2585 2752 2431 2752 2310 
C 2752 2156 2874 2105 2963 2105 
C 3155 2105 3290 2271 3290 2444 
C 3290 2694 2982 2816 2714 2816 
C 2323 2816 2106 2451 2048 2329 
C 1901 2790 1504 2816 1389 2816 
C 736 2816 390 1993 390 1849 
C 390 1823 416 1790 461 1790 
C 512 1790 525 1829 538 1855 
C 755 2572 1184 2687 1370 2687 
C 1658 2687 1715 2438 1715 2284 
C 1715 2143 1677 1993 1600 1678 
L 1382 778 
C 1286 390 1101 64 762 64 
C 730 64 570 64 435 126 
C 666 166 717 358 717 435 
C 717 563 621 640 499 640 
C 346 640 179 505 179 300 
C 179 57 480 -64 755 -64 
C 1062 -64 1280 153 1414 415 
C 1517 64 1837 -64 2074 -64 
C 2726 -64 3072 751 3072 896 
C 3072 929 3046 955 3008 955 
C 2950 955 2944 922 2925 870 
C 2752 300 2381 64 2093 64 
C 1869 64 1747 204 1747 467 
C 1747 607 1773 712 1875 1146 
L 2099 2039 
C 2195 2425 2413 2687 2707 2687 
C 2720 2687 2899 2687 3034 2624 
z
" transform="scale(0.015625)"/>
      </defs>
      <use xlink:href="#CMMI12-78" transform="scale(0.996264)"/>
     </g>
    </g>
   </g>
   <g id="matplotlib.axis_2">
    <g id="ytick_1">
     <g id="line2d_7">
      <defs>
       <path id="m13e187a727" d="M 0 0 
L -3.5 0 
" style="stroke: #000000; stroke-width: 0.8"/>
      </defs>
      <g>
       <use xlink:href="#m13e187a727" x="50.72035" y="233.385363" style="stroke: #000000; stroke-width: 0.8"/>
      </g>
     </g>
     <g id="text_8">
      <!-- $\mathdefault{0.9}$ -->
      <g transform="translate(27.516238 237.882377) scale(0.13 -0.13)">
       <defs>
        <path id="CMR17-39" d="M 2253 1871 
C 2253 448 1670 25 1190 25 
C 1043 25 685 43 538 281 
C 704 256 826 345 826 505 
C 826 678 685 736 595 736 
C 538 736 365 710 365 492 
C 365 68 742 -128 1203 -128 
C 1939 -128 2688 665 2688 2090 
C 2688 3857 1971 4224 1485 4224 
C 851 4224 243 3664 243 2800 
C 243 2000 762 1408 1414 1408 
C 1952 1408 2189 1910 2253 2122 
L 2253 1871 
z
M 1427 1510 
C 1254 1510 1011 1542 813 1929 
C 678 2181 678 2477 678 2793 
C 678 3174 678 3438 858 3722 
C 947 3857 1114 4076 1485 4076 
C 2240 4076 2240 2909 2240 2651 
C 2240 2193 2035 1510 1427 1510 
z
" transform="scale(0.015625)"/>
       </defs>
       <use xlink:href="#CMR17-30" transform="scale(0.996264)"/>
       <use xlink:href="#CMMI12-3a" transform="translate(45.690477 0) scale(0.996264)"/>
       <use xlink:href="#CMR17-39" transform="translate(72.787654 0) scale(0.996264)"/>
      </g>
     </g>
    </g>
    <g id="ytick_2">
     <g id="line2d_8">
      <g>
       <use xlink:href="#m13e187a727" x="50.72035" y="201.301845" style="stroke: #000000; stroke-width: 0.8"/>
      </g>
     </g>
     <g id="text_9">
      <!-- $\mathdefault{1.0}$ -->
      <g transform="translate(27.516238 205.798859) scale(0.13 -0.13)">
       <use xlink:href="#CMR17-31" transform="scale(0.996264)"/>
       <use xlink:href="#CMMI12-3a" transform="translate(45.690477 0) scale(0.996264)"/>
       <use xlink:href="#CMR17-30" transform="translate(72.787654 0) scale(0.996264)"/>
      </g>
     </g>
    </g>
    <g id="ytick_3">
     <g id="line2d_9">
      <g>
       <use xlink:href="#m13e187a727" x="50.72035" y="169.218327" style="stroke: #000000; stroke-width: 0.8"/>
      </g>
     </g>
     <g id="text_10">
      <!-- $\mathdefault{1.1}$ -->
      <g transform="translate(27.516238 173.715341) scale(0.13 -0.13)">
       <use xlink:href="#CMR17-31" transform="scale(0.996264)"/>
       <use xlink:href="#CMMI12-3a" transform="translate(45.690477 0) scale(0.996264)"/>
       <use xlink:href="#CMR17-31" transform="translate(72.787654 0) scale(0.996264)"/>
      </g>
     </g>
    </g>
    <g id="ytick_4">
     <g id="line2d_10">
      <g>
       <use xlink:href="#m13e187a727" x="50.72035" y="137.134809" style="stroke: #000000; stroke-width: 0.8"/>
      </g>
     </g>
     <g id="text_11">
      <!-- $\mathdefault{1.2}$ -->
      <g transform="translate(27.516238 141.631823) scale(0.13 -0.13)">
       <use xlink:href="#CMR17-31" transform="scale(0.996264)"/>
       <use xlink:href="#CMMI12-3a" transform="translate(45.690477 0) scale(0.996264)"/>
       <use xlink:href="#CMR17-32" transform="translate(72.787654 0) scale(0.996264)"/>
      </g>
     </g>
    </g>
    <g id="ytick_5">
     <g id="line2d_11">
      <g>
       <use xlink:href="#m13e187a727" x="50.72035" y="105.051291" style="stroke: #000000; stroke-width: 0.8"/>
      </g>
     </g>
     <g id="text_12">
      <!-- $\mathdefault{1.3}$ -->
      <g transform="translate(27.516238 109.548305) scale(0.13 -0.13)">
       <defs>
        <path id="CMR17-33" d="M 1414 2176 
C 1984 2176 2234 1673 2234 1094 
C 2234 322 1824 25 1453 25 
C 1114 25 563 193 390 691 
C 422 678 454 678 486 678 
C 640 678 755 780 755 947 
C 755 1132 614 1216 486 1216 
C 378 1216 211 1164 211 927 
C 211 335 787 -128 1466 -128 
C 2176 -128 2720 432 2720 1087 
C 2720 1718 2208 2176 1600 2246 
C 2086 2347 2554 2776 2554 3353 
C 2554 3856 2048 4224 1472 4224 
C 890 4224 378 3862 378 3347 
C 378 3123 544 3084 627 3084 
C 762 3084 877 3167 877 3334 
C 877 3500 762 3584 627 3584 
C 602 3584 570 3584 544 3571 
C 730 3999 1235 4076 1459 4076 
C 1683 4076 2106 3966 2106 3347 
C 2106 3167 2080 2851 1862 2574 
C 1670 2329 1453 2316 1242 2297 
C 1210 2297 1062 2284 1037 2284 
C 992 2278 966 2272 966 2227 
C 966 2182 973 2176 1101 2176 
L 1414 2176 
z
" transform="scale(0.015625)"/>
       </defs>
       <use xlink:href="#CMR17-31" transform="scale(0.996264)"/>
       <use xlink:href="#CMMI12-3a" transform="translate(45.690477 0) scale(0.996264)"/>
       <use xlink:href="#CMR17-33" transform="translate(72.787654 0) scale(0.996264)"/>
      </g>
     </g>
    </g>
    <g id="ytick_6">
     <g id="line2d_12">
      <g>
       <use xlink:href="#m13e187a727" x="50.72035" y="72.967773" style="stroke: #000000; stroke-width: 0.8"/>
      </g>
     </g>
     <g id="text_13">
      <!-- $\mathdefault{1.4}$ -->
      <g transform="translate(27.516238 77.464787) scale(0.13 -0.13)">
       <use xlink:href="#CMR17-31" transform="scale(0.996264)"/>
       <use xlink:href="#CMMI12-3a" transform="translate(45.690477 0) scale(0.996264)"/>
       <use xlink:href="#CMR17-34" transform="translate(72.787654 0) scale(0.996264)"/>
      </g>
     </g>
    </g>
    <g id="ytick_7">
     <g id="line2d_13">
      <g>
       <use xlink:href="#m13e187a727" x="50.72035" y="40.884255" style="stroke: #000000; stroke-width: 0.8"/>
      </g>
     </g>
     <g id="text_14">
      <!-- $\mathdefault{1.5}$ -->
      <g transform="translate(27.516238 45.381269) scale(0.13 -0.13)">
       <defs>
        <path id="CMR17-35" d="M 730 3750 
C 794 3724 1056 3641 1325 3641 
C 1920 3641 2246 3961 2432 4140 
C 2432 4191 2432 4224 2394 4224 
C 2387 4224 2374 4224 2323 4198 
C 2099 4102 1837 4032 1517 4032 
C 1325 4032 1037 4055 723 4191 
C 653 4224 640 4224 634 4224 
C 602 4224 595 4217 595 4090 
L 595 2231 
C 595 2113 595 2080 659 2080 
C 691 2080 704 2093 736 2139 
C 941 2435 1222 2560 1542 2560 
C 1766 2560 2246 2415 2246 1293 
C 2246 1087 2246 716 2054 422 
C 1894 159 1645 25 1370 25 
C 947 25 518 319 403 812 
C 429 806 480 793 506 793 
C 589 793 749 838 749 1036 
C 749 1209 627 1280 506 1280 
C 358 1280 262 1190 262 1011 
C 262 454 704 -128 1382 -128 
C 2042 -128 2669 441 2669 1267 
C 2669 2054 2170 2662 1549 2662 
C 1222 2662 947 2540 730 2304 
L 730 3750 
z
" transform="scale(0.015625)"/>
       </defs>
       <use xlink:href="#CMR17-31" transform="scale(0.996264)"/>
       <use xlink:href="#CMMI12-3a" transform="translate(45.690477 0) scale(0.996264)"/>
       <use xlink:href="#CMR17-35" transform="translate(72.787654 0) scale(0.996264)"/>
      </g>
     </g>
    </g>
    <g id="text_15">
     <!-- $A$ -->
     <g transform="translate(20.997926 132.586689) rotate(-90) scale(0.13 -0.13)">
      <defs>
       <path id="CMMI12-41" d="M 1088 720 
C 864 335 646 205 339 185 
C 269 179 218 179 218 64 
C 218 25 250 0 294 0 
C 410 0 698 12 813 12 
C 998 12 1203 0 1382 0 
C 1421 0 1498 0 1498 121 
C 1498 179 1446 185 1408 185 
C 1261 198 1139 250 1139 407 
C 1139 498 1178 570 1261 714 
L 1747 1536 
L 3379 1536 
C 3386 1477 3386 1425 3392 1366 
C 3411 1196 3488 518 3488 394 
C 3488 198 3162 185 3059 185 
C 2989 185 2918 185 2918 70 
C 2918 0 2976 0 3014 0 
C 3123 0 3251 12 3360 12 
L 3725 12 
C 4115 12 4397 0 4403 0 
C 4448 0 4518 0 4518 121 
C 4518 185 4461 185 4365 185 
C 4013 185 4006 244 3987 440 
L 3597 4403 
C 3584 4531 3558 4544 3488 4544 
C 3424 4544 3386 4531 3328 4435 
L 1088 720 
z
M 1856 1721 
L 3142 3831 
L 3360 1721 
L 1856 1721 
z
" transform="scale(0.015625)"/>
      </defs>
      <use xlink:href="#CMMI12-41" transform="scale(0.996264)"/>
     </g>
    </g>
   </g>
   <g id="line2d_14">
    <path d="M 67.413061 201.301845 
L 70.785326 200.635438 
L 74.157591 199.949754 
L 77.529856 199.244411 
L 80.902121 198.519219 
L 84.274386 197.77387 
L 87.646651 197.008098 
L 91.018915 196.221635 
L 94.391181 195.41425 
L 97.763447 194.585677 
L 101.13571 193.735686 
L 104.507976 192.864048 
L 107.880242 191.970532 
L 111.252505 191.054949 
L 114.624768 190.117067 
L 117.997037 189.156735 
L 121.3693 188.173722 
L 124.741563 187.167877 
L 128.113832 186.139045 
L 131.486095 185.087036 
L 134.858358 184.011735 
L 138.230627 182.912988 
L 141.60289 181.790682 
L 144.975154 180.644663 
L 148.347422 179.474892 
L 151.71969 178.281256 
L 155.091949 177.06364 
L 158.464217 175.822004 
L 161.836485 174.556197 
L 165.208744 173.266294 
L 168.581012 171.952143 
L 171.95328 170.613744 
L 175.325539 169.251097 
L 178.697807 167.864124 
L 182.070065 166.452827 
L 185.442334 165.017244 
L 188.814602 163.557335 
L 192.186861 162.07314 
L 195.559129 160.56462 
L 198.931387 159.031852 
L 202.303656 157.474874 
L 205.675924 155.893686 
L 209.048182 154.288326 
L 212.420451 152.658871 
L 215.792719 151.005358 
L 219.164977 149.327827 
L 222.537246 147.626315 
L 225.909514 145.900938 
L 229.281782 144.151732 
L 232.654051 142.378738 
L 236.026319 140.58203 
L 239.398568 138.761725 
L 242.770836 136.917783 
L 246.143104 135.050396 
L 249.515373 133.159525 
L 252.887641 131.245325 
L 256.259889 129.307793 
L 259.632158 127.347047 
L 263.004426 125.363084 
L 266.376674 123.356097 
L 269.748943 121.32601 
L 273.121211 119.272974 
L 276.493479 117.197028 
L 279.865748 115.09825 
L 283.238016 112.976715 
L 286.610285 110.832461 
L 289.982553 108.665604 
L 293.354821 106.476181 
L 296.72707 104.264307 
L 300.099338 102.030021 
L 303.471606 99.773437 
L 306.843875 97.494632 
L 310.216143 95.193683 
L 313.588411 92.870779 
L 316.96068 90.525923 
L 320.332928 88.15938 
L 323.705196 85.771152 
L 327.077465 83.361467 
L 330.449733 80.930441 
L 333.822001 78.478303 
L 337.19425 76.005205 
L 340.566518 73.511378 
L 343.938787 70.997051 
L 347.311035 68.462492 
L 350.683303 65.907891 
L 354.055572 63.333593 
L 357.42784 60.739866 
L 360.800108 58.127054 
L 364.172377 55.49554 
L 367.544645 52.845629 
L 370.916913 50.177742 
L 374.289182 47.492261 
L 377.66143 44.789723 
L 381.033699 42.070433 
L 384.405967 39.334887 
L 387.778235 36.583661 
L 391.150504 33.817136 
L 394.522752 31.036001 
L 397.89502 28.240639 
L 401.267289 25.43166 
" clip-path="url(#pd02973fba1)" style="fill: none; stroke: #1f77b4; stroke-width: 1.5; stroke-linecap: square"/>
   </g>
   <g id="line2d_15">
    <path d="M 67.413061 201.301845 
L 70.785326 200.526435 
L 74.157591 199.735994 
L 77.529856 198.930139 
L 80.902121 198.108604 
L 84.274386 197.27112 
L 87.646651 196.417342 
L 91.018915 195.547004 
L 94.391181 194.659799 
L 97.763447 193.755383 
L 101.13571 192.833527 
L 104.507976 191.893925 
L 107.880242 190.936231 
L 111.252505 189.96018 
L 114.624768 188.965502 
L 117.997037 187.951854 
L 121.3693 186.919045 
L 124.741563 185.866691 
L 128.113832 184.794603 
L 131.486095 183.702435 
L 134.858358 182.589958 
L 138.230627 181.456904 
L 141.60289 180.303045 
L 144.975154 179.128035 
L 148.347422 177.93176 
L 151.71969 176.713837 
L 155.091949 175.474152 
L 158.464217 174.212437 
L 161.836485 172.928463 
L 165.208744 171.621999 
L 168.581012 170.292894 
L 171.95328 168.940956 
L 175.325539 167.565954 
L 178.697807 166.167699 
L 182.070065 164.746114 
L 185.442334 163.300969 
L 188.814602 161.832149 
L 192.186861 160.33954 
L 195.559129 158.822988 
L 198.931387 157.282379 
L 202.303656 155.717599 
L 205.675924 154.128647 
L 209.048182 152.515331 
L 212.420451 150.877691 
L 215.792719 149.215612 
L 219.164977 147.529054 
L 222.537246 145.818057 
L 225.909514 144.082544 
L 229.281782 142.322554 
L 232.654051 140.538123 
L 236.026319 138.729253 
L 239.398568 136.895982 
L 242.770836 135.038386 
L 246.143104 133.156542 
L 249.515373 131.250526 
L 252.887641 129.320415 
L 256.259889 127.366399 
L 259.632158 125.388595 
L 263.004426 123.387077 
L 266.376674 121.362076 
L 269.748943 119.313745 
L 273.121211 117.242236 
L 276.493479 115.147817 
L 279.865748 113.030681 
L 283.238016 110.891016 
L 286.610285 108.729131 
L 289.982553 106.545216 
L 293.354821 104.339615 
L 296.72707 102.112519 
L 300.099338 99.864273 
L 303.471606 97.595221 
L 306.843875 95.305554 
L 310.216143 92.995731 
L 313.588411 90.665981 
L 316.96068 88.316765 
L 320.332928 85.94831 
L 323.705196 83.561076 
L 327.077465 81.155407 
L 330.449733 78.731648 
L 333.822001 76.290218 
L 337.19425 73.83154 
L 340.566518 71.355957 
L 343.938787 68.863927 
L 347.311035 66.355834 
L 350.683303 63.832022 
L 354.055572 61.293026 
L 357.42784 58.73919 
L 360.800108 56.170973 
L 364.172377 53.588835 
L 367.544645 50.993119 
L 370.916913 48.384247 
L 374.289182 45.762753 
L 377.66143 43.128982 
L 381.033699 40.483354 
L 384.405967 37.826368 
L 387.778235 35.158366 
L 391.150504 32.479808 
L 394.522752 29.791115 
L 397.89502 27.092631 
L 401.267289 24.384853 
" clip-path="url(#pd02973fba1)" style="fill: none; stroke: #ff7f0e; stroke-width: 1.5; stroke-linecap: square"/>
   </g>
   <g id="line2d_16">
    <path d="M 67.413061 201.301845 
L 70.785326 200.814125 
L 74.157591 200.310113 
L 77.529856 199.789463 
L 80.902121 199.251831 
L 84.274386 198.696989 
L 87.646651 198.124553 
L 91.018915 197.534256 
L 94.391181 196.925753 
L 97.763447 196.298701 
L 101.13571 195.652832 
L 104.507976 194.987801 
L 107.880242 194.303303 
L 111.252505 193.598993 
L 114.624768 192.874527 
L 117.997037 192.129638 
L 121.3693 191.363981 
L 124.741563 190.577249 
L 128.113832 189.769062 
L 131.486095 188.93915 
L 134.858358 188.087171 
L 138.230627 187.212778 
L 141.60289 186.315706 
L 144.975154 185.395571 
L 148.347422 184.452105 
L 151.71969 183.484927 
L 155.091949 182.493806 
L 158.464217 181.478361 
L 161.836485 180.438246 
L 165.208744 179.373195 
L 168.581012 178.282901 
L 171.95328 177.16702 
L 175.325539 176.025285 
L 178.697807 174.857312 
L 182.070065 173.662834 
L 185.442334 172.441546 
L 188.814602 171.193141 
L 192.186861 169.917313 
L 195.559129 168.613795 
L 198.931387 167.282203 
L 202.303656 165.922348 
L 205.675924 164.533846 
L 209.048182 163.116506 
L 212.420451 161.669945 
L 215.792719 160.193935 
L 219.164977 158.688169 
L 222.537246 157.152379 
L 225.909514 155.586299 
L 229.281782 153.989659 
L 232.654051 152.362192 
L 236.026319 150.70367 
L 239.398568 149.013785 
L 242.770836 147.292346 
L 246.143104 145.539087 
L 249.515373 143.753777 
L 252.887641 141.936187 
L 256.259889 140.086087 
L 259.632158 138.203287 
L 263.004426 136.287595 
L 266.376674 134.338819 
L 269.748943 132.356731 
L 273.121211 130.341215 
L 276.493479 128.292118 
L 279.865748 126.209289 
L 283.238016 124.092573 
L 286.610285 121.941893 
L 289.982553 119.757175 
L 293.354821 117.538264 
L 296.72707 115.285161 
L 300.099338 112.997827 
L 303.471606 110.676224 
L 306.843875 108.32039 
L 310.216143 105.930326 
L 313.588411 103.50607 
L 316.96068 101.047697 
L 320.332928 98.5554 
L 323.705196 96.029178 
L 327.077465 93.469299 
L 330.449733 90.875917 
L 333.822001 88.249221 
L 337.19425 85.589481 
L 340.566518 82.897001 
L 343.938787 80.172089 
L 347.311035 77.415087 
L 350.683303 74.626341 
L 354.055572 71.806348 
L 357.42784 68.955489 
L 360.800108 66.074225 
L 364.172377 63.16309 
L 367.544645 60.222697 
L 370.916913 57.253503 
L 374.289182 54.256199 
L 377.66143 51.231395 
L 381.033699 48.179743 
L 384.405967 45.101929 
L 387.778235 41.998644 
L 391.150504 38.870689 
L 394.522752 35.718831 
L 397.89502 32.543756 
L 401.267289 29.34627 
" clip-path="url(#pd02973fba1)" style="fill: none; stroke: #2ca02c; stroke-width: 1.5; stroke-linecap: square"/>
   </g>
   <g id="line2d_17">
    <path d="M 67.413061 201.301845 
L 70.785326 201.098833 
L 74.157591 200.878915 
L 77.529856 200.641863 
L 80.902121 200.387218 
L 84.274386 200.114635 
L 87.646651 199.82377 
L 91.018915 199.514279 
L 94.391181 199.185817 
L 97.763447 198.837965 
L 101.13571 198.470416 
L 104.507976 198.082749 
L 107.880242 197.674659 
L 111.252505 197.2458 
L 114.624768 196.795753 
L 117.997037 196.324212 
L 121.3693 195.830793 
L 124.741563 195.315154 
L 128.113832 194.77691 
L 131.486095 194.215757 
L 134.858358 193.631273 
L 138.230627 193.023192 
L 141.60289 192.391091 
L 144.975154 191.734666 
L 148.347422 191.053533 
L 151.71969 190.347349 
L 155.091949 189.61577 
L 158.464217 188.858412 
L 161.836485 188.07497 
L 165.208744 187.2651 
L 168.581012 186.42838 
L 171.95328 185.564506 
L 175.325539 184.673094 
L 178.697807 183.753762 
L 182.070065 182.806204 
L 185.442334 181.829999 
L 188.814602 180.824766 
L 192.186861 179.79012 
L 195.559129 178.725681 
L 198.931387 177.631065 
L 202.303656 176.505814 
L 205.675924 175.349545 
L 209.048182 174.161837 
L 212.420451 172.942193 
L 215.792719 171.690155 
L 219.164977 170.405339 
L 222.537246 169.087172 
L 225.909514 167.735195 
L 229.281782 166.348873 
L 232.654051 164.927632 
L 236.026319 163.471013 
L 239.398568 161.978365 
L 242.770836 160.449078 
L 246.143104 158.882614 
L 249.515373 157.278249 
L 252.887641 155.635407 
L 256.259889 153.953363 
L 259.632158 152.231427 
L 263.004426 150.468874 
L 266.376674 148.664976 
L 269.748943 146.818969 
L 273.121211 144.930087 
L 276.493479 142.997528 
L 279.865748 141.020489 
L 283.238016 138.998203 
L 286.610285 136.929792 
L 289.982553 134.814453 
L 293.354821 132.651382 
L 296.72707 130.439738 
L 300.099338 128.178679 
L 303.471606 125.867441 
L 306.843875 123.505221 
L 310.216143 121.091291 
L 313.588411 118.624848 
L 316.96068 116.105319 
L 320.332928 113.532016 
L 323.705196 110.904288 
L 327.077465 108.221638 
L 330.449733 105.483645 
L 333.822001 102.689889 
L 337.19425 99.840063 
L 340.566518 96.933938 
L 343.938787 93.971438 
L 347.311035 90.952486 
L 350.683303 87.877235 
L 354.055572 84.745877 
L 357.42784 81.558755 
L 360.800108 78.316367 
L 364.172377 75.01921 
L 367.544645 71.668125 
L 370.916913 68.263877 
L 374.289182 64.807538 
L 377.66143 61.300178 
L 381.033699 57.743097 
L 384.405967 54.137596 
L 387.778235 50.485282 
L 391.150504 46.787684 
L 394.522752 43.046637 
L 397.89502 39.263825 
L 401.267289 35.441352 
" clip-path="url(#pd02973fba1)" style="fill: none; stroke: #d62728; stroke-width: 1.5; stroke-linecap: square"/>
   </g>
   <g id="line2d_18">
    <path d="M 67.413061 201.301845 
L 70.785326 201.694503 
L 74.157591 202.0728 
L 77.529856 202.436352 
L 80.902121 202.784797 
L 84.274386 203.117733 
L 87.646651 203.43474 
L 91.018915 203.735434 
L 94.391181 204.019395 
L 97.763447 204.286222 
L 101.13571 204.535456 
L 104.507976 204.766713 
L 107.880242 204.979536 
L 111.252505 205.173485 
L 114.624768 205.348099 
L 117.997037 205.502978 
L 121.3693 205.637606 
L 124.741563 205.751562 
L 128.113832 205.844348 
L 131.486095 205.915506 
L 134.858358 205.964557 
L 138.230627 205.991004 
L 141.60289 205.994332 
L 144.975154 205.97408 
L 148.347422 205.929695 
L 151.71969 205.86066 
L 155.091949 205.766459 
L 158.464217 205.646556 
L 161.836485 205.500397 
L 165.208744 205.327408 
L 168.581012 205.127015 
L 171.95328 204.898626 
L 175.325539 204.641647 
L 178.697807 204.355468 
L 182.070065 204.039437 
L 185.442334 203.692923 
L 188.814602 203.315219 
L 192.186861 202.905656 
L 195.559129 202.463507 
L 198.931387 201.988026 
L 202.303656 201.478449 
L 205.675924 200.933952 
L 209.048182 200.353752 
L 212.420451 199.736912 
L 215.792719 199.08259 
L 219.164977 198.389792 
L 222.537246 197.657562 
L 225.909514 196.88483 
L 229.281782 196.070561 
L 232.654051 195.213609 
L 236.026319 194.312712 
L 239.398568 193.366722 
L 242.770836 192.374225 
L 246.143104 191.333919 
L 249.515373 190.244275 
L 252.887641 189.103802 
L 256.259889 187.910892 
L 259.632158 186.663788 
L 263.004426 185.360805 
L 266.376674 183.999993 
L 269.748943 182.579402 
L 273.121211 181.096966 
L 276.493479 179.550506 
L 279.865748 177.937803 
L 283.238016 176.256408 
L 286.610285 174.503876 
L 289.982553 172.677642 
L 293.354821 170.774953 
L 296.72707 168.793056 
L 300.099338 166.729044 
L 303.471606 164.579895 
L 306.843875 162.342511 
L 310.216143 160.013717 
L 313.588411 157.590302 
L 316.96068 155.068938 
L 320.332928 152.446258 
L 323.705196 149.718821 
L 327.077465 146.8833 
L 330.449733 143.936251 
L 333.822001 140.87431 
L 337.19425 137.694264 
L 340.566518 134.392785 
L 343.938787 130.96689 
L 347.311035 127.413672 
L 350.683303 123.730378 
L 354.055572 119.914521 
L 357.42784 115.964037 
L 360.800108 111.876974 
L 364.172377 107.651841 
L 367.544645 103.287682 
L 370.916913 98.783732 
L 374.289182 94.139914 
L 377.66143 89.356688 
L 381.033699 84.434818 
L 384.405967 79.375872 
L 387.778235 74.181878 
L 391.150504 68.855475 
L 394.522752 63.399989 
L 397.89502 57.819131 
L 401.267289 52.117262 
" clip-path="url(#pd02973fba1)" style="fill: none; stroke: #9467bd; stroke-width: 1.5; stroke-linecap: square"/>
   </g>
   <g id="line2d_19">
    <path d="M 67.413061 201.301845 
L 70.785326 202.519252 
L 74.157591 203.718376 
L 77.529856 204.898741 
L 80.902121 206.059905 
L 84.274386 207.201411 
L 87.646651 208.3228 
L 91.018915 209.423611 
L 94.391181 210.503349 
L 97.763447 211.561593 
L 101.13571 212.597863 
L 104.507976 213.611683 
L 107.880242 214.602575 
L 111.252505 215.570078 
L 114.624768 216.513735 
L 117.997037 217.433067 
L 121.3693 218.327596 
L 124.741563 219.196844 
L 128.113832 220.040352 
L 131.486095 220.857642 
L 134.858358 221.648217 
L 138.230627 222.411637 
L 141.60289 223.147386 
L 144.975154 223.854966 
L 148.347422 224.533937 
L 151.71969 225.183803 
L 155.091949 225.804028 
L 158.464217 226.394153 
L 161.836485 226.953624 
L 165.208744 227.481961 
L 168.581012 227.978611 
L 171.95328 228.443039 
L 175.325539 228.874709 
L 178.697807 229.273027 
L 182.070065 229.637421 
L 185.442334 229.967278 
L 188.814602 230.261987 
L 192.186861 230.520878 
L 195.559129 230.743281 
L 198.931387 230.92849 
L 202.303656 231.075758 
L 205.675924 231.184302 
L 209.048182 231.253299 
L 212.420451 231.281907 
L 215.792719 231.269152 
L 219.164977 231.214077 
L 222.537246 231.115669 
L 225.909514 230.97278 
L 229.281782 230.784262 
L 232.654051 230.548874 
L 236.026319 230.265238 
L 239.398568 229.931938 
L 242.770836 229.547446 
L 246.143104 229.110059 
L 249.515373 228.618094 
L 252.887641 228.069562 
L 256.259889 227.462513 
L 259.632158 226.79469 
L 263.004426 226.063799 
L 266.376674 225.267334 
L 269.748943 224.402561 
L 273.121211 223.466649 
L 276.493479 222.456481 
L 279.865748 221.368769 
L 283.238016 220.199955 
L 286.610285 218.946272 
L 289.982553 217.603685 
L 293.354821 216.167929 
L 296.72707 214.634415 
L 300.099338 212.998266 
L 303.471606 211.254358 
L 306.843875 209.397221 
L 310.216143 207.421119 
L 313.588411 205.31995 
L 316.96068 203.087366 
L 320.332928 200.716673 
L 323.705196 198.200893 
L 327.077465 195.532815 
L 330.449733 192.704828 
L 333.822001 189.709321 
L 337.19425 186.538339 
L 340.566518 183.183812 
L 343.938787 179.63767 
L 347.311035 175.891804 
L 350.683303 171.93826 
L 354.055572 167.76935 
L 357.42784 163.377615 
L 360.800108 158.756248 
L 364.172377 153.899091 
L 367.544645 148.800904 
L 370.916913 143.457405 
L 374.289182 137.865876 
L 377.66143 132.024904 
L 381.033699 125.934755 
L 384.405967 119.597955 
L 387.778235 113.018786 
L 391.150504 106.204057 
L 394.522752 99.162831 
L 397.89502 91.906355 
L 401.267289 84.448395 
" clip-path="url(#pd02973fba1)" style="fill: none; stroke: #8c564b; stroke-width: 1.5; stroke-linecap: square"/>
   </g>
   <g id="patch_3">
    <path d="M 50.72035 241.62676 
L 50.72035 14.04 
" style="fill: none; stroke: #000000; stroke-width: 0.8; stroke-linejoin: miter; stroke-linecap: square"/>
   </g>
   <g id="patch_4">
    <path d="M 417.96 241.62676 
L 417.96 14.04 
" style="fill: none; stroke: #000000; stroke-width: 0.8; stroke-linejoin: miter; stroke-linecap: square"/>
   </g>
   <g id="patch_5">
    <path d="M 50.72035 241.62676 
L 417.96 241.62676 
" style="fill: none; stroke: #000000; stroke-width: 0.8; stroke-linejoin: miter; stroke-linecap: square"/>
   </g>
   <g id="patch_6">
    <path d="M 50.72035 14.04 
L 417.96 14.04 
" style="fill: none; stroke: #000000; stroke-width: 0.8; stroke-linejoin: miter; stroke-linecap: square"/>
   </g>
   <g id="legend_1">
    <g id="patch_7">
     <path d="M 59.82035 133.149872 
L 148.900943 133.149872 
Q 151.500943 133.149872 151.500943 130.549872 
L 151.500943 23.14 
Q 151.500943 20.54 148.900943 20.54 
L 59.82035 20.54 
Q 57.22035 20.54 57.22035 23.14 
L 57.22035 130.549872 
Q 57.22035 133.149872 59.82035 133.149872 
z
" style="fill: #ffffff; opacity: 0.8; stroke: #cccccc; stroke-linejoin: miter"/>
    </g>
    <g id="line2d_20">
     <path d="M 62.42035 30.29 
L 75.42035 30.29 
L 88.42035 30.29 
" style="fill: none; stroke: #1f77b4; stroke-width: 1.5; stroke-linecap: square"/>
    </g>
    <g id="text_16">
     <!-- $\beta=0.01$ -->
     <g transform="translate(98.82035 34.84) scale(0.13 -0.13)">
      <defs>
       <path id="CMMI12-c" d="M 3622 3739 
C 3622 4131 3296 4544 2714 4544 
C 1888 4544 1363 3510 1197 2830 
L 186 -1152 
C 173 -1204 211 -1216 243 -1216 
C 288 -1216 320 -1210 326 -1178 
L 774 592 
C 838 231 1190 -64 1568 -64 
C 2483 -64 3347 657 3347 1618 
C 3347 1863 3290 2108 3155 2314 
C 3078 2437 2982 2527 2880 2599 
C 3341 2823 3622 3222 3622 3739 
z
M 2509 2605 
C 2406 2571 2304 2560 2182 2560 
C 2093 2560 2010 2553 1894 2588 
C 1958 2627 2054 2639 2189 2639 
C 2304 2639 2419 2627 2509 2605 
z
M 3290 3798 
C 3290 3438 3117 2915 2701 2684 
C 2579 2723 2413 2752 2272 2752 
C 2138 2752 1754 2765 1754 2582 
C 1754 2411 2106 2430 2214 2430 
C 2381 2430 2528 2469 2682 2514 
C 2886 2347 2976 2127 2976 1805 
C 2976 1431 2874 1128 2752 850 
C 2541 373 2042 64 1600 64 
C 1133 64 890 438 890 876 
C 890 934 890 1018 915 1115 
L 1331 2784 
C 1542 3641 2080 4413 2701 4413 
C 3162 4413 3290 4086 3290 3798 
z
" transform="scale(0.015625)"/>
       <path id="CMR17-3d" d="M 4115 2048 
C 4211 2048 4307 2048 4307 2156 
C 4307 2272 4198 2272 4090 2272 
L 512 2272 
C 403 2272 294 2272 294 2156 
C 294 2048 390 2048 486 2048 
L 4115 2048 
z
M 4090 927 
C 4198 927 4307 927 4307 1043 
C 4307 1152 4211 1152 4115 1152 
L 486 1152 
C 390 1152 294 1152 294 1043 
C 294 927 403 927 512 927 
L 4090 927 
z
" transform="scale(0.015625)"/>
      </defs>
      <use xlink:href="#CMMI12-c" transform="scale(0.996264)"/>
      <use xlink:href="#CMR17-3d" transform="translate(88.268024 0) scale(0.996264)"/>
      <use xlink:href="#CMR17-30" transform="translate(187.656822 0) scale(0.996264)"/>
      <use xlink:href="#CMMI12-3a" transform="translate(233.347299 0) scale(0.996264)"/>
      <use xlink:href="#CMR17-30" transform="translate(260.444476 0) scale(0.996264)"/>
      <use xlink:href="#CMR17-31" transform="translate(306.134953 0) scale(0.996264)"/>
     </g>
    </g>
    <g id="line2d_21">
     <path d="M 62.42035 48.408312 
L 75.42035 48.408312 
L 88.42035 48.408312 
" style="fill: none; stroke: #ff7f0e; stroke-width: 1.5; stroke-linecap: square"/>
    </g>
    <g id="text_17">
     <!-- $\beta=0.1$ -->
     <g transform="translate(98.82035 52.958312) scale(0.13 -0.13)">
      <use xlink:href="#CMMI12-c" transform="scale(0.996264)"/>
      <use xlink:href="#CMR17-3d" transform="translate(88.268024 0) scale(0.996264)"/>
      <use xlink:href="#CMR17-30" transform="translate(187.656822 0) scale(0.996264)"/>
      <use xlink:href="#CMMI12-3a" transform="translate(233.347299 0) scale(0.996264)"/>
      <use xlink:href="#CMR17-31" transform="translate(260.444476 0) scale(0.996264)"/>
     </g>
    </g>
    <g id="line2d_22">
     <path d="M 62.42035 66.526624 
L 75.42035 66.526624 
L 88.42035 66.526624 
" style="fill: none; stroke: #2ca02c; stroke-width: 1.5; stroke-linecap: square"/>
    </g>
    <g id="text_18">
     <!-- $\beta=1$ -->
     <g transform="translate(98.82035 71.076624) scale(0.13 -0.13)">
      <use xlink:href="#CMMI12-c" transform="scale(0.996264)"/>
      <use xlink:href="#CMR17-3d" transform="translate(88.268024 0) scale(0.996264)"/>
      <use xlink:href="#CMR17-31" transform="translate(187.656822 0) scale(0.996264)"/>
     </g>
    </g>
    <g id="line2d_23">
     <path d="M 62.42035 84.644936 
L 75.42035 84.644936 
L 88.42035 84.644936 
" style="fill: none; stroke: #d62728; stroke-width: 1.5; stroke-linecap: square"/>
    </g>
    <g id="text_19">
     <!-- $\beta=2$ -->
     <g transform="translate(98.82035 89.194936) scale(0.13 -0.13)">
      <use xlink:href="#CMMI12-c" transform="scale(0.996264)"/>
      <use xlink:href="#CMR17-3d" transform="translate(88.268024 0) scale(0.996264)"/>
      <use xlink:href="#CMR17-32" transform="translate(187.656822 0) scale(0.996264)"/>
     </g>
    </g>
    <g id="line2d_24">
     <path d="M 62.42035 102.763248 
L 75.42035 102.763248 
L 88.42035 102.763248 
" style="fill: none; stroke: #9467bd; stroke-width: 1.5; stroke-linecap: square"/>
    </g>
    <g id="text_20">
     <!-- $\beta=5$ -->
     <g transform="translate(98.82035 107.313248) scale(0.13 -0.13)">
      <use xlink:href="#CMMI12-c" transform="scale(0.996264)"/>
      <use xlink:href="#CMR17-3d" transform="translate(88.268024 0) scale(0.996264)"/>
      <use xlink:href="#CMR17-35" transform="translate(187.656822 0) scale(0.996264)"/>
     </g>
    </g>
    <g id="line2d_25">
     <path d="M 62.42035 120.88156 
L 75.42035 120.88156 
L 88.42035 120.88156 
" style="fill: none; stroke: #8c564b; stroke-width: 1.5; stroke-linecap: square"/>
    </g>
    <g id="text_21">
     <!-- $\beta=10$ -->
     <g transform="translate(98.82035 125.43156) scale(0.13 -0.13)">
      <use xlink:href="#CMMI12-c" transform="scale(0.996264)"/>
      <use xlink:href="#CMR17-3d" transform="translate(88.268024 0) scale(0.996264)"/>
      <use xlink:href="#CMR17-31" transform="translate(187.656822 0) scale(0.996264)"/>
      <use xlink:href="#CMR17-30" transform="translate(233.347299 0) scale(0.996264)"/>
     </g>
    </g>
   </g>
  </g>
 </g>
 <defs>
  <clipPath id="pd02973fba1">
   <rect x="50.72035" y="14.04" width="367.23965" height="227.58676"/>
  </clipPath>
 </defs>
</svg>
