<?xml version="1.0" encoding="utf-8" standalone="no"?>
<!DOCTYPE svg PUBLIC "-//W3C//DTD SVG 1.1//EN"
  "http://www.w3.org/Graphics/SVG/1.1/DTD/svg11.dtd">
<svg xmlns:xlink="http://www.w3.org/1999/xlink" width="432pt" height="288pt" viewBox="0 0 432 288" xmlns="http://www.w3.org/2000/svg" version="1.1">
 <metadata>
  <rdf:RDF xmlns:dc="http://purl.org/dc/elements/1.1/" xmlns:cc="http://creativecommons.org/ns#" xmlns:rdf="http://www.w3.org/1999/02/22-rdf-syntax-ns#">
   <cc:Work>
    <dc:type rdf:resource="http://purl.org/dc/dcmitype/StillImage"/>
    <dc:date>2023-04-25T21:01:35.205568</dc:date>
    <dc:format>image/svg+xml</dc:format>
    <dc:creator>
     <cc:Agent>
      <dc:title>Matplotlib v3.7.1, https://matplotlib.org/</dc:title>
     </cc:Agent>
    </dc:creator>
   </cc:Work>
  </rdf:RDF>
 </metadata>
 <defs>
  <style type="text/css">*{stroke-linejoin: round; stroke-linecap: butt}</style>
 </defs>
 <g id="figure_1">
  <g id="patch_1">
   <path d="M 0 288 
L 432 288 
L 432 0 
L 0 0 
z
" style="fill: #ffffff"/>
  </g>
  <g id="axes_1">
   <g id="patch_2">
    <path d="M 54 252 
L 388.8 252 
L 388.8 34.56 
L 54 34.56 
z
" style="fill: #ffffff"/>
   </g>
   <g id="matplotlib.axis_1">
    <g id="xtick_1">
     <g id="line2d_1">
      <defs>
       <path id="m7869a0855a" d="M 0 0 
L 0 3.5 
" style="stroke: #000000; stroke-width: 0.8"/>
      </defs>
      <g>
       <use xlink:href="#m7869a0855a" x="69.218182" y="252" style="stroke: #000000; stroke-width: 0.8"/>
      </g>
     </g>
     <g id="text_1">
      <!-- $\mathdefault{0.0}$ -->
      <g transform="translate(61.116126 267.994028) scale(0.13 -0.13)">
       <defs>
        <path id="CMR17-30" d="M 2688 2038 
C 2688 2430 2682 3099 2413 3613 
C 2176 4063 1798 4224 1466 4224 
C 1158 4224 768 4082 525 3620 
C 269 3137 243 2539 243 2038 
C 243 1671 250 1112 448 623 
C 723 -39 1216 -128 1466 -128 
C 1760 -128 2208 -7 2470 604 
C 2662 1048 2688 1568 2688 2038 
z
M 1466 -26 
C 1056 -26 813 328 723 816 
C 653 1196 653 1749 653 2109 
C 653 2604 653 3015 736 3407 
C 858 3954 1216 4121 1466 4121 
C 1728 4121 2067 3947 2189 3420 
C 2272 3054 2278 2623 2278 2109 
C 2278 1691 2278 1176 2202 797 
C 2067 96 1690 -26 1466 -26 
z
" transform="scale(0.015625)"/>
        <path id="CMMI12-3a" d="M 1178 307 
C 1178 492 1024 620 870 620 
C 685 620 557 467 557 313 
C 557 128 710 0 864 0 
C 1050 0 1178 153 1178 307 
z
" transform="scale(0.015625)"/>
       </defs>
       <use xlink:href="#CMR17-30" transform="scale(0.996264)"/>
       <use xlink:href="#CMMI12-3a" transform="translate(45.690477 0) scale(0.996264)"/>
       <use xlink:href="#CMR17-30" transform="translate(72.787654 0) scale(0.996264)"/>
      </g>
     </g>
    </g>
    <g id="xtick_2">
     <g id="line2d_2">
      <g>
       <use xlink:href="#m7869a0855a" x="130.090909" y="252" style="stroke: #000000; stroke-width: 0.8"/>
      </g>
     </g>
     <g id="text_2">
      <!-- $\mathdefault{0.2}$ -->
      <g transform="translate(121.988853 267.994028) scale(0.13 -0.13)">
       <defs>
        <path id="CMR17-32" d="M 2669 990 
L 2554 990 
C 2490 537 2438 460 2413 422 
C 2381 371 1920 371 1830 371 
L 602 371 
C 832 620 1280 1073 1824 1596 
C 2214 1966 2669 2400 2669 3033 
C 2669 3788 2067 4224 1395 4224 
C 691 4224 262 3603 262 3027 
C 262 2777 448 2745 525 2745 
C 589 2745 781 2783 781 3007 
C 781 3206 614 3264 525 3264 
C 486 3264 448 3257 422 3244 
C 544 3788 915 4057 1306 4057 
C 1862 4057 2227 3616 2227 3033 
C 2227 2477 1901 1998 1536 1583 
L 262 147 
L 262 0 
L 2515 0 
L 2669 990 
z
" transform="scale(0.015625)"/>
       </defs>
       <use xlink:href="#CMR17-30" transform="scale(0.996264)"/>
       <use xlink:href="#CMMI12-3a" transform="translate(45.690477 0) scale(0.996264)"/>
       <use xlink:href="#CMR17-32" transform="translate(72.787654 0) scale(0.996264)"/>
      </g>
     </g>
    </g>
    <g id="xtick_3">
     <g id="line2d_3">
      <g>
       <use xlink:href="#m7869a0855a" x="190.963636" y="252" style="stroke: #000000; stroke-width: 0.8"/>
      </g>
     </g>
     <g id="text_3">
      <!-- $\mathdefault{0.4}$ -->
      <g transform="translate(182.86158 267.994028) scale(0.13 -0.13)">
       <defs>
        <path id="CMR17-34" d="M 2150 4147 
C 2150 4281 2144 4288 2029 4288 
L 128 1254 
L 128 1088 
L 1779 1088 
L 1779 460 
C 1779 230 1766 166 1318 166 
L 1197 166 
L 1197 0 
C 1402 12 1747 12 1965 12 
C 2182 12 2528 12 2733 0 
L 2733 166 
L 2611 166 
C 2163 166 2150 230 2150 460 
L 2150 1088 
L 2803 1088 
L 2803 1254 
L 2150 1254 
L 2150 4147 
z
M 1798 3723 
L 1798 1254 
L 256 1254 
L 1798 3723 
z
" transform="scale(0.015625)"/>
       </defs>
       <use xlink:href="#CMR17-30" transform="scale(0.996264)"/>
       <use xlink:href="#CMMI12-3a" transform="translate(45.690477 0) scale(0.996264)"/>
       <use xlink:href="#CMR17-34" transform="translate(72.787654 0) scale(0.996264)"/>
      </g>
     </g>
    </g>
    <g id="xtick_4">
     <g id="line2d_4">
      <g>
       <use xlink:href="#m7869a0855a" x="251.836364" y="252" style="stroke: #000000; stroke-width: 0.8"/>
      </g>
     </g>
     <g id="text_4">
      <!-- $\mathdefault{0.6}$ -->
      <g transform="translate(243.734308 267.994028) scale(0.13 -0.13)">
       <defs>
        <path id="CMR17-36" d="M 678 2198 
C 678 3712 1395 4076 1811 4076 
C 1946 4076 2272 4049 2400 3782 
C 2298 3782 2106 3782 2106 3558 
C 2106 3385 2246 3328 2336 3328 
C 2394 3328 2566 3353 2566 3571 
C 2566 3987 2246 4224 1805 4224 
C 1043 4224 243 3411 243 2011 
C 243 257 966 -128 1478 -128 
C 2099 -128 2688 431 2688 1295 
C 2688 2101 2170 2688 1517 2688 
C 1126 2688 838 2430 678 1979 
L 678 2198 
z
M 1478 25 
C 691 25 691 1212 691 1450 
C 691 1914 909 2585 1504 2585 
C 1613 2585 1926 2585 2138 2140 
C 2253 1889 2253 1624 2253 1302 
C 2253 954 2253 696 2118 438 
C 1978 173 1773 25 1478 25 
z
" transform="scale(0.015625)"/>
       </defs>
       <use xlink:href="#CMR17-30" transform="scale(0.996264)"/>
       <use xlink:href="#CMMI12-3a" transform="translate(45.690477 0) scale(0.996264)"/>
       <use xlink:href="#CMR17-36" transform="translate(72.787654 0) scale(0.996264)"/>
      </g>
     </g>
    </g>
    <g id="xtick_5">
     <g id="line2d_5">
      <g>
       <use xlink:href="#m7869a0855a" x="312.709091" y="252" style="stroke: #000000; stroke-width: 0.8"/>
      </g>
     </g>
     <g id="text_5">
      <!-- $\mathdefault{0.8}$ -->
      <g transform="translate(304.607035 267.994028) scale(0.13 -0.13)">
       <defs>
        <path id="CMR17-38" d="M 1741 2289 
C 2144 2494 2554 2803 2554 3298 
C 2554 3884 1990 4224 1472 4224 
C 890 4224 378 3800 378 3215 
C 378 3054 416 2777 666 2533 
C 730 2469 998 2276 1171 2154 
C 883 2006 211 1652 211 945 
C 211 282 838 -128 1459 -128 
C 2144 -128 2720 366 2720 1022 
C 2720 1607 2330 1877 2074 2051 
L 1741 2289 
z
M 902 2855 
C 851 2887 595 3086 595 3388 
C 595 3781 998 4076 1459 4076 
C 1965 4076 2336 3716 2336 3298 
C 2336 2700 1670 2359 1638 2359 
C 1632 2359 1626 2359 1574 2398 
L 902 2855 
z
M 2080 1536 
C 2176 1466 2483 1253 2483 861 
C 2483 385 2010 25 1472 25 
C 890 25 448 443 448 951 
C 448 1459 838 1884 1280 2083 
L 2080 1536 
z
" transform="scale(0.015625)"/>
       </defs>
       <use xlink:href="#CMR17-30" transform="scale(0.996264)"/>
       <use xlink:href="#CMMI12-3a" transform="translate(45.690477 0) scale(0.996264)"/>
       <use xlink:href="#CMR17-38" transform="translate(72.787654 0) scale(0.996264)"/>
      </g>
     </g>
    </g>
    <g id="xtick_6">
     <g id="line2d_6">
      <g>
       <use xlink:href="#m7869a0855a" x="373.581818" y="252" style="stroke: #000000; stroke-width: 0.8"/>
      </g>
     </g>
     <g id="text_6">
      <!-- $\mathdefault{1.0}$ -->
      <g transform="translate(365.479762 267.994028) scale(0.13 -0.13)">
       <defs>
        <path id="CMR17-31" d="M 1702 4083 
C 1702 4217 1696 4224 1606 4224 
C 1357 3927 979 3833 621 3820 
C 602 3820 570 3820 563 3808 
C 557 3795 557 3782 557 3648 
C 755 3648 1088 3686 1344 3839 
L 1344 467 
C 1344 243 1331 166 781 166 
L 589 166 
L 589 0 
C 896 6 1216 12 1523 12 
C 1830 12 2150 6 2458 0 
L 2458 166 
L 2266 166 
C 1715 166 1702 236 1702 467 
L 1702 4083 
z
" transform="scale(0.015625)"/>
       </defs>
       <use xlink:href="#CMR17-31" transform="scale(0.996264)"/>
       <use xlink:href="#CMMI12-3a" transform="translate(45.690477 0) scale(0.996264)"/>
       <use xlink:href="#CMR17-30" transform="translate(72.787654 0) scale(0.996264)"/>
      </g>
     </g>
    </g>
    <g id="text_7">
     <!-- $x$ -->
     <g transform="translate(217.79679 283.506368) scale(0.13 -0.13)">
      <defs>
       <path id="CMMI12-78" d="M 3034 2624 
C 2829 2585 2752 2431 2752 2310 
C 2752 2156 2874 2105 2963 2105 
C 3155 2105 3290 2271 3290 2444 
C 3290 2694 2982 2816 2714 2816 
C 2323 2816 2106 2451 2048 2329 
C 1901 2790 1504 2816 1389 2816 
C 736 2816 390 1993 390 1849 
C 390 1823 416 1790 461 1790 
C 512 1790 525 1829 538 1855 
C 755 2572 1184 2687 1370 2687 
C 1658 2687 1715 2438 1715 2284 
C 1715 2143 1677 1993 1600 1678 
L 1382 778 
C 1286 390 1101 64 762 64 
C 730 64 570 64 435 126 
C 666 166 717 358 717 435 
C 717 563 621 640 499 640 
C 346 640 179 505 179 300 
C 179 57 480 -64 755 -64 
C 1062 -64 1280 153 1414 415 
C 1517 64 1837 -64 2074 -64 
C 2726 -64 3072 751 3072 896 
C 3072 929 3046 955 3008 955 
C 2950 955 2944 922 2925 870 
C 2752 300 2381 64 2093 64 
C 1869 64 1747 204 1747 467 
C 1747 607 1773 712 1875 1146 
L 2099 2039 
C 2195 2425 2413 2687 2707 2687 
C 2720 2687 2899 2687 3034 2624 
z
" transform="scale(0.015625)"/>
      </defs>
      <use xlink:href="#CMMI12-78" transform="scale(0.996264)"/>
     </g>
    </g>
   </g>
   <g id="matplotlib.axis_2">
    <g id="ytick_1">
     <g id="line2d_7">
      <defs>
       <path id="ma01a1f69f1" d="M 0 0 
L -3.5 0 
" style="stroke: #000000; stroke-width: 0.8"/>
      </defs>
      <g>
       <use xlink:href="#ma01a1f69f1" x="54" y="220.841377" style="stroke: #000000; stroke-width: 0.8"/>
      </g>
     </g>
     <g id="text_8">
      <!-- $\mathdefault{0.6}$ -->
      <g transform="translate(30.795888 225.338391) scale(0.13 -0.13)">
       <use xlink:href="#CMR17-30" transform="scale(0.996264)"/>
       <use xlink:href="#CMMI12-3a" transform="translate(45.690477 0) scale(0.996264)"/>
       <use xlink:href="#CMR17-36" transform="translate(72.787654 0) scale(0.996264)"/>
      </g>
     </g>
    </g>
    <g id="ytick_2">
     <g id="line2d_8">
      <g>
       <use xlink:href="#ma01a1f69f1" x="54" y="178.291405" style="stroke: #000000; stroke-width: 0.8"/>
      </g>
     </g>
     <g id="text_9">
      <!-- $\mathdefault{0.8}$ -->
      <g transform="translate(30.795888 182.788419) scale(0.13 -0.13)">
       <use xlink:href="#CMR17-30" transform="scale(0.996264)"/>
       <use xlink:href="#CMMI12-3a" transform="translate(45.690477 0) scale(0.996264)"/>
       <use xlink:href="#CMR17-38" transform="translate(72.787654 0) scale(0.996264)"/>
      </g>
     </g>
    </g>
    <g id="ytick_3">
     <g id="line2d_9">
      <g>
       <use xlink:href="#ma01a1f69f1" x="54" y="135.741432" style="stroke: #000000; stroke-width: 0.8"/>
      </g>
     </g>
     <g id="text_10">
      <!-- $\mathdefault{1.0}$ -->
      <g transform="translate(30.795888 140.238446) scale(0.13 -0.13)">
       <use xlink:href="#CMR17-31" transform="scale(0.996264)"/>
       <use xlink:href="#CMMI12-3a" transform="translate(45.690477 0) scale(0.996264)"/>
       <use xlink:href="#CMR17-30" transform="translate(72.787654 0) scale(0.996264)"/>
      </g>
     </g>
    </g>
    <g id="ytick_4">
     <g id="line2d_10">
      <g>
       <use xlink:href="#ma01a1f69f1" x="54" y="93.19146" style="stroke: #000000; stroke-width: 0.8"/>
      </g>
     </g>
     <g id="text_11">
      <!-- $\mathdefault{1.2}$ -->
      <g transform="translate(30.795888 97.688474) scale(0.13 -0.13)">
       <use xlink:href="#CMR17-31" transform="scale(0.996264)"/>
       <use xlink:href="#CMMI12-3a" transform="translate(45.690477 0) scale(0.996264)"/>
       <use xlink:href="#CMR17-32" transform="translate(72.787654 0) scale(0.996264)"/>
      </g>
     </g>
    </g>
    <g id="ytick_5">
     <g id="line2d_11">
      <g>
       <use xlink:href="#ma01a1f69f1" x="54" y="50.641487" style="stroke: #000000; stroke-width: 0.8"/>
      </g>
     </g>
     <g id="text_12">
      <!-- $\mathdefault{1.4}$ -->
      <g transform="translate(30.795888 55.138502) scale(0.13 -0.13)">
       <use xlink:href="#CMR17-31" transform="scale(0.996264)"/>
       <use xlink:href="#CMMI12-3a" transform="translate(45.690477 0) scale(0.996264)"/>
       <use xlink:href="#CMR17-34" transform="translate(72.787654 0) scale(0.996264)"/>
      </g>
     </g>
    </g>
   </g>
   <g id="line2d_12">
    <path d="M 69.218182 135.741432 
L 72.292562 137.155477 
L 75.366942 138.561952 
L 78.441323 139.960843 
L 81.515702 141.352215 
L 84.590082 142.736054 
L 87.664463 144.112398 
L 90.738842 145.481299 
L 93.813223 146.842744 
L 96.887604 148.196796 
L 99.961983 149.54348 
L 103.036364 150.882822 
L 106.110745 152.214859 
L 109.185124 153.539631 
L 112.259502 154.857187 
L 115.333886 156.16754 
L 118.408264 157.470742 
L 121.482643 158.766816 
L 124.557026 160.055815 
L 127.631405 161.337751 
L 130.705784 162.612686 
L 133.780167 163.88066 
L 136.854546 165.141672 
L 139.928925 166.395786 
L 143.003308 167.643027 
L 146.077691 168.883432 
L 149.152065 170.117003 
L 152.226449 171.343789 
L 155.300832 172.563829 
L 158.375206 173.777123 
L 161.44959 174.983709 
L 164.523973 176.183612 
L 167.598347 177.376832 
L 170.67273 178.56342 
L 173.747105 179.74335 
L 176.821488 180.916687 
L 179.895871 182.083404 
L 182.970245 183.243527 
L 186.044629 184.397069 
L 189.119003 185.544041 
L 192.193386 186.684433 
L 195.267769 187.818281 
L 198.342144 188.945561 
L 201.416527 190.066297 
L 204.49091 191.180464 
L 207.565284 192.288101 
L 210.639668 193.389169 
L 213.714051 194.483681 
L 216.788434 195.57165 
L 219.862817 196.653063 
L 222.937201 197.727894 
L 226.011566 198.796157 
L 229.085949 199.857851 
L 232.160332 200.912951 
L 235.234716 201.961457 
L 238.309099 203.003381 
L 241.383464 204.038674 
L 244.457847 205.067347 
L 247.532231 206.0894 
L 250.606596 207.104796 
L 253.680979 208.113535 
L 256.755362 209.115629 
L 259.829746 210.11104 
L 262.904129 211.099743 
L 265.978512 212.081737 
L 269.052895 213.057024 
L 272.127279 214.02559 
L 275.201662 214.987384 
L 278.276027 215.942419 
L 281.35041 216.890682 
L 284.424794 217.832149 
L 287.499177 218.766806 
L 290.57356 219.694666 
L 293.647944 220.615678 
L 296.722327 221.52983 
L 299.796692 222.437122 
L 302.871075 223.33754 
L 305.945459 224.231048 
L 309.019842 225.117644 
L 312.094225 225.997329 
L 315.16859 226.870078 
L 318.242974 227.735853 
L 321.317357 228.594678 
L 324.391722 229.446516 
L 327.466105 230.291354 
L 330.540489 231.129205 
L 333.614872 231.960019 
L 336.689255 232.783794 
L 339.763638 233.600531 
L 342.838022 234.410206 
L 345.912405 235.212829 
L 348.986788 236.008339 
L 352.061153 236.796773 
L 355.135537 237.578105 
L 358.20992 238.352311 
L 361.284303 239.119403 
L 364.358686 239.879368 
L 367.433052 240.632181 
L 370.507435 241.377842 
L 373.581818 242.116364 
" clip-path="url(#peecb871470)" style="fill: none; stroke: #1f77b4; stroke-width: 1.5; stroke-linecap: square"/>
   </g>
   <g id="line2d_13">
    <path d="M 69.218182 135.741432 
L 72.292562 134.727393 
L 75.366942 133.722459 
L 78.441323 132.726781 
L 81.515702 131.740437 
L 84.590082 130.763528 
L 87.664463 129.796154 
L 90.738842 128.838342 
L 93.813223 127.890142 
L 96.887604 126.951579 
L 99.961983 126.022654 
L 103.036364 125.103366 
L 106.110745 124.193665 
L 109.185124 123.293551 
L 112.259502 122.402897 
L 115.333886 121.521702 
L 118.408264 120.649816 
L 121.482643 119.787212 
L 124.557026 118.933738 
L 127.631405 118.089318 
L 130.705784 117.253825 
L 133.780167 116.427108 
L 136.854546 115.609064 
L 139.928925 114.799593 
L 143.003308 113.998517 
L 146.077691 113.205733 
L 149.152065 112.421117 
L 152.226449 111.644514 
L 155.300832 110.87585 
L 158.375206 110.114972 
L 161.44959 109.361778 
L 164.523973 108.616193 
L 167.598347 107.878065 
L 170.67273 107.147342 
L 173.747105 106.423923 
L 176.821488 105.707732 
L 179.895871 104.998693 
L 182.970245 104.296756 
L 186.044629 103.601894 
L 189.119003 102.914007 
L 192.193386 102.233069 
L 195.267769 101.559081 
L 198.342144 100.89199 
L 201.416527 100.231773 
L 204.49091 99.578429 
L 207.565284 98.931983 
L 210.639668 98.292359 
L 213.714051 97.659609 
L 216.788434 97.033756 
L 219.862817 96.414777 
L 222.937201 95.802671 
L 226.011566 95.197514 
L 229.085949 94.599256 
L 232.160332 94.007946 
L 235.234716 93.423611 
L 238.309099 92.846276 
L 241.383464 92.275941 
L 244.457847 91.712631 
L 247.532231 91.156346 
L 250.606596 90.607112 
L 253.680979 90.064953 
L 256.755362 89.529871 
L 259.829746 89.001839 
L 262.904129 88.480909 
L 265.978512 87.967029 
L 269.052895 87.460225 
L 272.127279 86.960471 
L 275.201662 86.467718 
L 278.276027 85.981989 
L 281.35041 85.503235 
L 284.424794 85.031405 
L 287.499177 84.566473 
L 290.57356 84.108364 
L 293.647944 83.657026 
L 296.722327 83.212409 
L 299.796692 82.774462 
L 302.871075 82.343058 
L 305.945459 81.918148 
L 309.019842 81.499628 
L 312.094225 81.087372 
L 315.16859 80.681305 
L 318.242974 80.28135 
L 321.317357 79.887305 
L 324.391722 79.499117 
L 327.466105 79.116637 
L 330.540489 78.73971 
L 333.614872 78.368211 
L 336.689255 78.001987 
L 339.763638 77.640912 
L 342.838022 77.284808 
L 345.912405 76.933547 
L 348.986788 76.586928 
L 352.061153 76.244823 
L 355.135537 75.907055 
L 358.20992 75.573447 
L 361.284303 75.24382 
L 364.358686 74.918048 
L 367.433052 74.595878 
L 370.507435 74.277233 
L 373.581818 73.961859 
" clip-path="url(#peecb871470)" style="fill: none; stroke: #ff7f0e; stroke-width: 1.5; stroke-linecap: square"/>
   </g>
   <g id="line2d_14">
    <path d="M 69.218182 135.741432 
L 72.292562 134.315467 
L 75.366942 132.900586 
L 78.441323 131.496939 
L 81.515702 130.104604 
L 84.590082 128.723732 
L 87.664463 127.3544 
L 90.738842 125.996658 
L 93.813223 124.650583 
L 96.887604 123.316174 
L 99.961983 121.993431 
L 103.036364 120.682355 
L 106.110745 119.382945 
L 109.185124 118.0951 
L 112.259502 116.81882 
L 115.333886 115.554004 
L 118.408264 114.30055 
L 121.482643 113.058407 
L 124.557026 111.827449 
L 127.631405 110.607548 
L 130.705784 109.398604 
L 133.780167 108.200514 
L 136.854546 107.013152 
L 139.928925 105.836341 
L 143.003308 104.67003 
L 146.077691 103.514067 
L 149.152065 102.368324 
L 152.226449 101.2327 
L 155.300832 100.107095 
L 158.375206 98.991405 
L 161.44959 97.885506 
L 164.523973 96.789371 
L 167.598347 95.702873 
L 170.67273 94.625962 
L 173.747105 93.558561 
L 176.821488 92.500646 
L 179.895871 91.45214 
L 182.970245 90.413044 
L 186.044629 89.383305 
L 189.119003 88.362926 
L 192.193386 87.351905 
L 195.267769 86.350217 
L 198.342144 85.357887 
L 201.416527 84.374941 
L 204.49091 83.401379 
L 207.565284 82.437252 
L 210.639668 81.482534 
L 213.714051 80.537352 
L 216.788434 79.601655 
L 219.862817 78.675545 
L 222.937201 77.759072 
L 226.011566 76.852237 
L 229.085949 75.955141 
L 232.160332 75.067759 
L 235.234716 74.190216 
L 238.309099 73.322489 
L 241.383464 72.464704 
L 244.457847 71.616809 
L 247.532231 70.778882 
L 250.606596 69.950973 
L 253.680979 69.133081 
L 256.755362 68.325233 
L 259.829746 67.527454 
L 262.904129 66.739743 
L 265.978512 65.962101 
L 269.052895 65.194527 
L 272.127279 64.436996 
L 275.201662 63.689509 
L 278.276027 62.952015 
L 281.35041 62.224487 
L 284.424794 61.506851 
L 287.499177 60.799055 
L 290.57356 60.101049 
L 293.647944 59.41273 
L 296.722327 58.734024 
L 299.796692 58.064854 
L 302.871075 57.405043 
L 305.945459 56.754539 
L 309.019842 56.113191 
L 312.094225 55.480846 
L 315.16859 54.857378 
L 318.242974 54.242609 
L 321.317357 53.636387 
L 324.391722 53.038534 
L 327.466105 52.448898 
L 330.540489 51.867226 
L 333.614872 51.293366 
L 336.689255 50.727088 
L 339.763638 50.168242 
L 342.838022 49.616548 
L 345.912405 49.071802 
L 348.986788 48.533778 
L 352.061153 48.002272 
L 355.135537 47.47703 
L 358.20992 46.957798 
L 361.284303 46.44435 
L 364.358686 45.936455 
L 367.433052 45.433886 
L 370.507435 44.936365 
L 373.581818 44.443636 
" clip-path="url(#peecb871470)" style="fill: none; stroke: #2ca02c; stroke-width: 1.5; stroke-linecap: square"/>
   </g>
   <g id="line2d_15">
    <path d="M 69.218182 135.741432 
L 72.292562 135.742345 
L 75.366942 135.744197 
L 78.441323 135.74672 
L 81.515702 135.749814 
L 84.590082 135.753238 
L 87.664463 135.756954 
L 90.738842 135.760809 
L 93.813223 135.764651 
L 96.887604 135.768455 
L 99.961983 135.772082 
L 103.036364 135.775531 
L 106.110745 135.778702 
L 109.185124 135.781618 
L 112.259502 135.784192 
L 115.333886 135.78645 
L 118.408264 135.788339 
L 121.482643 135.789911 
L 124.557026 135.791141 
L 127.631405 135.79208 
L 130.705784 135.792752 
L 133.780167 135.793145 
L 136.854546 135.793272 
L 139.928925 135.793272 
L 143.003308 135.793107 
L 146.077691 135.79279 
L 149.152065 135.792422 
L 152.226449 135.79194 
L 155.300832 135.791535 
L 158.375206 135.791053 
L 161.44959 135.790672 
L 164.523973 135.790381 
L 167.598347 135.79014 
L 170.67273 135.790051 
L 173.747105 135.790064 
L 176.821488 135.790254 
L 179.895871 135.790558 
L 182.970245 135.791065 
L 186.044629 135.791737 
L 189.119003 135.792574 
L 192.193386 135.793538 
L 195.267769 135.794692 
L 198.342144 135.79596 
L 201.416527 135.79738 
L 204.49091 135.798877 
L 207.565284 135.800563 
L 210.639668 135.802263 
L 213.714051 135.804025 
L 216.788434 135.805864 
L 219.862817 135.807715 
L 222.937201 135.809529 
L 226.011566 135.81138 
L 229.085949 135.813181 
L 232.160332 135.814855 
L 235.234716 135.816503 
L 238.309099 135.818076 
L 241.383464 135.819509 
L 244.457847 135.820789 
L 247.532231 135.821956 
L 250.606596 135.822945 
L 253.680979 135.823769 
L 256.755362 135.824441 
L 259.829746 135.824936 
L 262.904129 135.825253 
L 265.978512 135.825342 
L 269.052895 135.825316 
L 272.127279 135.825126 
L 275.201662 135.82472 
L 278.276027 135.824188 
L 281.35041 135.823541 
L 284.424794 135.822742 
L 287.499177 135.821817 
L 290.57356 135.820865 
L 293.647944 135.819813 
L 296.722327 135.81871 
L 299.796692 135.817619 
L 302.871075 135.816529 
L 305.945459 135.815451 
L 309.019842 135.814424 
L 312.094225 135.813473 
L 315.16859 135.812661 
L 318.242974 135.811951 
L 321.317357 135.811406 
L 324.391722 135.811076 
L 327.466105 135.810911 
L 330.540489 135.811012 
L 333.614872 135.811342 
L 336.689255 135.811887 
L 339.763638 135.812724 
L 342.838022 135.813802 
L 345.912405 135.815261 
L 348.986788 135.816871 
L 352.061153 135.818824 
L 355.135537 135.821056 
L 358.20992 135.823516 
L 361.284303 135.826191 
L 364.358686 135.829133 
L 367.433052 135.832189 
L 370.507435 135.835436 
L 373.581818 135.838771 
" clip-path="url(#peecb871470)" style="fill: none; stroke: #d62728; stroke-width: 1.5; stroke-linecap: square"/>
   </g>
   <g id="patch_3">
    <path d="M 54 252 
L 54 34.56 
" style="fill: none; stroke: #000000; stroke-width: 0.8; stroke-linejoin: miter; stroke-linecap: square"/>
   </g>
   <g id="patch_4">
    <path d="M 388.8 252 
L 388.8 34.56 
" style="fill: none; stroke: #000000; stroke-width: 0.8; stroke-linejoin: miter; stroke-linecap: square"/>
   </g>
   <g id="patch_5">
    <path d="M 54 252 
L 388.8 252 
" style="fill: none; stroke: #000000; stroke-width: 0.8; stroke-linejoin: miter; stroke-linecap: square"/>
   </g>
   <g id="patch_6">
    <path d="M 54 34.56 
L 388.8 34.56 
" style="fill: none; stroke: #000000; stroke-width: 0.8; stroke-linejoin: miter; stroke-linecap: square"/>
   </g>
   <g id="legend_1">
    <g id="patch_7">
     <path d="M 63.1 245.5 
L 115.792528 245.5 
Q 118.392528 245.5 118.392528 242.9 
L 118.392528 171.726752 
Q 118.392528 169.126752 115.792528 169.126752 
L 63.1 169.126752 
Q 60.5 169.126752 60.5 171.726752 
L 60.5 242.9 
Q 60.5 245.5 63.1 245.5 
z
" style="fill: #ffffff; opacity: 0.8; stroke: #cccccc; stroke-linejoin: miter"/>
    </g>
    <g id="line2d_16">
     <path d="M 65.7 178.876752 
L 78.7 178.876752 
L 91.7 178.876752 
" style="fill: none; stroke: #1f77b4; stroke-width: 1.5; stroke-linecap: square"/>
    </g>
    <g id="text_13">
     <!-- $u$ -->
     <g transform="translate(102.1 183.426752) scale(0.13 -0.13)">
      <defs>
       <path id="CMMI12-75" d="M 2182 370 
C 2266 12 2573 -64 2726 -64 
C 2931 -64 3085 70 3187 287 
C 3296 517 3379 893 3379 913 
C 3379 944 3354 970 3315 970 
C 3258 970 3251 938 3226 842 
C 3110 402 2995 64 2739 64 
C 2547 64 2547 274 2547 357 
C 2547 504 2566 568 2630 836 
C 2675 1008 2720 1181 2758 1359 
L 3021 2400 
C 3066 2560 3066 2572 3066 2591 
C 3066 2687 2989 2752 2893 2752 
C 2707 2752 2662 2591 2624 2432 
C 2560 2183 2214 810 2170 587 
C 2163 587 1914 64 1446 64 
C 1114 64 1050 351 1050 587 
C 1050 951 1229 1462 1395 1890 
C 1472 2094 1504 2177 1504 2305 
C 1504 2579 1306 2816 998 2816 
C 410 2816 173 1890 173 1838 
C 173 1813 198 1781 243 1781 
C 301 1781 307 1807 333 1896 
C 486 2445 736 2687 979 2687 
C 1043 2687 1146 2681 1146 2477 
C 1146 2311 1075 2126 979 1883 
C 698 1123 666 881 666 689 
C 666 38 1158 -64 1421 -64 
C 1830 -64 2054 217 2182 370 
z
" transform="scale(0.015625)"/>
      </defs>
      <use xlink:href="#CMMI12-75" transform="scale(0.996264)"/>
     </g>
    </g>
    <g id="line2d_17">
     <path d="M 65.7 196.995064 
L 78.7 196.995064 
L 91.7 196.995064 
" style="fill: none; stroke: #ff7f0e; stroke-width: 1.5; stroke-linecap: square"/>
    </g>
    <g id="text_14">
     <!-- $\rho$ -->
     <g transform="translate(102.1 201.545064) scale(0.13 -0.13)">
      <defs>
       <path id="CMMI12-1a" d="M 198 -1085 
C 192 -1116 179 -1154 179 -1191 
C 179 -1287 256 -1351 352 -1351 
C 448 -1351 538 -1287 576 -1198 
C 602 -1141 781 -390 986 389 
C 1114 70 1350 -64 1600 -64 
C 2323 -64 3142 830 3142 1794 
C 3142 2477 2726 2816 2285 2816 
C 1722 2816 1037 2234 826 1385 
L 198 -1085 
z
M 1594 64 
C 1158 64 1050 568 1050 645 
C 1050 683 1210 1289 1229 1385 
C 1555 2656 2182 2687 2278 2687 
C 2566 2687 2726 2426 2726 2049 
C 2726 1724 2554 1091 2445 823 
C 2253 383 1920 64 1594 64 
z
" transform="scale(0.015625)"/>
      </defs>
      <use xlink:href="#CMMI12-1a" transform="scale(0.996264)"/>
     </g>
    </g>
    <g id="line2d_18">
     <path d="M 65.7 215.113376 
L 78.7 215.113376 
L 91.7 215.113376 
" style="fill: none; stroke: #2ca02c; stroke-width: 1.5; stroke-linecap: square"/>
    </g>
    <g id="text_15">
     <!-- $p$ -->
     <g transform="translate(102.1 219.663376) scale(0.13 -0.13)">
      <defs>
       <path id="CMMI12-70" d="M 275 -794 
C 230 -981 205 -1031 -58 -1031 
C -135 -1031 -199 -1031 -199 -1152 
C -199 -1165 -192 -1216 -122 -1216 
C -39 -1216 51 -1204 134 -1204 
L 410 -1204 
C 544 -1204 870 -1216 1005 -1216 
C 1043 -1216 1120 -1216 1120 -1101 
C 1120 -1031 1075 -1031 966 -1031 
C 672 -1031 653 -987 653 -937 
C 653 -863 941 217 979 364 
C 1050 185 1222 -64 1555 -64 
C 2278 -64 3059 874 3059 1813 
C 3059 2400 2726 2816 2246 2816 
C 1837 2816 1491 2419 1421 2330 
C 1370 2649 1120 2816 864 2816 
C 678 2816 531 2726 410 2483 
C 294 2253 205 1864 205 1838 
C 205 1813 230 1781 275 1781 
C 326 1781 333 1787 371 1934 
C 467 2311 589 2687 845 2687 
C 992 2687 1043 2585 1043 2394 
C 1043 2241 1024 2177 998 2062 
L 275 -794 
z
M 1382 1992 
C 1427 2170 1606 2356 1709 2445 
C 1779 2509 1990 2687 2234 2687 
C 2515 2687 2643 2407 2643 2075 
C 2643 1768 2464 1047 2304 715 
C 2144 370 1850 64 1555 64 
C 1120 64 1050 613 1050 638 
C 1050 657 1062 708 1069 740 
L 1382 1992 
z
" transform="scale(0.015625)"/>
      </defs>
      <use xlink:href="#CMMI12-70" transform="scale(0.996264)"/>
     </g>
    </g>
    <g id="line2d_19">
     <path d="M 65.7 233.231688 
L 78.7 233.231688 
L 91.7 233.231688 
" style="fill: none; stroke: #d62728; stroke-width: 1.5; stroke-linecap: square"/>
    </g>
    <g id="text_16">
     <!-- $\dot m$ -->
     <g transform="translate(102.1 237.781688) scale(0.13 -0.13)">
      <defs>
       <path id="CMR17-5f" d="M 1056 3961 
C 1056 4115 934 4224 800 4224 
C 646 4224 538 4102 538 3961 
C 538 3807 659 3699 794 3699 
C 947 3699 1056 3820 1056 3961 
z
" transform="scale(0.015625)"/>
       <path id="CMMI12-6d" d="M 1318 1870 
C 1331 1909 1491 2228 1728 2432 
C 1894 2585 2112 2687 2362 2687 
C 2618 2687 2707 2496 2707 2241 
C 2707 2202 2707 2075 2630 1775 
L 2470 1117 
C 2419 925 2298 453 2285 383 
C 2259 287 2221 121 2221 95 
C 2221 6 2291 -64 2387 -64 
C 2579 -64 2611 83 2669 313 
L 3053 1838 
C 3066 1890 3398 2687 4102 2687 
C 4358 2687 4448 2496 4448 2241 
C 4448 1883 4198 1187 4058 804 
C 4000 651 3968 568 3968 453 
C 3968 166 4166 -64 4474 -64 
C 5069 -64 5293 874 5293 913 
C 5293 945 5267 970 5229 970 
C 5171 970 5165 951 5133 842 
C 4986 332 4749 64 4493 64 
C 4429 64 4326 70 4326 274 
C 4326 440 4403 645 4429 715 
C 4544 1021 4832 1775 4832 2145 
C 4832 2528 4608 2816 4122 2816 
C 3693 2816 3347 2573 3091 2196 
C 3072 2541 2861 2816 2381 2816 
C 1811 2816 1510 2413 1395 2253 
C 1376 2617 1114 2816 832 2816 
C 646 2816 499 2726 378 2483 
C 262 2253 173 1864 173 1838 
C 173 1813 198 1781 243 1781 
C 294 1781 301 1787 339 1934 
C 435 2311 557 2687 813 2687 
C 960 2687 1011 2585 1011 2394 
C 1011 2253 947 2004 902 1807 
L 723 1117 
C 698 996 627 708 595 593 
C 550 427 480 127 480 95 
C 480 6 550 -64 646 -64 
C 723 -64 813 -26 864 70 
C 877 102 934 325 966 453 
L 1107 1028 
L 1318 1870 
z
" transform="scale(0.015625)"/>
      </defs>
      <use xlink:href="#CMR17-5f" transform="translate(30.228091 0.006461) scale(0.996264)"/>
      <use xlink:href="#CMMI12-6d" transform="scale(0.996264)"/>
     </g>
    </g>
   </g>
  </g>
 </g>
 <defs>
  <clipPath id="peecb871470">
   <rect x="54" y="34.56" width="334.8" height="217.44"/>
  </clipPath>
 </defs>
</svg>
