<?xml version="1.0" encoding="utf-8" standalone="no"?>
<!DOCTYPE svg PUBLIC "-//W3C//DTD SVG 1.1//EN"
  "http://www.w3.org/Graphics/SVG/1.1/DTD/svg11.dtd">
<svg xmlns:xlink="http://www.w3.org/1999/xlink" width="432pt" height="288pt" viewBox="0 0 432 288" xmlns="http://www.w3.org/2000/svg" version="1.1">
 <metadata>
  <rdf:RDF xmlns:dc="http://purl.org/dc/elements/1.1/" xmlns:cc="http://creativecommons.org/ns#" xmlns:rdf="http://www.w3.org/1999/02/22-rdf-syntax-ns#">
   <cc:Work>
    <dc:type rdf:resource="http://purl.org/dc/dcmitype/StillImage"/>
    <dc:date>2023-04-24T13:32:14.792444</dc:date>
    <dc:format>image/svg+xml</dc:format>
    <dc:creator>
     <cc:Agent>
      <dc:title>Matplotlib v3.7.1, https://matplotlib.org/</dc:title>
     </cc:Agent>
    </dc:creator>
   </cc:Work>
  </rdf:RDF>
 </metadata>
 <defs>
  <style type="text/css">*{stroke-linejoin: round; stroke-linecap: butt}</style>
 </defs>
 <g id="figure_1">
  <g id="patch_1">
   <path d="M 0 288 
L 432 288 
L 432 0 
L 0 0 
z
" style="fill: #ffffff"/>
  </g>
  <g id="axes_1">
   <g id="patch_2">
    <path d="M 54 252 
L 388.8 252 
L 388.8 34.56 
L 54 34.56 
z
" style="fill: #ffffff"/>
   </g>
   <g id="matplotlib.axis_1">
    <g id="xtick_1">
     <g id="line2d_1">
      <defs>
       <path id="m9e874a8af5" d="M 0 0 
L 0 3.5 
" style="stroke: #000000; stroke-width: 0.8"/>
      </defs>
      <g>
       <use xlink:href="#m9e874a8af5" x="69.218182" y="252" style="stroke: #000000; stroke-width: 0.8"/>
      </g>
     </g>
     <g id="text_1">
      <!-- $\mathdefault{0.0}$ -->
      <g transform="translate(61.116126 267.994028) scale(0.13 -0.13)">
       <defs>
        <path id="CMR17-30" d="M 2688 2038 
C 2688 2430 2682 3099 2413 3613 
C 2176 4063 1798 4224 1466 4224 
C 1158 4224 768 4082 525 3620 
C 269 3137 243 2539 243 2038 
C 243 1671 250 1112 448 623 
C 723 -39 1216 -128 1466 -128 
C 1760 -128 2208 -7 2470 604 
C 2662 1048 2688 1568 2688 2038 
z
M 1466 -26 
C 1056 -26 813 328 723 816 
C 653 1196 653 1749 653 2109 
C 653 2604 653 3015 736 3407 
C 858 3954 1216 4121 1466 4121 
C 1728 4121 2067 3947 2189 3420 
C 2272 3054 2278 2623 2278 2109 
C 2278 1691 2278 1176 2202 797 
C 2067 96 1690 -26 1466 -26 
z
" transform="scale(0.015625)"/>
        <path id="CMMI12-3a" d="M 1178 307 
C 1178 492 1024 620 870 620 
C 685 620 557 467 557 313 
C 557 128 710 0 864 0 
C 1050 0 1178 153 1178 307 
z
" transform="scale(0.015625)"/>
       </defs>
       <use xlink:href="#CMR17-30" transform="scale(0.996264)"/>
       <use xlink:href="#CMMI12-3a" transform="translate(45.690477 0) scale(0.996264)"/>
       <use xlink:href="#CMR17-30" transform="translate(72.787654 0) scale(0.996264)"/>
      </g>
     </g>
    </g>
    <g id="xtick_2">
     <g id="line2d_2">
      <g>
       <use xlink:href="#m9e874a8af5" x="130.090909" y="252" style="stroke: #000000; stroke-width: 0.8"/>
      </g>
     </g>
     <g id="text_2">
      <!-- $\mathdefault{0.2}$ -->
      <g transform="translate(121.988853 267.994028) scale(0.13 -0.13)">
       <defs>
        <path id="CMR17-32" d="M 2669 990 
L 2554 990 
C 2490 537 2438 460 2413 422 
C 2381 371 1920 371 1830 371 
L 602 371 
C 832 620 1280 1073 1824 1596 
C 2214 1966 2669 2400 2669 3033 
C 2669 3788 2067 4224 1395 4224 
C 691 4224 262 3603 262 3027 
C 262 2777 448 2745 525 2745 
C 589 2745 781 2783 781 3007 
C 781 3206 614 3264 525 3264 
C 486 3264 448 3257 422 3244 
C 544 3788 915 4057 1306 4057 
C 1862 4057 2227 3616 2227 3033 
C 2227 2477 1901 1998 1536 1583 
L 262 147 
L 262 0 
L 2515 0 
L 2669 990 
z
" transform="scale(0.015625)"/>
       </defs>
       <use xlink:href="#CMR17-30" transform="scale(0.996264)"/>
       <use xlink:href="#CMMI12-3a" transform="translate(45.690477 0) scale(0.996264)"/>
       <use xlink:href="#CMR17-32" transform="translate(72.787654 0) scale(0.996264)"/>
      </g>
     </g>
    </g>
    <g id="xtick_3">
     <g id="line2d_3">
      <g>
       <use xlink:href="#m9e874a8af5" x="190.963636" y="252" style="stroke: #000000; stroke-width: 0.8"/>
      </g>
     </g>
     <g id="text_3">
      <!-- $\mathdefault{0.4}$ -->
      <g transform="translate(182.86158 267.994028) scale(0.13 -0.13)">
       <defs>
        <path id="CMR17-34" d="M 2150 4147 
C 2150 4281 2144 4288 2029 4288 
L 128 1254 
L 128 1088 
L 1779 1088 
L 1779 460 
C 1779 230 1766 166 1318 166 
L 1197 166 
L 1197 0 
C 1402 12 1747 12 1965 12 
C 2182 12 2528 12 2733 0 
L 2733 166 
L 2611 166 
C 2163 166 2150 230 2150 460 
L 2150 1088 
L 2803 1088 
L 2803 1254 
L 2150 1254 
L 2150 4147 
z
M 1798 3723 
L 1798 1254 
L 256 1254 
L 1798 3723 
z
" transform="scale(0.015625)"/>
       </defs>
       <use xlink:href="#CMR17-30" transform="scale(0.996264)"/>
       <use xlink:href="#CMMI12-3a" transform="translate(45.690477 0) scale(0.996264)"/>
       <use xlink:href="#CMR17-34" transform="translate(72.787654 0) scale(0.996264)"/>
      </g>
     </g>
    </g>
    <g id="xtick_4">
     <g id="line2d_4">
      <g>
       <use xlink:href="#m9e874a8af5" x="251.836364" y="252" style="stroke: #000000; stroke-width: 0.8"/>
      </g>
     </g>
     <g id="text_4">
      <!-- $\mathdefault{0.6}$ -->
      <g transform="translate(243.734308 267.994028) scale(0.13 -0.13)">
       <defs>
        <path id="CMR17-36" d="M 678 2198 
C 678 3712 1395 4076 1811 4076 
C 1946 4076 2272 4049 2400 3782 
C 2298 3782 2106 3782 2106 3558 
C 2106 3385 2246 3328 2336 3328 
C 2394 3328 2566 3353 2566 3571 
C 2566 3987 2246 4224 1805 4224 
C 1043 4224 243 3411 243 2011 
C 243 257 966 -128 1478 -128 
C 2099 -128 2688 431 2688 1295 
C 2688 2101 2170 2688 1517 2688 
C 1126 2688 838 2430 678 1979 
L 678 2198 
z
M 1478 25 
C 691 25 691 1212 691 1450 
C 691 1914 909 2585 1504 2585 
C 1613 2585 1926 2585 2138 2140 
C 2253 1889 2253 1624 2253 1302 
C 2253 954 2253 696 2118 438 
C 1978 173 1773 25 1478 25 
z
" transform="scale(0.015625)"/>
       </defs>
       <use xlink:href="#CMR17-30" transform="scale(0.996264)"/>
       <use xlink:href="#CMMI12-3a" transform="translate(45.690477 0) scale(0.996264)"/>
       <use xlink:href="#CMR17-36" transform="translate(72.787654 0) scale(0.996264)"/>
      </g>
     </g>
    </g>
    <g id="xtick_5">
     <g id="line2d_5">
      <g>
       <use xlink:href="#m9e874a8af5" x="312.709091" y="252" style="stroke: #000000; stroke-width: 0.8"/>
      </g>
     </g>
     <g id="text_5">
      <!-- $\mathdefault{0.8}$ -->
      <g transform="translate(304.607035 267.994028) scale(0.13 -0.13)">
       <defs>
        <path id="CMR17-38" d="M 1741 2289 
C 2144 2494 2554 2803 2554 3298 
C 2554 3884 1990 4224 1472 4224 
C 890 4224 378 3800 378 3215 
C 378 3054 416 2777 666 2533 
C 730 2469 998 2276 1171 2154 
C 883 2006 211 1652 211 945 
C 211 282 838 -128 1459 -128 
C 2144 -128 2720 366 2720 1022 
C 2720 1607 2330 1877 2074 2051 
L 1741 2289 
z
M 902 2855 
C 851 2887 595 3086 595 3388 
C 595 3781 998 4076 1459 4076 
C 1965 4076 2336 3716 2336 3298 
C 2336 2700 1670 2359 1638 2359 
C 1632 2359 1626 2359 1574 2398 
L 902 2855 
z
M 2080 1536 
C 2176 1466 2483 1253 2483 861 
C 2483 385 2010 25 1472 25 
C 890 25 448 443 448 951 
C 448 1459 838 1884 1280 2083 
L 2080 1536 
z
" transform="scale(0.015625)"/>
       </defs>
       <use xlink:href="#CMR17-30" transform="scale(0.996264)"/>
       <use xlink:href="#CMMI12-3a" transform="translate(45.690477 0) scale(0.996264)"/>
       <use xlink:href="#CMR17-38" transform="translate(72.787654 0) scale(0.996264)"/>
      </g>
     </g>
    </g>
    <g id="xtick_6">
     <g id="line2d_6">
      <g>
       <use xlink:href="#m9e874a8af5" x="373.581818" y="252" style="stroke: #000000; stroke-width: 0.8"/>
      </g>
     </g>
     <g id="text_6">
      <!-- $\mathdefault{1.0}$ -->
      <g transform="translate(365.479762 267.994028) scale(0.13 -0.13)">
       <defs>
        <path id="CMR17-31" d="M 1702 4083 
C 1702 4217 1696 4224 1606 4224 
C 1357 3927 979 3833 621 3820 
C 602 3820 570 3820 563 3808 
C 557 3795 557 3782 557 3648 
C 755 3648 1088 3686 1344 3839 
L 1344 467 
C 1344 243 1331 166 781 166 
L 589 166 
L 589 0 
C 896 6 1216 12 1523 12 
C 1830 12 2150 6 2458 0 
L 2458 166 
L 2266 166 
C 1715 166 1702 236 1702 467 
L 1702 4083 
z
" transform="scale(0.015625)"/>
       </defs>
       <use xlink:href="#CMR17-31" transform="scale(0.996264)"/>
       <use xlink:href="#CMMI12-3a" transform="translate(45.690477 0) scale(0.996264)"/>
       <use xlink:href="#CMR17-30" transform="translate(72.787654 0) scale(0.996264)"/>
      </g>
     </g>
    </g>
    <g id="text_7">
     <!-- $x$ -->
     <g transform="translate(217.79679 283.506368) scale(0.13 -0.13)">
      <defs>
       <path id="CMMI12-78" d="M 3034 2624 
C 2829 2585 2752 2431 2752 2310 
C 2752 2156 2874 2105 2963 2105 
C 3155 2105 3290 2271 3290 2444 
C 3290 2694 2982 2816 2714 2816 
C 2323 2816 2106 2451 2048 2329 
C 1901 2790 1504 2816 1389 2816 
C 736 2816 390 1993 390 1849 
C 390 1823 416 1790 461 1790 
C 512 1790 525 1829 538 1855 
C 755 2572 1184 2687 1370 2687 
C 1658 2687 1715 2438 1715 2284 
C 1715 2143 1677 1993 1600 1678 
L 1382 778 
C 1286 390 1101 64 762 64 
C 730 64 570 64 435 126 
C 666 166 717 358 717 435 
C 717 563 621 640 499 640 
C 346 640 179 505 179 300 
C 179 57 480 -64 755 -64 
C 1062 -64 1280 153 1414 415 
C 1517 64 1837 -64 2074 -64 
C 2726 -64 3072 751 3072 896 
C 3072 929 3046 955 3008 955 
C 2950 955 2944 922 2925 870 
C 2752 300 2381 64 2093 64 
C 1869 64 1747 204 1747 467 
C 1747 607 1773 712 1875 1146 
L 2099 2039 
C 2195 2425 2413 2687 2707 2687 
C 2720 2687 2899 2687 3034 2624 
z
" transform="scale(0.015625)"/>
      </defs>
      <use xlink:href="#CMMI12-78" transform="scale(0.996264)"/>
     </g>
    </g>
   </g>
   <g id="matplotlib.axis_2">
    <g id="ytick_1">
     <g id="line2d_7">
      <defs>
       <path id="me429c38226" d="M 0 0 
L -3.5 0 
" style="stroke: #000000; stroke-width: 0.8"/>
      </defs>
      <g>
       <use xlink:href="#me429c38226" x="54" y="224.342969" style="stroke: #000000; stroke-width: 0.8"/>
      </g>
     </g>
     <g id="text_8">
      <!-- $\mathdefault{0.6}$ -->
      <g transform="translate(30.795888 228.839984) scale(0.13 -0.13)">
       <use xlink:href="#CMR17-30" transform="scale(0.996264)"/>
       <use xlink:href="#CMMI12-3a" transform="translate(45.690477 0) scale(0.996264)"/>
       <use xlink:href="#CMR17-36" transform="translate(72.787654 0) scale(0.996264)"/>
      </g>
     </g>
    </g>
    <g id="ytick_2">
     <g id="line2d_8">
      <g>
       <use xlink:href="#me429c38226" x="54" y="188.796181" style="stroke: #000000; stroke-width: 0.8"/>
      </g>
     </g>
     <g id="text_9">
      <!-- $\mathdefault{0.8}$ -->
      <g transform="translate(30.795888 193.293195) scale(0.13 -0.13)">
       <use xlink:href="#CMR17-30" transform="scale(0.996264)"/>
       <use xlink:href="#CMMI12-3a" transform="translate(45.690477 0) scale(0.996264)"/>
       <use xlink:href="#CMR17-38" transform="translate(72.787654 0) scale(0.996264)"/>
      </g>
     </g>
    </g>
    <g id="ytick_3">
     <g id="line2d_9">
      <g>
       <use xlink:href="#me429c38226" x="54" y="153.249393" style="stroke: #000000; stroke-width: 0.8"/>
      </g>
     </g>
     <g id="text_10">
      <!-- $\mathdefault{1.0}$ -->
      <g transform="translate(30.795888 157.746407) scale(0.13 -0.13)">
       <use xlink:href="#CMR17-31" transform="scale(0.996264)"/>
       <use xlink:href="#CMMI12-3a" transform="translate(45.690477 0) scale(0.996264)"/>
       <use xlink:href="#CMR17-30" transform="translate(72.787654 0) scale(0.996264)"/>
      </g>
     </g>
    </g>
    <g id="ytick_4">
     <g id="line2d_10">
      <g>
       <use xlink:href="#me429c38226" x="54" y="117.702605" style="stroke: #000000; stroke-width: 0.8"/>
      </g>
     </g>
     <g id="text_11">
      <!-- $\mathdefault{1.2}$ -->
      <g transform="translate(30.795888 122.199619) scale(0.13 -0.13)">
       <use xlink:href="#CMR17-31" transform="scale(0.996264)"/>
       <use xlink:href="#CMMI12-3a" transform="translate(45.690477 0) scale(0.996264)"/>
       <use xlink:href="#CMR17-32" transform="translate(72.787654 0) scale(0.996264)"/>
      </g>
     </g>
    </g>
    <g id="ytick_5">
     <g id="line2d_11">
      <g>
       <use xlink:href="#me429c38226" x="54" y="82.155816" style="stroke: #000000; stroke-width: 0.8"/>
      </g>
     </g>
     <g id="text_12">
      <!-- $\mathdefault{1.4}$ -->
      <g transform="translate(30.795888 86.65283) scale(0.13 -0.13)">
       <use xlink:href="#CMR17-31" transform="scale(0.996264)"/>
       <use xlink:href="#CMMI12-3a" transform="translate(45.690477 0) scale(0.996264)"/>
       <use xlink:href="#CMR17-34" transform="translate(72.787654 0) scale(0.996264)"/>
      </g>
     </g>
    </g>
    <g id="ytick_6">
     <g id="line2d_12">
      <g>
       <use xlink:href="#me429c38226" x="54" y="46.609028" style="stroke: #000000; stroke-width: 0.8"/>
      </g>
     </g>
     <g id="text_13">
      <!-- $\mathdefault{1.6}$ -->
      <g transform="translate(30.795888 51.106042) scale(0.13 -0.13)">
       <use xlink:href="#CMR17-31" transform="scale(0.996264)"/>
       <use xlink:href="#CMMI12-3a" transform="translate(45.690477 0) scale(0.996264)"/>
       <use xlink:href="#CMR17-36" transform="translate(72.787654 0) scale(0.996264)"/>
      </g>
     </g>
    </g>
   </g>
   <g id="line2d_13">
    <path d="M 69.218182 153.249393 
L 72.292562 152.942894 
L 75.366942 152.654256 
L 78.441323 152.383564 
L 81.515702 152.130924 
L 84.590082 151.896442 
L 87.664463 151.680244 
L 90.738842 151.482501 
L 93.813223 151.303275 
L 96.887604 151.14278 
L 99.961983 151.001162 
L 103.036364 150.878571 
L 106.110745 150.775197 
L 109.185124 150.691252 
L 112.259502 150.626906 
L 115.333886 150.582369 
L 118.408264 150.557877 
L 121.482643 150.553639 
L 124.557026 150.569911 
L 127.631405 150.606926 
L 130.705784 150.664958 
L 133.780167 150.744284 
L 136.854546 150.845137 
L 139.928925 150.967834 
L 143.003308 151.112672 
L 146.077691 151.279948 
L 149.152065 151.469958 
L 152.226449 151.683041 
L 155.300832 151.919515 
L 158.375206 152.179698 
L 161.44959 152.46395 
L 164.523973 152.77261 
L 167.598347 153.106038 
L 170.67273 153.464584 
L 173.747105 153.848598 
L 176.821488 154.25846 
L 179.895871 154.694531 
L 182.970245 155.157182 
L 186.044629 155.646805 
L 189.119003 156.16376 
L 192.193386 156.708428 
L 195.267769 157.28118 
L 198.342144 157.882397 
L 201.416527 158.512472 
L 204.49091 159.171744 
L 207.565284 159.860614 
L 210.639668 160.579433 
L 213.714051 161.328561 
L 216.788434 162.108368 
L 219.862817 162.919215 
L 222.937201 163.761399 
L 226.011566 164.6353 
L 229.085949 165.541237 
L 232.160332 166.479505 
L 235.234716 167.450403 
L 238.309099 168.454247 
L 241.383464 169.491282 
L 244.457847 170.561772 
L 247.532231 171.66595 
L 250.606596 172.804028 
L 253.680979 173.976196 
L 256.755362 175.182636 
L 259.829746 176.423473 
L 262.904129 177.698804 
L 265.978512 179.008702 
L 269.052895 180.353221 
L 272.127279 181.732339 
L 275.201662 183.145993 
L 278.276027 184.594097 
L 281.35041 186.076515 
L 284.424794 187.592992 
L 287.499177 189.143284 
L 290.57356 190.727052 
L 293.647944 192.343863 
L 296.722327 193.993217 
L 299.796692 195.674522 
L 302.871075 197.387121 
L 305.945459 199.130241 
L 309.019842 200.902981 
L 312.094225 202.704377 
L 315.16859 204.533296 
L 318.242974 206.388519 
L 321.317357 208.268701 
L 324.391722 210.172327 
L 327.466105 212.097787 
L 330.540489 214.043343 
L 333.614872 216.007068 
L 336.689255 217.986927 
L 339.763638 219.980769 
L 342.838022 221.986297 
L 345.912405 224.001126 
L 348.986788 226.022703 
L 352.061153 228.048432 
L 355.135537 230.075656 
L 358.20992 232.101629 
L 361.284303 234.123577 
L 364.358686 236.138745 
L 367.433052 238.144368 
L 370.507435 240.137776 
L 373.581818 242.116364 
" clip-path="url(#pdcea04bd6f)" style="fill: none; stroke: #1f77b4; stroke-width: 1.5; stroke-linecap: square"/>
   </g>
   <g id="line2d_14">
    <path d="M 69.218182 153.249393 
L 72.292562 153.155596 
L 75.366942 153.052709 
L 78.441323 152.9405 
L 81.515702 152.818756 
L 84.590082 152.687203 
L 87.664463 152.54567 
L 90.738842 152.393883 
L 93.813223 152.231628 
L 96.887604 152.058675 
L 99.961983 151.874809 
L 103.036364 151.679799 
L 106.110745 151.473411 
L 109.185124 151.255434 
L 112.259502 151.025634 
L 115.333886 150.78382 
L 118.408264 150.529761 
L 121.482643 150.263264 
L 124.557026 149.984097 
L 127.631405 149.692069 
L 130.705784 149.386969 
L 133.780167 149.068647 
L 136.854546 148.736893 
L 139.928925 148.391514 
L 143.003308 148.032365 
L 146.077691 147.659252 
L 149.152065 147.272029 
L 152.226449 146.870546 
L 155.300832 146.454656 
L 158.375206 146.02421 
L 161.44959 145.579123 
L 164.523973 145.119227 
L 167.598347 144.644456 
L 170.67273 144.154664 
L 173.747105 143.649828 
L 176.821488 143.129802 
L 179.895871 142.594562 
L 182.970245 142.044046 
L 186.044629 141.478191 
L 189.119003 140.896995 
L 192.193386 140.300418 
L 195.267769 139.688458 
L 198.342144 139.061138 
L 201.416527 138.418435 
L 204.49091 137.760414 
L 207.565284 137.087116 
L 210.639668 136.398606 
L 213.714051 135.694947 
L 216.788434 134.976244 
L 219.862817 134.242604 
L 222.937201 133.494134 
L 226.011566 132.731001 
L 229.085949 131.953312 
L 232.160332 131.161301 
L 235.234716 130.355094 
L 238.309099 129.534946 
L 241.383464 128.701068 
L 244.457847 127.853715 
L 247.532231 126.99314 
L 250.606596 126.119621 
L 253.680979 125.233473 
L 256.755362 124.335037 
L 259.829746 123.424629 
L 262.904129 122.502654 
L 265.978512 121.56947 
L 269.052895 120.625502 
L 272.127279 119.671215 
L 275.201662 118.707013 
L 278.276027 117.733424 
L 281.35041 116.750937 
L 284.424794 115.760102 
L 287.499177 114.761448 
L 290.57356 113.75557 
L 293.647944 112.743081 
L 296.722327 111.724596 
L 299.796692 110.700751 
L 302.871075 109.672265 
L 305.945459 108.639776 
L 309.019842 107.604023 
L 312.094225 106.565706 
L 315.16859 105.525631 
L 318.242974 104.484497 
L 321.317357 103.443066 
L 324.391722 102.402144 
L 327.466105 101.362492 
L 330.540489 100.324875 
L 333.614872 99.290033 
L 336.689255 98.258751 
L 339.763638 97.231749 
L 342.838022 96.209704 
L 345.912405 95.193296 
L 348.986788 94.183138 
L 352.061153 93.179823 
L 355.135537 92.183839 
L 358.20992 91.195695 
L 361.284303 90.21575 
L 364.358686 89.244344 
L 367.433052 88.281667 
L 370.507435 87.32791 
L 373.581818 86.383137 
" clip-path="url(#pdcea04bd6f)" style="fill: none; stroke: #ff7f0e; stroke-width: 1.5; stroke-linecap: square"/>
   </g>
   <g id="line2d_15">
    <path d="M 69.218182 153.249393 
L 72.292562 153.014042 
L 75.366942 152.765936 
L 78.441323 152.504757 
L 81.515702 152.230124 
L 84.590082 151.941762 
L 87.664463 151.63931 
L 90.738842 151.322429 
L 93.813223 150.99078 
L 96.887604 150.644046 
L 99.961983 150.281909 
L 103.036364 149.903987 
L 106.110745 149.509962 
L 109.185124 149.099538 
L 112.259502 148.672355 
L 115.333886 148.228074 
L 118.408264 147.766419 
L 121.482643 147.287029 
L 124.557026 146.789588 
L 127.631405 146.27382 
L 130.705784 145.739407 
L 133.780167 145.186031 
L 136.854546 144.613416 
L 139.928925 144.021267 
L 143.003308 143.409308 
L 146.077691 142.777283 
L 149.152065 142.124898 
L 152.226449 141.451939 
L 155.300832 140.758132 
L 158.375206 140.043265 
L 161.44959 139.307083 
L 164.523973 138.549416 
L 167.598347 137.770033 
L 170.67273 136.968741 
L 173.747105 136.145394 
L 176.821488 135.29982 
L 179.895871 134.431852 
L 182.970245 133.541361 
L 186.044629 132.628241 
L 189.119003 131.692367 
L 192.193386 130.733673 
L 195.267769 129.752076 
L 198.342144 128.747511 
L 201.416527 127.719979 
L 204.49091 126.669395 
L 207.565284 125.595822 
L 210.639668 124.49924 
L 213.714051 123.379691 
L 216.788434 122.237238 
L 219.862817 121.071987 
L 222.937201 119.884023 
L 226.011566 118.673494 
L 229.085949 117.440506 
L 232.160332 116.185272 
L 235.234716 114.907981 
L 238.309099 113.608867 
L 241.383464 112.288206 
L 244.457847 110.946251 
L 247.532231 109.583341 
L 250.606596 108.199816 
L 253.680979 106.796057 
L 256.755362 105.372488 
L 259.829746 103.929553 
L 262.904129 102.467719 
L 265.978512 100.987515 
L 269.052895 99.489535 
L 272.127279 97.97433 
L 275.201662 96.442598 
L 278.276027 94.894997 
L 281.35041 93.332225 
L 284.424794 91.755088 
L 287.499177 90.164392 
L 290.57356 88.561025 
L 293.647944 86.945857 
L 296.722327 85.319861 
L 299.796692 83.684035 
L 302.871075 82.039416 
L 305.945459 80.387085 
L 309.019842 78.728186 
L 312.094225 77.063883 
L 315.16859 75.395365 
L 318.242974 73.72388 
L 321.317357 72.050637 
L 324.391722 70.376927 
L 327.466105 68.704044 
L 330.540489 67.033195 
L 333.614872 65.365693 
L 336.689255 63.702726 
L 339.763638 62.045522 
L 342.838022 60.395182 
L 345.912405 58.752724 
L 348.986788 57.119165 
L 352.061153 55.495395 
L 355.135537 53.882048 
L 358.20992 52.279805 
L 361.284303 50.689044 
L 364.358686 49.110064 
L 367.433052 47.542949 
L 370.507435 45.98753 
L 373.581818 44.443636 
" clip-path="url(#pdcea04bd6f)" style="fill: none; stroke: #2ca02c; stroke-width: 1.5; stroke-linecap: square"/>
   </g>
   <g id="line2d_16">
    <path d="M 69.218182 153.249393 
L 72.292562 153.832548 
L 75.366942 154.409697 
L 78.441323 154.980637 
L 81.515702 155.545158 
L 84.590082 156.103036 
L 87.664463 156.654039 
L 90.738842 157.197945 
L 93.813223 157.734508 
L 96.887604 158.263487 
L 99.961983 158.784626 
L 103.036364 159.297672 
L 106.110745 159.802348 
L 109.185124 160.298402 
L 112.259502 160.785546 
L 115.333886 161.263483 
L 118.408264 161.73195 
L 121.482643 162.190618 
L 124.557026 162.63919 
L 127.631405 163.077359 
L 130.705784 163.504796 
L 133.780167 163.921163 
L 136.854546 164.326121 
L 139.928925 164.71934 
L 143.003308 165.10044 
L 146.077691 165.469072 
L 149.152065 165.824842 
L 152.226449 166.167381 
L 155.300832 166.496286 
L 158.375206 166.811133 
L 161.44959 167.11153 
L 164.523973 167.397021 
L 167.598347 167.667162 
L 170.67273 167.921508 
L 173.747105 168.159582 
L 176.821488 168.380886 
L 179.895871 168.584911 
L 182.970245 168.771128 
L 186.044629 168.939008 
L 189.119003 169.087988 
L 192.193386 169.217454 
L 195.267769 169.326824 
L 198.342144 169.415441 
L 201.416527 169.482648 
L 204.49091 169.527746 
L 207.565284 169.550014 
L 210.639668 169.54869 
L 213.714051 169.522968 
L 216.788434 169.472001 
L 219.862817 169.394932 
L 222.937201 169.290806 
L 226.011566 169.158659 
L 229.085949 168.997432 
L 232.160332 168.806045 
L 235.234716 168.583343 
L 238.309099 168.328097 
L 241.383464 168.038993 
L 244.457847 167.714675 
L 247.532231 167.353671 
L 250.606596 166.954445 
L 253.680979 166.515334 
L 256.755362 166.034599 
L 259.829746 165.510409 
L 262.904129 164.940771 
L 265.978512 164.323621 
L 269.052895 163.656753 
L 272.127279 162.937839 
L 275.201662 162.164388 
L 278.276027 161.333805 
L 281.35041 160.443324 
L 284.424794 159.490034 
L 287.499177 158.470892 
L 290.57356 157.382689 
L 293.647944 156.222068 
L 296.722327 154.98551 
L 299.796692 153.669372 
L 302.871075 152.269851 
L 305.945459 150.783037 
L 309.019842 149.204883 
L 312.094225 147.531258 
L 315.16859 145.757946 
L 318.242974 143.880688 
L 321.317357 141.895183 
L 324.391722 139.79715 
L 327.466105 137.582396 
L 330.540489 135.246788 
L 333.614872 132.786321 
L 336.689255 130.19731 
L 339.763638 127.476259 
L 342.838022 124.620052 
L 345.912405 121.625977 
L 348.986788 118.491832 
L 352.061153 115.215984 
L 355.135537 111.79746 
L 358.20992 108.235983 
L 361.284303 104.532127 
L 364.358686 100.687245 
L 367.433052 96.703692 
L 370.507435 92.584623 
L 373.581818 88.334297 
" clip-path="url(#pdcea04bd6f)" style="fill: none; stroke: #d62728; stroke-width: 1.5; stroke-linecap: square"/>
   </g>
   <g id="line2d_17">
    <path d="M 69.218182 153.249393 
L 72.292562 153.433396 
L 75.366942 153.622389 
L 78.441323 153.815873 
L 81.515702 154.013384 
L 84.590082 154.214432 
L 87.664463 154.418617 
L 90.738842 154.625492 
L 93.813223 154.83456 
L 96.887604 155.04546 
L 99.961983 155.257781 
L 103.036364 155.471129 
L 106.110745 155.685059 
L 109.185124 155.899265 
L 112.259502 156.113355 
L 115.333886 156.326989 
L 118.408264 156.539828 
L 121.482643 156.751555 
L 124.557026 156.961863 
L 127.631405 157.170433 
L 130.705784 157.377001 
L 133.780167 157.581365 
L 136.854546 157.783197 
L 139.928925 157.982307 
L 143.003308 158.178493 
L 146.077691 158.371533 
L 149.152065 158.561267 
L 152.226449 158.747527 
L 155.300832 158.930153 
L 158.375206 159.109029 
L 161.44959 159.284048 
L 164.523973 159.455117 
L 167.598347 159.622148 
L 170.67273 159.785081 
L 173.747105 159.943902 
L 176.821488 160.09855 
L 179.895871 160.249024 
L 182.970245 160.395313 
L 186.044629 160.537461 
L 189.119003 160.675519 
L 192.193386 160.809477 
L 195.267769 160.939452 
L 198.342144 161.065507 
L 201.416527 161.187717 
L 204.49091 161.306155 
L 207.565284 161.42097 
L 210.639668 161.532268 
L 213.714051 161.640166 
L 216.788434 161.744779 
L 219.862817 161.846289 
L 222.937201 161.944758 
L 226.011566 162.040409 
L 229.085949 162.133327 
L 232.160332 162.223671 
L 235.234716 162.311514 
L 238.309099 162.397059 
L 241.383464 162.48039 
L 244.457847 162.561612 
L 247.532231 162.640843 
L 250.606596 162.718146 
L 253.680979 162.793541 
L 256.755362 162.867179 
L 259.829746 162.938994 
L 262.904129 163.009029 
L 265.978512 163.077264 
L 269.052895 163.143644 
L 272.127279 163.208129 
L 275.201662 163.270558 
L 278.276027 163.330879 
L 281.35041 163.388932 
L 284.424794 163.444507 
L 287.499177 163.497455 
L 290.57356 163.547563 
L 293.647944 163.59461 
L 296.722327 163.638352 
L 299.796692 163.678524 
L 302.871075 163.714956 
L 305.945459 163.747383 
L 309.019842 163.775615 
L 312.094225 163.799494 
L 315.16859 163.818923 
L 318.242974 163.833818 
L 321.317357 163.844178 
L 324.391722 163.850121 
L 327.466105 163.85188 
L 330.540489 163.849782 
L 333.614872 163.844242 
L 336.689255 163.835926 
L 339.763638 163.82565 
L 342.838022 163.814346 
L 345.912405 163.803265 
L 348.986788 163.79371 
L 352.061153 163.787332 
L 355.135537 163.785966 
L 358.20992 163.791697 
L 361.284303 163.806804 
L 364.358686 163.833839 
L 367.433052 163.875483 
L 370.507435 163.934692 
L 373.581818 164.014653 
" clip-path="url(#pdcea04bd6f)" style="fill: none; stroke: #9467bd; stroke-width: 1.5; stroke-linecap: square"/>
   </g>
   <g id="patch_3">
    <path d="M 54 252 
L 54 34.56 
" style="fill: none; stroke: #000000; stroke-width: 0.8; stroke-linejoin: miter; stroke-linecap: square"/>
   </g>
   <g id="patch_4">
    <path d="M 388.8 252 
L 388.8 34.56 
" style="fill: none; stroke: #000000; stroke-width: 0.8; stroke-linejoin: miter; stroke-linecap: square"/>
   </g>
   <g id="patch_5">
    <path d="M 54 252 
L 388.8 252 
" style="fill: none; stroke: #000000; stroke-width: 0.8; stroke-linejoin: miter; stroke-linecap: square"/>
   </g>
   <g id="patch_6">
    <path d="M 54 34.56 
L 388.8 34.56 
" style="fill: none; stroke: #000000; stroke-width: 0.8; stroke-linejoin: miter; stroke-linecap: square"/>
   </g>
   <g id="legend_1">
    <g id="patch_7">
     <path d="M 63.1 135.55156 
L 115.792528 135.55156 
Q 118.392528 135.55156 118.392528 132.95156 
L 118.392528 43.66 
Q 118.392528 41.06 115.792528 41.06 
L 63.1 41.06 
Q 60.5 41.06 60.5 43.66 
L 60.5 132.95156 
Q 60.5 135.55156 63.1 135.55156 
z
" style="fill: #ffffff; opacity: 0.8; stroke: #cccccc; stroke-linejoin: miter"/>
    </g>
    <g id="line2d_18">
     <path d="M 65.7 50.81 
L 78.7 50.81 
L 91.7 50.81 
" style="fill: none; stroke: #1f77b4; stroke-width: 1.5; stroke-linecap: square"/>
    </g>
    <g id="text_14">
     <!-- $u$ -->
     <g transform="translate(102.1 55.36) scale(0.13 -0.13)">
      <defs>
       <path id="CMMI12-75" d="M 2182 370 
C 2266 12 2573 -64 2726 -64 
C 2931 -64 3085 70 3187 287 
C 3296 517 3379 893 3379 913 
C 3379 944 3354 970 3315 970 
C 3258 970 3251 938 3226 842 
C 3110 402 2995 64 2739 64 
C 2547 64 2547 274 2547 357 
C 2547 504 2566 568 2630 836 
C 2675 1008 2720 1181 2758 1359 
L 3021 2400 
C 3066 2560 3066 2572 3066 2591 
C 3066 2687 2989 2752 2893 2752 
C 2707 2752 2662 2591 2624 2432 
C 2560 2183 2214 810 2170 587 
C 2163 587 1914 64 1446 64 
C 1114 64 1050 351 1050 587 
C 1050 951 1229 1462 1395 1890 
C 1472 2094 1504 2177 1504 2305 
C 1504 2579 1306 2816 998 2816 
C 410 2816 173 1890 173 1838 
C 173 1813 198 1781 243 1781 
C 301 1781 307 1807 333 1896 
C 486 2445 736 2687 979 2687 
C 1043 2687 1146 2681 1146 2477 
C 1146 2311 1075 2126 979 1883 
C 698 1123 666 881 666 689 
C 666 38 1158 -64 1421 -64 
C 1830 -64 2054 217 2182 370 
z
" transform="scale(0.015625)"/>
      </defs>
      <use xlink:href="#CMMI12-75" transform="scale(0.996264)"/>
     </g>
    </g>
    <g id="line2d_19">
     <path d="M 65.7 68.928312 
L 78.7 68.928312 
L 91.7 68.928312 
" style="fill: none; stroke: #ff7f0e; stroke-width: 1.5; stroke-linecap: square"/>
    </g>
    <g id="text_15">
     <!-- $\rho$ -->
     <g transform="translate(102.1 73.478312) scale(0.13 -0.13)">
      <defs>
       <path id="CMMI12-1a" d="M 198 -1085 
C 192 -1116 179 -1154 179 -1191 
C 179 -1287 256 -1351 352 -1351 
C 448 -1351 538 -1287 576 -1198 
C 602 -1141 781 -390 986 389 
C 1114 70 1350 -64 1600 -64 
C 2323 -64 3142 830 3142 1794 
C 3142 2477 2726 2816 2285 2816 
C 1722 2816 1037 2234 826 1385 
L 198 -1085 
z
M 1594 64 
C 1158 64 1050 568 1050 645 
C 1050 683 1210 1289 1229 1385 
C 1555 2656 2182 2687 2278 2687 
C 2566 2687 2726 2426 2726 2049 
C 2726 1724 2554 1091 2445 823 
C 2253 383 1920 64 1594 64 
z
" transform="scale(0.015625)"/>
      </defs>
      <use xlink:href="#CMMI12-1a" transform="scale(0.996264)"/>
     </g>
    </g>
    <g id="line2d_20">
     <path d="M 65.7 87.046624 
L 78.7 87.046624 
L 91.7 87.046624 
" style="fill: none; stroke: #2ca02c; stroke-width: 1.5; stroke-linecap: square"/>
    </g>
    <g id="text_16">
     <!-- $p$ -->
     <g transform="translate(102.1 91.596624) scale(0.13 -0.13)">
      <defs>
       <path id="CMMI12-70" d="M 275 -794 
C 230 -981 205 -1031 -58 -1031 
C -135 -1031 -199 -1031 -199 -1152 
C -199 -1165 -192 -1216 -122 -1216 
C -39 -1216 51 -1204 134 -1204 
L 410 -1204 
C 544 -1204 870 -1216 1005 -1216 
C 1043 -1216 1120 -1216 1120 -1101 
C 1120 -1031 1075 -1031 966 -1031 
C 672 -1031 653 -987 653 -937 
C 653 -863 941 217 979 364 
C 1050 185 1222 -64 1555 -64 
C 2278 -64 3059 874 3059 1813 
C 3059 2400 2726 2816 2246 2816 
C 1837 2816 1491 2419 1421 2330 
C 1370 2649 1120 2816 864 2816 
C 678 2816 531 2726 410 2483 
C 294 2253 205 1864 205 1838 
C 205 1813 230 1781 275 1781 
C 326 1781 333 1787 371 1934 
C 467 2311 589 2687 845 2687 
C 992 2687 1043 2585 1043 2394 
C 1043 2241 1024 2177 998 2062 
L 275 -794 
z
M 1382 1992 
C 1427 2170 1606 2356 1709 2445 
C 1779 2509 1990 2687 2234 2687 
C 2515 2687 2643 2407 2643 2075 
C 2643 1768 2464 1047 2304 715 
C 2144 370 1850 64 1555 64 
C 1120 64 1050 613 1050 638 
C 1050 657 1062 708 1069 740 
L 1382 1992 
z
" transform="scale(0.015625)"/>
      </defs>
      <use xlink:href="#CMMI12-70" transform="scale(0.996264)"/>
     </g>
    </g>
    <g id="line2d_21">
     <path d="M 65.7 105.164936 
L 78.7 105.164936 
L 91.7 105.164936 
" style="fill: none; stroke: #d62728; stroke-width: 1.5; stroke-linecap: square"/>
    </g>
    <g id="text_17">
     <!-- $A$ -->
     <g transform="translate(102.1 109.714936) scale(0.13 -0.13)">
      <defs>
       <path id="CMMI12-41" d="M 1088 720 
C 864 335 646 205 339 185 
C 269 179 218 179 218 64 
C 218 25 250 0 294 0 
C 410 0 698 12 813 12 
C 998 12 1203 0 1382 0 
C 1421 0 1498 0 1498 121 
C 1498 179 1446 185 1408 185 
C 1261 198 1139 250 1139 407 
C 1139 498 1178 570 1261 714 
L 1747 1536 
L 3379 1536 
C 3386 1477 3386 1425 3392 1366 
C 3411 1196 3488 518 3488 394 
C 3488 198 3162 185 3059 185 
C 2989 185 2918 185 2918 70 
C 2918 0 2976 0 3014 0 
C 3123 0 3251 12 3360 12 
L 3725 12 
C 4115 12 4397 0 4403 0 
C 4448 0 4518 0 4518 121 
C 4518 185 4461 185 4365 185 
C 4013 185 4006 244 3987 440 
L 3597 4403 
C 3584 4531 3558 4544 3488 4544 
C 3424 4544 3386 4531 3328 4435 
L 1088 720 
z
M 1856 1721 
L 3142 3831 
L 3360 1721 
L 1856 1721 
z
" transform="scale(0.015625)"/>
      </defs>
      <use xlink:href="#CMMI12-41" transform="scale(0.996264)"/>
     </g>
    </g>
    <g id="line2d_22">
     <path d="M 65.7 123.283248 
L 78.7 123.283248 
L 91.7 123.283248 
" style="fill: none; stroke: #9467bd; stroke-width: 1.5; stroke-linecap: square"/>
    </g>
    <g id="text_18">
     <!-- $\dot m$ -->
     <g transform="translate(102.1 127.833248) scale(0.13 -0.13)">
      <defs>
       <path id="CMR17-5f" d="M 1056 3961 
C 1056 4115 934 4224 800 4224 
C 646 4224 538 4102 538 3961 
C 538 3807 659 3699 794 3699 
C 947 3699 1056 3820 1056 3961 
z
" transform="scale(0.015625)"/>
       <path id="CMMI12-6d" d="M 1318 1870 
C 1331 1909 1491 2228 1728 2432 
C 1894 2585 2112 2687 2362 2687 
C 2618 2687 2707 2496 2707 2241 
C 2707 2202 2707 2075 2630 1775 
L 2470 1117 
C 2419 925 2298 453 2285 383 
C 2259 287 2221 121 2221 95 
C 2221 6 2291 -64 2387 -64 
C 2579 -64 2611 83 2669 313 
L 3053 1838 
C 3066 1890 3398 2687 4102 2687 
C 4358 2687 4448 2496 4448 2241 
C 4448 1883 4198 1187 4058 804 
C 4000 651 3968 568 3968 453 
C 3968 166 4166 -64 4474 -64 
C 5069 -64 5293 874 5293 913 
C 5293 945 5267 970 5229 970 
C 5171 970 5165 951 5133 842 
C 4986 332 4749 64 4493 64 
C 4429 64 4326 70 4326 274 
C 4326 440 4403 645 4429 715 
C 4544 1021 4832 1775 4832 2145 
C 4832 2528 4608 2816 4122 2816 
C 3693 2816 3347 2573 3091 2196 
C 3072 2541 2861 2816 2381 2816 
C 1811 2816 1510 2413 1395 2253 
C 1376 2617 1114 2816 832 2816 
C 646 2816 499 2726 378 2483 
C 262 2253 173 1864 173 1838 
C 173 1813 198 1781 243 1781 
C 294 1781 301 1787 339 1934 
C 435 2311 557 2687 813 2687 
C 960 2687 1011 2585 1011 2394 
C 1011 2253 947 2004 902 1807 
L 723 1117 
C 698 996 627 708 595 593 
C 550 427 480 127 480 95 
C 480 6 550 -64 646 -64 
C 723 -64 813 -26 864 70 
C 877 102 934 325 966 453 
L 1107 1028 
L 1318 1870 
z
" transform="scale(0.015625)"/>
      </defs>
      <use xlink:href="#CMR17-5f" transform="translate(30.228091 0.006461) scale(0.996264)"/>
      <use xlink:href="#CMMI12-6d" transform="scale(0.996264)"/>
     </g>
    </g>
   </g>
  </g>
 </g>
 <defs>
  <clipPath id="pdcea04bd6f">
   <rect x="54" y="34.56" width="334.8" height="217.44"/>
  </clipPath>
 </defs>
</svg>
