<?xml version="1.0" encoding="utf-8" standalone="no"?>
<!DOCTYPE svg PUBLIC "-//W3C//DTD SVG 1.1//EN"
  "http://www.w3.org/Graphics/SVG/1.1/DTD/svg11.dtd">
<svg xmlns:xlink="http://www.w3.org/1999/xlink" width="432pt" height="288pt" viewBox="0 0 432 288" xmlns="http://www.w3.org/2000/svg" version="1.1">
 <metadata>
  <rdf:RDF xmlns:dc="http://purl.org/dc/elements/1.1/" xmlns:cc="http://creativecommons.org/ns#" xmlns:rdf="http://www.w3.org/1999/02/22-rdf-syntax-ns#">
   <cc:Work>
    <dc:type rdf:resource="http://purl.org/dc/dcmitype/StillImage"/>
    <dc:date>2023-04-24T17:14:26.147134</dc:date>
    <dc:format>image/svg+xml</dc:format>
    <dc:creator>
     <cc:Agent>
      <dc:title>Matplotlib v3.7.1, https://matplotlib.org/</dc:title>
     </cc:Agent>
    </dc:creator>
   </cc:Work>
  </rdf:RDF>
 </metadata>
 <defs>
  <style type="text/css">*{stroke-linejoin: round; stroke-linecap: butt}</style>
 </defs>
 <g id="figure_1">
  <g id="patch_1">
   <path d="M 0 288 
L 432 288 
L 432 0 
L 0 0 
z
" style="fill: #ffffff"/>
  </g>
  <g id="axes_1">
   <g id="patch_2">
    <path d="M 54 252 
L 388.8 252 
L 388.8 34.56 
L 54 34.56 
z
" style="fill: #ffffff"/>
   </g>
   <g id="matplotlib.axis_1">
    <g id="xtick_1">
     <g id="line2d_1">
      <defs>
       <path id="ma4e7bbc619" d="M 0 0 
L 0 3.5 
" style="stroke: #000000; stroke-width: 0.8"/>
      </defs>
      <g>
       <use xlink:href="#ma4e7bbc619" x="69.218182" y="252" style="stroke: #000000; stroke-width: 0.8"/>
      </g>
     </g>
     <g id="text_1">
      <!-- $\mathdefault{0.0}$ -->
      <g transform="translate(61.116126 267.994028) scale(0.13 -0.13)">
       <defs>
        <path id="CMR17-30" d="M 2688 2038 
C 2688 2430 2682 3099 2413 3613 
C 2176 4063 1798 4224 1466 4224 
C 1158 4224 768 4082 525 3620 
C 269 3137 243 2539 243 2038 
C 243 1671 250 1112 448 623 
C 723 -39 1216 -128 1466 -128 
C 1760 -128 2208 -7 2470 604 
C 2662 1048 2688 1568 2688 2038 
z
M 1466 -26 
C 1056 -26 813 328 723 816 
C 653 1196 653 1749 653 2109 
C 653 2604 653 3015 736 3407 
C 858 3954 1216 4121 1466 4121 
C 1728 4121 2067 3947 2189 3420 
C 2272 3054 2278 2623 2278 2109 
C 2278 1691 2278 1176 2202 797 
C 2067 96 1690 -26 1466 -26 
z
" transform="scale(0.015625)"/>
        <path id="CMMI12-3a" d="M 1178 307 
C 1178 492 1024 620 870 620 
C 685 620 557 467 557 313 
C 557 128 710 0 864 0 
C 1050 0 1178 153 1178 307 
z
" transform="scale(0.015625)"/>
       </defs>
       <use xlink:href="#CMR17-30" transform="scale(0.996264)"/>
       <use xlink:href="#CMMI12-3a" transform="translate(45.690477 0) scale(0.996264)"/>
       <use xlink:href="#CMR17-30" transform="translate(72.787654 0) scale(0.996264)"/>
      </g>
     </g>
    </g>
    <g id="xtick_2">
     <g id="line2d_2">
      <g>
       <use xlink:href="#ma4e7bbc619" x="130.090909" y="252" style="stroke: #000000; stroke-width: 0.8"/>
      </g>
     </g>
     <g id="text_2">
      <!-- $\mathdefault{0.2}$ -->
      <g transform="translate(121.988853 267.994028) scale(0.13 -0.13)">
       <defs>
        <path id="CMR17-32" d="M 2669 990 
L 2554 990 
C 2490 537 2438 460 2413 422 
C 2381 371 1920 371 1830 371 
L 602 371 
C 832 620 1280 1073 1824 1596 
C 2214 1966 2669 2400 2669 3033 
C 2669 3788 2067 4224 1395 4224 
C 691 4224 262 3603 262 3027 
C 262 2777 448 2745 525 2745 
C 589 2745 781 2783 781 3007 
C 781 3206 614 3264 525 3264 
C 486 3264 448 3257 422 3244 
C 544 3788 915 4057 1306 4057 
C 1862 4057 2227 3616 2227 3033 
C 2227 2477 1901 1998 1536 1583 
L 262 147 
L 262 0 
L 2515 0 
L 2669 990 
z
" transform="scale(0.015625)"/>
       </defs>
       <use xlink:href="#CMR17-30" transform="scale(0.996264)"/>
       <use xlink:href="#CMMI12-3a" transform="translate(45.690477 0) scale(0.996264)"/>
       <use xlink:href="#CMR17-32" transform="translate(72.787654 0) scale(0.996264)"/>
      </g>
     </g>
    </g>
    <g id="xtick_3">
     <g id="line2d_3">
      <g>
       <use xlink:href="#ma4e7bbc619" x="190.963636" y="252" style="stroke: #000000; stroke-width: 0.8"/>
      </g>
     </g>
     <g id="text_3">
      <!-- $\mathdefault{0.4}$ -->
      <g transform="translate(182.86158 267.994028) scale(0.13 -0.13)">
       <defs>
        <path id="CMR17-34" d="M 2150 4147 
C 2150 4281 2144 4288 2029 4288 
L 128 1254 
L 128 1088 
L 1779 1088 
L 1779 460 
C 1779 230 1766 166 1318 166 
L 1197 166 
L 1197 0 
C 1402 12 1747 12 1965 12 
C 2182 12 2528 12 2733 0 
L 2733 166 
L 2611 166 
C 2163 166 2150 230 2150 460 
L 2150 1088 
L 2803 1088 
L 2803 1254 
L 2150 1254 
L 2150 4147 
z
M 1798 3723 
L 1798 1254 
L 256 1254 
L 1798 3723 
z
" transform="scale(0.015625)"/>
       </defs>
       <use xlink:href="#CMR17-30" transform="scale(0.996264)"/>
       <use xlink:href="#CMMI12-3a" transform="translate(45.690477 0) scale(0.996264)"/>
       <use xlink:href="#CMR17-34" transform="translate(72.787654 0) scale(0.996264)"/>
      </g>
     </g>
    </g>
    <g id="xtick_4">
     <g id="line2d_4">
      <g>
       <use xlink:href="#ma4e7bbc619" x="251.836364" y="252" style="stroke: #000000; stroke-width: 0.8"/>
      </g>
     </g>
     <g id="text_4">
      <!-- $\mathdefault{0.6}$ -->
      <g transform="translate(243.734308 267.994028) scale(0.13 -0.13)">
       <defs>
        <path id="CMR17-36" d="M 678 2198 
C 678 3712 1395 4076 1811 4076 
C 1946 4076 2272 4049 2400 3782 
C 2298 3782 2106 3782 2106 3558 
C 2106 3385 2246 3328 2336 3328 
C 2394 3328 2566 3353 2566 3571 
C 2566 3987 2246 4224 1805 4224 
C 1043 4224 243 3411 243 2011 
C 243 257 966 -128 1478 -128 
C 2099 -128 2688 431 2688 1295 
C 2688 2101 2170 2688 1517 2688 
C 1126 2688 838 2430 678 1979 
L 678 2198 
z
M 1478 25 
C 691 25 691 1212 691 1450 
C 691 1914 909 2585 1504 2585 
C 1613 2585 1926 2585 2138 2140 
C 2253 1889 2253 1624 2253 1302 
C 2253 954 2253 696 2118 438 
C 1978 173 1773 25 1478 25 
z
" transform="scale(0.015625)"/>
       </defs>
       <use xlink:href="#CMR17-30" transform="scale(0.996264)"/>
       <use xlink:href="#CMMI12-3a" transform="translate(45.690477 0) scale(0.996264)"/>
       <use xlink:href="#CMR17-36" transform="translate(72.787654 0) scale(0.996264)"/>
      </g>
     </g>
    </g>
    <g id="xtick_5">
     <g id="line2d_5">
      <g>
       <use xlink:href="#ma4e7bbc619" x="312.709091" y="252" style="stroke: #000000; stroke-width: 0.8"/>
      </g>
     </g>
     <g id="text_5">
      <!-- $\mathdefault{0.8}$ -->
      <g transform="translate(304.607035 267.994028) scale(0.13 -0.13)">
       <defs>
        <path id="CMR17-38" d="M 1741 2289 
C 2144 2494 2554 2803 2554 3298 
C 2554 3884 1990 4224 1472 4224 
C 890 4224 378 3800 378 3215 
C 378 3054 416 2777 666 2533 
C 730 2469 998 2276 1171 2154 
C 883 2006 211 1652 211 945 
C 211 282 838 -128 1459 -128 
C 2144 -128 2720 366 2720 1022 
C 2720 1607 2330 1877 2074 2051 
L 1741 2289 
z
M 902 2855 
C 851 2887 595 3086 595 3388 
C 595 3781 998 4076 1459 4076 
C 1965 4076 2336 3716 2336 3298 
C 2336 2700 1670 2359 1638 2359 
C 1632 2359 1626 2359 1574 2398 
L 902 2855 
z
M 2080 1536 
C 2176 1466 2483 1253 2483 861 
C 2483 385 2010 25 1472 25 
C 890 25 448 443 448 951 
C 448 1459 838 1884 1280 2083 
L 2080 1536 
z
" transform="scale(0.015625)"/>
       </defs>
       <use xlink:href="#CMR17-30" transform="scale(0.996264)"/>
       <use xlink:href="#CMMI12-3a" transform="translate(45.690477 0) scale(0.996264)"/>
       <use xlink:href="#CMR17-38" transform="translate(72.787654 0) scale(0.996264)"/>
      </g>
     </g>
    </g>
    <g id="xtick_6">
     <g id="line2d_6">
      <g>
       <use xlink:href="#ma4e7bbc619" x="373.581818" y="252" style="stroke: #000000; stroke-width: 0.8"/>
      </g>
     </g>
     <g id="text_6">
      <!-- $\mathdefault{1.0}$ -->
      <g transform="translate(365.479762 267.994028) scale(0.13 -0.13)">
       <defs>
        <path id="CMR17-31" d="M 1702 4083 
C 1702 4217 1696 4224 1606 4224 
C 1357 3927 979 3833 621 3820 
C 602 3820 570 3820 563 3808 
C 557 3795 557 3782 557 3648 
C 755 3648 1088 3686 1344 3839 
L 1344 467 
C 1344 243 1331 166 781 166 
L 589 166 
L 589 0 
C 896 6 1216 12 1523 12 
C 1830 12 2150 6 2458 0 
L 2458 166 
L 2266 166 
C 1715 166 1702 236 1702 467 
L 1702 4083 
z
" transform="scale(0.015625)"/>
       </defs>
       <use xlink:href="#CMR17-31" transform="scale(0.996264)"/>
       <use xlink:href="#CMMI12-3a" transform="translate(45.690477 0) scale(0.996264)"/>
       <use xlink:href="#CMR17-30" transform="translate(72.787654 0) scale(0.996264)"/>
      </g>
     </g>
    </g>
    <g id="text_7">
     <!-- $x$ -->
     <g transform="translate(217.79679 283.506368) scale(0.13 -0.13)">
      <defs>
       <path id="CMMI12-78" d="M 3034 2624 
C 2829 2585 2752 2431 2752 2310 
C 2752 2156 2874 2105 2963 2105 
C 3155 2105 3290 2271 3290 2444 
C 3290 2694 2982 2816 2714 2816 
C 2323 2816 2106 2451 2048 2329 
C 1901 2790 1504 2816 1389 2816 
C 736 2816 390 1993 390 1849 
C 390 1823 416 1790 461 1790 
C 512 1790 525 1829 538 1855 
C 755 2572 1184 2687 1370 2687 
C 1658 2687 1715 2438 1715 2284 
C 1715 2143 1677 1993 1600 1678 
L 1382 778 
C 1286 390 1101 64 762 64 
C 730 64 570 64 435 126 
C 666 166 717 358 717 435 
C 717 563 621 640 499 640 
C 346 640 179 505 179 300 
C 179 57 480 -64 755 -64 
C 1062 -64 1280 153 1414 415 
C 1517 64 1837 -64 2074 -64 
C 2726 -64 3072 751 3072 896 
C 3072 929 3046 955 3008 955 
C 2950 955 2944 922 2925 870 
C 2752 300 2381 64 2093 64 
C 1869 64 1747 204 1747 467 
C 1747 607 1773 712 1875 1146 
L 2099 2039 
C 2195 2425 2413 2687 2707 2687 
C 2720 2687 2899 2687 3034 2624 
z
" transform="scale(0.015625)"/>
      </defs>
      <use xlink:href="#CMMI12-78" transform="scale(0.996264)"/>
     </g>
    </g>
   </g>
   <g id="matplotlib.axis_2">
    <g id="ytick_1">
     <g id="line2d_7">
      <defs>
       <path id="m99e04c9b4c" d="M 0 0 
L -3.5 0 
" style="stroke: #000000; stroke-width: 0.8"/>
      </defs>
      <g>
       <use xlink:href="#m99e04c9b4c" x="54" y="222.529222" style="stroke: #000000; stroke-width: 0.8"/>
      </g>
     </g>
     <g id="text_8">
      <!-- $\mathdefault{0.6}$ -->
      <g transform="translate(30.795888 227.026236) scale(0.13 -0.13)">
       <use xlink:href="#CMR17-30" transform="scale(0.996264)"/>
       <use xlink:href="#CMMI12-3a" transform="translate(45.690477 0) scale(0.996264)"/>
       <use xlink:href="#CMR17-36" transform="translate(72.787654 0) scale(0.996264)"/>
      </g>
     </g>
    </g>
    <g id="ytick_2">
     <g id="line2d_8">
      <g>
       <use xlink:href="#m99e04c9b4c" x="54" y="183.354939" style="stroke: #000000; stroke-width: 0.8"/>
      </g>
     </g>
     <g id="text_9">
      <!-- $\mathdefault{0.8}$ -->
      <g transform="translate(30.795888 187.851953) scale(0.13 -0.13)">
       <use xlink:href="#CMR17-30" transform="scale(0.996264)"/>
       <use xlink:href="#CMMI12-3a" transform="translate(45.690477 0) scale(0.996264)"/>
       <use xlink:href="#CMR17-38" transform="translate(72.787654 0) scale(0.996264)"/>
      </g>
     </g>
    </g>
    <g id="ytick_3">
     <g id="line2d_9">
      <g>
       <use xlink:href="#m99e04c9b4c" x="54" y="144.180656" style="stroke: #000000; stroke-width: 0.8"/>
      </g>
     </g>
     <g id="text_10">
      <!-- $\mathdefault{1.0}$ -->
      <g transform="translate(30.795888 148.67767) scale(0.13 -0.13)">
       <use xlink:href="#CMR17-31" transform="scale(0.996264)"/>
       <use xlink:href="#CMMI12-3a" transform="translate(45.690477 0) scale(0.996264)"/>
       <use xlink:href="#CMR17-30" transform="translate(72.787654 0) scale(0.996264)"/>
      </g>
     </g>
    </g>
    <g id="ytick_4">
     <g id="line2d_10">
      <g>
       <use xlink:href="#m99e04c9b4c" x="54" y="105.006373" style="stroke: #000000; stroke-width: 0.8"/>
      </g>
     </g>
     <g id="text_11">
      <!-- $\mathdefault{1.2}$ -->
      <g transform="translate(30.795888 109.503387) scale(0.13 -0.13)">
       <use xlink:href="#CMR17-31" transform="scale(0.996264)"/>
       <use xlink:href="#CMMI12-3a" transform="translate(45.690477 0) scale(0.996264)"/>
       <use xlink:href="#CMR17-32" transform="translate(72.787654 0) scale(0.996264)"/>
      </g>
     </g>
    </g>
    <g id="ytick_5">
     <g id="line2d_11">
      <g>
       <use xlink:href="#m99e04c9b4c" x="54" y="65.83209" style="stroke: #000000; stroke-width: 0.8"/>
      </g>
     </g>
     <g id="text_12">
      <!-- $\mathdefault{1.4}$ -->
      <g transform="translate(30.795888 70.329104) scale(0.13 -0.13)">
       <use xlink:href="#CMR17-31" transform="scale(0.996264)"/>
       <use xlink:href="#CMMI12-3a" transform="translate(45.690477 0) scale(0.996264)"/>
       <use xlink:href="#CMR17-34" transform="translate(72.787654 0) scale(0.996264)"/>
      </g>
     </g>
    </g>
   </g>
   <g id="line2d_12">
    <path d="M 69.218182 144.180656 
L 72.292562 144.503839 
L 75.366942 144.837331 
L 78.441323 145.181179 
L 81.515702 145.535487 
L 84.590082 145.900302 
L 87.664463 146.27573 
L 90.738842 146.661864 
L 93.813223 147.058774 
L 96.887604 147.466576 
L 99.961983 147.885353 
L 103.036364 148.315233 
L 106.110745 148.756285 
L 109.185124 149.20865 
L 112.259502 149.672445 
L 115.333886 150.147775 
L 118.408264 150.634768 
L 121.482643 151.133529 
L 124.557026 151.644222 
L 127.631405 152.166951 
L 130.705784 152.701858 
L 133.780167 153.249104 
L 136.854546 153.808797 
L 139.928925 154.381086 
L 143.003308 154.966147 
L 146.077691 155.564098 
L 149.152065 156.175089 
L 152.226449 156.799297 
L 155.300832 157.43686 
L 158.375206 158.087943 
L 161.44959 158.752685 
L 164.523973 159.431286 
L 167.598347 160.123861 
L 170.67273 160.830609 
L 173.747105 161.55166 
L 176.821488 162.287198 
L 179.895871 163.037377 
L 182.970245 163.802348 
L 186.044629 164.582298 
L 189.119003 165.377367 
L 192.193386 166.187729 
L 195.267769 167.01355 
L 198.342144 167.854956 
L 201.416527 168.712123 
L 204.49091 169.585203 
L 207.565284 170.474348 
L 210.639668 171.379697 
L 213.714051 172.301391 
L 216.788434 173.239582 
L 219.862817 174.19442 
L 222.937201 175.165978 
L 226.011566 176.15444 
L 229.085949 177.159913 
L 232.160332 178.182478 
L 235.234716 179.222286 
L 238.309099 180.27942 
L 241.383464 181.353973 
L 244.457847 182.446015 
L 247.532231 183.555639 
L 250.606596 184.682892 
L 253.680979 185.827844 
L 256.755362 186.990542 
L 259.829746 188.170998 
L 262.904129 189.36921 
L 265.978512 190.585204 
L 269.052895 191.818967 
L 272.127279 193.070452 
L 275.201662 194.339578 
L 278.276027 195.626309 
L 281.35041 196.930553 
L 284.424794 198.252145 
L 287.499177 199.590958 
L 290.57356 200.946817 
L 293.647944 202.31951 
L 296.722327 203.708782 
L 299.796692 205.114351 
L 302.871075 206.535904 
L 305.945459 207.973078 
L 309.019842 209.425452 
L 312.094225 210.892583 
L 315.16859 212.373934 
L 318.242974 213.868968 
L 321.317357 215.377067 
L 324.391722 216.897517 
L 327.466105 218.429607 
L 330.540489 219.97252 
L 333.614872 221.525391 
L 336.689255 223.087263 
L 339.763638 224.657157 
L 342.838022 226.23402 
L 345.912405 227.816732 
L 348.986788 229.404079 
L 352.061153 230.99487 
L 355.135537 232.587833 
L 358.20992 234.181648 
L 361.284303 235.774972 
L 364.358686 237.366476 
L 367.433052 238.954769 
L 370.507435 240.538508 
L 373.581818 242.116364 
" clip-path="url(#pfbf5fffbb7)" style="fill: none; stroke: #1f77b4; stroke-width: 1.5; stroke-linecap: square"/>
   </g>
   <g id="line2d_13">
    <path d="M 69.218182 144.180656 
L 72.292562 143.74397 
L 75.366942 143.303852 
L 78.441323 142.860231 
L 81.515702 142.413038 
L 84.590082 141.962178 
L 87.664463 141.507583 
L 90.738842 141.049159 
L 93.813223 140.586835 
L 96.887604 140.120495 
L 99.961983 139.650115 
L 103.036364 139.175556 
L 106.110745 138.696794 
L 109.185124 138.213712 
L 112.259502 137.726241 
L 115.333886 137.234286 
L 118.408264 136.737801 
L 121.482643 136.236694 
L 124.557026 135.730893 
L 127.631405 135.220328 
L 130.705784 134.704907 
L 133.780167 134.184583 
L 136.854546 133.659261 
L 139.928925 133.128896 
L 143.003308 132.593418 
L 146.077691 132.052779 
L 149.152065 131.506887 
L 152.226449 130.955694 
L 155.300832 130.399177 
L 158.375206 129.837244 
L 161.44959 129.269846 
L 164.523973 128.696961 
L 167.598347 128.118543 
L 170.67273 127.53452 
L 173.747105 126.944894 
L 176.821488 126.349617 
L 179.895871 125.748642 
L 182.970245 125.141971 
L 186.044629 124.529578 
L 189.119003 123.911465 
L 192.193386 123.287585 
L 195.267769 122.657937 
L 198.342144 122.022545 
L 201.416527 121.381363 
L 204.49091 120.734483 
L 207.565284 120.081859 
L 210.639668 119.423514 
L 213.714051 118.759496 
L 216.788434 118.089827 
L 219.862817 117.414554 
L 222.937201 116.733723 
L 226.011566 116.047406 
L 229.085949 115.355624 
L 232.160332 114.658473 
L 235.234716 113.95602 
L 238.309099 113.248385 
L 241.383464 112.535612 
L 244.457847 111.817866 
L 247.532231 111.095193 
L 250.606596 110.36778 
L 253.680979 109.635697 
L 256.755362 108.899154 
L 259.829746 108.158245 
L 262.904129 107.41318 
L 265.978512 106.664098 
L 269.052895 105.911234 
L 272.127279 105.154728 
L 275.201662 104.394859 
L 278.276027 103.631791 
L 281.35041 102.865781 
L 284.424794 102.097062 
L 287.499177 101.325938 
L 290.57356 100.55262 
L 293.647944 99.77741 
L 296.722327 99.000613 
L 299.796692 98.222507 
L 302.871075 97.443398 
L 305.945459 96.663635 
L 309.019842 95.883499 
L 312.094225 95.103339 
L 315.16859 94.323482 
L 318.242974 93.54428 
L 321.317357 92.765988 
L 324.391722 91.989027 
L 327.466105 91.213654 
L 330.540489 90.440172 
L 333.614872 89.668931 
L 336.689255 88.900166 
L 339.763638 88.134133 
L 342.838022 87.371135 
L 345.912405 86.611313 
L 348.986788 85.854899 
L 352.061153 85.102012 
L 355.135537 84.352814 
L 358.20992 83.607351 
L 361.284303 82.865672 
L 364.358686 82.127798 
L 367.433052 81.393707 
L 370.507435 80.663282 
L 373.581818 79.936476 
" clip-path="url(#pfbf5fffbb7)" style="fill: none; stroke: #ff7f0e; stroke-width: 1.5; stroke-linecap: square"/>
   </g>
   <g id="line2d_14">
    <path d="M 69.218182 144.180656 
L 72.292562 143.480679 
L 75.366942 142.776522 
L 78.441323 142.068093 
L 81.515702 141.35525 
L 84.590082 140.637901 
L 87.664463 139.915905 
L 90.738842 139.189146 
L 93.813223 138.457483 
L 96.887604 137.720824 
L 99.961983 136.979027 
L 103.036364 136.231977 
L 106.110745 135.479533 
L 109.185124 134.721556 
L 112.259502 133.957951 
L 115.333886 133.188578 
L 118.408264 132.413298 
L 121.482643 131.631994 
L 124.557026 130.844549 
L 127.631405 130.050823 
L 130.705784 129.250699 
L 133.780167 128.444038 
L 136.854546 127.630744 
L 139.928925 126.81068 
L 143.003308 125.983727 
L 146.077691 125.14977 
L 149.152065 124.30869 
L 152.226449 123.460373 
L 155.300832 122.6047 
L 158.375206 121.741578 
L 161.44959 120.870915 
L 164.523973 119.99257 
L 167.598347 119.106472 
L 170.67273 118.212506 
L 173.747105 117.310601 
L 176.821488 116.400663 
L 179.895871 115.482623 
L 182.970245 114.556364 
L 186.044629 113.621863 
L 189.119003 112.679026 
L 192.193386 111.727759 
L 195.267769 110.768064 
L 198.342144 109.799869 
L 201.416527 108.823104 
L 204.49091 107.837771 
L 207.565284 106.843821 
L 210.639668 105.841209 
L 213.714051 104.829957 
L 216.788434 103.810019 
L 219.862817 102.781418 
L 222.937201 101.744131 
L 226.011566 100.698229 
L 229.085949 99.64371 
L 232.160332 98.580598 
L 235.234716 97.508964 
L 238.309099 96.428831 
L 241.383464 95.340315 
L 244.457847 94.243463 
L 247.532231 93.138369 
L 250.606596 92.025149 
L 253.680979 90.903943 
L 256.755362 89.774846 
L 259.829746 88.638043 
L 262.904129 87.493721 
L 265.978512 86.342021 
L 269.052895 85.183175 
L 272.127279 84.017395 
L 275.201662 82.844937 
L 278.276027 81.666058 
L 281.35041 80.481061 
L 284.424794 79.29025 
L 287.499177 78.093952 
L 290.57356 76.89254 
L 293.647944 75.686389 
L 296.722327 74.475917 
L 299.796692 73.26157 
L 302.871075 72.04379 
L 305.945459 70.823115 
L 309.019842 69.600011 
L 312.094225 68.37504 
L 315.16859 67.148807 
L 318.242974 65.921851 
L 321.317357 64.694824 
L 324.391722 63.468359 
L 327.466105 62.24306 
L 330.540489 61.019653 
L 333.614872 59.798791 
L 336.689255 58.581104 
L 339.763638 57.367341 
L 342.838022 56.158154 
L 345.912405 54.954103 
L 348.986788 53.755937 
L 352.061153 52.564216 
L 355.135537 51.379476 
L 358.20992 50.202278 
L 361.284303 49.033088 
L 364.358686 47.872305 
L 367.433052 46.720301 
L 370.507435 45.577334 
L 373.581818 44.443636 
" clip-path="url(#pfbf5fffbb7)" style="fill: none; stroke: #2ca02c; stroke-width: 1.5; stroke-linecap: square"/>
   </g>
   <g id="line2d_15">
    <path d="M 69.218182 144.180656 
L 72.292562 144.325634 
L 75.366942 144.470612 
L 78.441323 144.615416 
L 81.515702 144.75988 
L 84.590082 144.903749 
L 87.664463 145.04686 
L 90.738842 145.189047 
L 93.813223 145.330103 
L 96.887604 145.469851 
L 99.961983 145.608139 
L 103.036364 145.744817 
L 106.110745 145.879685 
L 109.185124 146.012661 
L 112.259502 146.143583 
L 115.333886 146.272275 
L 118.408264 146.398678 
L 121.482643 146.52263 
L 124.557026 146.644049 
L 127.631405 146.762817 
L 130.705784 146.878818 
L 133.780167 146.992052 
L 136.854546 147.102345 
L 139.928925 147.209671 
L 143.003308 147.313986 
L 146.077691 147.415242 
L 149.152065 147.513358 
L 152.226449 147.608344 
L 155.300832 147.700155 
L 158.375206 147.788802 
L 161.44959 147.87425 
L 164.523973 147.956535 
L 167.598347 148.035655 
L 170.67273 148.111612 
L 173.747105 148.184451 
L 176.821488 148.254243 
L 179.895871 148.320977 
L 182.970245 148.384721 
L 186.044629 148.445582 
L 189.119003 148.503606 
L 192.193386 148.558863 
L 195.267769 148.611447 
L 198.342144 148.661439 
L 201.416527 148.70892 
L 204.49091 148.754055 
L 207.565284 148.796925 
L 210.639668 148.837612 
L 213.714051 148.876267 
L 216.788434 148.912997 
L 219.862817 148.947974 
L 222.937201 148.981248 
L 226.011566 149.013015 
L 229.085949 149.04337 
L 232.160332 149.072463 
L 235.234716 149.100424 
L 238.309099 149.127382 
L 241.383464 149.153417 
L 244.457847 149.178739 
L 247.532231 149.203373 
L 250.606596 149.22747 
L 253.680979 149.251088 
L 256.755362 149.274391 
L 259.829746 149.297402 
L 262.904129 149.32018 
L 265.978512 149.342783 
L 269.052895 149.365268 
L 272.127279 149.387614 
L 275.201662 149.409843 
L 278.276027 149.431955 
L 281.35041 149.45388 
L 284.424794 149.475549 
L 287.499177 149.496937 
L 290.57356 149.517929 
L 293.647944 149.538395 
L 296.722327 149.55823 
L 299.796692 149.57726 
L 302.871075 149.595368 
L 305.945459 149.612402 
L 309.019842 149.628139 
L 312.094225 149.642511 
L 315.16859 149.655295 
L 318.242974 149.666398 
L 321.317357 149.675738 
L 324.391722 149.683233 
L 327.466105 149.68886 
L 330.540489 149.692654 
L 333.614872 149.694791 
L 336.689255 149.695363 
L 339.763638 149.694686 
L 342.838022 149.69325 
L 345.912405 149.691475 
L 348.986788 149.689969 
L 352.061153 149.689537 
L 355.135537 149.691125 
L 358.20992 149.69569 
L 361.284303 149.704469 
L 364.358686 149.718841 
L 367.433052 149.740264 
L 370.507435 149.770386 
L 373.581818 149.811014 
" clip-path="url(#pfbf5fffbb7)" style="fill: none; stroke: #d62728; stroke-width: 1.5; stroke-linecap: square"/>
   </g>
   <g id="patch_3">
    <path d="M 54 252 
L 54 34.56 
" style="fill: none; stroke: #000000; stroke-width: 0.8; stroke-linejoin: miter; stroke-linecap: square"/>
   </g>
   <g id="patch_4">
    <path d="M 388.8 252 
L 388.8 34.56 
" style="fill: none; stroke: #000000; stroke-width: 0.8; stroke-linejoin: miter; stroke-linecap: square"/>
   </g>
   <g id="patch_5">
    <path d="M 54 252 
L 388.8 252 
" style="fill: none; stroke: #000000; stroke-width: 0.8; stroke-linejoin: miter; stroke-linecap: square"/>
   </g>
   <g id="patch_6">
    <path d="M 54 34.56 
L 388.8 34.56 
" style="fill: none; stroke: #000000; stroke-width: 0.8; stroke-linejoin: miter; stroke-linecap: square"/>
   </g>
   <g id="legend_1">
    <g id="patch_7">
     <path d="M 63.1 117.433248 
L 115.792528 117.433248 
Q 118.392528 117.433248 118.392528 114.833248 
L 118.392528 43.66 
Q 118.392528 41.06 115.792528 41.06 
L 63.1 41.06 
Q 60.5 41.06 60.5 43.66 
L 60.5 114.833248 
Q 60.5 117.433248 63.1 117.433248 
z
" style="fill: #ffffff; opacity: 0.8; stroke: #cccccc; stroke-linejoin: miter"/>
    </g>
    <g id="line2d_16">
     <path d="M 65.7 50.81 
L 78.7 50.81 
L 91.7 50.81 
" style="fill: none; stroke: #1f77b4; stroke-width: 1.5; stroke-linecap: square"/>
    </g>
    <g id="text_13">
     <!-- $u$ -->
     <g transform="translate(102.1 55.36) scale(0.13 -0.13)">
      <defs>
       <path id="CMMI12-75" d="M 2182 370 
C 2266 12 2573 -64 2726 -64 
C 2931 -64 3085 70 3187 287 
C 3296 517 3379 893 3379 913 
C 3379 944 3354 970 3315 970 
C 3258 970 3251 938 3226 842 
C 3110 402 2995 64 2739 64 
C 2547 64 2547 274 2547 357 
C 2547 504 2566 568 2630 836 
C 2675 1008 2720 1181 2758 1359 
L 3021 2400 
C 3066 2560 3066 2572 3066 2591 
C 3066 2687 2989 2752 2893 2752 
C 2707 2752 2662 2591 2624 2432 
C 2560 2183 2214 810 2170 587 
C 2163 587 1914 64 1446 64 
C 1114 64 1050 351 1050 587 
C 1050 951 1229 1462 1395 1890 
C 1472 2094 1504 2177 1504 2305 
C 1504 2579 1306 2816 998 2816 
C 410 2816 173 1890 173 1838 
C 173 1813 198 1781 243 1781 
C 301 1781 307 1807 333 1896 
C 486 2445 736 2687 979 2687 
C 1043 2687 1146 2681 1146 2477 
C 1146 2311 1075 2126 979 1883 
C 698 1123 666 881 666 689 
C 666 38 1158 -64 1421 -64 
C 1830 -64 2054 217 2182 370 
z
" transform="scale(0.015625)"/>
      </defs>
      <use xlink:href="#CMMI12-75" transform="scale(0.996264)"/>
     </g>
    </g>
    <g id="line2d_17">
     <path d="M 65.7 68.928312 
L 78.7 68.928312 
L 91.7 68.928312 
" style="fill: none; stroke: #ff7f0e; stroke-width: 1.5; stroke-linecap: square"/>
    </g>
    <g id="text_14">
     <!-- $\rho$ -->
     <g transform="translate(102.1 73.478312) scale(0.13 -0.13)">
      <defs>
       <path id="CMMI12-1a" d="M 198 -1085 
C 192 -1116 179 -1154 179 -1191 
C 179 -1287 256 -1351 352 -1351 
C 448 -1351 538 -1287 576 -1198 
C 602 -1141 781 -390 986 389 
C 1114 70 1350 -64 1600 -64 
C 2323 -64 3142 830 3142 1794 
C 3142 2477 2726 2816 2285 2816 
C 1722 2816 1037 2234 826 1385 
L 198 -1085 
z
M 1594 64 
C 1158 64 1050 568 1050 645 
C 1050 683 1210 1289 1229 1385 
C 1555 2656 2182 2687 2278 2687 
C 2566 2687 2726 2426 2726 2049 
C 2726 1724 2554 1091 2445 823 
C 2253 383 1920 64 1594 64 
z
" transform="scale(0.015625)"/>
      </defs>
      <use xlink:href="#CMMI12-1a" transform="scale(0.996264)"/>
     </g>
    </g>
    <g id="line2d_18">
     <path d="M 65.7 87.046624 
L 78.7 87.046624 
L 91.7 87.046624 
" style="fill: none; stroke: #2ca02c; stroke-width: 1.5; stroke-linecap: square"/>
    </g>
    <g id="text_15">
     <!-- $p$ -->
     <g transform="translate(102.1 91.596624) scale(0.13 -0.13)">
      <defs>
       <path id="CMMI12-70" d="M 275 -794 
C 230 -981 205 -1031 -58 -1031 
C -135 -1031 -199 -1031 -199 -1152 
C -199 -1165 -192 -1216 -122 -1216 
C -39 -1216 51 -1204 134 -1204 
L 410 -1204 
C 544 -1204 870 -1216 1005 -1216 
C 1043 -1216 1120 -1216 1120 -1101 
C 1120 -1031 1075 -1031 966 -1031 
C 672 -1031 653 -987 653 -937 
C 653 -863 941 217 979 364 
C 1050 185 1222 -64 1555 -64 
C 2278 -64 3059 874 3059 1813 
C 3059 2400 2726 2816 2246 2816 
C 1837 2816 1491 2419 1421 2330 
C 1370 2649 1120 2816 864 2816 
C 678 2816 531 2726 410 2483 
C 294 2253 205 1864 205 1838 
C 205 1813 230 1781 275 1781 
C 326 1781 333 1787 371 1934 
C 467 2311 589 2687 845 2687 
C 992 2687 1043 2585 1043 2394 
C 1043 2241 1024 2177 998 2062 
L 275 -794 
z
M 1382 1992 
C 1427 2170 1606 2356 1709 2445 
C 1779 2509 1990 2687 2234 2687 
C 2515 2687 2643 2407 2643 2075 
C 2643 1768 2464 1047 2304 715 
C 2144 370 1850 64 1555 64 
C 1120 64 1050 613 1050 638 
C 1050 657 1062 708 1069 740 
L 1382 1992 
z
" transform="scale(0.015625)"/>
      </defs>
      <use xlink:href="#CMMI12-70" transform="scale(0.996264)"/>
     </g>
    </g>
    <g id="line2d_19">
     <path d="M 65.7 105.164936 
L 78.7 105.164936 
L 91.7 105.164936 
" style="fill: none; stroke: #d62728; stroke-width: 1.5; stroke-linecap: square"/>
    </g>
    <g id="text_16">
     <!-- $\dot m$ -->
     <g transform="translate(102.1 109.714936) scale(0.13 -0.13)">
      <defs>
       <path id="CMR17-5f" d="M 1056 3961 
C 1056 4115 934 4224 800 4224 
C 646 4224 538 4102 538 3961 
C 538 3807 659 3699 794 3699 
C 947 3699 1056 3820 1056 3961 
z
" transform="scale(0.015625)"/>
       <path id="CMMI12-6d" d="M 1318 1870 
C 1331 1909 1491 2228 1728 2432 
C 1894 2585 2112 2687 2362 2687 
C 2618 2687 2707 2496 2707 2241 
C 2707 2202 2707 2075 2630 1775 
L 2470 1117 
C 2419 925 2298 453 2285 383 
C 2259 287 2221 121 2221 95 
C 2221 6 2291 -64 2387 -64 
C 2579 -64 2611 83 2669 313 
L 3053 1838 
C 3066 1890 3398 2687 4102 2687 
C 4358 2687 4448 2496 4448 2241 
C 4448 1883 4198 1187 4058 804 
C 4000 651 3968 568 3968 453 
C 3968 166 4166 -64 4474 -64 
C 5069 -64 5293 874 5293 913 
C 5293 945 5267 970 5229 970 
C 5171 970 5165 951 5133 842 
C 4986 332 4749 64 4493 64 
C 4429 64 4326 70 4326 274 
C 4326 440 4403 645 4429 715 
C 4544 1021 4832 1775 4832 2145 
C 4832 2528 4608 2816 4122 2816 
C 3693 2816 3347 2573 3091 2196 
C 3072 2541 2861 2816 2381 2816 
C 1811 2816 1510 2413 1395 2253 
C 1376 2617 1114 2816 832 2816 
C 646 2816 499 2726 378 2483 
C 262 2253 173 1864 173 1838 
C 173 1813 198 1781 243 1781 
C 294 1781 301 1787 339 1934 
C 435 2311 557 2687 813 2687 
C 960 2687 1011 2585 1011 2394 
C 1011 2253 947 2004 902 1807 
L 723 1117 
C 698 996 627 708 595 593 
C 550 427 480 127 480 95 
C 480 6 550 -64 646 -64 
C 723 -64 813 -26 864 70 
C 877 102 934 325 966 453 
L 1107 1028 
L 1318 1870 
z
" transform="scale(0.015625)"/>
      </defs>
      <use xlink:href="#CMR17-5f" transform="translate(30.228091 0.006461) scale(0.996264)"/>
      <use xlink:href="#CMMI12-6d" transform="scale(0.996264)"/>
     </g>
    </g>
   </g>
  </g>
 </g>
 <defs>
  <clipPath id="pfbf5fffbb7">
   <rect x="54" y="34.56" width="334.8" height="217.44"/>
  </clipPath>
 </defs>
</svg>
