<?xml version="1.0" encoding="utf-8" standalone="no"?>
<!DOCTYPE svg PUBLIC "-//W3C//DTD SVG 1.1//EN"
  "http://www.w3.org/Graphics/SVG/1.1/DTD/svg11.dtd">
<svg xmlns:xlink="http://www.w3.org/1999/xlink" width="432pt" height="288pt" viewBox="0 0 432 288" xmlns="http://www.w3.org/2000/svg" version="1.1">
 <metadata>
  <rdf:RDF xmlns:dc="http://purl.org/dc/elements/1.1/" xmlns:cc="http://creativecommons.org/ns#" xmlns:rdf="http://www.w3.org/1999/02/22-rdf-syntax-ns#">
   <cc:Work>
    <dc:type rdf:resource="http://purl.org/dc/dcmitype/StillImage"/>
    <dc:date>2023-04-24T13:29:24.874699</dc:date>
    <dc:format>image/svg+xml</dc:format>
    <dc:creator>
     <cc:Agent>
      <dc:title>Matplotlib v3.7.1, https://matplotlib.org/</dc:title>
     </cc:Agent>
    </dc:creator>
   </cc:Work>
  </rdf:RDF>
 </metadata>
 <defs>
  <style type="text/css">*{stroke-linejoin: round; stroke-linecap: butt}</style>
 </defs>
 <g id="figure_1">
  <g id="patch_1">
   <path d="M 0 288 
L 432 288 
L 432 0 
L 0 0 
z
" style="fill: #ffffff"/>
  </g>
  <g id="axes_1">
   <g id="patch_2">
    <path d="M 54 252 
L 388.8 252 
L 388.8 34.56 
L 54 34.56 
z
" style="fill: #ffffff"/>
   </g>
   <g id="matplotlib.axis_1">
    <g id="xtick_1">
     <g id="line2d_1">
      <defs>
       <path id="m6242594a59" d="M 0 0 
L 0 3.5 
" style="stroke: #000000; stroke-width: 0.8"/>
      </defs>
      <g>
       <use xlink:href="#m6242594a59" x="69.218182" y="252" style="stroke: #000000; stroke-width: 0.8"/>
      </g>
     </g>
     <g id="text_1">
      <!-- $\mathdefault{0.0}$ -->
      <g transform="translate(61.116126 267.994028) scale(0.13 -0.13)">
       <defs>
        <path id="CMR17-30" d="M 2688 2038 
C 2688 2430 2682 3099 2413 3613 
C 2176 4063 1798 4224 1466 4224 
C 1158 4224 768 4082 525 3620 
C 269 3137 243 2539 243 2038 
C 243 1671 250 1112 448 623 
C 723 -39 1216 -128 1466 -128 
C 1760 -128 2208 -7 2470 604 
C 2662 1048 2688 1568 2688 2038 
z
M 1466 -26 
C 1056 -26 813 328 723 816 
C 653 1196 653 1749 653 2109 
C 653 2604 653 3015 736 3407 
C 858 3954 1216 4121 1466 4121 
C 1728 4121 2067 3947 2189 3420 
C 2272 3054 2278 2623 2278 2109 
C 2278 1691 2278 1176 2202 797 
C 2067 96 1690 -26 1466 -26 
z
" transform="scale(0.015625)"/>
        <path id="CMMI12-3a" d="M 1178 307 
C 1178 492 1024 620 870 620 
C 685 620 557 467 557 313 
C 557 128 710 0 864 0 
C 1050 0 1178 153 1178 307 
z
" transform="scale(0.015625)"/>
       </defs>
       <use xlink:href="#CMR17-30" transform="scale(0.996264)"/>
       <use xlink:href="#CMMI12-3a" transform="translate(45.690477 0) scale(0.996264)"/>
       <use xlink:href="#CMR17-30" transform="translate(72.787654 0) scale(0.996264)"/>
      </g>
     </g>
    </g>
    <g id="xtick_2">
     <g id="line2d_2">
      <g>
       <use xlink:href="#m6242594a59" x="130.090909" y="252" style="stroke: #000000; stroke-width: 0.8"/>
      </g>
     </g>
     <g id="text_2">
      <!-- $\mathdefault{0.2}$ -->
      <g transform="translate(121.988853 267.994028) scale(0.13 -0.13)">
       <defs>
        <path id="CMR17-32" d="M 2669 990 
L 2554 990 
C 2490 537 2438 460 2413 422 
C 2381 371 1920 371 1830 371 
L 602 371 
C 832 620 1280 1073 1824 1596 
C 2214 1966 2669 2400 2669 3033 
C 2669 3788 2067 4224 1395 4224 
C 691 4224 262 3603 262 3027 
C 262 2777 448 2745 525 2745 
C 589 2745 781 2783 781 3007 
C 781 3206 614 3264 525 3264 
C 486 3264 448 3257 422 3244 
C 544 3788 915 4057 1306 4057 
C 1862 4057 2227 3616 2227 3033 
C 2227 2477 1901 1998 1536 1583 
L 262 147 
L 262 0 
L 2515 0 
L 2669 990 
z
" transform="scale(0.015625)"/>
       </defs>
       <use xlink:href="#CMR17-30" transform="scale(0.996264)"/>
       <use xlink:href="#CMMI12-3a" transform="translate(45.690477 0) scale(0.996264)"/>
       <use xlink:href="#CMR17-32" transform="translate(72.787654 0) scale(0.996264)"/>
      </g>
     </g>
    </g>
    <g id="xtick_3">
     <g id="line2d_3">
      <g>
       <use xlink:href="#m6242594a59" x="190.963636" y="252" style="stroke: #000000; stroke-width: 0.8"/>
      </g>
     </g>
     <g id="text_3">
      <!-- $\mathdefault{0.4}$ -->
      <g transform="translate(182.86158 267.994028) scale(0.13 -0.13)">
       <defs>
        <path id="CMR17-34" d="M 2150 4147 
C 2150 4281 2144 4288 2029 4288 
L 128 1254 
L 128 1088 
L 1779 1088 
L 1779 460 
C 1779 230 1766 166 1318 166 
L 1197 166 
L 1197 0 
C 1402 12 1747 12 1965 12 
C 2182 12 2528 12 2733 0 
L 2733 166 
L 2611 166 
C 2163 166 2150 230 2150 460 
L 2150 1088 
L 2803 1088 
L 2803 1254 
L 2150 1254 
L 2150 4147 
z
M 1798 3723 
L 1798 1254 
L 256 1254 
L 1798 3723 
z
" transform="scale(0.015625)"/>
       </defs>
       <use xlink:href="#CMR17-30" transform="scale(0.996264)"/>
       <use xlink:href="#CMMI12-3a" transform="translate(45.690477 0) scale(0.996264)"/>
       <use xlink:href="#CMR17-34" transform="translate(72.787654 0) scale(0.996264)"/>
      </g>
     </g>
    </g>
    <g id="xtick_4">
     <g id="line2d_4">
      <g>
       <use xlink:href="#m6242594a59" x="251.836364" y="252" style="stroke: #000000; stroke-width: 0.8"/>
      </g>
     </g>
     <g id="text_4">
      <!-- $\mathdefault{0.6}$ -->
      <g transform="translate(243.734308 267.994028) scale(0.13 -0.13)">
       <defs>
        <path id="CMR17-36" d="M 678 2198 
C 678 3712 1395 4076 1811 4076 
C 1946 4076 2272 4049 2400 3782 
C 2298 3782 2106 3782 2106 3558 
C 2106 3385 2246 3328 2336 3328 
C 2394 3328 2566 3353 2566 3571 
C 2566 3987 2246 4224 1805 4224 
C 1043 4224 243 3411 243 2011 
C 243 257 966 -128 1478 -128 
C 2099 -128 2688 431 2688 1295 
C 2688 2101 2170 2688 1517 2688 
C 1126 2688 838 2430 678 1979 
L 678 2198 
z
M 1478 25 
C 691 25 691 1212 691 1450 
C 691 1914 909 2585 1504 2585 
C 1613 2585 1926 2585 2138 2140 
C 2253 1889 2253 1624 2253 1302 
C 2253 954 2253 696 2118 438 
C 1978 173 1773 25 1478 25 
z
" transform="scale(0.015625)"/>
       </defs>
       <use xlink:href="#CMR17-30" transform="scale(0.996264)"/>
       <use xlink:href="#CMMI12-3a" transform="translate(45.690477 0) scale(0.996264)"/>
       <use xlink:href="#CMR17-36" transform="translate(72.787654 0) scale(0.996264)"/>
      </g>
     </g>
    </g>
    <g id="xtick_5">
     <g id="line2d_5">
      <g>
       <use xlink:href="#m6242594a59" x="312.709091" y="252" style="stroke: #000000; stroke-width: 0.8"/>
      </g>
     </g>
     <g id="text_5">
      <!-- $\mathdefault{0.8}$ -->
      <g transform="translate(304.607035 267.994028) scale(0.13 -0.13)">
       <defs>
        <path id="CMR17-38" d="M 1741 2289 
C 2144 2494 2554 2803 2554 3298 
C 2554 3884 1990 4224 1472 4224 
C 890 4224 378 3800 378 3215 
C 378 3054 416 2777 666 2533 
C 730 2469 998 2276 1171 2154 
C 883 2006 211 1652 211 945 
C 211 282 838 -128 1459 -128 
C 2144 -128 2720 366 2720 1022 
C 2720 1607 2330 1877 2074 2051 
L 1741 2289 
z
M 902 2855 
C 851 2887 595 3086 595 3388 
C 595 3781 998 4076 1459 4076 
C 1965 4076 2336 3716 2336 3298 
C 2336 2700 1670 2359 1638 2359 
C 1632 2359 1626 2359 1574 2398 
L 902 2855 
z
M 2080 1536 
C 2176 1466 2483 1253 2483 861 
C 2483 385 2010 25 1472 25 
C 890 25 448 443 448 951 
C 448 1459 838 1884 1280 2083 
L 2080 1536 
z
" transform="scale(0.015625)"/>
       </defs>
       <use xlink:href="#CMR17-30" transform="scale(0.996264)"/>
       <use xlink:href="#CMMI12-3a" transform="translate(45.690477 0) scale(0.996264)"/>
       <use xlink:href="#CMR17-38" transform="translate(72.787654 0) scale(0.996264)"/>
      </g>
     </g>
    </g>
    <g id="xtick_6">
     <g id="line2d_6">
      <g>
       <use xlink:href="#m6242594a59" x="373.581818" y="252" style="stroke: #000000; stroke-width: 0.8"/>
      </g>
     </g>
     <g id="text_6">
      <!-- $\mathdefault{1.0}$ -->
      <g transform="translate(365.479762 267.994028) scale(0.13 -0.13)">
       <defs>
        <path id="CMR17-31" d="M 1702 4083 
C 1702 4217 1696 4224 1606 4224 
C 1357 3927 979 3833 621 3820 
C 602 3820 570 3820 563 3808 
C 557 3795 557 3782 557 3648 
C 755 3648 1088 3686 1344 3839 
L 1344 467 
C 1344 243 1331 166 781 166 
L 589 166 
L 589 0 
C 896 6 1216 12 1523 12 
C 1830 12 2150 6 2458 0 
L 2458 166 
L 2266 166 
C 1715 166 1702 236 1702 467 
L 1702 4083 
z
" transform="scale(0.015625)"/>
       </defs>
       <use xlink:href="#CMR17-31" transform="scale(0.996264)"/>
       <use xlink:href="#CMMI12-3a" transform="translate(45.690477 0) scale(0.996264)"/>
       <use xlink:href="#CMR17-30" transform="translate(72.787654 0) scale(0.996264)"/>
      </g>
     </g>
    </g>
    <g id="text_7">
     <!-- $x$ -->
     <g transform="translate(217.79679 283.506368) scale(0.13 -0.13)">
      <defs>
       <path id="CMMI12-78" d="M 3034 2624 
C 2829 2585 2752 2431 2752 2310 
C 2752 2156 2874 2105 2963 2105 
C 3155 2105 3290 2271 3290 2444 
C 3290 2694 2982 2816 2714 2816 
C 2323 2816 2106 2451 2048 2329 
C 1901 2790 1504 2816 1389 2816 
C 736 2816 390 1993 390 1849 
C 390 1823 416 1790 461 1790 
C 512 1790 525 1829 538 1855 
C 755 2572 1184 2687 1370 2687 
C 1658 2687 1715 2438 1715 2284 
C 1715 2143 1677 1993 1600 1678 
L 1382 778 
C 1286 390 1101 64 762 64 
C 730 64 570 64 435 126 
C 666 166 717 358 717 435 
C 717 563 621 640 499 640 
C 346 640 179 505 179 300 
C 179 57 480 -64 755 -64 
C 1062 -64 1280 153 1414 415 
C 1517 64 1837 -64 2074 -64 
C 2726 -64 3072 751 3072 896 
C 3072 929 3046 955 3008 955 
C 2950 955 2944 922 2925 870 
C 2752 300 2381 64 2093 64 
C 1869 64 1747 204 1747 467 
C 1747 607 1773 712 1875 1146 
L 2099 2039 
C 2195 2425 2413 2687 2707 2687 
C 2720 2687 2899 2687 3034 2624 
z
" transform="scale(0.015625)"/>
      </defs>
      <use xlink:href="#CMMI12-78" transform="scale(0.996264)"/>
     </g>
    </g>
   </g>
   <g id="matplotlib.axis_2">
    <g id="ytick_1">
     <g id="line2d_7">
      <defs>
       <path id="m873a45601f" d="M 0 0 
L -3.5 0 
" style="stroke: #000000; stroke-width: 0.8"/>
      </defs>
      <g>
       <use xlink:href="#m873a45601f" x="54" y="223.017428" style="stroke: #000000; stroke-width: 0.8"/>
      </g>
     </g>
     <g id="text_8">
      <!-- $\mathdefault{0.6}$ -->
      <g transform="translate(30.795888 227.514442) scale(0.13 -0.13)">
       <use xlink:href="#CMR17-30" transform="scale(0.996264)"/>
       <use xlink:href="#CMMI12-3a" transform="translate(45.690477 0) scale(0.996264)"/>
       <use xlink:href="#CMR17-36" transform="translate(72.787654 0) scale(0.996264)"/>
      </g>
     </g>
    </g>
    <g id="ytick_2">
     <g id="line2d_8">
      <g>
       <use xlink:href="#m873a45601f" x="54" y="184.819556" style="stroke: #000000; stroke-width: 0.8"/>
      </g>
     </g>
     <g id="text_9">
      <!-- $\mathdefault{0.8}$ -->
      <g transform="translate(30.795888 189.31657) scale(0.13 -0.13)">
       <use xlink:href="#CMR17-30" transform="scale(0.996264)"/>
       <use xlink:href="#CMMI12-3a" transform="translate(45.690477 0) scale(0.996264)"/>
       <use xlink:href="#CMR17-38" transform="translate(72.787654 0) scale(0.996264)"/>
      </g>
     </g>
    </g>
    <g id="ytick_3">
     <g id="line2d_9">
      <g>
       <use xlink:href="#m873a45601f" x="54" y="146.621684" style="stroke: #000000; stroke-width: 0.8"/>
      </g>
     </g>
     <g id="text_10">
      <!-- $\mathdefault{1.0}$ -->
      <g transform="translate(30.795888 151.118699) scale(0.13 -0.13)">
       <use xlink:href="#CMR17-31" transform="scale(0.996264)"/>
       <use xlink:href="#CMMI12-3a" transform="translate(45.690477 0) scale(0.996264)"/>
       <use xlink:href="#CMR17-30" transform="translate(72.787654 0) scale(0.996264)"/>
      </g>
     </g>
    </g>
    <g id="ytick_4">
     <g id="line2d_10">
      <g>
       <use xlink:href="#m873a45601f" x="54" y="108.423813" style="stroke: #000000; stroke-width: 0.8"/>
      </g>
     </g>
     <g id="text_11">
      <!-- $\mathdefault{1.2}$ -->
      <g transform="translate(30.795888 112.920827) scale(0.13 -0.13)">
       <use xlink:href="#CMR17-31" transform="scale(0.996264)"/>
       <use xlink:href="#CMMI12-3a" transform="translate(45.690477 0) scale(0.996264)"/>
       <use xlink:href="#CMR17-32" transform="translate(72.787654 0) scale(0.996264)"/>
      </g>
     </g>
    </g>
    <g id="ytick_5">
     <g id="line2d_11">
      <g>
       <use xlink:href="#m873a45601f" x="54" y="70.225941" style="stroke: #000000; stroke-width: 0.8"/>
      </g>
     </g>
     <g id="text_12">
      <!-- $\mathdefault{1.4}$ -->
      <g transform="translate(30.795888 74.722955) scale(0.13 -0.13)">
       <use xlink:href="#CMR17-31" transform="scale(0.996264)"/>
       <use xlink:href="#CMMI12-3a" transform="translate(45.690477 0) scale(0.996264)"/>
       <use xlink:href="#CMR17-34" transform="translate(72.787654 0) scale(0.996264)"/>
      </g>
     </g>
    </g>
   </g>
   <g id="line2d_12">
    <path d="M 69.218182 146.621684 
L 72.292562 147.668544 
L 75.366942 148.71415 
L 78.441323 149.758505 
L 81.515702 150.80163 
L 84.590082 151.843537 
L 87.664463 152.884249 
L 90.738842 153.923777 
L 93.813223 154.962121 
L 96.887604 155.999315 
L 99.961983 157.035337 
L 103.036364 158.070255 
L 106.110745 159.104022 
L 109.185124 160.136686 
L 112.259502 161.168268 
L 115.333886 162.198734 
L 118.408264 163.228142 
L 121.482643 164.256468 
L 124.557026 165.283735 
L 127.631405 166.309944 
L 130.705784 167.335106 
L 133.780167 168.359231 
L 136.854546 169.382309 
L 139.928925 170.404352 
L 143.003308 171.42537 
L 146.077691 172.445363 
L 149.152065 173.464309 
L 152.226449 174.482207 
L 155.300832 175.499093 
L 158.375206 176.514919 
L 161.44959 177.529687 
L 164.523973 178.543408 
L 167.598347 179.556047 
L 170.67273 180.567617 
L 173.747105 181.57807 
L 176.821488 182.587419 
L 179.895871 183.595619 
L 182.970245 184.602669 
L 186.044629 185.608546 
L 189.119003 186.613216 
L 192.193386 187.616646 
L 195.267769 188.618835 
L 198.342144 189.619703 
L 201.416527 190.619263 
L 204.49091 191.617444 
L 207.565284 192.614226 
L 210.639668 193.60955 
L 213.714051 194.603372 
L 216.788434 195.595657 
L 219.862817 196.586348 
L 222.937201 197.575377 
L 226.011566 198.562699 
L 229.085949 199.548267 
L 232.160332 200.531992 
L 235.234716 201.513815 
L 238.309099 202.493691 
L 241.383464 203.471507 
L 244.457847 204.447217 
L 247.532231 205.420753 
L 250.606596 206.391989 
L 253.680979 207.36088 
L 256.755362 208.327324 
L 259.829746 209.29124 
L 262.904129 210.252516 
L 265.978512 211.211059 
L 269.052895 212.16679 
L 272.127279 213.119584 
L 275.201662 214.069339 
L 278.276027 215.015941 
L 281.35041 215.959309 
L 284.424794 216.899285 
L 287.499177 217.835767 
L 290.57356 218.768662 
L 293.647944 219.697812 
L 296.722327 220.623103 
L 299.796692 221.544421 
L 302.871075 222.461629 
L 305.945459 223.374592 
L 309.019842 224.283171 
L 312.094225 225.187265 
L 315.16859 226.086704 
L 318.242974 226.981372 
L 321.317357 227.871134 
L 324.391722 228.75583 
L 327.466105 229.635346 
L 330.540489 230.509558 
L 333.614872 231.378305 
L 336.689255 232.241452 
L 339.763638 233.098872 
L 342.838022 233.950453 
L 345.912405 234.796034 
L 348.986788 235.635491 
L 352.061153 236.468698 
L 355.135537 237.295541 
L 358.20992 238.115896 
L 361.284303 238.929636 
L 364.358686 239.736683 
L 367.433052 240.536877 
L 370.507435 241.330126 
L 373.581818 242.116364 
" clip-path="url(#p280edd5a1f)" style="fill: none; stroke: #1f77b4; stroke-width: 1.5; stroke-linecap: square"/>
   </g>
   <g id="line2d_13">
    <path d="M 69.218182 146.621684 
L 72.292562 145.84863 
L 75.366942 145.078558 
L 78.441323 144.311536 
L 81.515702 143.547612 
L 84.590082 142.786829 
L 87.664463 142.029211 
L 90.738842 141.274825 
L 93.813223 140.523696 
L 96.887604 139.775868 
L 99.961983 139.03141 
L 103.036364 138.290343 
L 106.110745 137.552693 
L 109.185124 136.818525 
L 112.259502 136.087864 
L 115.333886 135.360754 
L 118.408264 134.637242 
L 121.482643 133.91735 
L 124.557026 133.201124 
L 127.631405 132.488586 
L 130.705784 131.779781 
L 133.780167 131.074757 
L 136.854546 130.373557 
L 139.928925 129.676182 
L 143.003308 128.9827 
L 146.077691 128.293112 
L 149.152065 127.607485 
L 152.226449 126.925843 
L 155.300832 126.248208 
L 158.375206 125.574648 
L 161.44959 124.905164 
L 164.523973 124.2398 
L 167.598347 123.578581 
L 170.67273 122.921573 
L 173.747105 122.268777 
L 176.821488 121.620239 
L 179.895871 120.976004 
L 182.970245 120.336095 
L 186.044629 119.700557 
L 189.119003 119.069436 
L 192.193386 118.442733 
L 195.267769 117.820491 
L 198.342144 117.202758 
L 201.416527 116.589578 
L 204.49091 115.980952 
L 207.565284 115.376947 
L 210.639668 114.777587 
L 213.714051 114.182918 
L 216.788434 113.592938 
L 219.862817 113.007717 
L 222.937201 112.427277 
L 226.011566 111.851664 
L 229.085949 111.280878 
L 232.160332 110.714986 
L 235.234716 110.15399 
L 238.309099 109.597934 
L 241.383464 109.046865 
L 244.457847 108.500759 
L 247.532231 107.959707 
L 250.606596 107.423687 
L 253.680979 106.892721 
L 256.755362 106.366855 
L 259.829746 105.846112 
L 262.904129 105.330492 
L 265.978512 104.820017 
L 269.052895 104.314688 
L 272.127279 103.814527 
L 275.201662 103.319535 
L 278.276027 102.829733 
L 281.35041 102.345122 
L 284.424794 101.86568 
L 287.499177 101.391406 
L 290.57356 100.9223 
L 293.647944 100.458362 
L 296.722327 99.999548 
L 299.796692 99.545856 
L 302.871075 99.097241 
L 305.945459 98.653703 
L 309.019842 98.215174 
L 312.094225 97.781632 
L 315.16859 97.353052 
L 318.242974 96.929345 
L 321.317357 96.510488 
L 324.391722 96.096412 
L 327.466105 95.687025 
L 330.540489 95.282284 
L 333.614872 94.882119 
L 336.689255 94.486462 
L 339.763638 94.095176 
L 342.838022 93.708216 
L 345.912405 93.325445 
L 348.986788 92.946818 
L 352.061153 92.572176 
L 355.135537 92.201404 
L 358.20992 91.834456 
L 361.284303 91.471129 
L 364.358686 91.111331 
L 367.433052 90.754948 
L 370.507435 90.401844 
L 373.581818 90.051859 
" clip-path="url(#p280edd5a1f)" style="fill: none; stroke: #ff7f0e; stroke-width: 1.5; stroke-linecap: square"/>
   </g>
   <g id="line2d_14">
    <path d="M 69.218182 146.621684 
L 72.292562 145.529973 
L 75.366942 144.440971 
L 78.441323 143.354746 
L 81.515702 142.271345 
L 84.590082 141.190835 
L 87.664463 140.113285 
L 90.738842 139.038741 
L 93.813223 137.96727 
L 96.887604 136.898941 
L 99.961983 135.833799 
L 103.036364 134.771913 
L 106.110745 133.713329 
L 109.185124 132.658137 
L 112.259502 131.606383 
L 115.333886 130.558157 
L 118.408264 129.513484 
L 121.482643 128.472453 
L 124.557026 127.435134 
L 127.631405 126.401571 
L 130.705784 125.371856 
L 133.780167 124.346034 
L 136.854546 123.324197 
L 139.928925 122.306412 
L 143.003308 121.292726 
L 146.077691 120.283251 
L 149.152065 119.278011 
L 152.226449 118.27712 
L 155.300832 117.280623 
L 158.375206 116.288612 
L 161.44959 115.301176 
L 164.523973 114.318363 
L 167.598347 113.340262 
L 170.67273 112.366943 
L 173.747105 111.398496 
L 176.821488 110.435012 
L 179.895871 109.47656 
L 182.970245 108.52323 
L 186.044629 107.575115 
L 189.119003 106.632258 
L 192.193386 105.694775 
L 195.267769 104.762757 
L 198.342144 103.836293 
L 201.416527 102.915453 
L 204.49091 102.000305 
L 207.565284 101.091009 
L 210.639668 100.187586 
L 213.714051 99.290129 
L 216.788434 98.398773 
L 219.862817 97.513587 
L 222.937201 96.63464 
L 226.011566 95.762045 
L 229.085949 94.89587 
L 232.160332 94.036207 
L 235.234716 93.18317 
L 238.309099 92.336803 
L 241.383464 91.497221 
L 244.457847 90.664492 
L 247.532231 89.838708 
L 250.606596 89.019958 
L 253.680979 88.208289 
L 256.755362 87.403793 
L 259.829746 86.606536 
L 262.904129 85.816588 
L 265.978512 85.034039 
L 269.052895 84.258889 
L 272.127279 83.491253 
L 275.201662 82.731154 
L 278.276027 81.978658 
L 281.35041 81.23379 
L 284.424794 80.496572 
L 287.499177 79.767049 
L 290.57356 79.045267 
L 293.647944 78.331203 
L 296.722327 77.624881 
L 299.796692 76.926277 
L 302.871075 76.235436 
L 305.945459 75.552291 
L 309.019842 74.876819 
L 312.094225 74.209019 
L 315.16859 73.548824 
L 318.242974 72.896142 
L 321.317357 72.250974 
L 324.391722 71.613205 
L 327.466105 70.982744 
L 330.540489 70.359524 
L 333.614872 69.743384 
L 336.689255 69.134257 
L 339.763638 68.531983 
L 342.838022 67.936425 
L 345.912405 67.347447 
L 348.986788 66.76489 
L 352.061153 66.188571 
L 355.135537 65.618308 
L 358.20992 65.053943 
L 361.284303 64.4952 
L 364.358686 63.941945 
L 367.433052 63.393949 
L 370.507435 62.850962 
L 373.581818 62.312825 
" clip-path="url(#p280edd5a1f)" style="fill: none; stroke: #2ca02c; stroke-width: 1.5; stroke-linecap: square"/>
   </g>
   <g id="line2d_15">
    <path d="M 69.218182 146.621684 
L 72.292562 146.355667 
L 75.366942 146.079631 
L 78.441323 145.793418 
L 81.515702 145.496823 
L 84.590082 145.189687 
L 87.664463 144.871827 
L 90.738842 144.543107 
L 93.813223 144.203322 
L 96.887604 143.852312 
L 99.961983 143.489918 
L 103.036364 143.115936 
L 106.110745 142.730205 
L 109.185124 142.33259 
L 112.259502 141.922863 
L 115.333886 141.500886 
L 118.408264 141.066478 
L 121.482643 140.61948 
L 124.557026 140.159709 
L 127.631405 139.686983 
L 130.705784 139.201143 
L 133.780167 138.701984 
L 136.854546 138.189369 
L 139.928925 137.663116 
L 143.003308 137.123043 
L 146.077691 136.568946 
L 149.152065 136.000686 
L 152.226449 135.418061 
L 155.300832 134.820864 
L 158.375206 134.208959 
L 161.44959 133.582141 
L 164.523973 132.940229 
L 167.598347 132.283016 
L 170.67273 131.610321 
L 173.747105 130.921963 
L 176.821488 130.217712 
L 179.895871 129.49741 
L 182.970245 128.760875 
L 186.044629 128.007856 
L 189.119003 127.238171 
L 192.193386 126.451637 
L 195.267769 125.648028 
L 198.342144 124.827162 
L 201.416527 123.988786 
L 204.49091 123.132743 
L 207.565284 122.258805 
L 210.639668 121.366766 
L 213.714051 120.456377 
L 216.788434 119.527477 
L 219.862817 118.57984 
L 222.937201 117.613237 
L 226.011566 116.627486 
L 229.085949 115.62236 
L 232.160332 114.597631 
L 235.234716 113.553117 
L 238.309099 112.488613 
L 241.383464 111.403937 
L 244.457847 110.298861 
L 247.532231 109.173203 
L 250.606596 108.026758 
L 253.680979 106.859344 
L 256.755362 105.670801 
L 259.829746 104.460948 
L 262.904129 103.229625 
L 265.978512 101.976672 
L 269.052895 100.701931 
L 272.127279 99.405288 
L 275.201662 98.086605 
L 278.276027 96.745769 
L 281.35041 95.382667 
L 284.424794 93.997252 
L 287.499177 92.589411 
L 290.57356 91.159098 
L 293.647944 89.706313 
L 296.722327 88.230989 
L 299.796692 86.733147 
L 302.871075 85.212788 
L 305.945459 83.66998 
L 309.019842 82.104746 
L 312.094225 80.517222 
L 315.16859 78.9075 
L 318.242974 77.275715 
L 321.317357 75.622006 
L 324.391722 73.946599 
L 327.466105 72.249676 
L 330.540489 70.531466 
L 333.614872 68.792286 
L 336.689255 67.032388 
L 339.763638 65.252113 
L 342.838022 63.451825 
L 345.912405 61.631888 
L 348.986788 59.79269 
L 352.061153 57.934709 
L 355.135537 56.058377 
L 358.20992 54.164172 
L 361.284303 52.252595 
L 364.358686 50.324216 
L 367.433052 48.379512 
L 370.507435 46.419145 
L 373.581818 44.443636 
" clip-path="url(#p280edd5a1f)" style="fill: none; stroke: #d62728; stroke-width: 1.5; stroke-linecap: square"/>
   </g>
   <g id="line2d_16">
    <path d="M 69.218182 146.621684 
L 72.292562 146.634093 
L 75.366942 146.64748 
L 78.441323 146.661778 
L 81.515702 146.676885 
L 84.590082 146.69272 
L 87.664463 146.709181 
L 90.738842 146.726279 
L 93.813223 146.743833 
L 96.887604 146.761842 
L 99.961983 146.780239 
L 103.036364 146.798965 
L 106.110745 146.817885 
L 109.185124 146.837067 
L 112.259502 146.856385 
L 115.333886 146.875795 
L 118.408264 146.895284 
L 121.482643 146.914785 
L 124.557026 146.934262 
L 127.631405 146.95366 
L 130.705784 146.972979 
L 133.780167 146.992161 
L 136.854546 147.011217 
L 139.928925 147.030069 
L 143.003308 147.048761 
L 146.077691 147.067203 
L 149.152065 147.085417 
L 152.226449 147.103358 
L 155.300832 147.121014 
L 158.375206 147.13842 
L 161.44959 147.155507 
L 164.523973 147.17231 
L 167.598347 147.18876 
L 170.67273 147.204913 
L 173.747105 147.220726 
L 176.821488 147.236185 
L 179.895871 147.251291 
L 182.970245 147.266102 
L 186.044629 147.280548 
L 189.119003 147.29463 
L 192.193386 147.30837 
L 195.267769 147.321757 
L 198.342144 147.33478 
L 201.416527 147.347473 
L 204.49091 147.359768 
L 207.565284 147.371755 
L 210.639668 147.383378 
L 213.714051 147.394625 
L 216.788434 147.40552 
L 219.862817 147.416084 
L 222.937201 147.426272 
L 226.011566 147.436131 
L 229.085949 147.445625 
L 232.160332 147.454766 
L 235.234716 147.463532 
L 238.309099 147.471979 
L 241.383464 147.480073 
L 244.457847 147.487802 
L 247.532231 147.495224 
L 250.606596 147.502248 
L 253.680979 147.508942 
L 256.755362 147.515283 
L 259.829746 147.521316 
L 262.904129 147.526974 
L 265.978512 147.532302 
L 269.052895 147.537288 
L 272.127279 147.541955 
L 275.201662 147.54627 
L 278.276027 147.550277 
L 281.35041 147.553988 
L 284.424794 147.557369 
L 287.499177 147.560431 
L 290.57356 147.563243 
L 293.647944 147.565782 
L 296.722327 147.568024 
L 299.796692 147.57005 
L 302.871075 147.571815 
L 305.945459 147.573375 
L 309.019842 147.574706 
L 312.094225 147.575902 
L 315.16859 147.576949 
L 318.242974 147.57786 
L 321.317357 147.578679 
L 324.391722 147.579408 
L 327.466105 147.58008 
L 330.540489 147.580774 
L 333.614872 147.581491 
L 336.689255 147.582277 
L 339.763638 147.583131 
L 342.838022 147.584166 
L 345.912405 147.58535 
L 348.986788 147.586751 
L 352.061153 147.588401 
L 355.135537 147.590314 
L 358.20992 147.592613 
L 361.284303 147.595232 
L 364.358686 147.598294 
L 367.433052 147.601766 
L 370.507435 147.605716 
L 373.581818 147.61019 
" clip-path="url(#p280edd5a1f)" style="fill: none; stroke: #9467bd; stroke-width: 1.5; stroke-linecap: square"/>
   </g>
   <g id="patch_3">
    <path d="M 54 252 
L 54 34.56 
" style="fill: none; stroke: #000000; stroke-width: 0.8; stroke-linejoin: miter; stroke-linecap: square"/>
   </g>
   <g id="patch_4">
    <path d="M 388.8 252 
L 388.8 34.56 
" style="fill: none; stroke: #000000; stroke-width: 0.8; stroke-linejoin: miter; stroke-linecap: square"/>
   </g>
   <g id="patch_5">
    <path d="M 54 252 
L 388.8 252 
" style="fill: none; stroke: #000000; stroke-width: 0.8; stroke-linejoin: miter; stroke-linecap: square"/>
   </g>
   <g id="patch_6">
    <path d="M 54 34.56 
L 388.8 34.56 
" style="fill: none; stroke: #000000; stroke-width: 0.8; stroke-linejoin: miter; stroke-linecap: square"/>
   </g>
   <g id="legend_1">
    <g id="patch_7">
     <path d="M 63.1 135.55156 
L 115.792528 135.55156 
Q 118.392528 135.55156 118.392528 132.95156 
L 118.392528 43.66 
Q 118.392528 41.06 115.792528 41.06 
L 63.1 41.06 
Q 60.5 41.06 60.5 43.66 
L 60.5 132.95156 
Q 60.5 135.55156 63.1 135.55156 
z
" style="fill: #ffffff; opacity: 0.8; stroke: #cccccc; stroke-linejoin: miter"/>
    </g>
    <g id="line2d_17">
     <path d="M 65.7 50.81 
L 78.7 50.81 
L 91.7 50.81 
" style="fill: none; stroke: #1f77b4; stroke-width: 1.5; stroke-linecap: square"/>
    </g>
    <g id="text_13">
     <!-- $u$ -->
     <g transform="translate(102.1 55.36) scale(0.13 -0.13)">
      <defs>
       <path id="CMMI12-75" d="M 2182 370 
C 2266 12 2573 -64 2726 -64 
C 2931 -64 3085 70 3187 287 
C 3296 517 3379 893 3379 913 
C 3379 944 3354 970 3315 970 
C 3258 970 3251 938 3226 842 
C 3110 402 2995 64 2739 64 
C 2547 64 2547 274 2547 357 
C 2547 504 2566 568 2630 836 
C 2675 1008 2720 1181 2758 1359 
L 3021 2400 
C 3066 2560 3066 2572 3066 2591 
C 3066 2687 2989 2752 2893 2752 
C 2707 2752 2662 2591 2624 2432 
C 2560 2183 2214 810 2170 587 
C 2163 587 1914 64 1446 64 
C 1114 64 1050 351 1050 587 
C 1050 951 1229 1462 1395 1890 
C 1472 2094 1504 2177 1504 2305 
C 1504 2579 1306 2816 998 2816 
C 410 2816 173 1890 173 1838 
C 173 1813 198 1781 243 1781 
C 301 1781 307 1807 333 1896 
C 486 2445 736 2687 979 2687 
C 1043 2687 1146 2681 1146 2477 
C 1146 2311 1075 2126 979 1883 
C 698 1123 666 881 666 689 
C 666 38 1158 -64 1421 -64 
C 1830 -64 2054 217 2182 370 
z
" transform="scale(0.015625)"/>
      </defs>
      <use xlink:href="#CMMI12-75" transform="scale(0.996264)"/>
     </g>
    </g>
    <g id="line2d_18">
     <path d="M 65.7 68.928312 
L 78.7 68.928312 
L 91.7 68.928312 
" style="fill: none; stroke: #ff7f0e; stroke-width: 1.5; stroke-linecap: square"/>
    </g>
    <g id="text_14">
     <!-- $\rho$ -->
     <g transform="translate(102.1 73.478312) scale(0.13 -0.13)">
      <defs>
       <path id="CMMI12-1a" d="M 198 -1085 
C 192 -1116 179 -1154 179 -1191 
C 179 -1287 256 -1351 352 -1351 
C 448 -1351 538 -1287 576 -1198 
C 602 -1141 781 -390 986 389 
C 1114 70 1350 -64 1600 -64 
C 2323 -64 3142 830 3142 1794 
C 3142 2477 2726 2816 2285 2816 
C 1722 2816 1037 2234 826 1385 
L 198 -1085 
z
M 1594 64 
C 1158 64 1050 568 1050 645 
C 1050 683 1210 1289 1229 1385 
C 1555 2656 2182 2687 2278 2687 
C 2566 2687 2726 2426 2726 2049 
C 2726 1724 2554 1091 2445 823 
C 2253 383 1920 64 1594 64 
z
" transform="scale(0.015625)"/>
      </defs>
      <use xlink:href="#CMMI12-1a" transform="scale(0.996264)"/>
     </g>
    </g>
    <g id="line2d_19">
     <path d="M 65.7 87.046624 
L 78.7 87.046624 
L 91.7 87.046624 
" style="fill: none; stroke: #2ca02c; stroke-width: 1.5; stroke-linecap: square"/>
    </g>
    <g id="text_15">
     <!-- $p$ -->
     <g transform="translate(102.1 91.596624) scale(0.13 -0.13)">
      <defs>
       <path id="CMMI12-70" d="M 275 -794 
C 230 -981 205 -1031 -58 -1031 
C -135 -1031 -199 -1031 -199 -1152 
C -199 -1165 -192 -1216 -122 -1216 
C -39 -1216 51 -1204 134 -1204 
L 410 -1204 
C 544 -1204 870 -1216 1005 -1216 
C 1043 -1216 1120 -1216 1120 -1101 
C 1120 -1031 1075 -1031 966 -1031 
C 672 -1031 653 -987 653 -937 
C 653 -863 941 217 979 364 
C 1050 185 1222 -64 1555 -64 
C 2278 -64 3059 874 3059 1813 
C 3059 2400 2726 2816 2246 2816 
C 1837 2816 1491 2419 1421 2330 
C 1370 2649 1120 2816 864 2816 
C 678 2816 531 2726 410 2483 
C 294 2253 205 1864 205 1838 
C 205 1813 230 1781 275 1781 
C 326 1781 333 1787 371 1934 
C 467 2311 589 2687 845 2687 
C 992 2687 1043 2585 1043 2394 
C 1043 2241 1024 2177 998 2062 
L 275 -794 
z
M 1382 1992 
C 1427 2170 1606 2356 1709 2445 
C 1779 2509 1990 2687 2234 2687 
C 2515 2687 2643 2407 2643 2075 
C 2643 1768 2464 1047 2304 715 
C 2144 370 1850 64 1555 64 
C 1120 64 1050 613 1050 638 
C 1050 657 1062 708 1069 740 
L 1382 1992 
z
" transform="scale(0.015625)"/>
      </defs>
      <use xlink:href="#CMMI12-70" transform="scale(0.996264)"/>
     </g>
    </g>
    <g id="line2d_20">
     <path d="M 65.7 105.164936 
L 78.7 105.164936 
L 91.7 105.164936 
" style="fill: none; stroke: #d62728; stroke-width: 1.5; stroke-linecap: square"/>
    </g>
    <g id="text_16">
     <!-- $A$ -->
     <g transform="translate(102.1 109.714936) scale(0.13 -0.13)">
      <defs>
       <path id="CMMI12-41" d="M 1088 720 
C 864 335 646 205 339 185 
C 269 179 218 179 218 64 
C 218 25 250 0 294 0 
C 410 0 698 12 813 12 
C 998 12 1203 0 1382 0 
C 1421 0 1498 0 1498 121 
C 1498 179 1446 185 1408 185 
C 1261 198 1139 250 1139 407 
C 1139 498 1178 570 1261 714 
L 1747 1536 
L 3379 1536 
C 3386 1477 3386 1425 3392 1366 
C 3411 1196 3488 518 3488 394 
C 3488 198 3162 185 3059 185 
C 2989 185 2918 185 2918 70 
C 2918 0 2976 0 3014 0 
C 3123 0 3251 12 3360 12 
L 3725 12 
C 4115 12 4397 0 4403 0 
C 4448 0 4518 0 4518 121 
C 4518 185 4461 185 4365 185 
C 4013 185 4006 244 3987 440 
L 3597 4403 
C 3584 4531 3558 4544 3488 4544 
C 3424 4544 3386 4531 3328 4435 
L 1088 720 
z
M 1856 1721 
L 3142 3831 
L 3360 1721 
L 1856 1721 
z
" transform="scale(0.015625)"/>
      </defs>
      <use xlink:href="#CMMI12-41" transform="scale(0.996264)"/>
     </g>
    </g>
    <g id="line2d_21">
     <path d="M 65.7 123.283248 
L 78.7 123.283248 
L 91.7 123.283248 
" style="fill: none; stroke: #9467bd; stroke-width: 1.5; stroke-linecap: square"/>
    </g>
    <g id="text_17">
     <!-- $\dot m$ -->
     <g transform="translate(102.1 127.833248) scale(0.13 -0.13)">
      <defs>
       <path id="CMR17-5f" d="M 1056 3961 
C 1056 4115 934 4224 800 4224 
C 646 4224 538 4102 538 3961 
C 538 3807 659 3699 794 3699 
C 947 3699 1056 3820 1056 3961 
z
" transform="scale(0.015625)"/>
       <path id="CMMI12-6d" d="M 1318 1870 
C 1331 1909 1491 2228 1728 2432 
C 1894 2585 2112 2687 2362 2687 
C 2618 2687 2707 2496 2707 2241 
C 2707 2202 2707 2075 2630 1775 
L 2470 1117 
C 2419 925 2298 453 2285 383 
C 2259 287 2221 121 2221 95 
C 2221 6 2291 -64 2387 -64 
C 2579 -64 2611 83 2669 313 
L 3053 1838 
C 3066 1890 3398 2687 4102 2687 
C 4358 2687 4448 2496 4448 2241 
C 4448 1883 4198 1187 4058 804 
C 4000 651 3968 568 3968 453 
C 3968 166 4166 -64 4474 -64 
C 5069 -64 5293 874 5293 913 
C 5293 945 5267 970 5229 970 
C 5171 970 5165 951 5133 842 
C 4986 332 4749 64 4493 64 
C 4429 64 4326 70 4326 274 
C 4326 440 4403 645 4429 715 
C 4544 1021 4832 1775 4832 2145 
C 4832 2528 4608 2816 4122 2816 
C 3693 2816 3347 2573 3091 2196 
C 3072 2541 2861 2816 2381 2816 
C 1811 2816 1510 2413 1395 2253 
C 1376 2617 1114 2816 832 2816 
C 646 2816 499 2726 378 2483 
C 262 2253 173 1864 173 1838 
C 173 1813 198 1781 243 1781 
C 294 1781 301 1787 339 1934 
C 435 2311 557 2687 813 2687 
C 960 2687 1011 2585 1011 2394 
C 1011 2253 947 2004 902 1807 
L 723 1117 
C 698 996 627 708 595 593 
C 550 427 480 127 480 95 
C 480 6 550 -64 646 -64 
C 723 -64 813 -26 864 70 
C 877 102 934 325 966 453 
L 1107 1028 
L 1318 1870 
z
" transform="scale(0.015625)"/>
      </defs>
      <use xlink:href="#CMR17-5f" transform="translate(30.228091 0.006461) scale(0.996264)"/>
      <use xlink:href="#CMMI12-6d" transform="scale(0.996264)"/>
     </g>
    </g>
   </g>
  </g>
 </g>
 <defs>
  <clipPath id="p280edd5a1f">
   <rect x="54" y="34.56" width="334.8" height="217.44"/>
  </clipPath>
 </defs>
</svg>
